<svg width="208" height="180" viewBox="0 0 208 180" fill="none" xmlns="http://www.w3.org/2000/svg">
<path d="M156.446 39.7158C154.456 39.7158 152.474 39.8289 150.508 40.0558C148.139 30.2726 142.936 21.3619 135.427 14.4065C125.872 5.55732 113.435 0.68383 100.405 0.68383C76.4323 0.68383 55.9989 17.0539 50.3776 39.7293C22.4906 40.3543 0 63.2348 0 91.2688C0 119.697 23.1267 142.824 51.5535 142.824H61.1844C63.8492 147.087 66.812 151.161 70.0626 155.023C82.8034 170.157 95.6103 176.922 97.0209 177.64C99.1715 178.737 101.585 179.317 104 179.317C106.401 179.317 108.802 178.743 110.936 177.662C112.356 176.945 125.175 170.214 137.932 155.081C141.2 151.204 144.178 147.11 146.855 142.824H156.446C184.873 142.824 208 119.697 208 91.2688C208 62.8425 184.873 39.7158 156.446 39.7158ZM146.729 121.626C142.823 131.574 137.374 140.732 130.535 148.846C118.831 162.729 107.067 168.777 106.572 169.028C105.764 169.438 104.882 169.642 104 169.642C103.113 169.642 102.227 169.435 101.415 169.022C100.921 168.77 89.1623 162.689 77.4631 148.792C70.6247 140.669 65.177 131.51 61.2705 121.569C56.4096 109.198 53.9446 95.601 53.9446 81.1552C53.9446 78.5948 55.6535 76.3489 58.1215 75.6659C88.1818 67.3561 100.204 57.3832 100.322 57.2831C102.461 55.4734 105.556 55.4531 107.678 57.2831C107.778 57.3667 120.167 67.4528 149.879 75.6659C152.346 76.3489 154.055 78.5948 154.055 81.1552C154.055 95.632 151.59 109.249 146.729 121.626Z" fill="#0062FF"/>
<path d="M86.1759 141.457C93.2909 149.909 100.334 155.005 103.997 157.342L104 68.6379C98.3942 72.3379 86.142 79.259 65.4117 85.4225C66.2122 107.195 73.1875 126.029 86.1759 141.457Z" fill="#0062FF"/>
</svg>
