<svg width="200" height="177" viewBox="0 0 200 177" fill="none" xmlns="http://www.w3.org/2000/svg">
<g filter="url(#filter0_d_1_1492)">
<path d="M186.766 0.237122H14.2081C6.9022 0.237122 0.987 6.15854 0.987 13.4582V123.829C0.987 131.129 6.9022 137.05 14.2081 137.05H86.4948V139.995C86.4948 147.295 80.5796 153.216 73.2738 153.216H53.8464V168.763H82.2925H118.682H147.128V153.216H127.7C120.394 153.216 114.479 147.295 114.479 139.995V137.05H186.766C194.072 137.05 199.987 131.129 199.987 123.829V13.4582C199.987 6.15854 194.072 0.237122 186.766 0.237122ZM181.331 107.766C181.331 110.201 179.357 112.175 176.922 112.175H24.0523C21.6169 112.175 19.6432 110.201 19.6432 107.766V23.3025C19.6432 20.867 21.6169 18.8934 24.0523 18.8934H176.922C179.357 18.8934 181.331 20.867 181.331 23.3025V107.766H181.331Z" fill="#0062FF"/>
</g>
<defs>
<filter id="filter0_d_1_1492" x="-3.013" y="0.237122" width="207" height="176.526" filterUnits="userSpaceOnUse" color-interpolation-filters="sRGB">
<feFlood flood-opacity="0" result="BackgroundImageFix"/>
<feColorMatrix in="SourceAlpha" type="matrix" values="0 0 0 0 0 0 0 0 0 0 0 0 0 0 0 0 0 0 127 0" result="hardAlpha"/>
<feOffset dy="4"/>
<feGaussianBlur stdDeviation="2"/>
<feComposite in2="hardAlpha" operator="out"/>
<feColorMatrix type="matrix" values="0 0 0 0 0 0 0 0 0 0 0 0 0 0 0 0 0 0 0.25 0"/>
<feBlend mode="normal" in2="BackgroundImageFix" result="effect1_dropShadow_1_1492"/>
<feBlend mode="normal" in="SourceGraphic" in2="effect1_dropShadow_1_1492" result="shape"/>
</filter>
</defs>
</svg>
