<svg width="196" height="198" viewBox="0 0 196 198" fill="none" xmlns="http://www.w3.org/2000/svg">
<path d="M189.698 23.4359C174.176 30.2882 153.433 31.2948 134.056 23.2631C124.634 19.3572 104.776 9.75421 97.9996 0C91.2239 9.75421 71.3659 19.3572 61.9435 23.2627C42.5666 31.2948 21.8245 30.2878 6.30125 23.4359C3.51571 22.2054 0.463341 24.2403 0.463341 27.2857C0.463341 190.836 97.9996 198 97.9996 198C97.9996 198 195.537 190.836 195.537 27.2857C195.537 24.2403 192.484 22.2054 189.698 23.4359ZM33.4779 48.4675C45.8657 48.4675 57.9591 46.0582 69.4223 41.3062C75.6596 38.7206 87.4894 33.3746 97.9992 26.1244C108.509 33.3746 120.34 38.7206 126.577 41.3062C138.042 46.0586 150.135 48.4682 162.522 48.4675C166.875 48.4675 171.204 48.1577 175.449 47.5521C169.048 160.977 109.143 176.414 97.9996 178.304C86.8567 176.414 26.9516 160.977 20.5503 47.5517C24.7957 48.1585 29.125 48.4675 33.4779 48.4675Z" fill="#0062FF"/>
<path d="M97.9996 158.276C109.578 154.917 144.284 138.987 153.949 67.6792C141.978 66.779 130.288 63.9888 119.099 59.3497C114.321 57.3693 106.418 53.8541 97.9996 49.1009C89.5815 53.8541 81.6797 57.3693 76.9018 59.3497C65.7132 63.988 54.025 66.7782 42.0518 67.6792C51.7163 138.987 86.4216 154.917 97.9996 158.276Z" fill="#0062FF"/>
</svg>
