<svg width="204" height="156" viewBox="0 0 204 156" fill="none" xmlns="http://www.w3.org/2000/svg">

<path d="M203.27 128.196L185.104 105.355V9.29812C185.104 4.65154 181.335 0.883118 176.689 0.883118H27.3113C22.6647 0.883118 18.8983 4.65154 18.8983 9.29812V105.355L0.73193 128.196C0.258188 128.792 0 129.529 0 130.294V140.404C0 144.113 3.00502 147.117 6.71327 147.117H197.287C200.996 147.117 204 144.113 204 140.404V130.294C204 129.529 203.745 128.792 203.27 128.196ZM30.7697 12.7566H173.23V93.4824H30.7697V12.7566ZM121.173 139.133H82.8268V128.981H121.173V139.133Z" fill="#0062FF"/>

<path d="M81.4422 38.7108C81.3956 38.7108 81.3526 38.7251 81.3187 38.749L58.3986 54.3941C58.338 54.4387 58.3022 54.5044 58.3022 54.5801V58.786C58.3022 58.8613 58.338 58.9307 58.3986 58.9685L81.3187 74.6136C81.353 74.6411 81.396 74.655 81.4422 74.655C81.4769 74.655 81.5128 74.6446 81.5438 74.6275C81.616 74.5893 81.6626 74.5135 81.6626 74.4311V67.7278C81.6626 67.6592 81.6267 67.5867 81.5662 67.5453L65.6526 56.6811L81.5662 45.8205C81.6267 45.7758 81.6626 45.7101 81.6626 45.6344V38.9347C81.6626 38.8522 81.616 38.7729 81.5438 38.7386C81.5128 38.7179 81.4765 38.7108 81.4422 38.7108Z" fill="#0062FF"/>

<path d="M121.95 38.749C121.914 38.7251 121.872 38.7108 121.825 38.7108C121.79 38.7108 121.755 38.7179 121.722 38.7386C121.652 38.7729 121.605 38.8522 121.605 38.9347V45.638C121.605 45.7105 121.641 45.7794 121.702 45.8205L137.615 56.6811L121.702 67.5453C121.641 67.5867 121.605 67.6588 121.605 67.7309V74.4307C121.605 74.5131 121.652 74.5889 121.722 74.6271C121.755 74.6442 121.79 74.6546 121.825 74.6546C121.872 74.6546 121.913 74.641 121.95 74.6132L144.868 58.9681C144.933 58.9303 144.967 58.8613 144.967 58.7856V54.5797C144.967 54.504 144.933 54.4383 144.868 54.3937L121.95 38.749Z" fill="#0062FF"/>


<path d="M112.11 35.0424H105.703C105.609 35.0424 105.525 35.1009 105.496 35.1906L90.9473 77.3759C90.925 77.4413 90.937 77.517 90.9768 77.572C91.0203 77.6305 91.0872 77.6684 91.1577 77.6684H97.5646C97.6594 77.6684 97.7439 77.6062 97.773 77.517L112.319 35.3388C112.343 35.2703 112.331 35.1942 112.292 35.1356C112.248 35.077 112.181 35.0424 112.11 35.0424Z" fill="#0062FF"/>

</svg>

