<svg width="176" height="174" viewBox="0 0 176 174" fill="none" xmlns="http://www.w3.org/2000/svg">

<path d="M13 84C13 48.6446 13 30.967 23.9835 19.9835C34.967 9 52.6446 9 88 9C123.355 9 141.033 9 152.016 19.9835C163 30.967 163 48.6446 163 84C163 119.355 163 137.033 152.016 148.016C141.033 159 123.355 159 88 159C52.6446 159 34.967 159 23.9835 148.016C13 137.033 13 119.355 13 84Z" stroke="#0062FF" stroke-width="18" shape-rendering="crispEdges"/>

<path d="M125.5 106.5H106.75H88" stroke="#0062FF" stroke-width="18" stroke-linecap="round" shape-rendering="crispEdges"/>

<path d="M50.5 69L52.258 70.4648C61.8706 78.4755 66.677 82.4805 66.677 87.75C66.677 93.0195 61.8706 97.0245 52.258 105.035L50.5 106.5" stroke="#0062FF" stroke-width="18" stroke-linecap="round" shape-rendering="crispEdges"/>

</svg>
