<svg width="196" height="196" viewBox="0 0 196 196" fill="none" xmlns="http://www.w3.org/2000/svg">
<path d="M48.4892 117.04C45.9234 119.614 45.9234 123.778 48.4892 126.35C49.4831 127.347 73.1271 150.772 98 150.772C122.872 150.772 146.518 127.348 147.512 126.351C150.078 123.778 150.078 119.613 147.512 117.04C146.518 116.043 122.872 92.6202 98 92.6202C73.1271 92.6202 49.4831 116.044 48.4892 117.04ZM98 130.364C93.3409 130.364 89.5502 126.476 89.5502 121.696C89.5502 116.917 93.3409 113.029 98 113.029C102.66 113.029 106.451 116.917 106.451 121.696C106.451 126.476 102.66 130.364 98 130.364ZM79.124 111.037C77.3712 114.192 76.3661 117.827 76.3661 121.696C76.3661 125.565 77.3705 129.2 79.1246 132.355C72.648 129.068 66.9541 124.867 63.0876 121.696C66.9548 118.523 72.6474 114.323 79.124 111.037ZM116.878 132.354C118.631 129.199 119.636 125.564 119.636 121.696C119.636 117.827 118.631 114.193 116.878 111.038C123.354 114.324 129.047 118.525 132.914 121.696C129.046 124.868 123.354 129.068 116.878 132.354Z" fill="#0062FF"/>

<path d="M193.82 84.8568L102.507 2.58165C100.001 0.324021 96.1944 0.322041 93.686 2.57703L2.18504 84.8515C0.155085 86.6775 -0.540484 89.5654 0.438196 92.1141C1.4149 94.6634 3.86259 96.3469 6.59339 96.3469H27.3021V188.52C27.3021 192.162 30.254 195.113 33.8941 195.113H162.107C165.747 195.113 168.699 192.161 168.699 188.52V96.3469H189.407C192.137 96.3469 194.583 94.6647 195.561 92.1174C196.541 89.5694 195.848 86.6828 193.82 84.8568ZM155.514 181.928H40.4869V92.7086L98.0013 41.4484L155.513 92.7086V181.928H155.514ZM164.618 83.1614L102.388 27.696C99.8887 25.4675 96.1146 25.4681 93.6154 27.6954L31.3831 83.1614H23.786L98.0904 16.3492L172.242 83.1614H164.618Z" fill="#0062FF"/>

</svg>
