<svg width="175" height="173" viewBox="0 0 175 173" fill="none" xmlns="http://www.w3.org/2000/svg">

<path d="M12.8618 156.375H162.112M12.8618 131.75H162.112M36.2719 8.62804C39.7127 11.6361 41.8826 16.0359 41.8826 20.9375C41.8826 30.0042 34.458 37.3542 25.2993 37.3542C20.3479 37.3542 15.9034 35.206 12.8649 31.7998M36.2719 8.62804C37.2513 8.625 38.2904 8.625 39.3951 8.625H135.578C136.683 8.625 137.723 8.625 138.702 8.62804M36.2719 8.62804C29.0183 8.65028 25.0419 8.83784 21.9165 10.4143C18.7961 11.9882 16.2592 14.4996 14.6693 17.5887C13.0768 20.6826 12.8874 24.6191 12.8649 31.7998M12.8649 31.7998C12.8618 32.7693 12.8618 33.798 12.8618 34.8917V80.8583C12.8618 81.9517 12.8618 82.981 12.8649 83.9504M138.702 8.62804C135.261 11.6361 133.091 16.0359 133.091 20.9375C133.091 30.0042 140.515 37.3542 149.674 37.3542C154.625 37.3542 159.07 35.206 162.108 31.7998M138.702 8.62804C145.955 8.65028 149.932 8.83784 153.057 10.4143C156.177 11.9882 158.715 14.4996 160.304 17.5887C161.897 20.6826 162.086 24.6191 162.108 31.7998M12.8649 83.9504C15.9034 80.5439 20.3479 78.3958 25.2993 78.3958C34.458 78.3958 41.8826 85.7456 41.8826 94.8125C41.8826 99.7137 39.7127 104.114 36.2719 107.122M12.8649 83.9504C12.8874 91.1311 13.0768 95.067 14.6693 98.1615C16.2592 101.25 18.7961 103.762 21.9165 105.336C25.0419 106.912 29.0183 107.1 36.2719 107.122M36.2719 107.122C37.2513 107.125 38.2904 107.125 39.3951 107.125H135.578C136.683 107.125 137.723 107.125 138.702 107.122M138.702 107.122C135.261 104.114 133.091 99.7137 133.091 94.8125C133.091 85.7456 140.515 78.3958 149.674 78.3958C154.627 78.3958 159.073 80.5456 162.112 83.9537M138.702 107.122C145.955 107.1 149.932 106.912 153.057 105.336C156.177 103.762 158.715 101.25 160.304 98.1615C161.896 95.0678 162.089 91.1319 162.112 83.9537M162.112 83.9537C162.115 82.9835 162.112 81.9533 162.112 80.8583V34.8917C162.112 33.798 162.112 32.7693 162.108 31.7998M104.07 57.875C104.07 66.9419 96.6458 74.2917 87.4868 74.2917C78.3278 74.2917 70.9035 66.9419 70.9035 57.875C70.9035 48.8083 78.3278 41.4583 87.4868 41.4583C96.6458 41.4583 104.07 48.8083 104.07 57.875Z" stroke="#0062FF" stroke-width="16" stroke-linecap="round" stroke-linejoin="round" shape-rendering="crispEdges"/>

</svg>
