<svg width="150" height="166" viewBox="0 0 150 166" fill="none" xmlns="http://www.w3.org/2000/svg">

<path d="M90.6537 51.5833V33.5667C90.6537 24.7925 90.6537 20.4054 88.946 17.0542C87.4444 14.1062 85.0474 11.7096 82.0997 10.2076C78.7486 8.5 74.3611 8.5 65.587 8.5H37.387C28.6129 8.5 24.2258 8.5 20.8745 10.2076C17.9266 11.7096 15.5299 14.1062 14.0279 17.0542C12.3203 20.4054 12.3203 24.7925 12.3203 33.5667V124.433C12.3203 133.207 12.3203 137.595 14.0279 140.946C15.5299 143.894 17.9266 146.291 20.8745 147.792C24.2258 149.5 28.6129 149.5 37.387 149.5H55.4037M12.3203 86.8333H51.487M12.3203 118.167H51.487M67.1537 47.6667L35.8203 47.6667M51.487 32V63.3333M123.554 90.75C123.554 97.2391 118.293 102.5 111.804 102.5C105.315 102.5 100.054 97.2391 100.054 90.75C100.054 84.2609 105.315 79 111.804 79C118.293 79 123.554 84.2609 123.554 90.75ZM137.654 149.5V145.583C137.654 134.768 128.886 126 118.07 126H106.32C95.5049 126 86.737 134.768 86.737 145.583V149.5H137.654Z" stroke="#0062FF" stroke-width="16" stroke-linecap="round" stroke-linejoin="round" shape-rendering="crispEdges"/>

</svg>
