<svg id="a45e3235-94bc-4135-9be9-aceaeaafcd54" data-name="Слой 1" xmlns="http://www.w3.org/2000/svg" xmlns:xlink="http://www.w3.org/1999/xlink" viewBox="0 0 508.08 484.9"><defs><style>.a1cf927d-1618-4796-a162-951107729cc0,.a4b8106c-b194-45c0-9dd7-d99f124c0c6f,.acaf0393-fd7e-4428-b296-1e011771a944,.b06ce21a-77ce-4fa4-a551-b0cf1fea4cd1,.b25cfff7-1b4a-4b3a-a04b-684987d52b92,.b307c7f7-aa91-4858-89d0-b75f8809b747,.ba4ba411-2204-40f4-89eb-bfd5ea08858d,.bcd504ff-f9da-4644-8065-f9dbf15779e0,.be06180a-a985-46b7-856b-b26168d0a3a9,.e19dc47c-ce3d-458d-b74e-b0c9bc44f054,.e4d1b480-b1f3-4a8d-9103-1d6b3e192116,.ebb7e762-57ac-4d04-8121-e794baccc75b{fill:none;}.f4191bd1-44cc-4761-be7a-9f6599ba6ccd{clip-path:url(#edb750fa-6334-475e-9529-c2a9c0de8869);}.fca2a0d4-82ee-4cbf-b727-04712a1703dd{fill:#eef8ff;}.b2d78684-dd55-41c0-8aa1-8abc31ed002b{fill:#591d0b;}.a3bbd41e-2f70-4549-8b6f-3db0ef2fcc30{fill:#e4a79a;}.e5d653f6-33ef-47b7-838f-d071c023a045{clip-path:url(#f6f5fe27-358b-416f-b4cd-5b3a0772c8b5);}.ba3d16f4-f7aa-473e-997a-9329c2ae2a37{fill:#ba6958;}.a9d08323-ce50-43e5-a7ae-fb544a4257d8{fill:#db8a79;}.b5c9fd81-677b-4c09-ab52-e9a8a1b9d3e8{fill:#b86e5c;}.a4b8106c-b194-45c0-9dd7-d99f124c0c6f{stroke:#2891d2;stroke-width:1.44px;}.a1cf927d-1618-4796-a162-951107729cc0,.a4b8106c-b194-45c0-9dd7-d99f124c0c6f,.acaf0393-fd7e-4428-b296-1e011771a944,.b06ce21a-77ce-4fa4-a551-b0cf1fea4cd1,.b25cfff7-1b4a-4b3a-a04b-684987d52b92,.b307c7f7-aa91-4858-89d0-b75f8809b747,.bcd504ff-f9da-4644-8065-f9dbf15779e0,.be06180a-a985-46b7-856b-b26168d0a3a9,.e19dc47c-ce3d-458d-b74e-b0c9bc44f054,.e4d1b480-b1f3-4a8d-9103-1d6b3e192116,.ebb7e762-57ac-4d04-8121-e794baccc75b{stroke-miterlimit:10;}.a4aa1ef3-06d9-41b8-977c-72a61f27d76c{fill:#774636;}.a0ebb7fd-0a67-472e-9d98-a7bc2fcaec9b{fill:#a84b35;}.b4e78018-1e0d-46e1-af33-7ddbe348690b{fill:#fff;}.a1cf927d-1618-4796-a162-951107729cc0,.acaf0393-fd7e-4428-b296-1e011771a944,.b307c7f7-aa91-4858-89d0-b75f8809b747,.e4d1b480-b1f3-4a8d-9103-1d6b3e192116,.ebb7e762-57ac-4d04-8121-e794baccc75b{stroke:#cce4f4;}.e4d1b480-b1f3-4a8d-9103-1d6b3e192116{stroke-width:0.75px;}.acaf0393-fd7e-4428-b296-1e011771a944{stroke-width:1.26px;}.a962279d-d296-4bff-a972-2059b8726eee{fill:#c3dff1;}.b06ce21a-77ce-4fa4-a551-b0cf1fea4cd1,.b25cfff7-1b4a-4b3a-a04b-684987d52b92,.bcd504ff-f9da-4644-8065-f9dbf15779e0,.e19dc47c-ce3d-458d-b74e-b0c9bc44f054{stroke:#a1c4d6;}.bcd504ff-f9da-4644-8065-f9dbf15779e0{stroke-width:0.42px;}.b06ce21a-77ce-4fa4-a551-b0cf1fea4cd1{stroke-width:1.24px;}.be06180a-a985-46b7-856b-b26168d0a3a9{stroke:#3550ae;stroke-width:4px;}.b09d3d46-53ba-49ae-ae29-6db0ebbd1f54{fill:#2891d2;}.ebb7e762-57ac-4d04-8121-e794baccc75b{stroke-width:1.14px;}.b25cfff7-1b4a-4b3a-a04b-684987d52b92{stroke-width:0.45px;}.e19dc47c-ce3d-458d-b74e-b0c9bc44f054{stroke-width:1.11px;}.b307c7f7-aa91-4858-89d0-b75f8809b747{stroke-width:1.13px;}.eb0a53f3-5a00-4a4e-9327-6949f39e9bbb{fill:#96c8e6;}.e0ba2db5-c51a-4450-8d28-7b52132cd9a6{fill:#00408a;}.b6a2bb2d-40fa-409a-bb53-08629ad4f6bd{fill:#3550ae;}.b446876b-5e3f-4323-958e-92ed12665718{fill:#cce4f4;}.a1cf927d-1618-4796-a162-951107729cc0{stroke-width:1.22px;}</style><clipPath id="edb750fa-6334-475e-9529-c2a9c0de8869" transform="translate(-48.01 -59.86)"><rect class="ba4ba411-2204-40f4-89eb-bfd5ea08858d" width="600" height="600"/></clipPath><clipPath id="f6f5fe27-358b-416f-b4cd-5b3a0772c8b5" transform="translate(-48.01 -59.86)"><path class="ba4ba411-2204-40f4-89eb-bfd5ea08858d" d="M310.17,119.79c-5.65,2.29-15.95,17.68-15.95,17.68s-.9,20.67.73,36.31c1.43,13.68,5.58,30.48,22,32.06,2.35.23-.93,15-.93,15s8.11,26.17,21.6,22.22c15.17-4.44,20.91-27.55,20.91-27.55a128.34,128.34,0,0,1,.42-47.22c2.51-20,.81-10.56.77-17.72-.14-22.82-23.4-32.43-39.54-32.43a27.42,27.42,0,0,0-10,1.63"/></clipPath></defs><title>Illustrations_10</title><g class="f4191bd1-44cc-4761-be7a-9f6599ba6ccd"><path class="fca2a0d4-82ee-4cbf-b727-04712a1703dd" d="M69.82,302.31c0-133.9,108.55-242.45,242.45-242.45S554.72,168.41,554.72,302.31,446.17,544.76,312.27,544.76,69.82,436.21,69.82,302.31" transform="translate(-48.01 -59.86)"/><path class="b2d78684-dd55-41c0-8aa1-8abc31ed002b" d="M371.27,138.62c0,.27-13.5,41.78-13.5,41.78l-4.55-41.3Z" transform="translate(-48.01 -59.86)"/><path class="a3bbd41e-2f70-4549-8b6f-3db0ef2fcc30" d="M294.22,137.47s-.9,20.67.73,36.31c1.43,13.68,5.58,30.48,22,32.06,2.35.23-.93,15-.93,15s8.11,26.17,21.6,22.21c15.17-4.44,20.91-27.55,20.91-27.55a128.34,128.34,0,0,1,.42-47.22c2.51-20,.81-10.55.77-17.72-.17-28.34-36-36.3-49.57-30.8-5.65,2.3-15.95,17.68-15.95,17.68" transform="translate(-48.01 -59.86)"/></g><g class="e5d653f6-33ef-47b7-838f-d071c023a045"><path class="ba3d16f4-f7aa-473e-997a-9329c2ae2a37" d="M317,206.4a46.58,46.58,0,0,0,33.81-15.81c-13.12,28-34.76,23.86-34.76,23.86s-4.95-4.83.95-8" transform="translate(-48.01 -59.86)"/><path class="a9d08323-ce50-43e5-a7ae-fb544a4257d8" d="M290.09,164.77c1.47-.86,5-1.65,6.89.82s6,8.15,2.66,9.87-11-2.06-12.3-5.62c-1-2.76,1.47-4.32,2.75-5.07" transform="translate(-48.01 -59.86)"/></g><g class="f4191bd1-44cc-4761-be7a-9f6599ba6ccd"><path class="b2d78684-dd55-41c0-8aa1-8abc31ed002b" d="M351,156.6s3.83-13.3-5.73-20c-5.67-4-8.56-14.38-8.56-14.38-14.35,17.82-39,11.92-47.56,22.95-3.19-6.32-10.64-25.48,4.88-36.95,5.14-3.8,8.06-12.22,27-14.42,10.07-1.17,19.86.33,28.06,10.6a16.83,16.83,0,0,0,9.77,5.9c8.81,1.83,12.45,11,13.12,14.56.81,4.23,1,25.8-15.57,39.4-.51-12.71-5.44-7.63-5.44-7.63" transform="translate(-48.01 -59.86)"/><path class="b2d78684-dd55-41c0-8aa1-8abc31ed002b" d="M305.14,158.26a2.37,2.37,0,1,1-2.24-2.75,2.53,2.53,0,0,1,2.24,2.75" transform="translate(-48.01 -59.86)"/><path class="b2d78684-dd55-41c0-8aa1-8abc31ed002b" d="M328.25,156.25A2.37,2.37,0,1,1,326,153.5a2.51,2.51,0,0,1,2.23,2.75" transform="translate(-48.01 -59.86)"/><path class="b5c9fd81-677b-4c09-ab52-e9a8a1b9d3e8" d="M309.87,163.45a17.23,17.23,0,0,0-1.61,3.82c-.13.64-.16,1.31.27,1.56,1.67,1.07,3.86,1.2,5.83,1.23a18.3,18.3,0,0,0,4.13-.55,11.59,11.59,0,0,1-4.09,1.17,9.59,9.59,0,0,1-6.35-1.25c-1.68-1.59.76-4.65,1.82-6" transform="translate(-48.01 -59.86)"/><path class="b2d78684-dd55-41c0-8aa1-8abc31ed002b" d="M315.31,145.29c4.83-3.8,16-4.2,17.86,2.92-2.87-1.63-5.42-1.73-8.52-2a70.51,70.51,0,0,1-9.34-.93" transform="translate(-48.01 -59.86)"/><path class="b2d78684-dd55-41c0-8aa1-8abc31ed002b" d="M307.36,148.48c-4.84,1.68-9.38.58-14.09,2.63,1-6.12,10.28-6.19,14.09-2.63" transform="translate(-48.01 -59.86)"/><path class="a4b8106c-b194-45c0-9dd7-d99f124c0c6f" d="M291,160.19a9.48,9.48,0,1,1,9,9.92A9.5,9.5,0,0,1,291,160.19Z" transform="translate(-48.01 -59.86)"/><path class="a4b8106c-b194-45c0-9dd7-d99f124c0c6f" d="M314.07,157.7a9.48,9.48,0,1,1,9.06,9.92A9.51,9.51,0,0,1,314.07,157.7Z" transform="translate(-48.01 -59.86)"/><line class="a4b8106c-b194-45c0-9dd7-d99f124c0c6f" x1="261.83" y1="97.78" x2="266.15" y2="97.6"/><line class="a4b8106c-b194-45c0-9dd7-d99f124c0c6f" x1="285.11" y1="96.11" x2="312.2" y2="88.37"/><path class="a3bbd41e-2f70-4549-8b6f-3db0ef2fcc30" d="M367.61,157.69c-2.37,6.89-7.91,11.36-12.37,10s-6.15-8.1-3.78-15,7.92-11.36,12.38-10,6.15,8.1,3.77,15" transform="translate(-48.01 -59.86)"/><path class="b5c9fd81-677b-4c09-ab52-e9a8a1b9d3e8" d="M366.15,153.88c-.57-5.53-2.75-10.26-8.35-5.33a8,8,0,0,0-2.57,6.28c0,1.26.63,2.31.86,3.5a12,12,0,0,1,.18,3.68,14,14,0,0,0-.56-3.59c-.33-1.19-1.06-2.29-1.1-3.54a8.51,8.51,0,0,1,2.65-6.92c6.05-5.15,9.09-.4,8.89,5.92" transform="translate(-48.01 -59.86)"/><path class="b5c9fd81-677b-4c09-ab52-e9a8a1b9d3e8" d="M363.92,155.31c-1-2.88-3-5.87-6.47-5.15-.45.05-.88.2-1.35.27a9.24,9.24,0,0,1,1.25-.65c3.72-1.47,6.54,2.05,6.57,5.53" transform="translate(-48.01 -59.86)"/><path class="a4aa1ef3-06d9-41b8-977c-72a61f27d76c" d="M338.68,120.93a37.13,37.13,0,0,0,3.38-2c1.65-1,5-3,6.68-4,1.11-.67,2.22-1.31,3.31-2.09a11.11,11.11,0,0,1-2.66,3c-3.11,2.38-6.74,4.71-10.71,5" transform="translate(-48.01 -59.86)"/><path class="a4aa1ef3-06d9-41b8-977c-72a61f27d76c" d="M295,109.2c6.39-3.88,15-7,22.44-5.15-7.65.15-15.14,3.06-22.44,5.15" transform="translate(-48.01 -59.86)"/><path class="a4aa1ef3-06d9-41b8-977c-72a61f27d76c" d="M290,138.74c3.41-6.2,10.8-9.56,17.74-9.56l3,0c7.81.06,15-4.37,19.61-10.59a23.54,23.54,0,0,1-8.08,8.66,22.07,22.07,0,0,1-10,3.32c-1,.09-3.42,0-4.47,0-6.71,0-13.63,2.7-17.76,8.16" transform="translate(-48.01 -59.86)"/><path class="a4aa1ef3-06d9-41b8-977c-72a61f27d76c" d="M298.64,121.78c-4.15,2.27-10,4.29-10.1,9.84-2.17-5.8,5.22-9.73,10.1-9.84" transform="translate(-48.01 -59.86)"/><path class="a4aa1ef3-06d9-41b8-977c-72a61f27d76c" d="M361,121.9c5.12,4.35,5.8,12.13,3.89,18.22-.31.87-.65,1.74-1,2.58.07-.93.22-1.83.34-2.73.74-6.17.28-12.71-3.2-18.07" transform="translate(-48.01 -59.86)"/><path class="a9d08323-ce50-43e5-a7ae-fb544a4257d8" d="M342.09,162.39c-1.39-1-4.86-2.08-6.94.21s-6.71,7.6-3.5,9.61,11.18-1.1,12.74-4.53c1.22-2.68-1.09-4.44-2.3-5.29" transform="translate(-48.01 -59.86)"/><path class="a0ebb7fd-0a67-472e-9d98-a7bc2fcaec9b" d="M306.38,181.87s12.44,15.9,21.15-4.76c-5.29,1.62-14.61,6.07-21.15,4.76" transform="translate(-48.01 -59.86)"/><path class="b4e78018-1e0d-46e1-af33-7ddbe348690b" d="M308.3,182.59s.23.56,1.85,1.65c1.85,1.24,12.76-.94,14.58-3.9a7.67,7.67,0,0,0,.86-1.83c-4.31,1.35-11.88,4.92-17.29,4.08" transform="translate(-48.01 -59.86)"/><polygon class="b4e78018-1e0d-46e1-af33-7ddbe348690b" points="204.26 446.53 118.76 416.93 192.08 352.42 262.51 364.78 204.26 446.53"/><polygon class="e4d1b480-b1f3-4a8d-9103-1d6b3e192116" points="204.26 446.53 118.76 416.93 192.08 352.42 262.51 364.78 204.26 446.53"/><line class="acaf0393-fd7e-4428-b296-1e011771a944" x1="192.83" y1="358.27" x2="250.73" y2="369.06"/><line class="acaf0393-fd7e-4428-b296-1e011771a944" x1="188.16" y1="362.52" x2="246.95" y2="374.05"/><line class="acaf0393-fd7e-4428-b296-1e011771a944" x1="183.29" y1="366.96" x2="242.99" y2="379.3"/><line class="acaf0393-fd7e-4428-b296-1e011771a944" x1="178.18" y1="371.61" x2="238.82" y2="384.81"/><line class="acaf0393-fd7e-4428-b296-1e011771a944" x1="172.83" y1="376.48" x2="234.43" y2="390.62"/><line class="acaf0393-fd7e-4428-b296-1e011771a944" x1="167.23" y1="381.58" x2="229.81" y2="396.74"/><line class="acaf0393-fd7e-4428-b296-1e011771a944" x1="161.35" y1="386.94" x2="224.92" y2="403.21"/><line class="acaf0393-fd7e-4428-b296-1e011771a944" x1="155.17" y1="392.57" x2="219.75" y2="410.05"/><line class="acaf0393-fd7e-4428-b296-1e011771a944" x1="148.66" y1="398.49" x2="214.28" y2="417.3"/><line class="acaf0393-fd7e-4428-b296-1e011771a944" x1="141.81" y1="404.73" x2="208.47" y2="424.98"/><line class="acaf0393-fd7e-4428-b296-1e011771a944" x1="134.58" y1="411.31" x2="202.3" y2="433.15"/><polygon class="a962279d-d296-4bff-a972-2059b8726eee" points="115.84 467.5 28.7 444.93 111.05 382.47 193.39 400.39 115.84 467.5"/><polygon class="bcd504ff-f9da-4644-8065-f9dbf15779e0" points="115.84 467.5 28.7 444.93 111.05 382.47 193.39 400.39 115.84 467.5"/><line class="b06ce21a-77ce-4fa4-a551-b0cf1fea4cd1" x1="106.69" y1="393.3" x2="173.85" y2="408.31"/><line class="b06ce21a-77ce-4fa4-a551-b0cf1fea4cd1" x1="96.03" y1="401.49" x2="163.71" y2="416.97"/><line class="b06ce21a-77ce-4fa4-a551-b0cf1fea4cd1" x1="85.09" y1="409.88" x2="153.3" y2="425.85"/><line class="b06ce21a-77ce-4fa4-a551-b0cf1fea4cd1" x1="73.87" y1="418.49" x2="142.61" y2="434.98"/><line class="b06ce21a-77ce-4fa4-a551-b0cf1fea4cd1" x1="62.35" y1="427.33" x2="131.63" y2="444.36"/><line class="b06ce21a-77ce-4fa4-a551-b0cf1fea4cd1" x1="50.52" y1="436.41" x2="120.34" y2="454"/><line class="be06180a-a985-46b7-856b-b26168d0a3a9" x1="0.01" y1="345.33" x2="508.07" y2="346.75"/><path class="b09d3d46-53ba-49ae-ae29-6db0ebbd1f54" d="M188.49,389.73s-2.05,43.74,28.29,30.29S200,383.48,200,383.48Z" transform="translate(-48.01 -59.86)"/><polygon class="b4e78018-1e0d-46e1-af33-7ddbe348690b" points="475.55 421.34 377.66 430.04 335.17 360.16 409.6 355.72 475.55 421.34"/><polygon class="e4d1b480-b1f3-4a8d-9103-1d6b3e192116" points="475.55 421.34 377.66 430.04 335.17 360.16 409.6 355.72 475.55 421.34"/><line class="ebb7e762-57ac-4d04-8121-e794baccc75b" x1="345.76" y1="364.78" x2="407.34" y2="360.98"/><line class="ebb7e762-57ac-4d04-8121-e794baccc75b" x1="348.66" y1="369.26" x2="411.49" y2="365.27"/><line class="ebb7e762-57ac-4d04-8121-e794baccc75b" x1="351.68" y1="373.94" x2="415.82" y2="369.74"/><line class="ebb7e762-57ac-4d04-8121-e794baccc75b" x1="354.85" y1="378.85" x2="420.35" y2="374.42"/><line class="ebb7e762-57ac-4d04-8121-e794baccc75b" x1="358.17" y1="383.98" x2="425.08" y2="379.32"/><line class="ebb7e762-57ac-4d04-8121-e794baccc75b" x1="361.65" y1="389.36" x2="430.04" y2="384.44"/><line class="ebb7e762-57ac-4d04-8121-e794baccc75b" x1="365.3" y1="395.01" x2="435.23" y2="389.81"/><line class="ebb7e762-57ac-4d04-8121-e794baccc75b" x1="369.13" y1="400.94" x2="440.68" y2="395.44"/><line class="ebb7e762-57ac-4d04-8121-e794baccc75b" x1="373.17" y1="407.19" x2="446.41" y2="401.36"/><line class="ebb7e762-57ac-4d04-8121-e794baccc75b" x1="377.42" y1="413.76" x2="452.44" y2="407.59"/><line class="ebb7e762-57ac-4d04-8121-e794baccc75b" x1="381.91" y1="420.71" x2="458.78" y2="414.15"/><polygon class="a962279d-d296-4bff-a972-2059b8726eee" points="334.04 478.45 237.73 478.45 260.31 390.26 330.54 391.35 334.04 478.45"/><polygon class="b25cfff7-1b4a-4b3a-a04b-684987d52b92" points="334.04 478.45 237.73 478.45 260.31 390.26 330.54 391.35 334.04 478.45"/><line class="e19dc47c-ce3d-458d-b74e-b0c9bc44f054" x1="264.7" y1="400.98" x2="324.01" y2="401.79"/><line class="e19dc47c-ce3d-458d-b74e-b0c9bc44f054" x1="262.43" y1="410.98" x2="324.14" y2="411.72"/><line class="e19dc47c-ce3d-458d-b74e-b0c9bc44f054" x1="259.96" y1="421.84" x2="324.27" y2="422.48"/><line class="e19dc47c-ce3d-458d-b74e-b0c9bc44f054" x1="257.28" y1="433.65" x2="324.41" y2="434.18"/><line class="e19dc47c-ce3d-458d-b74e-b0c9bc44f054" x1="254.35" y1="446.54" x2="324.57" y2="446.94"/><line class="e19dc47c-ce3d-458d-b74e-b0c9bc44f054" x1="251.14" y1="460.68" x2="324.74" y2="460.91"/><polygon class="b4e78018-1e0d-46e1-af33-7ddbe348690b" points="276.77 369.75 350.36 368.29 363.6 447.75 263.62 449.28 276.77 369.75"/><polygon class="e4d1b480-b1f3-4a8d-9103-1d6b3e192116" points="276.77 369.75 350.36 368.29 363.6 447.75 263.62 449.28 276.77 369.75"/><line class="b307c7f7-aa91-4858-89d0-b75f8809b747" x1="346.19" y1="390.03" x2="280.9" y2="391.24"/><line class="b307c7f7-aa91-4858-89d0-b75f8809b747" x1="345.44" y1="384.45" x2="281.65" y2="385.65"/><line class="b307c7f7-aa91-4858-89d0-b75f8809b747" x1="344.73" y1="379.12" x2="282.36" y2="380.31"/><line class="b307c7f7-aa91-4858-89d0-b75f8809b747" x1="344.04" y1="374.02" x2="283.04" y2="375.21"/><polygon class="eb0a53f3-5a00-4a4e-9327-6949f39e9bbb" points="280.11 397.09 346.98 395.88 348.32 405.88 278.77 407.1 280.11 397.09"/><polygon class="eb0a53f3-5a00-4a4e-9327-6949f39e9bbb" points="274.28 440.67 352.84 439.44 348.32 405.88 278.77 407.1 274.28 440.67"/><path class="b4e78018-1e0d-46e1-af33-7ddbe348690b" d="M315.65,217.32s-10.82-.92-11.51,6.65-11.46,32.1-10.77,32.1,7.79,149.5,7.79,149.5L341.29,407l35.54-16.74-2.75-88.51.46-79.79s-13.49-10.24-18.3-7c.23,5-12.92,16.43-21.16,19.18-8.46-3.21-15.76-8.49-19.43-16.74" transform="translate(-48.01 -59.86)"/><path class="e0ba2db5-c51a-4450-8d28-7b52132cd9a6" d="M304.52,222.18s-46.46,5-53.11,19.67-11.93,36.23-16.51,61.23a463.14,463.14,0,0,1-10.78,45.4s-30.27,34.85-34.4,40.58c21.56-5,29.58,11.24,27.06,31,24.54-8.94,48.61-38.75,47.7-45.17-.23,26.6,0,32.1,0,32.1h40s-.09-166.16,0-184.77" transform="translate(-48.01 -59.86)"/><path class="e0ba2db5-c51a-4450-8d28-7b52132cd9a6" d="M371.1,222.18s-2.75,60-3.21,81.13-5.5,75.89-5.5,75.89S325,395.25,321.57,399.61c4.37,6.81,15.13,36,15.13,36s52.74-8.94,72.69-16.74S449.1,402.3,450.48,397s.65-87.53-8.07-122.62-14-40.12-28-44.25-38.3-13-43.34-8" transform="translate(-48.01 -59.86)"/><path class="e0ba2db5-c51a-4450-8d28-7b52132cd9a6" d="M276.49,433.85s3.58-8.87,4.63-10.16l36.46-44.8a3,3,0,1,1,4.65,3.79l-37.06,45.53c-.59.73-8.68,5.64-8.68,5.64" transform="translate(-48.01 -59.86)"/><path class="b6a2bb2d-40fa-409a-bb53-08629ad4f6bd" d="M224.12,348.48c7.48-1.75,20.39-2.67,25.22,4.58-5.75-6-17.51-4.87-25.22-4.58" transform="translate(-48.01 -59.86)"/><path class="b6a2bb2d-40fa-409a-bb53-08629ad4f6bd" d="M243.84,357.42c-2.22-2.57-4-5.32-6.3-7.78a6.12,6.12,0,0,0-2.64-1.87c3.9-.08,7.71,6.4,8.94,9.65" transform="translate(-48.01 -59.86)"/><path class="b6a2bb2d-40fa-409a-bb53-08629ad4f6bd" d="M262.41,258.82c.14,35.34-.61,72.52.95,107.7.23,3.57.56,7.54,1.09,11.08-.69-3.5-1.14-7.48-1.48-11.05-.49-6.05-.84-12.51-1.05-18.56-.95-29.72-.61-59.46.49-89.17" transform="translate(-48.01 -59.86)"/><path class="b6a2bb2d-40fa-409a-bb53-08629ad4f6bd" d="M288.83,224.66a131.74,131.74,0,0,0-6.05,18.55c-1.49,6.25-2.65,12.82-1.61,19.21l-.32-.34c4.36,1.06,8.85,2.33,12.45,5.13a6.39,6.39,0,0,1,1.63,1.91l-.39.25-12.37,7.77.23-.54c2.67,12.19,5.6,24.33,8.91,36.36,1.64,6,3.39,12,5.41,17.9s4,11.93,7.79,16.91c-4-4.84-6-10.95-8.28-16.73-4.21-11.78-7.51-23.85-10.55-36-1.53-6.19-3-12.37-4.35-18.61l.3-.19L294,268.56l-.17.61a5.83,5.83,0,0,0-1.17-1.24c-3.54-2.78-8-4-12.32-5.1-1-6.65.25-13.33,1.88-19.75a121.22,121.22,0,0,1,6.57-18.42" transform="translate(-48.01 -59.86)"/><path class="b6a2bb2d-40fa-409a-bb53-08629ad4f6bd" d="M389.68,222.81c2.79,13.83,6,27.64,7.08,41.73v.36a27.4,27.4,0,0,0-11.14,4.56,19.82,19.82,0,0,0-2.94,2.52l-.11-.73,12.17,7.31.34.2-.11.38c-3.65,12.51-7.61,24.92-12.06,37.16-3.09,7.86-11,30.74-18.05,34.1,6.65-3.15,14.42-26.81,17.28-34.38,4.31-12.26,8.22-24.68,11.85-37.16l.22.58-12.13-7.37-.5-.31.39-.41a26.35,26.35,0,0,1,14.27-7.22l-.36.43c-.93-14-3.85-27.9-6.21-41.75" transform="translate(-48.01 -59.86)"/><path class="b6a2bb2d-40fa-409a-bb53-08629ad4f6bd" d="M362.39,379.2c14.54-7.78,45.63-21.94,61.68-17-15.79-3.66-46.54,10.39-61.68,17" transform="translate(-48.01 -59.86)"/><path class="b6a2bb2d-40fa-409a-bb53-08629ad4f6bd" d="M412.83,276.48c-1.45,12.77-3.6,30.53-4.87,43.12q-1.18,10.78-2,21.59c-.42,7.18-1.23,14.47-.13,21.62-1.54-7.1-.9-14.47-.67-21.67s1.06-14.44,1.77-21.65c1.58-14.39,3.45-28.74,5.9-43" transform="translate(-48.01 -59.86)"/><path class="b6a2bb2d-40fa-409a-bb53-08629ad4f6bd" d="M333.89,428.16c9.89-2.07,20.81-3.78,30.5-6.61,1.24-.38,3-1,4.19-1.53-5.17,3.06-11.16,4.38-17,5.68a135.73,135.73,0,0,1-17.73,2.46" transform="translate(-48.01 -59.86)"/><path class="a3bbd41e-2f70-4549-8b6f-3db0ef2fcc30" d="M325,406.39s-18.54-9.6-24.29-10.06-20.88,11-21.8,13.75S278,426.75,284,426c-.16,4.28,3.66,10.09,6.72,5,5.81,3.66,8.26-3.91,8.26-2.87s-2,4.95.76,4.82,9.63-5.78,12.69-5.78,21-.29,20.47-1.7S325,406.39,325,406.39" transform="translate(-48.01 -59.86)"/><path class="b5c9fd81-677b-4c09-ab52-e9a8a1b9d3e8" d="M284,426c-.25-4.42-1.53-9.8,2.66-12.84,2.52-2,5.38-4.16,8-6.06.92-.63,1.82-1.28,2.77-1.89-1.39,1.35-3.52,3.19-5,4.47-3,2.92-7.84,4.92-8.06,9.64-.08,2-.21,4.75-.39,6.68" transform="translate(-48.01 -59.86)"/><path class="b5c9fd81-677b-4c09-ab52-e9a8a1b9d3e8" d="M290.69,431c-.1-3.44-.22-7.31,1.73-10.32a43,43,0,0,1,10.5-8.33q-2.22,2-4.45,3.91c-2.05,2-4.67,3.66-6,6.19a37.21,37.21,0,0,0-1.83,8.55" transform="translate(-48.01 -59.86)"/><path class="b5c9fd81-677b-4c09-ab52-e9a8a1b9d3e8" d="M298.81,428.89a19.83,19.83,0,0,1,3.62-6.05c1.53-1.74,3.22-3.69,5.54-4.35a28.54,28.54,0,0,0-4.77,5c-1.28,1.6-3.18,3.78-4.39,5.41" transform="translate(-48.01 -59.86)"/><path class="a3bbd41e-2f70-4549-8b6f-3db0ef2fcc30" d="M207.72,397.24c-3.21-3.4-8.29-4.12-8.29-4.12s-25-2.45-29.32-.16-8.9,12.23-8.9,12.23S149.6,413.6,150.05,420c0,0-7.18,14.67-3.21,19.26s3.94-7.64,3.94-7.64.19,9.78,3.55,9.93,5.66-6.56,5.2-12.68c4,3.05,9.79-2.14,9-7.8l.15-6.44h13.8s-6.18,8.12-3,10.72,6.67-1.89,8.92-2.78,10.66-3.25,15.1-6.2,11.22-11.66,4.16-19.15" transform="translate(-48.01 -59.86)"/><path class="b5c9fd81-677b-4c09-ab52-e9a8a1b9d3e8" d="M150.75,433a45.68,45.68,0,0,1,.27-16.93,149.42,149.42,0,0,1-.27,16.93" transform="translate(-48.01 -59.86)"/><path class="b5c9fd81-677b-4c09-ab52-e9a8a1b9d3e8" d="M159.53,428.89a77.45,77.45,0,0,1-.88-13.18c.15-1.7.06-3.56,1.07-5.07A55.35,55.35,0,0,0,166,399.86a11.07,11.07,0,0,0,1.09-4.18,10.13,10.13,0,0,1-.63,4.35,42.29,42.29,0,0,1-5.92,11.24c-1.25,2.59-.85,6-1,8.85,0,2.55.06,6.18.07,8.77" transform="translate(-48.01 -59.86)"/><path class="b5c9fd81-677b-4c09-ab52-e9a8a1b9d3e8" d="M168.7,414.65a101.09,101.09,0,0,1,8.23-9.18.43.43,0,0,1,.34-.13,80.32,80.32,0,0,1,8.19.48c-2.73.31-5.46.44-8.19.48l.34-.15a98.08,98.08,0,0,1-8.91,8.5" transform="translate(-48.01 -59.86)"/><path class="b446876b-5e3f-4323-958e-92ed12665718" d="M335.08,234.06c1.44,51.92,1.45,104.46,0,156.38-1.44-51.92-1.43-104.46,0-156.38" transform="translate(-48.01 -59.86)"/><path class="b446876b-5e3f-4323-958e-92ed12665718" d="M338.42,248.73a3.14,3.14,0,1,1,3.14,3.14,3.14,3.14,0,0,1-3.14-3.14" transform="translate(-48.01 -59.86)"/><path class="b446876b-5e3f-4323-958e-92ed12665718" d="M338.42,279.61a3.14,3.14,0,1,1,3.14,3.14,3.14,3.14,0,0,1-3.14-3.14" transform="translate(-48.01 -59.86)"/><path class="b446876b-5e3f-4323-958e-92ed12665718" d="M338.42,310.49a3.14,3.14,0,1,1,3.14,3.13,3.14,3.14,0,0,1-3.14-3.13" transform="translate(-48.01 -59.86)"/><path class="b446876b-5e3f-4323-958e-92ed12665718" d="M338.42,341.37a3.14,3.14,0,1,1,3.14,3.13,3.14,3.14,0,0,1-3.14-3.13" transform="translate(-48.01 -59.86)"/><path class="b446876b-5e3f-4323-958e-92ed12665718" d="M338.42,372.25a3.14,3.14,0,1,1,3.14,3.13,3.15,3.15,0,0,1-3.14-3.13" transform="translate(-48.01 -59.86)"/><path class="b09d3d46-53ba-49ae-ae29-6db0ebbd1f54" d="M328.34,241.31c.71,5.43-.48,8.27,2.86,11.12C328.58,270.27,321,341.38,321,341.38l10.25,21.43,15.49-19.1-7.63-90.77s3.58-6.48,3.58-10.48-6.68-6.32-8.58-6.32-6.44-.26-5.72,5.17" transform="translate(-48.01 -59.86)"/><path class="b446876b-5e3f-4323-958e-92ed12665718" d="M304.5,225.57c3.7,7.56,7.25,15.18,10.72,22.84l-1.23-.35c5.84-4.38,14.46-10.54,20.47-14.87l.67-.48.63.52c4.46,3.66,13.4,11.08,17.8,14.8l-1.31.16c6-7.71,12.54-16.06,18.74-23.53-5.4,8.06-11.58,16.72-17.27,24.62l-.56.77-.75-.61c-4.52-3.6-13.54-10.89-18-14.55l1.29,0c-6.07,4.3-14.69,10.35-20.76,14.47l-.85.58-.38-.92c-3.18-7.79-6.27-15.61-9.21-23.49" transform="translate(-48.01 -59.86)"/><polygon class="b4e78018-1e0d-46e1-af33-7ddbe348690b" points="135.73 436.71 39.16 404.79 137.26 348.32 211.29 360.21 135.73 436.71"/><polygon class="e4d1b480-b1f3-4a8d-9103-1d6b3e192116" points="135.73 436.71 39.16 404.79 137.26 348.32 211.29 360.21 135.73 436.71"/><line class="a1cf927d-1618-4796-a162-951107729cc0" x1="137.17" y1="353.16" x2="198.39" y2="363.56"/><line class="a1cf927d-1618-4796-a162-951107729cc0" x1="131.44" y1="356.59" x2="193.94" y2="367.74"/><line class="a1cf927d-1618-4796-a162-951107729cc0" x1="125.37" y1="360.23" x2="189.2" y2="372.21"/><line class="a1cf927d-1618-4796-a162-951107729cc0" x1="118.92" y1="364.1" x2="184.13" y2="376.99"/><line class="a1cf927d-1618-4796-a162-951107729cc0" x1="112.07" y1="368.2" x2="178.69" y2="382.11"/><line class="a1cf927d-1618-4796-a162-951107729cc0" x1="104.78" y1="372.58" x2="172.86" y2="387.6"/><line class="a1cf927d-1618-4796-a162-951107729cc0" x1="96.99" y1="377.25" x2="166.57" y2="393.52"/><line class="a1cf927d-1618-4796-a162-951107729cc0" x1="88.66" y1="382.24" x2="159.78" y2="399.92"/><line class="a1cf927d-1618-4796-a162-951107729cc0" x1="79.73" y1="387.6" x2="152.42" y2="406.85"/><line class="a1cf927d-1618-4796-a162-951107729cc0" x1="70.13" y1="393.35" x2="144.42" y2="414.38"/><line class="a1cf927d-1618-4796-a162-951107729cc0" x1="59.78" y1="399.56" x2="135.7" y2="422.6"/><path class="a3bbd41e-2f70-4549-8b6f-3db0ef2fcc30" d="M196.53,405.82c1,2.14-6.27,4.88-8.06,5.33s-6,3.5-6,3.5-7,7.64-2.25,11.18,4.57-2,8.22-3.24,15.06-3.9,19.25-9.74,3.42-11.07,1.71-13.34-14.64,2.49-12.9,6.31" transform="translate(-48.01 -59.86)"/><polygon class="b4e78018-1e0d-46e1-af33-7ddbe348690b" points="336.95 261.71 340.03 261.71 340.03 270.38 347.3 261.71 350.11 261.71 350.11 274.87 347.03 274.87 347.03 266.19 339.79 274.87 336.95 274.87 336.95 261.71"/></g></svg>