<?xml version="1.0" encoding="UTF-8"?> <svg xmlns="http://www.w3.org/2000/svg" viewBox="0 0 561 287"> <defs> <style>.cls-1{fill:#e0e0e0;}.cls-2{fill:#ebebeb;}.cls-3{fill:#fff;}.cls-4{fill:#303e47;}.cls-5{fill:#bfbfbf;}.cls-6{fill:#45658c;}.cls-7{fill:#ffbf9d;}.cls-8{fill:#ff9a6c;}.cls-9{opacity:0.6;}.cls-10{opacity:0.3;}.cls-11{fill:#b56760;}.cls-12{fill:#8a4a43;}</style> </defs> <g id="Character"> <path class="cls-1" d="M163.55,214.19A21.85,21.85,0,0,0,154.2,211a6.26,6.26,0,0,0-4.43.81.94.94,0,0,0-.46.81,1.05,1.05,0,0,0,.44.56,13.36,13.36,0,0,0,13.8,1"></path> <path class="cls-1" d="M163.31,213.93a45.72,45.72,0,0,1-6-5.32,15.25,15.25,0,0,1-3.79-7,2.83,2.83,0,0,1,.3-2.34c4.82,3.76,8.6,8.63,9.53,14.67"></path> <path class="cls-1" d="M163.5,214.15a22,22,0,0,1,.11-7.93,10.78,10.78,0,0,1,4.23-6.55c.83,2,.47,4.19-.11,6.22a30.37,30.37,0,0,1-4.19,8.83"></path> <path class="cls-1" d="M168.22,222.62a13.82,13.82,0,0,0-7.5,3.79,14.2,14.2,0,0,0-4.29,7.37c2.81-.17,5.2-2.16,6.93-4.38s2.92-4.66,4.82-6.74"></path> <path class="cls-1" d="M169.25,224a18.51,18.51,0,0,1,2.14-17.51A22.31,22.31,0,0,1,169.25,224"></path> <path class="cls-1" d="M175.49,231.4a13.4,13.4,0,0,0-12.8,7.36,1,1,0,0,0-.08,1,1,1,0,0,0,.85.25c2.52-.17,4.75-1.68,6.6-3.41a62.69,62.69,0,0,1,5.48-5.22"></path> <path class="cls-1" d="M175.29,231a23.82,23.82,0,0,1-.24-13.31c.47-1.71,1.26-3.52,2.84-4.32a.58.58,0,0,1,.44-.08.61.61,0,0,1,.27.32,7.94,7.94,0,0,1,.67,3.82,24.14,24.14,0,0,1-.6,3.87c-.5,2.36-.76,4.9-2.06,6.94a12.35,12.35,0,0,0-.82,1.52c-.25.52-.25.7-.47,1.11"></path> <path class="cls-1" d="M191.8,233.45a17.19,17.19,0,0,1,3-14.11c.22-.28.5-.58.86-.55.54.05.68.77.65,1.31a25.45,25.45,0,0,1-4.52,13.35"></path> <path class="cls-1" d="M193.29,234.47a20.56,20.56,0,0,0,16.85-3.42,13.58,13.58,0,0,0-9.12-1.12,13,13,0,0,0-7.73,4.54"></path> <path class="cls-1" d="M194.55,231.37a19.49,19.49,0,0,1,15.29-8.84,9.42,9.42,0,0,1-5,5.53,27.69,27.69,0,0,1-7.34,2.15c-1,.19-2.32.4-2.95,1.16"></path> <path class="cls-1" d="M192.12,216.34a44,44,0,0,0,1.95-9,14.88,14.88,0,0,0-1.78-8.85,19.47,19.47,0,0,0-.26,18.11"></path> <path class="cls-1" d="M202.08,211.3c3.46-6.29,10.52-11.31,17.66-12-2.76,6.86-10.27,12.16-17.66,12"></path> <path class="cls-1" d="M199.9,212.53c5.16.79,9.56,4.08,14.38,6.08a6.35,6.35,0,0,0,3.25.62,2.81,2.81,0,0,0,2.45-2,2.87,2.87,0,0,0-.86-2.53,7,7,0,0,0-2.36-1.43,26.24,26.24,0,0,0-16.41-.91"></path> <path class="cls-1" d="M196.92,216.15a6.21,6.21,0,0,1,2.49,1.73,26.88,26.88,0,0,0,10.9,5.6c.42.1,1,.14,1.17-.23s0-.73-.28-1a15.06,15.06,0,0,0-6.58-4.47c-2.52-.94-4.7-2.07-7.7-1.82"></path> <path class="cls-1" d="M193.55,194.3a20.66,20.66,0,0,0,15.82,5.38,1.13,1.13,0,0,0,.72-.26c.39-.43-.08-1.1-.55-1.46a18.2,18.2,0,0,0-16-3.66"></path> <path class="cls-1" d="M197.54,192.84a22,22,0,0,1,19.74-3.26,15.66,15.66,0,0,1-9.41,4.13,30,30,0,0,1-10.33-.87"></path> <path class="cls-1" d="M196,182.79c-.45-4.64-.16-8.3-.48-13,0-.37-.1-.82-.45-.95s-.89.41-1.05.9a14.87,14.87,0,0,0,2,12.92"></path> <path class="cls-1" d="M195.62,183.31a27.25,27.25,0,0,0,7.69-7.48c1.52-2.08,2.8-4.56,2.45-7.12a7.36,7.36,0,0,0-5.54,2.76,15.52,15.52,0,0,0-2.83,5.69c-.62,2-1,4.14-1.77,6.15"></path> <path class="cls-1" d="M203.17,181.21a62.07,62.07,0,0,0,18.93-11.16c-2.26-.91-4.85-.37-7.11.55a22.39,22.39,0,0,0-11.91,10.56"></path> <path class="cls-1" d="M197.74,185.85a38.54,38.54,0,0,0,10.51.05,44.5,44.5,0,0,0,9.81-3.26,1.2,1.2,0,0,0,.67-.51.78.78,0,0,0-.24-.84,2,2,0,0,0-.84-.39,18.13,18.13,0,0,0-10.6.63,49.47,49.47,0,0,0-9.31,4.32"></path> <path class="cls-1" d="M177.8,194.46a18.61,18.61,0,0,1-.17-15.39c1.45,2.21,1.63,5,1.36,7.65s-1.06,5.33-1.12,8"></path> <path class="cls-1" d="M168.28,189.65a21.47,21.47,0,0,0-15.94,6.8,15,15,0,0,0,8.73-1.62,44.4,44.4,0,0,0,7.48-5"></path> <path class="cls-1" d="M161.88,187.51c-2.91-.23-5.71-.59-8.51.26a10.23,10.23,0,0,0-6.49,5.5,15.37,15.37,0,0,0,8-1.5,46.25,46.25,0,0,0,7-4.26"></path> <path class="cls-1" d="M171.35,187.61c-2.61-1.71-5.3-3.46-8.35-4.17s-6.58-.19-8.71,2.11c2.47,1.45,5.46,1.62,8.32,1.62s6.37,0,9.07.92"></path> <path class="cls-1" d="M171.37,187.75c-4.48-4.4-6.17-12.29-4.37-18.3a27.87,27.87,0,0,1,4.37,18.3"></path> <path class="cls-1" d="M183.68,175.29c.84-2,1.44-4,2.2-6a17.12,17.12,0,0,1,3.13-5.55,8.28,8.28,0,0,1,5.54-2.87,22.36,22.36,0,0,1-10.76,14.48"></path> <path class="cls-1" d="M181.45,177.89c-1.39-1.92-3-4.53-4.9-6a8.25,8.25,0,0,0-6.68-1.75,15.55,15.55,0,0,0,11.58,7.72"></path> <path class="cls-1" d="M181.9,175.45a32.7,32.7,0,0,1-2.21-7.15,11.12,11.12,0,0,1,1.12-7.27c2.46,4.65,3.25,9.63,1.21,14.48"></path> <path class="cls-1" d="M183.7,161c1.39-4.6,5.61-8,10.16-9.55a3.82,3.82,0,0,1,1.79-.27,1.55,1.55,0,0,1,1.31,1.1c.16.78-.48,1.48-1.09,2A34.7,34.7,0,0,1,183.7,161"></path> <path class="cls-1" d="M183.75,157.26a33.28,33.28,0,0,1,1.33-8.79,11.13,11.13,0,0,1,5.54-6.68c.46,3-.87,6-2.46,8.56s-3.52,5-4.48,7.89"></path> <path class="cls-1" d="M183.68,159.31c-1.15-3.36-1.27-7.62-3.28-10.54-1.4-2.05-3.65-3.44-4.86-5.61a8.5,8.5,0,0,0,.28,6.36,18.18,18.18,0,0,0,3.72,5.32c1.48,1.59,2.76,2.79,4.14,4.47"></path> <path class="cls-1" d="M183.7,258.14c-.09,0-.16-22.39-.17-50s.06-50,.15-50,.17,22.38.17,50S183.79,258.14,183.7,258.14Z"></path> <path class="cls-1" d="M203.27,191.08a5.65,5.65,0,0,1-.84.31l-2.32.79c-2,.66-4.64,1.62-7.55,2.82s-5.6,2.24-7.15,3.58a5.2,5.2,0,0,0-1.44,1.9c-.22.53-.26.85-.29.84a.58.58,0,0,1,0-.23,3.72,3.72,0,0,1,.16-.65,5,5,0,0,1,1.41-2,12.59,12.59,0,0,1,3.1-1.93c1.24-.58,2.62-1.18,4.08-1.78,2.92-1.2,5.62-2.13,7.6-2.74,1-.31,1.79-.54,2.35-.69A5.19,5.19,0,0,1,203.27,191.08Z"></path> <path class="cls-1" d="M209.68,175.33a1.54,1.54,0,0,1-.24.25l-.71.67L206,178.69l-8.92,7.95c-3.49,3.1-6.5,6.06-8.59,8.29-1,1.12-1.86,2-2.42,2.69-.27.29-.48.54-.65.74s-.24.25-.25.24a3.2,3.2,0,0,1,.2-.28c.13-.18.33-.45.6-.79.53-.67,1.33-1.61,2.36-2.75a111.3,111.3,0,0,1,8.53-8.38c3.5-3.1,6.68-5.88,9-7.88l2.75-2.36.76-.63C209.58,175.39,209.67,175.32,209.68,175.33Z"></path> <path class="cls-1" d="M193.36,189.79c-.1,0,.63-1.72,1.36-3.85s1.07-3.92,1.17-3.9a13.15,13.15,0,0,1-.87,4,24.8,24.8,0,0,1-1.08,2.69A4.29,4.29,0,0,1,193.36,189.79Z"></path> <path class="cls-1" d="M183.72,203.34a4.6,4.6,0,0,1-.53-.62L181.81,201c-1.15-1.49-2.75-3.55-4.54-5.81s-3.44-4.28-4.63-5.74l-1.41-1.74a3.39,3.39,0,0,1-.48-.67,5.7,5.7,0,0,1,.58.59c.36.39.86,1,1.48,1.67,1.24,1.43,2.92,3.43,4.71,5.69s3.36,4.35,4.47,5.88c.56.76,1,1.39,1.3,1.82A3.62,3.62,0,0,1,183.72,203.34Z"></path> <path class="cls-1" d="M179.43,197.83a7.92,7.92,0,0,1-1.79-3.36,9.3,9.3,0,0,1-.41-3.39h.14c-.06.26-.11.4-.13.39s0-.15,0-.41h.14a15.44,15.44,0,0,0,.58,3.3A25.56,25.56,0,0,0,179.43,197.83Z"></path> <path class="cls-1" d="M173.9,190.87a5.79,5.79,0,0,0-1.26-.73,8.26,8.26,0,0,0-3.48-.28,20.87,20.87,0,0,0-3.51.57,9.46,9.46,0,0,1-1.44.34,5.44,5.44,0,0,1,1.38-.56,15.6,15.6,0,0,1,3.54-.67,7.65,7.65,0,0,1,3.6.39A2.33,2.33,0,0,1,173.9,190.87Z"></path> <path class="cls-1" d="M172.58,189.18s-.73-.29-1.92-.7a19.78,19.78,0,0,0-4.8-1,20.17,20.17,0,0,0-4.89.25c-1.24.22-2,.45-2,.4a1.69,1.69,0,0,1,.51-.22,12.79,12.79,0,0,1,1.45-.4,16.78,16.78,0,0,1,5-.35,17.12,17.12,0,0,1,4.85,1.09,11.91,11.91,0,0,1,1.37.63C172.43,189.06,172.59,189.16,172.58,189.18Z"></path> <path class="cls-1" d="M183.68,182a40,40,0,0,1-1.4-4.87,38.78,38.78,0,0,1-1.09-4.95,40,40,0,0,1,1.4,4.87A38.78,38.78,0,0,1,183.68,182Z"></path> <path class="cls-1" d="M183.77,182a24.1,24.1,0,0,0-1.55-2.92,13.26,13.26,0,0,0-2.29-2.36,2.14,2.14,0,0,1,.88.46,7,7,0,0,1,1.67,1.72A6.48,6.48,0,0,1,183.77,182Z"></path> <path class="cls-1" d="M183.7,246.21s-.1-.54-.35-1.49a21.22,21.22,0,0,0-1.5-3.88,53.46,53.46,0,0,0-7.93-11.18c-1.78-2-3.5-3.94-4.95-5.77a39.57,39.57,0,0,1-3.55-5.1,25,25,0,0,1-1.78-3.79c-.17-.47-.29-.83-.35-1.08a2.68,2.68,0,0,1-.1-.39s.2.51.57,1.42a25.85,25.85,0,0,0,1.86,3.72,42.78,42.78,0,0,0,3.58,5c1.46,1.81,3.18,3.71,5,5.74a50.76,50.76,0,0,1,7.9,11.29,19,19,0,0,1,1.41,3.95,8.45,8.45,0,0,1,.2,1.12A2,2,0,0,1,183.7,246.21Z"></path> <path class="cls-1" d="M201.38,226.24s-.33.19-.92.52a19.71,19.71,0,0,0-2.41,1.59,28.8,28.8,0,0,0-3.15,2.87c-1.11,1.18-2.25,2.53-3.42,4-2.33,2.92-4.5,5.51-5.81,7.57-.66,1-1.14,1.89-1.46,2.49a7.22,7.22,0,0,1-.51.94.84.84,0,0,1,.09-.27c.07-.16.16-.41.31-.72a23.53,23.53,0,0,1,1.38-2.56,82.5,82.5,0,0,1,5.75-7.65c1.17-1.46,2.32-2.82,3.45-4a26.14,26.14,0,0,1,3.23-2.86,17.13,17.13,0,0,1,2.49-1.51,6.88,6.88,0,0,1,.72-.32A.94.94,0,0,1,201.38,226.24Z"></path> <path class="cls-1" d="M201.73,232.72a16.58,16.58,0,0,1-2,.28,26.8,26.8,0,0,0-4.65.91A14.21,14.21,0,0,0,191,236.1c-1,.74-1.41,1.35-1.46,1.31a1.9,1.9,0,0,1,.29-.45,7.35,7.35,0,0,1,1-1,12.66,12.66,0,0,1,4.21-2.31,21.06,21.06,0,0,1,4.72-.84A9.46,9.46,0,0,1,201.73,232.72Z"></path> <path class="cls-1" d="M190.08,236.7c-.1,0,.78-1.4,1.47-3.22s.79-3.43.91-3.41a3.05,3.05,0,0,1,0,1.05,10.87,10.87,0,0,1-.57,2.47,11.92,11.92,0,0,1-1.13,2.27C190.37,236.41,190.12,236.73,190.08,236.7Z"></path> <path class="cls-1" d="M207.11,208.85a2.46,2.46,0,0,1-.32.16l-.92.42c-.4.17-.89.39-1.44.68s-1.2.58-1.87,1l-1.07.6c-.37.22-.74.47-1.13.71-.78.48-1.57,1.07-2.42,1.67a45.31,45.31,0,0,0-5,4.44,44.67,44.67,0,0,0-4.27,5.2c-.57.86-1.13,1.67-1.58,2.48-.23.39-.48.77-.68,1.15s-.38.74-.57,1.08c-.38.69-.65,1.35-.91,1.91s-.48,1.06-.64,1.46l-.38.94a2.46,2.46,0,0,1-.16.32,1.36,1.36,0,0,1,.09-.34l.34-1a14.74,14.74,0,0,1,.58-1.49c.25-.58.51-1.24.88-1.94.18-.35.36-.72.56-1.1s.43-.77.65-1.17c.45-.82,1-1.64,1.57-2.51a44.3,44.3,0,0,1,4.28-5.25,43.2,43.2,0,0,1,5.11-4.46c.85-.6,1.65-1.18,2.45-1.65.4-.24.77-.49,1.14-.7l1.09-.59c.68-.4,1.34-.68,1.9-1s1.06-.48,1.47-.64l1-.36A1.2,1.2,0,0,1,207.11,208.85Z"></path> <path class="cls-1" d="M193.12,218.22a2.21,2.21,0,0,1,.77-1.15,4.85,4.85,0,0,1,3.1-1.18,8.45,8.45,0,0,1,3.26.63,4.39,4.39,0,0,1,1.23.6,6.94,6.94,0,0,1-1.31-.38,9.76,9.76,0,0,0-3.17-.53,5.06,5.06,0,0,0-3,1A7.75,7.75,0,0,0,193.12,218.22Z"></path> <path class="cls-1" d="M191,220.38a11.31,11.31,0,0,0,.88-2.87,11.85,11.85,0,0,0-.19-3,2,2,0,0,1,.36.84,5.86,5.86,0,0,1-.5,4.29C191.3,220.15,191.06,220.4,191,220.38Z"></path> <path class="cls-1" d="M168.24,249.41c.48,8.56,3.06,17.26,7,26.06h17.24c3.78-8.71,6.18-17.4,6.61-26.06Z"></path> <path class="cls-2" d="M196.33,263.26c0,.09-5.68.16-12.69.16s-12.68-.07-12.68-.16,5.68-.16,12.68-.16S196.33,263.17,196.33,263.26Z"></path> <path class="cls-2" d="M195.94,266.36c0,.09-5.32.16-11.89.16s-11.89-.07-11.89-.16,5.33-.16,11.89-.16S195.94,266.27,195.94,266.36Z"></path> <path class="cls-2" d="M175.54,255a46.56,46.56,0,0,1,0,8,49.46,49.46,0,0,1,0-8Z"></path> <path class="cls-2" d="M184.78,255a49.89,49.89,0,0,1,0,8.23,53,53,0,0,1,0-8.23Z"></path> <path class="cls-2" d="M193.46,255a55.07,55.07,0,0,1,0,8.39,55.07,55.07,0,0,1,0-8.39Z"></path> <path class="cls-2" d="M198.57,255c0,.09-6.66.16-14.87.16s-14.87-.07-14.87-.16,6.65-.16,14.87-.16S198.57,254.94,198.57,255Z"></path> <polygon class="cls-1" points="322.36 14.39 370.69 14.39 370.69 77.29 322.69 77.05 322.36 14.39"></polygon> <rect class="cls-3" x="319.58" y="14.39" width="48.04" height="62.42" transform="translate(687.2 91.21) rotate(180)"></rect> <path class="cls-1" d="M367.86,14.16V77.05H319.34V14.16Zm-.48,62.41V14.63H319.82V76.57Z"></path> <rect class="cls-3" x="324.52" y="21.15" width="36.78" height="48.9"></rect> <path class="cls-1" d="M324.52,21.15v.24c0,.16,0,.39,0,.69,0,.61,0,1.5,0,2.66,0,2.33,0,5.73,0,10,0,8.6,0,20.81.06,35.28l-.11-.11H361.3l-.13.12c0-18.21,0-35.09,0-48.9l.1.11-26.71-.06-7.44,0h-2l-.67,0h2.59l7.42,0,26.77-.06h.1v.1c0,13.81,0,30.69,0,48.9v.13h-.13l-36.77,0h-.12v-.11c0-14.5.05-26.73.06-35.35,0-4.29,0-7.68,0-10,0-1.16,0-2,0-2.65,0-.29,0-.51,0-.67A2.07,2.07,0,0,1,324.52,21.15Z"></path> <path class="cls-1" d="M319.47,76.81a5.73,5.73,0,0,1,.65-1c.42-.64,1-1.5,1.72-2.44s1.35-1.77,1.84-2.36a5.89,5.89,0,0,1,.84-.91,7.54,7.54,0,0,1-.7,1L322,73.47l-1.78,2.39A7,7,0,0,1,319.47,76.81Z"></path> <path class="cls-1" d="M319.58,14.39a37.68,37.68,0,0,1,2.57,3.31,38.46,38.46,0,0,1,2.37,3.45,34.19,34.19,0,0,1-2.57-3.3A33.38,33.38,0,0,1,319.58,14.39Z"></path> <line class="cls-3" x1="367.62" y1="14.39" x2="361.3" y2="21.4"></line> <path class="cls-1" d="M361.3,21.4a45.16,45.16,0,0,1,3.07-3.58c1.75-1.94,3.2-3.47,3.25-3.43A42.26,42.26,0,0,1,364.55,18,42.2,42.2,0,0,1,361.3,21.4Z"></path> <path class="cls-1" d="M367.62,76.81a40.24,40.24,0,0,1-3.11-3.26,40.6,40.6,0,0,1-2.93-3.43,41.3,41.3,0,0,1,3.12,3.26A43.55,43.55,0,0,1,367.62,76.81Z"></path> <path class="cls-2" d="M340.8,30.28a3.12,3.12,0,0,0,2.25,0,5.58,5.58,0,0,1,5.14,1.44c1.29,0,2.51-.36,3.56.59.1.09.29.08.43.13l.73.26,0,.12-.72-.21-.08.14c.1.07.2.2.31.22,1.86.29,2.57,1.52,1.84,3.24.25.32.7.59.46,1.18-.07-.44-.17-.79-.73-.9a2.6,2.6,0,0,1-1.32,4.33l.57.19,0,.09-.9-.17a23.82,23.82,0,0,0-.23,2.68c.07,3.07-1.25,5-4.32,6.14a1.58,1.58,0,0,0-1.19,1.68,5.28,5.28,0,0,0,1.11,3.17c.51.73,1.11,1.41,1.72,2.17a18,18,0,0,0-9.07,5.15,25.81,25.81,0,0,0,.94-3.14,10.45,10.45,0,0,0-.92-6.1,2.39,2.39,0,0,0-2.72-1.44c-.61.07-1.21.18-1.82.21-1,.07-1.66-.33-1.81-1.06a2.23,2.23,0,0,1,0-.85,1.23,1.23,0,0,0-.29-1.23c-.37-.34-.15-.74.15-1.12-.66-.2-.62-.65-.44-1.15a.65.65,0,0,0-.36-.91c-.8-.44-.84-1-.22-1.65s1.06-1.23,1.59-1.84l-.93-.69.08-.11a1,1,0,0,0,.28.14,1.15,1.15,0,0,0,.49,0c.05,0,.05-.26,0-.38a9.06,9.06,0,0,1,.66-5.41.57.57,0,0,0,.05-.4c-.82-2.08,0-2.81,1.23-3.77a5.13,5.13,0,0,1,4.35-1h-1.1V30l1.24.29-1.28-.09a3.45,3.45,0,0,0-2.37.63c1.43-.57,2.79-.23,4.28-.21Z"></path> <rect class="cls-1" x="161.65" y="47.43" width="44.41" height="46.3"></rect> <rect class="cls-2" x="158.64" y="47.43" width="44.41" height="46.3"></rect> <path class="cls-1" d="M203.07,93.74H158.63V47.42h44.44Zm-44.42,0H203V47.44H158.65Z"></path> <rect class="cls-3" x="164.61" y="53.65" width="32.47" height="33.85"></rect> <path class="cls-1" d="M164.61,87.73a5.1,5.1,0,0,1-.8.93c-.52.55-1.25,1.29-2.07,2.09s-1.56,1.52-2.12,2a5.64,5.64,0,0,1-.94.79,5.22,5.22,0,0,1,.8-.93c.52-.55,1.25-1.29,2.07-2.1s1.57-1.52,2.13-2A4.88,4.88,0,0,1,164.61,87.73Z"></path> <path class="cls-1" d="M197.08,87.65a4.74,4.74,0,0,1,.93.8c.55.52,1.29,1.24,2.1,2.06s1.52,1.57,2,2.12a5.09,5.09,0,0,1,.78.94,5.1,5.1,0,0,1-.93-.8c-.55-.51-1.29-1.25-2.1-2.06s-1.52-1.58-2-2.13A5.28,5.28,0,0,1,197.08,87.65Z"></path> <path class="cls-1" d="M197,53.74a6.38,6.38,0,0,1,.8-.93c.52-.54,1.25-1.29,2.07-2.09s1.57-1.52,2.12-2a4.73,4.73,0,0,1,.94-.78,5.1,5.1,0,0,1-.8.93c-.52.54-1.25,1.29-2.07,2.09s-1.57,1.53-2.12,2A4.31,4.31,0,0,1,197,53.74Z"></path> <path class="cls-1" d="M164.52,53.83a5.67,5.67,0,0,1-.93-.8c-.55-.52-1.29-1.25-2.09-2.07s-1.53-1.57-2-2.12a5.64,5.64,0,0,1-.79-.94,5.1,5.1,0,0,1,.93.8c.55.52,1.29,1.25,2.1,2.07s1.52,1.57,2,2.12A5.09,5.09,0,0,1,164.52,53.83Z"></path> <path class="cls-1" d="M197,87.5v-.63c0-.43,0-1,0-1.83,0-1.6,0-3.94,0-6.9,0-5.93,0-14.37-.06-24.49l.12.13-32.38,0h0l.14-.15c0,12.43,0,24.05,0,33.85l-.12-.12,23.45.06,6.58,0H197s0,0-.14,0h-2.16l-6.55,0-23.53.07h-.12V87.5c0-9.8,0-21.42,0-33.85v-.14h.14l32.38,0h.13v.12c0,10.15-.05,18.62-.07,24.57,0,3,0,5.27,0,6.87,0,.78,0,1.39,0,1.8,0,.2,0,.35,0,.46S197,87.51,197,87.5Z"></path> <rect class="cls-2" x="175.43" y="65.16" width="10.84" height="10.84"></rect> <path class="cls-4" d="M400.59,274.9c0,.11-65,.2-145.13.2s-145.15-.09-145.15-.2,65-.19,145.15-.19S400.59,274.8,400.59,274.9Z"></path> <rect class="cls-5" x="223.02" y="14.96" width="63.51" height="142.04"></rect> <rect class="cls-2" x="229.41" y="21.58" width="50.73" height="128.56"></rect> <path class="cls-1" d="M249.76,150.29c4.87.47,8.37-4.84,9.17-9.67s.23-10.05,2.49-14.4c1.16-2.23,3-4.09,3.95-6.43,1.46-3.61.52-7.69.67-11.59.32-8.61,6.77-15,14.1-17.66v59.6Z"></path> <path class="cls-4" d="M286.76,156.76s0,0-.12-.1l-.35-.33L285,155l-4.9-4.82.08,0-25.37.05-25.36-.05.08,0-4.73,5-1.28,1.33-.34.34L223,157s0-.05.1-.13l.31-.36,1.24-1.38,4.65-5.07,0,0h0l25.36-.05,25.37.05h.05l0,0L285,155l1.29,1.33.33.35C286.73,156.72,286.77,156.76,286.76,156.76Z"></path> <path class="cls-4" d="M222.9,15s0,0,.12.1l.35.33,1.34,1.29,4.89,4.82-.08,0,25.37,0,25.37,0-.09,0,4.73-5c.55-.56,1-1,1.28-1.33l.34-.34c.08-.08.12-.11.13-.11a1,1,0,0,1-.1.13c-.09.09-.19.21-.32.36L285,16.59l-4.65,5.07,0,0h-.05l-25.37.05-25.37-.05h0l0,0-4.82-4.9-1.29-1.33-.33-.35C222.93,15,222.89,15,222.9,15Z"></path> <path class="cls-4" d="M244.3,98.11c-.07-.06,5.37-8.14,12.16-18.06s12.36-17.92,12.43-17.86-5.36,8.13-12.16,18S244.38,98.16,244.3,98.11Z"></path> <path class="cls-4" d="M247.49,81.45c-.08,0,2.91-4.41,6.67-9.73s6.87-9.59,7-9.53-2.91,4.4-6.67,9.72S247.56,81.5,247.49,81.45Z"></path> <path class="cls-4" d="M254.3,94.35c-.07-.06,2.61-3.85,6-8.46s6.19-8.32,6.27-8.27-2.61,3.84-6,8.46S254.37,94.4,254.3,94.35Z"></path> <path class="cls-4" d="M280.14,150.14s0-.22,0-.64,0-1,0-1.85c0-1.63,0-4,0-7.16,0-6.25,0-15.34-.05-26.76,0-22.82,0-54.93-.07-92.15l.16.16H229.41l.16-.17c0,50.52,0,96.15,0,128.56l-.11-.12,37.13.06,10.08,0,2.62,0h-2.58l-10.05,0-37.2.06h-.12v-.11c0-32.41,0-78,0-128.56v-.16H280.3v.16c0,37.26-.06,69.41-.08,92.26,0,11.41,0,20.49,0,26.72,0,3.11,0,5.5,0,7.13,0,.8,0,1.41,0,1.83S280.14,150.14,280.14,150.14Z"></path> <rect class="cls-5" x="368.83" y="188.12" width="43.56" height="78.15"></rect> <path class="cls-4" d="M408.32,212.12s0-.12,0-.35,0-.59,0-1c0-.91,0-2.22,0-3.89,0-3.37,0-8.22-.07-14.17l.13.13-35.42,0,.16-.16h0v10c0,3.25,0,6.4,0,9.39l-.15-.15,25.43.07,7.34.05h2l-1.93,0-7.3,0-25.54.08h-.16v-.16c0-3,0-6.14,0-9.39v-10h0s.32-.32.17-.17l35.42,0h.13v.12c0,6-.05,10.86-.07,14.25,0,1.66,0,3,0,3.86,0,.43,0,.76,0,1S408.32,212.12,408.32,212.12Z"></path> <polygon class="cls-4" points="383.81 192.74 385.62 194.54 395.55 194.54 397.4 192.74 383.81 192.74"></polygon> <path class="cls-4" d="M408.32,234.79s0-.13,0-.36,0-.59,0-1c0-.91,0-2.22,0-3.9,0-3.37,0-8.21-.07-14.16l.13.13-35.42,0c-.15.14.2-.21.16-.17h0v10c0,3.25,0,6.39,0,9.39l-.15-.16,25.43.08,7.34,0,2,0h0l-1.93,0-7.3,0-25.54.07h-.16v-.15c0-3,0-6.14,0-9.39v-10h0s.32-.32.17-.17l35.42,0h.13v.13c0,6-.05,10.85-.07,14.24,0,1.67,0,3,0,3.87,0,.42,0,.76,0,1S408.32,234.79,408.32,234.79Z"></path> <polygon class="cls-4" points="383.81 215.41 385.62 217.21 395.55 217.21 397.4 215.41 383.81 215.41"></polygon> <path class="cls-4" d="M408.32,257.45s0-.12,0-.35,0-.59,0-1c0-.91,0-2.22,0-3.89,0-3.37,0-8.22-.07-14.17l.13.13-35.42,0,.16-.16h0v10c0,3.25,0,6.4,0,9.39l-.15-.15,25.43.07,7.34.05h2l-1.93,0-7.3,0-25.54.08h-.16v-.16c0-3,0-6.14,0-9.39V238h0s.32-.32.17-.17l35.42,0h.13V238c0,6-.05,10.86-.07,14.25,0,1.66,0,3,0,3.86,0,.43,0,.76,0,1S408.32,257.45,408.32,257.45Z"></path> <polygon class="cls-4" points="383.81 238.07 385.62 239.87 395.55 239.87 397.4 238.07 383.81 238.07"></polygon> <path class="cls-4" d="M378.41,270.35a4.08,4.08,0,1,1-4.08-4.08A4.08,4.08,0,0,1,378.41,270.35Z"></path> <circle class="cls-4" cx="407.93" cy="270.35" r="4.08"></circle> <rect class="cls-6" x="372.9" y="171.11" width="7.06" height="17.01"></rect> <rect class="cls-1" x="372.9" y="163.64" width="7.06" height="8.6"></rect> <rect class="cls-6" x="383.81" y="179.61" width="11.27" height="8.5"></rect> <path class="cls-4" d="M395,182.74a89.22,89.22,0,0,1-11,0,94.78,94.78,0,0,1,11,0Z"></path> <rect class="cls-3" x="387.66" y="184.23" width="7.28" height="2.19"></rect> <path class="cls-4" d="M395,186.44h-7.31v-2.22H395Zm-7.28,0h7.25v-2.16h-7.25Z"></path> <path class="cls-4" d="M292.11,128.46c-1.17-8.1-3.24-17-14.82-16.17,0,0-7.9,1.62-11.29,6.89-2,3.1-2.95,16.2-3.29,26.74h0c0,.43-.48,8.23-.49,8.65l33.15,5-1-9.76S292.83,133.5,292.11,128.46Z"></path> <path class="cls-7" d="M275.75,115.56l.73-.69L284.3,118a2.19,2.19,0,0,1,2.07,2.11l-.07,25.51a7.17,7.17,0,0,1-1.38,4.6l-1.1,1.45a5.77,5.77,0,0,1-9.65-.61,2.55,2.55,0,0,1-.27-.66,3.23,3.23,0,0,1-.12-.57c-.23-2.05-.25-3.83-.25-3.83-.14-2.25-.18-3.17-.18-3.15s-4.8-.55-6.09-6.71c-.65-3.06-.53-7.27-.34-11.41C267.17,119,271.14,115.56,275.75,115.56Z"></path> <path class="cls-4" d="M276,128.58a.78.78,0,0,0,.8.76.77.77,0,0,0,.79-.76.8.8,0,0,0-.81-.76A.76.76,0,0,0,276,128.58Z"></path> <path class="cls-4" d="M268.29,128.58a.78.78,0,0,0,.8.76.77.77,0,0,0,.79-.76.8.8,0,0,0-.81-.76A.76.76,0,0,0,268.29,128.58Z"></path> <path class="cls-4" d="M267.73,126.4c.11.1.69-.38,1.54-.42s1.51.35,1.6.25-.07-.24-.35-.42a2.14,2.14,0,0,0-1.28-.33A2,2,0,0,0,268,126C267.76,126.16,267.68,126.35,267.73,126.4Z"></path> <path class="cls-4" d="M276,126.49c.11.08.64-.45,1.49-.58s1.53.2,1.6.08-.08-.22-.39-.38a2.23,2.23,0,0,0-1.3-.19,2.12,2.12,0,0,0-1.17.59C276,126.25,276,126.45,276,126.49Z"></path> <path class="cls-4" d="M273.43,132.72a5.22,5.22,0,0,0-1.4-.18c-.22,0-.43,0-.48-.2a1.14,1.14,0,0,1,.12-.65c.18-.54.36-1.11.56-1.7a27.79,27.79,0,0,0,1.23-4.42,29.82,29.82,0,0,0-1.58,4.31c-.19.6-.37,1.16-.54,1.71a1.25,1.25,0,0,0-.07.86.56.56,0,0,0,.38.3,1.73,1.73,0,0,0,.37,0A5.65,5.65,0,0,0,273.43,132.72Z"></path> <path class="cls-8" d="M273.35,142.88a15.75,15.75,0,0,0,8.19-2.64s-1.87,4.4-8.11,4.13Z"></path> <path class="cls-8" d="M273.9,134.76a1.53,1.53,0,0,1,1.35-.64,1.41,1.41,0,0,1,1,.47.9.9,0,0,1,.12,1,1,1,0,0,1-1.11.34,3.43,3.43,0,0,1-1.13-.6,1,1,0,0,1-.25-.24.27.27,0,0,1,0-.32"></path> <path class="cls-4" d="M276,133.18c-.14,0-.1.93-.86,1.63s-1.75.65-1.75.78.22.17.64.16a2.32,2.32,0,0,0,1.47-.6,2,2,0,0,0,.66-1.36C276.16,133.4,276,133.17,276,133.18Z"></path> <path class="cls-4" d="M275.6,123.15c.12.22.95,0,2-.06s1.86.12,2-.11-.13-.3-.49-.47a3.09,3.09,0,0,0-1.5-.28,3.22,3.22,0,0,0-1.48.4C275.7,122.84,275.55,123,275.6,123.15Z"></path> <path class="cls-4" d="M267.86,122.72c.16.19.74,0,1.45-.09s1.31.06,1.44-.15-.05-.29-.32-.46a2,2,0,0,0-1.19-.26,2,2,0,0,0-1.14.45C267.86,122.42,267.79,122.63,267.86,122.72Z"></path> <path class="cls-4" d="M286.21,131s-4.38,1.36-6.86-9.46c-.85-3.7-4.28-6.7-4.28-6.7l1.39-.41s8.64,2.43,8.79,2.54,2.18,4.47,2.18,4.47Z"></path> <path class="cls-7" d="M285.13,130.62c0-.46.46-1.57.91-1.67,1.21-.25,3.41-.26,3.59,2.83.24,4.23-4.06,3.6-4.07,3.48S285.21,132.22,285.13,130.62Z"></path> <path class="cls-8" d="M286.76,133.58s.07,0,.2.1a.71.71,0,0,0,.55,0,1.8,1.8,0,0,0,.75-1.68,2.5,2.5,0,0,0-.26-1,.86.86,0,0,0-.59-.53.36.36,0,0,0-.42.23c-.05.12,0,.2,0,.21s-.1-.07-.07-.24a.43.43,0,0,1,.15-.28.54.54,0,0,1,.4-.13,1.06,1.06,0,0,1,.81.61,2.61,2.61,0,0,1,.32,1.17,1.91,1.91,0,0,1-1,1.88.78.78,0,0,1-.68-.07C286.77,133.68,286.74,133.59,286.76,133.58Z"></path> <path class="cls-6" d="M180.06,231.81l-4.51,11.76S162.08,242.93,161,245l22.48,9.57,7.78-18Z"></path> <path class="cls-1" d="M182.91,245.55a1,1,0,0,1,.19,1.32,1,1,0,0,1-1.3.2,1.06,1.06,0,0,1-.2-1.4,1,1,0,0,1,1.38-.06"></path> <g class="cls-9"> <path class="cls-3" d="M183.52,254.59l.71-1.85-21.82-8.48A1.66,1.66,0,0,0,161,245Z"></path> </g> <path class="cls-4" d="M175.56,243.62c-.05.11.48.39.87,1s.48,1.17.6,1.17.23-.7-.26-1.4S175.58,243.51,175.56,243.62Z"></path> <path class="cls-4" d="M172.46,243.6c-.07.1.32.49.5,1.11s.07,1.16.18,1.2.45-.55.22-1.32S172.51,243.5,172.46,243.6Z"></path> <path class="cls-4" d="M169.92,245.87c.09.07.47-.41.45-1.14s-.44-1.17-.52-1.1.09.53.1,1.12S169.81,245.82,169.92,245.87Z"></path> <path class="cls-4" d="M176.8,240.85c0,.12.57.19,1.18.49s1,.71,1.1.64-.21-.66-.92-1S176.78,240.74,176.8,240.85Z"></path> <path class="cls-4" d="M176.56,238.45,190,244.26l14.65-35.46,41.05,7.07,4.77-17.8-45.94-8s-10.64-.43-11.94,2.42S176.56,238.45,176.56,238.45Z"></path> <polygon class="cls-1" points="244.67 272.27 224.64 274.85 271.91 274.85 253.89 272.27 244.67 272.27"></polygon> <path class="cls-5" d="M235.92,219.18V205.06a9.52,9.52,0,0,1,9.52-9.52h24.83l18.36-33h9.71a4.35,4.35,0,0,1,3.85,6.38L275.78,219Z"></path> <rect class="cls-1" x="244.67" y="238.21" width="9.21" height="35.26"></rect> <rect class="cls-1" x="248.05" y="225.37" width="2.46" height="14.97"></rect> <path class="cls-5" d="M275.78,226.61H228.54a4.27,4.27,0,0,1-4.27-4.26h0a4.27,4.27,0,0,1,4.27-4.27h47.24Z"></path> <path class="cls-4" d="M253.89,238.21a76,76,0,0,1-9.22,0,70.92,70.92,0,0,1,9.22,0Z"></path> <path class="cls-6" d="M292.77,151.37c-1.43-4-4-6.43-8.21-7.16-.53-.09-11.83,2.33-11.83,2.33L236,174.92l-27,6.64a18.81,18.81,0,0,0-6.92,3.29l-6.94,4.2c-2.94,2.23-4.17,5.57-5.41,9l-10.12,28.39s12,3.49,21.32,1.35,6.4-6.44,15.9-8.84,7.17,1.09,20-.85,1.36-10.85,10.08-11,.39,2.51,11.82,4.06,18.61-15,27.14-15.25,18.07-1,18.07-1Z"></path> <path class="cls-4" d="M221.63,210.93c-.08,0-.54-3.69-1-8.26s-.81-8.29-.73-8.29.54,3.69,1,8.26S221.71,210.92,221.63,210.93Z"></path> <path class="cls-3" d="M193.89,219.69a11.2,11.2,0,0,0-1.46-1.06,8,8,0,0,0-4.18-.85,21.91,21.91,0,0,0-4.29.79,9.89,9.89,0,0,0-1.26.37,3,3,0,0,0-.4.25s.06-.18.34-.35a7,7,0,0,1,1.27-.46,17.85,17.85,0,0,1,4.33-.89,7.49,7.49,0,0,1,4.29,1,4.46,4.46,0,0,1,1.06.84A1.57,1.57,0,0,1,193.89,219.69Z"></path> <path class="cls-3" d="M210,214.73a4.7,4.7,0,0,1-.48.58c-.31.36-.79.87-1.39,1.49a21.79,21.79,0,0,1-5.28,4.16,11,11,0,0,1-6.55,1.31,7.59,7.59,0,0,1-2-.55c-.22-.09-.38-.2-.5-.25l-.16-.11a11.53,11.53,0,0,0,2.66.7,11.34,11.34,0,0,0,6.4-1.35,24.74,24.74,0,0,0,5.27-4.06l1.45-1.42A4.32,4.32,0,0,1,210,214.73Z"></path> <path class="cls-3" d="M220.74,207.69c0,.06-.64-.1-1.66-.12a10,10,0,0,0-1.79.15,10.08,10.08,0,0,0-2.1.65,10.44,10.44,0,0,0-1.9,1.11A9.41,9.41,0,0,0,212,210.7c-.68.77-1,1.34-1,1.31s.05-.16.18-.42a4.36,4.36,0,0,1,.28-.45,5.5,5.5,0,0,1,.42-.58,8,8,0,0,1,1.31-1.29,9.33,9.33,0,0,1,1.94-1.17,9.62,9.62,0,0,1,2.17-.64,8,8,0,0,1,1.84-.1,6.38,6.38,0,0,1,.71.08,3.85,3.85,0,0,1,.52.11A1.43,1.43,0,0,1,220.74,207.69Z"></path> <path class="cls-3" d="M242.71,203.36s0,.09-.09.24-.17.38-.31.66A24.14,24.14,0,0,1,241,206.6a13.37,13.37,0,0,1-2.6,3,10.69,10.69,0,0,1-4.4,2.12,19.43,19.43,0,0,1-4.86.45,17,17,0,0,1-3.95-.52,11.18,11.18,0,0,1-2.52-.95,6.27,6.27,0,0,1-.63-.37c-.14-.09-.21-.14-.2-.15s.31.16.88.42a13,13,0,0,0,2.52.85,17.5,17.5,0,0,0,3.9.45,19.29,19.29,0,0,0,4.79-.47,10.61,10.61,0,0,0,4.3-2,13.9,13.9,0,0,0,2.6-2.92c.63-.93,1.07-1.73,1.38-2.28A7.36,7.36,0,0,1,242.71,203.36Z"></path> <path class="cls-3" d="M251.4,200a6.11,6.11,0,0,0-1.05-.65,5.84,5.84,0,0,0-2.94-.26,17.83,17.83,0,0,0-4.08,1.23,3.8,3.8,0,0,1,1.09-.66,10.21,10.21,0,0,1,3-.85,5.3,5.3,0,0,1,3.05.35,2.59,2.59,0,0,1,.77.56C251.35,199.87,251.41,200,251.4,200Z"></path> <path class="cls-3" d="M273.28,194.24a.86.86,0,0,1-.08.25c-.07.19-.16.43-.27.7a12.61,12.61,0,0,1-1.29,2.45,14.67,14.67,0,0,1-7.1,5.55,14.11,14.11,0,0,1-5,.82,14.73,14.73,0,0,1-4.06-.63,12.51,12.51,0,0,1-2.54-1.07c-.29-.15-.5-.29-.65-.38l-.21-.16s.33.16.91.44a15.08,15.08,0,0,0,2.55,1,15.39,15.39,0,0,0,4,.55,14,14,0,0,0,4.85-.83,14.21,14.21,0,0,0,4.28-2.44,14.52,14.52,0,0,0,2.75-2.95,13.34,13.34,0,0,0,1.35-2.38l.33-.67A.86.86,0,0,1,273.28,194.24Z"></path> <path class="cls-3" d="M302,187.35a1.73,1.73,0,0,1-.3,0l-.87-.16-3.16-.65a38.92,38.92,0,0,0-10.55-.93,20.18,20.18,0,0,0-9.93,3.33,14.67,14.67,0,0,0-2.44,2.09c-.51.56-.77.89-.79.87a1.48,1.48,0,0,1,.16-.25c.13-.16.29-.41.55-.7a14,14,0,0,1,2.4-2.18,19.68,19.68,0,0,1,10-3.45,36.2,36.2,0,0,1,10.62,1c1.33.29,2.41.55,3.15.73l.85.22A.87.87,0,0,1,302,187.35Z"></path> <path class="cls-3" d="M195.89,208.55a7.76,7.76,0,0,0-1-1,8.69,8.69,0,0,0-3.16-1.26,9.1,9.1,0,0,0-3.4-.26,9.33,9.33,0,0,0-1.36.41s.1-.11.32-.23a3.55,3.55,0,0,1,1-.38,10,10,0,0,1,6.73,1.55,3.57,3.57,0,0,1,.73.79C195.85,208.41,195.91,208.54,195.89,208.55Z"></path> <path class="cls-3" d="M211.75,204.34a2.76,2.76,0,0,1-.39.63,14.3,14.3,0,0,1-1.29,1.56,16.87,16.87,0,0,1-5.46,3.77,16.58,16.58,0,0,1-3.51,1.06,10.27,10.27,0,0,1-3,.19,3.92,3.92,0,0,1-1.91-.67,2.27,2.27,0,0,1-.41-.38.67.67,0,0,1-.11-.16s.19.19.58.44a4.09,4.09,0,0,0,1.87.57,11.24,11.24,0,0,0,2.93-.25,17.52,17.52,0,0,0,8.88-4.72C211.12,205.19,211.71,204.31,211.75,204.34Z"></path> <path class="cls-4" d="M197.88,200.77a4.8,4.8,0,0,1-.15.89c-.13.63-.3,1.44-.5,2.43-.43,2-1,4.88-1.58,8s-1,6-1.33,8.06c-.16,1-.28,1.82-.38,2.45a5.57,5.57,0,0,1-.17.9,5.1,5.1,0,0,1,.06-.91c0-.58.15-1.43.28-2.46.27-2.08.69-5,1.26-8.09s1.17-6,1.65-8c.24-1,.45-1.85.6-2.41A5,5,0,0,1,197.88,200.77Z"></path> <g class="cls-10"> <path d="M198.37,220.72c-.25-5.74-.61-10.91-1.11-16.64l-.07-.36c-1.36,6.65-3.05,12.94-3.18,19.58a3,3,0,0,0,.22,1.46c.63,1.19,2.59.94,3.39-.14A6,6,0,0,0,198.37,220.72Z"></path> </g> <path class="cls-4" d="M210.28,218.08c-.08,0,.61-6.28,1.54-14s1.75-14,1.83-14-.61,6.28-1.54,14S210.36,218.09,210.28,218.08Z"></path> <path class="cls-3" d="M220.43,200.7c0,.05-.47-.15-1.24-.31a8,8,0,0,0-3-.06,8.35,8.35,0,0,0-2.84,1.07c-.66.41-1,.75-1.06.71a3.35,3.35,0,0,1,.95-.88,7.31,7.31,0,0,1,6-1A3.14,3.14,0,0,1,220.43,200.7Z"></path> <path class="cls-3" d="M244.08,192.51a.84.84,0,0,1-.1.26c-.08.17-.2.42-.37.73A20.77,20.77,0,0,1,242,196a23.21,23.21,0,0,1-3,3.3,11.64,11.64,0,0,1-2.14,1.55,12.41,12.41,0,0,1-2.62,1.07,22.24,22.24,0,0,1-9.81.6,20.93,20.93,0,0,1-2.92-.69l-.76-.27c-.18-.07-.27-.11-.26-.12a10.42,10.42,0,0,1,1.06.28,25.08,25.08,0,0,0,2.91.6,23.17,23.17,0,0,0,9.7-.68,13.29,13.29,0,0,0,2.57-1,12.11,12.11,0,0,0,2.09-1.5,23.21,23.21,0,0,0,3-3.23,24.07,24.07,0,0,0,1.67-2.46C243.88,192.84,244.06,192.5,244.08,192.51Z"></path> <path class="cls-3" d="M251.22,190.32a7.1,7.1,0,0,0-1-.52,6,6,0,0,0-2.7-.13,6.09,6.09,0,0,0-2.57.88c-.58.39-.82.78-.86.74a2,2,0,0,1,.74-.91,5.57,5.57,0,0,1,2.65-1,5.47,5.47,0,0,1,2.82.23A1.82,1.82,0,0,1,251.22,190.32Z"></path> <path class="cls-3" d="M273.26,182.77s0,.08-.13.22-.24.34-.44.59a26,26,0,0,1-1.75,2.07,21.5,21.5,0,0,1-7.19,5.23,14.16,14.16,0,0,1-8.81.79,10,10,0,0,1-2.52-1,4.91,4.91,0,0,1-.63-.39l-.21-.15a15.16,15.16,0,0,0,3.41,1.32,14.38,14.38,0,0,0,8.64-.86,22.37,22.37,0,0,0,7.16-5.11c.8-.81,1.4-1.5,1.82-2S273.25,182.76,273.26,182.77Z"></path> <path class="cls-3" d="M299.53,178.39a1.28,1.28,0,0,1-.28-.07l-.78-.27c-.68-.24-1.66-.58-2.88-1a31.8,31.8,0,0,0-9.82-1.58,19.25,19.25,0,0,0-9.53,2.44,15.11,15.11,0,0,0-2.44,1.77,9.38,9.38,0,0,1-.83.74,1,1,0,0,1,.18-.22,8.34,8.34,0,0,1,.57-.61,13.48,13.48,0,0,1,2.41-1.85,18.79,18.79,0,0,1,9.64-2.57,30.48,30.48,0,0,1,9.88,1.68c1.22.41,2.19.78,2.86,1.05l.76.32Z"></path> <path class="cls-4" d="M274.1,198.07a1,1,0,0,1-.05-.3q0-.35-.06-.87c-.06-.8-.13-1.88-.21-3.2-.17-2.7-.42-6.44-.74-10.56s-.67-7.84-.93-10.54c-.12-1.32-.22-2.4-.3-3.19,0-.35-.05-.64-.07-.87a1.23,1.23,0,0,1,0-.31,1.21,1.21,0,0,1,.06.3c0,.23.08.52.13.86.1.76.23,1.84.39,3.19.31,2.69.68,6.42,1,10.54s.54,7.86.66,10.57c.05,1.35.09,2.45.11,3.21,0,.35,0,.64,0,.87A1.36,1.36,0,0,1,274.1,198.07Z"></path> <path class="cls-4" d="M251.85,179.22a.8.8,0,0,1,0,.27v.78c0,.71,0,1.68,0,2.84,0,2.41,0,5.73,0,9.4s.23,7,.36,9.39c.07,1.17.12,2.13.16,2.85,0,.31,0,.56,0,.77a1.1,1.1,0,0,1,0,.27,1.44,1.44,0,0,1-.05-.26l-.09-.77c-.07-.67-.15-1.64-.24-2.84-.18-2.41-.37-5.73-.45-9.4s0-7,0-9.41c0-1.2.08-2.18.12-2.85l.05-.77A1.14,1.14,0,0,1,251.85,179.22Z"></path> <g class="cls-10"> <path d="M252.07,204.67a6.61,6.61,0,0,0,7.86,4.32,2.12,2.12,0,0,0,.81-.4,2,2,0,0,0,.49-1c.62-2.63-.62-5.29-1.82-7.7q-2.43-4.87-4.85-9.73c-1.11-2.23-2.55-5.41-2.8-7.89Z"></path> </g> <path class="cls-4" d="M245.18,177.56c.08,0-.35,6.26-1,14s-1.16,14-1.24,14,.35-6.27.95-14S245.1,177.55,245.18,177.56Z"></path> <g class="cls-10"> <path d="M220,195.35a101.54,101.54,0,0,0,5.37,18.4,5,5,0,0,1,.45,1.68,1.64,1.64,0,0,1-.72,1.49,2.52,2.52,0,0,1-1.22.2,1.63,1.63,0,0,1-1.24-.36,1.67,1.67,0,0,1-.31-.93c-.82-6.83-1.51-13.57-2.33-20.39"></path> </g> <path class="cls-5" d="M185.39,275.14H150.84a1.68,1.68,0,0,1,0-3.35h34.55a6.71,6.71,0,0,0,2.47-12.94l-32.12-12.76A1.68,1.68,0,0,1,157,243l32.12,12.76a10.06,10.06,0,0,1-3.71,19.41Z"></path> <path class="cls-6" d="M331.37,120l-3.06-3.55s8.53-10,10.77-10.47,5.93-.84,5.93-.84Z"></path> <path class="cls-4" d="M339.63,184.21l-.27.1-.78.28c-.7.24-1.73.57-3.07.95a66.63,66.63,0,0,1-11.59,2.16,25.77,25.77,0,0,1-8.15-.3,13.1,13.1,0,0,1-4.22-1.72,10.94,10.94,0,0,1-3.44-3.4,9.11,9.11,0,0,1-1-2.33,10.14,10.14,0,0,1-.26-2.58,20,20,0,0,1,1.13-5.18,38.12,38.12,0,0,0,1.5-5.22,9.75,9.75,0,0,0-.47-5.44c-.63-1.77-1.53-3.5-1.59-5.42a9.58,9.58,0,0,1,.25-2.78,18.79,18.79,0,0,1,.88-2.59c.68-1.66,1.51-3.22,2.19-4.8a13.06,13.06,0,0,0,1.26-4.8,8.37,8.37,0,0,0-1.19-4.51c-.74-1.35-1.65-2.57-2.46-3.79A12,12,0,0,1,306.5,129a6.25,6.25,0,0,1,.36-3.89c.48-1.17,1.1-2.18,1.43-3.25a12.1,12.1,0,0,0,.61-3.07,21.49,21.49,0,0,0-.28-5c-.21-1.38-.45-2.43-.6-3.15l-.18-.81a1.55,1.55,0,0,1,0-.28,41.14,41.14,0,0,1,.95,4.22,21.34,21.34,0,0,1,.34,5.06,12.5,12.5,0,0,1-.6,3.13c-.33,1.09-.95,2.12-1.41,3.26a6,6,0,0,0-.33,3.75,11.81,11.81,0,0,0,1.83,3.74c.81,1.22,1.73,2.43,2.49,3.81a8.72,8.72,0,0,1,1.24,4.66,13.49,13.49,0,0,1-1.28,4.92c-.68,1.59-1.5,3.15-2.18,4.79a18.64,18.64,0,0,0-.86,2.55,9.64,9.64,0,0,0-.24,2.68c.05,1.83.93,3.53,1.57,5.32a10.12,10.12,0,0,1,.49,5.62,38.5,38.5,0,0,1-1.52,5.26,19.72,19.72,0,0,0-1.12,5.09,9,9,0,0,0,.25,2.49,7.7,7.7,0,0,0,1,2.24,10.45,10.45,0,0,0,3.33,3.32,13,13,0,0,0,4.12,1.7,25.85,25.85,0,0,0,8.06.34,69.46,69.46,0,0,0,11.59-2.06c1.34-.35,2.37-.67,3.07-.88l.8-.25A1.28,1.28,0,0,1,339.63,184.21Z"></path> <polygon class="cls-11" points="312.83 104.23 337.9 127.67 326.59 135.12 310.21 110.53 312.83 104.23"></polygon> <path class="cls-11" d="M302.32,103.21s-.64.15-.8.54.29,1,.68,1.28a2,2,0,0,0,0,1,1.07,1.07,0,0,0,.52.72l.33.09a1.26,1.26,0,0,0,0,1.09,1.51,1.51,0,0,0,1.05.49s-.49.65-.24,1a1.54,1.54,0,0,0,1.09.59,13.61,13.61,0,0,0,4.23-.78l2.38,3.23,3.94-5.8-4.65-4.59L306,100l-.72,1,.72,1.22Z"></path> <path class="cls-8" d="M306.83,105s-.07-.14-.16-.36a7.41,7.41,0,0,1-.29-.9,2.13,2.13,0,0,1-.05-.92c.05-.23.13-.36.11-.38s-.15.09-.25.34a1.8,1.8,0,0,0,0,1,3.67,3.67,0,0,0,.36.92C306.67,105,306.82,105.05,306.83,105Z"></path> <polygon class="cls-5" points="291.26 106.56 288.74 108.13 286.6 111.89 281.94 104.48 286.14 104.3 288.3 102.43 291.26 106.56"></polygon> <path class="cls-4" d="M308.75,95.49a16.69,16.69,0,0,1-4.12,4.18c-2.09,1.23-13.5,7-13.5,7l-2.83-4.19s8.63-7.71,10.35-9.41,4.79-2.53,6.22-2.8a1.33,1.33,0,0,1,1.31.52C307.1,92,309.14,94.49,308.75,95.49Z"></path> <path class="cls-4" d="M305.72,98.63s2.68,5.42,3.2,6.92a16,16,0,0,1,.63,3.52l-2.6.78-4.48-9.16Z"></path> <path class="cls-11" d="M306.2,102.83a1.66,1.66,0,0,0-.74-.15,11.49,11.49,0,0,0-3.56.7l1,1.44a13.2,13.2,0,0,0,2.9-.64c.36-.13.79-.35.81-.74A.67.67,0,0,0,306.2,102.83Z"></path> <path class="cls-11" d="M302.29,105.18a11.26,11.26,0,0,1,3.56-.7,1.6,1.6,0,0,1,.75.15.71.71,0,0,1,.39.61c0,.39-.45.61-.82.74a13.07,13.07,0,0,1-2.9.64"></path> <path class="cls-11" d="M303,106.84a11.53,11.53,0,0,1,3.56-.69,1.6,1.6,0,0,1,.75.15.71.71,0,0,1,.39.61c0,.39-.45.61-.82.74a13.66,13.66,0,0,1-2.9.64"></path> <path class="cls-11" d="M304.24,108.26a14.66,14.66,0,0,1,2.35-.69,1.24,1.24,0,0,1,.75.15.73.73,0,0,1,.39.62c0,.39-.45.61-.82.73a10,10,0,0,1-2.37.84"></path> <path class="cls-4" d="M288.74,108.13a15.92,15.92,0,0,1-2.6-3.83,8.38,8.38,0,0,1,1.44,1.82A8,8,0,0,1,288.74,108.13Z"></path> <path class="cls-5" d="M306,98.63a8.58,8.58,0,0,1-3.83,2.2,51.76,51.76,0,0,1,3.83-2.2Z"></path> <path class="cls-5" d="M307.05,97.55c-.1,0-.8-1.65-2.08-3.51s-2.59-3.13-2.52-3.21a3.75,3.75,0,0,1,.94.78,15.92,15.92,0,0,1,1.86,2.24,16.55,16.55,0,0,1,1.42,2.56A3.77,3.77,0,0,1,307.05,97.55Z"></path> <path class="cls-5" d="M303.05,97.59s-.08.18-.3.46a4.75,4.75,0,0,1-1.11,1,2.1,2.1,0,0,1-2.24.06,1.42,1.42,0,0,1-.47-.53c-.12-.22-.16-.45-.24-.62a.46.46,0,0,0-.39-.3.7.7,0,0,0-.53.18,3,3,0,0,0-.65,1.14l-.52,1.2a2.79,2.79,0,0,1-.62,1.06.77.77,0,0,1-.61.15.94.94,0,0,1-.5-.24,1.17,1.17,0,0,1-.42-.79,2.06,2.06,0,0,1,0-.67,1.67,1.67,0,0,1,.15-.53,2.11,2.11,0,0,1,0,.55A1.39,1.39,0,0,0,295,101a.65.65,0,0,0,.79.06,2.93,2.93,0,0,0,.51-1l.5-1.21a3.31,3.31,0,0,1,.73-1.27,1.11,1.11,0,0,1,.78-.25.8.8,0,0,1,.66.49c.1.24.13.46.22.62a1,1,0,0,0,.36.41,1.63,1.63,0,0,0,1,.27,2,2,0,0,0,.91-.28,5.07,5.07,0,0,0,1.13-.92A3.73,3.73,0,0,1,303.05,97.59Z"></path> <path class="cls-11" d="M307.65,102.75a.57.57,0,0,1,.42.5,2.29,2.29,0,0,1,0,.69,4.28,4.28,0,0,0,2.34,4.34"></path> <path class="cls-12" d="M310.37,108.28s-.39-.06-.89-.43a4.27,4.27,0,0,1-1.64-3.26,5,5,0,0,1,.13-1.07.78.78,0,0,0-.13-.6c-.1-.12-.19-.15-.19-.17s.12,0,.28.07a.86.86,0,0,1,.27.72,6.77,6.77,0,0,0-.05,1,4.55,4.55,0,0,0,.24,1.21,4.73,4.73,0,0,0,1.24,1.88C310.07,108.06,310.4,108.24,310.37,108.28Z"></path> <path class="cls-4" d="M348.05,73.51a3.18,3.18,0,0,0,.81-4,5,5,0,0,0-3.69-2.32,6.92,6.92,0,0,0-5.93,2.11c-.81.86-1.45,2-2.55,2.39s-2.06.07-3.09.23a4.64,4.64,0,0,0-3.21,2.42,10.17,10.17,0,0,0-1.08,4c-.12,1.27-.19,2.66-1.05,3.6S326.07,83,325,83.69a4.48,4.48,0,0,0-1.2,6.15c.43.6,1.05,1.16,1.12,1.9a5.73,5.73,0,0,1-.56,1.94,3,3,0,0,0,2.66,3.7c.89,0,1.82-.33,2.62.05s1.11,1.32,1.63,2a3.76,3.76,0,0,0,4.63,1.09c.65-.33,1.25-.87,2-.83s1.3.63,2,.76a2.57,2.57,0,0,0,2.34-1.33,13,13,0,0,1,1.59-2.33,9.61,9.61,0,0,1,3.37-1.5,9.58,9.58,0,0,0,5.12-13.52"></path> <path class="cls-5" d="M334.94,90.42a2.57,2.57,0,0,0-1-.66H334l-.22,0a1,1,0,0,0-.8.12h0a1.88,1.88,0,0,0-1,.93,2.25,2.25,0,0,0,.32,2.32,1.72,1.72,0,0,0,3.15-.66A2.12,2.12,0,0,0,334.94,90.42Z"></path> <path class="cls-11" d="M352.2,108.32l.64-29.56A2.1,2.1,0,0,0,351,76.61L339.81,73.7c-3.57-.41-6,4-6.24,7.57a64.26,64.26,0,0,0,0,11.86c.91,6,5.49,6.79,5.49,6.79s0,5.39,0,7.57l.56,7.48Z"></path> <path class="cls-4" d="M334.9,86.09a.78.78,0,0,0,.74.78.73.73,0,0,0,.79-.69.77.77,0,0,0-.73-.78A.74.74,0,0,0,334.9,86.09Z"></path> <path class="cls-4" d="M334.61,83.82c.09.1.68-.32,1.51-.32s1.43.43,1.52.33-.06-.23-.32-.42a2.19,2.19,0,0,0-1.21-.39,2,2,0,0,0-1.2.38C334.65,83.59,334.56,83.78,334.61,83.82Z"></path> <path class="cls-4" d="M342.4,86.09a.77.77,0,0,0,.74.78.73.73,0,0,0,.79-.69.77.77,0,0,0-.73-.78A.74.74,0,0,0,342.4,86.09Z"></path> <path class="cls-4" d="M342.42,83.82c.1.1.68-.32,1.51-.32s1.43.43,1.52.33-.05-.23-.32-.42a2.19,2.19,0,0,0-1.21-.39,2,2,0,0,0-1.2.38C342.46,83.59,342.37,83.78,342.42,83.82Z"></path> <path class="cls-4" d="M339.69,90.14a5.91,5.91,0,0,0-1.34-.25c-.21,0-.41-.07-.45-.21a1.06,1.06,0,0,1,.15-.63l.63-1.6a27.78,27.78,0,0,0,1.44-4.19,26,26,0,0,0-1.77,4.07l-.61,1.61a1.27,1.27,0,0,0-.12.83.56.56,0,0,0,.35.31,1.63,1.63,0,0,0,.36,0A5.24,5.24,0,0,0,339.69,90.14Z"></path> <path class="cls-12" d="M339,99.92a15.24,15.24,0,0,0,8-2.08s-2.05,4.09-8,3.48Z"></path> <path class="cls-12" d="M342.37,91.85c-.24-.38-.25-.81-.68-.83a3.74,3.74,0,0,0-2.08.91c-.1.11.05.51.1.64a1,1,0,0,0,.26.31c.37.32.52.68,1,.8a1.34,1.34,0,0,0,1.39-.5A1.27,1.27,0,0,0,342.37,91.85Z"></path> <path class="cls-4" d="M342.39,80.63c.08.23.91.13,1.88.25s1.75.39,1.88.19-.08-.3-.39-.52a3.29,3.29,0,0,0-2.86-.34C342.54,80.35,342.36,80.52,342.39,80.63Z"></path> <path class="cls-4" d="M334.92,81c.15.19.72,0,1.4,0s1.27.14,1.4-.06,0-.28-.28-.46a2,2,0,0,0-1.14-.32,2,2,0,0,0-1.12.37C334.94,80.69,334.86,80.89,334.92,81Z"></path> <path class="cls-4" d="M329.51,80.1A4.11,4.11,0,0,1,331,77.8c.43-.29.92-.47,1.32-.8.85-.72,1-1.94,1.54-2.92a4.53,4.53,0,0,1,3.39-2.36c1.18-.14,2.41.19,3.56-.13.85-.23,1.59-.8,2.45-1,1.68-.35,3.27.83,4.52,2,0,1.21-.91,2-1.82,2.83a4.18,4.18,0,0,1-3.37,1c-.93-.15-1.95-.6-2.73-.09s-.84,1.8-1.57,2.46c-1,.94-2.75.11-4.09.54-1,.33-1.67,1.34-2.34,2.19s-1.7,1.68-2.75,1.39A12.4,12.4,0,0,1,329.51,80.1Z"></path> <path class="cls-4" d="M342.06,74.73c.75-.23,2.29-.75,2.68-1.41a4.62,4.62,0,0,1,4-2.4,3.83,3.83,0,0,1,3.5,3A5.47,5.47,0,0,1,357,76.8a6.29,6.29,0,0,1,.32.7,4.16,4.16,0,0,1,.35,3.49c-.25.69-.68,1.46-.31,2.09s1.27.65,2,.88A2.77,2.77,0,0,1,361.13,87a3.21,3.21,0,0,0-.19,1.36,2.86,2.86,0,0,0,.84,1.16,3.54,3.54,0,0,1,.67,3.38,3.51,3.51,0,0,1-2.58,2.28,4.22,4.22,0,0,0-1.58.39c-.52.34-.74,1-1.11,1.5a3,3,0,0,1-3.2,1.07,2.83,2.83,0,0,1-.66-.31c-.34.51,0,.71-1,.73l-.94-12.48a1.05,1.05,0,0,1-.75.62c-2,.5-2.4-3.67-2-4.81a12.1,12.1,0,0,1-2.08-2.09,8.46,8.46,0,0,1-1-4.08C344.86,75.8,341.73,74.84,342.06,74.73Z"></path> <path class="cls-11" d="M350.87,87.14c0-1.28,1.6-1.59,2.73-1a2.4,2.4,0,0,1,1.07,2.4c-.07,3.64-3.71,2.81-3.71,2.71S350.83,88.64,350.87,87.14Z"></path> <path class="cls-12" d="M352.1,89.92s.06,0,.17.1a.61.61,0,0,0,.47,0,1.56,1.56,0,0,0,.75-1.39,1.92,1.92,0,0,0-.16-.91.73.73,0,0,0-.46-.5.33.33,0,0,0-.38.17c-.05.1,0,.17-.05.18s-.08-.06,0-.21a.38.38,0,0,1,.14-.23.48.48,0,0,1,.36-.08.88.88,0,0,1,.65.57,2.38,2.38,0,0,1,.2,1,1.65,1.65,0,0,1-1,1.55.68.68,0,0,1-.58-.11C352.1,90,352.08,89.93,352.1,89.92Z"></path> <path class="cls-5" d="M347,73.65a2.3,2.3,0,0,1,.74.59,3.38,3.38,0,0,1,.32,2.51l0,.09.09,0a3.5,3.5,0,0,1,2.38,2,3,3,0,0,1,.21.88,5.56,5.56,0,0,1-.09,1,5.69,5.69,0,0,0-.12,1,1.66,1.66,0,0,0,.31,1.07,4.38,4.38,0,0,0,1.83,1.31,6.21,6.21,0,0,1,1.71,1.07,4.56,4.56,0,0,1,1.42,3,4.87,4.87,0,0,1-.43,2.25c-.24.5-.43.74-.41.76l.15-.17a3.19,3.19,0,0,0,.34-.55,4.61,4.61,0,0,0,.53-2.3A4.69,4.69,0,0,0,354.56,85a6.14,6.14,0,0,0-1.76-1.12,4.31,4.31,0,0,1-1.73-1.24,2.53,2.53,0,0,1-.16-1.92,4.81,4.81,0,0,0,.09-1,2.81,2.81,0,0,0-.23-1,3.67,3.67,0,0,0-2.56-2.11l.07.12a3.38,3.38,0,0,0-.42-2.61,1.42,1.42,0,0,0-.58-.45A.86.86,0,0,0,347,73.65Z"></path> <path class="cls-5" d="M353.48,91.25a2.66,2.66,0,0,0-1-.65h.07a1.46,1.46,0,0,0-.22,0,1.05,1.05,0,0,0-.8.11h0a2,2,0,0,0-1,.93,2.27,2.27,0,0,0,.32,2.33,1.9,1.9,0,0,0,1.89.73,1.93,1.93,0,0,0,1.26-1.39A2.14,2.14,0,0,0,353.48,91.25Z"></path> <path class="cls-4" d="M340.73,93.66c0-.06.4,0,.93-.22a1,1,0,0,0,.64-.62,1.58,1.58,0,0,0-.19-1.13,1.69,1.69,0,0,0-.29-.49c-.07,0-.27,0-.46.1l-1,.37a3,3,0,0,1-.95.26c0-.05.31-.23.86-.48l1-.44.3-.12a.55.55,0,0,1,.43,0,.68.68,0,0,1,.27.31c.05.1.11.2.16.31a1.75,1.75,0,0,1,.18,1.37,1.17,1.17,0,0,1-.86.76A1.7,1.7,0,0,1,340.73,93.66Z"></path> <path class="cls-5" d="M337.1,255.85l.4,12s-12,4.43-12.14,6.64l23.19,0,.13-18.64Z"></path> <path class="cls-1" d="M344.68,266.8a1,1,0,0,1,.65,1.09.9.9,0,0,1-1.06.65,1,1,0,0,1-.69-1.15,1,1,0,0,1,1.19-.56"></path> <g class="cls-9"> <path class="cls-3" d="M348.55,274.48l-.06-1.88-22.22.67s-1,.44-.91,1.17Z"></path> </g> <path class="cls-4" d="M337.13,267.68c0,.11.57.16,1.13.53s.85.84.95.8-.06-.7-.74-1.13S337.1,267.57,337.13,267.68Z"></path> <path class="cls-4" d="M334.69,268.68c0,.11.47.3.85.78s.5,1,.61,1,.19-.65-.3-1.24S334.7,268.57,334.69,268.68Z"></path> <path class="cls-4" d="M333.31,271.59c.1,0,.26-.54,0-1.16s-.82-.87-.87-.78.28.43.51.94S333.19,271.58,333.31,271.59Z"></path> <path class="cls-4" d="M337.34,264.94c.05.11.57-.05,1.21,0s1.13.24,1.19.15-.42-.5-1.17-.55S337.28,264.86,337.34,264.94Z"></path> <path class="cls-5" d="M321.61,255.85l.41,12s-12,4.43-12.15,6.64l23.2,0,.12-18.64Z"></path> <path class="cls-1" d="M329.19,266.8a1,1,0,0,1,.65,1.09.9.9,0,0,1-1.06.65,1,1,0,0,1-.69-1.15,1,1,0,0,1,1.19-.56"></path> <g class="cls-9"> <path class="cls-3" d="M333.07,274.48,333,272.6l-22.22.67s-1,.44-.92,1.17Z"></path> </g> <path class="cls-4" d="M321.64,267.68c0,.11.57.16,1.13.53s.85.84,1,.8-.06-.7-.74-1.13S321.62,267.57,321.64,267.68Z"></path> <path class="cls-4" d="M319.21,268.68c0,.11.46.3.84.78s.5,1,.61,1,.19-.65-.3-1.24S319.21,268.57,319.21,268.68Z"></path> <path class="cls-4" d="M317.82,271.59c.1,0,.26-.54,0-1.16s-.82-.87-.87-.78.28.43.51.94S317.71,271.58,317.82,271.59Z"></path> <path class="cls-4" d="M321.85,264.94c0,.11.57-.05,1.21,0s1.14.24,1.2.15-.42-.5-1.18-.55S321.79,264.86,321.85,264.94Z"></path> <path class="cls-4" d="M346.43,181.07c.22.93,2.92,41.51,2.92,41.51s2.29,9.4,1.1,23.58L349,264.28H337.19l-1.65-40.18-3-7.64-.33-42.37Z"></path> <path class="cls-4" d="M320.21,187.4c0,6.25-3,28.48-2.15,29.82s3.05,47.33,3.05,47.33h12.15s3.77-28.49,2.88-35.44-1.16-13-1.16-13l9.23-33a15.76,15.76,0,0,0,7.36-11.75c.78-7.57-5.14-16.79-5.14-16.79l-24.34,4.77Z"></path> <path class="cls-5" d="M348.9,178.65a3.4,3.4,0,0,1-.24.36,10,10,0,0,1-.84,1c-.77.79-2,1.9-3.56,3.23l0,0c-1.91,6.9-5.27,19-9.16,33v0c.15,1.26.3,2.6.45,4l1,9c0,.36.09.72.11,1.08l.06,1.09c0,.72,0,1.43,0,2.13s-.07,1.39-.1,2.08l-.14,2c-.43,5.34-1,10.12-1.47,14.14s-.93,7.27-1.24,9.51c-.16,1.11-.28,2-.37,2.58l-.11.67a2.32,2.32,0,0,1,0,.23,1,1,0,0,1,0-.23c0-.17.05-.39.08-.68.07-.6.18-1.47.32-2.58.27-2.27.66-5.51,1.14-9.52s1-8.81,1.41-14.14c0-.67.09-1.35.14-2s.06-1.37.09-2.07,0-1.4,0-2.11c0-.36,0-.71-.05-1.07s-.08-.72-.12-1.08l-1-9c-.15-1.35-.3-2.7-.45-4v-.06l9.3-32.95v0h0c1.6-1.32,2.82-2.4,3.61-3.18.39-.39.68-.69.86-.91S348.89,178.64,348.9,178.65Z"></path> <polygon class="cls-6" points="345.26 148.56 350.73 162.66 334.98 164.87 334.98 148.56 345.26 148.56"></polygon> <path class="cls-5" d="M323.47,141.79s-1.62,1.64-2.66,7-2.75,44.82-2.75,44.82l18.23.76,7-42.35,3.34-.14-.22-5.21Z"></path> <path class="cls-4" d="M332.45,153.41a12,12,0,0,1-1.79.43l-4.32.88-4.32.9a11.94,11.94,0,0,1-1.81.32,11.81,11.81,0,0,1,1.76-.52c1.09-.28,2.62-.64,4.31-1s3.23-.62,4.35-.8A13.34,13.34,0,0,1,332.45,153.41Z"></path> <path class="cls-4" d="M332.45,153.41a1.23,1.23,0,0,1,0,.28v.79c0,.73,0,1.71-.09,2.91s-.1,2.69-.16,4.3c0,.82-.06,1.66-.12,2.55a8,8,0,0,1-.6,2.7,7.67,7.67,0,0,1-3.85,3.61,12.77,12.77,0,0,1-4.21,1,25.49,25.49,0,0,1-2.91.06l-.79,0c-.18,0-.28,0-.28,0a1.58,1.58,0,0,1,.28,0l.79,0c.68,0,1.68,0,2.89-.16a12.72,12.72,0,0,0,4.12-1,7.4,7.4,0,0,0,3.69-3.48,7.67,7.67,0,0,0,.59-2.6c.06-.87.09-1.73.13-2.54.09-1.61.16-3.06.23-4.3s.13-2.17.17-2.9c0-.32.05-.58.07-.79A.82.82,0,0,1,332.45,153.41Z"></path> <path class="cls-4" d="M331.81,156.44c0,.07-2.64.82-5.93,1.67s-6,1.47-6,1.39,2.63-.82,5.93-1.67S331.79,156.36,331.81,156.44Z"></path> <path class="cls-6" d="M334.67,111.63s-10.66,10.8-12.09,13.1-.49,6-.49,6l1.38,11.11,23,4.83S354,122.94,355,119.45c.73-2.61,1.09-10.63-.22-13s-2.42-4-5.8-4C343.07,102.44,334.67,111.63,334.67,111.63Z"></path> <path class="cls-4" d="M336.36,109.83c.06,0-2,2.3-4.56,5s-4.71,4.88-4.77,4.82,2-2.3,4.56-5S336.3,109.77,336.36,109.83Z"></path> <path class="cls-3" d="M332.71,119.65a.75.75,0,0,1,.14-1.5.75.75,0,1,1-.14,1.5Zm.12-1.27a.53.53,0,0,0-.56.47.5.5,0,0,0,.47.56.52.52,0,1,0,.09-1Z"></path> <path class="cls-3" d="M334.62,119.8a.73.73,0,1,1,.13-1.45.73.73,0,1,1-.13,1.45Zm.11-1.22a.49.49,0,0,0-.54.45.5.5,0,0,0,.45.54.5.5,0,0,0,.09-1Z"></path> <path class="cls-3" d="M334.08,119.4a.14.14,0,0,1-.11-.09l-.85-3a.13.13,0,0,1,.09-.15.11.11,0,0,1,.14.08l.85,3.06a.11.11,0,0,1-.08.14Z"></path> <path class="cls-3" d="M334.75,122.39a11.07,11.07,0,0,1-2.4-1.39,11.86,11.86,0,0,1-2.22-1.66,11.07,11.07,0,0,1,2.4,1.39A11.86,11.86,0,0,1,334.75,122.39Z"></path> <polygon class="cls-4" points="297.37 132.04 297.1 153.42 301.25 153.41 301.04 148.56 302.24 153.41 303.27 153.41 301.25 128.55 297.37 132.04"></polygon> <path class="cls-4" d="M287.82,116c-1.67-2.19-10.47-1-10.47-1l-1.6.58s10.73,10.15,21.55,12.36l3-2.25S289.49,118.18,287.82,116Z"></path> <path class="cls-5" d="M297.3,127.92a5.89,5.89,0,0,1-1-.17,25.83,25.83,0,0,1-2.57-.77,45.7,45.7,0,0,1-7.93-3.86,53.56,53.56,0,0,1-7.19-5.12c-.44-.36-.82-.7-1.15-1s-.61-.56-.83-.79a5.81,5.81,0,0,1-.66-.72,5.23,5.23,0,0,1,.75.62c.23.22.53.47.87.75s.72.62,1.17,1a63.08,63.08,0,0,0,7.21,5,52.62,52.62,0,0,0,7.85,3.92c1,.41,1.91.68,2.51.86A5.91,5.91,0,0,1,297.3,127.92Z"></path> <path class="cls-11" d="M303.37,134l2.31-6.2L332,132.11l7.51-18.56,12.09,3.78s-4.41,12-7.11,16.13c-1.29,2-3.22,4.63-4.88,6.86a9,9,0,0,1-9.12,3.16Z"></path> <path class="cls-12" d="M334,134.71s-.06-.05-.16-.16l-.41-.49-1.51-1.89.06,0c-2.66-.4-6.84-1.06-11.52-1.83L310,128.61l-3.16-.56-.85-.17a1.1,1.1,0,0,1-.3-.08l.31,0,.86.12,3.17.47,10.44,1.67c4.69.77,8.86,1.48,11.51,1.94h0l0,0,1.44,1.94.37.52Z"></path> <path class="cls-4" d="M353.49,118l-.31-.08-.86-.26-3.19-1-11-3.46-.16,0L338,113c.7-1.21,1.39-2.52,2.18-3.82a16.07,16.07,0,0,1,2.93-3.71,9.89,9.89,0,0,1,4.43-2.52,8.1,8.1,0,0,1,2.44-.21,4.79,4.79,0,0,1,2.25.73,5.52,5.52,0,0,1,1.55,1.61,6.76,6.76,0,0,1,.86,1.93,12.17,12.17,0,0,1,.26,3.74c0,.56,0,1.11-.11,1.63s-.15,1-.24,1.43c-.17.89-.36,1.65-.53,2.27s-.3,1.09-.39,1.41l-.12.37-.05.12s0,0,0-.13l.09-.37c.08-.35.2-.83.34-1.43s.32-1.38.48-2.27c.08-.44.16-.92.22-1.43s.06-1,.09-1.61a12.36,12.36,0,0,0-.29-3.67,6.3,6.3,0,0,0-.85-1.85,5.25,5.25,0,0,0-1.48-1.53,5.85,5.85,0,0,0-4.47-.47,9.74,9.74,0,0,0-4.3,2.46,15.6,15.6,0,0,0-2.88,3.65c-.79,1.29-1.48,2.59-2.19,3.8l-.08-.2,11.06,3.62,3.14,1,.83.29Z"></path> <path class="cls-11" d="M305.3,127.17a3.73,3.73,0,0,0-1.8-2.06c-1.39-.67-4.38-2.31-4.38-2.31l-2.14-.5s-.72,1,.54,1.64,2.74,1.64,2.61,1.85S305.3,127.17,305.3,127.17Z"></path> <path class="cls-11" d="M305.77,127.76l-1.9,6.31a4.64,4.64,0,0,1-2,1.14,11.78,11.78,0,0,1-3.07-1s-.88-.76-.88-1.27a1.61,1.61,0,0,1-.72-1.89s-.7-1.93-.45-2.39a3,3,0,0,1,.87-.89,3.13,3.13,0,0,1,1-1.22,8.8,8.8,0,0,1,1.51-.75l5.17,1.38Z"></path> <path class="cls-12" d="M300.13,125.79s-.27.13-.76.38a5.15,5.15,0,0,0-.86.54,3,3,0,0,0-.78,1.09v0h0a4.07,4.07,0,0,0-.59.52,2,2,0,0,0-.25.34,1,1,0,0,0,0,.39,9.64,9.64,0,0,0,.51,1.92v.07a1.81,1.81,0,0,0,0,1,1.49,1.49,0,0,0,.63.77l.07,0v.07a1.16,1.16,0,0,0,.31.6,3.56,3.56,0,0,0,.54.56l0,0a15,15,0,0,0,2.49.92,1.78,1.78,0,0,0,.64.06,2.18,2.18,0,0,0,.62-.25,6.5,6.5,0,0,0,1.15-.84l.06-.06.08,0,.74.26L316,138.25l3.44,1.26.93.36a1.08,1.08,0,0,1,.31.14,1.36,1.36,0,0,1-.33-.09l-.95-.3L316,138.44l-11.41-4-.73-.26.14,0a7.4,7.4,0,0,1-1.2.88,2.75,2.75,0,0,1-.71.27,1.85,1.85,0,0,1-.75-.06,16.14,16.14,0,0,1-2.54-1h0a5.34,5.34,0,0,1-.57-.6,1.44,1.44,0,0,1-.35-.77l.07.12a1.74,1.74,0,0,1-.76-.92,2,2,0,0,1,0-1.12v.07a9,9,0,0,1-.49-2,1,1,0,0,1,.06-.5,1.8,1.8,0,0,1,.28-.37,3.48,3.48,0,0,1,.63-.54l0,0a3.24,3.24,0,0,1,.85-1.12,5,5,0,0,1,.91-.52,5.65,5.65,0,0,1,.59-.24Q300.13,125.78,300.13,125.79Z"></path> </g> </svg> 