<?xml version="1.0" encoding="UTF-8"?> <svg xmlns="http://www.w3.org/2000/svg" width="602" height="407" viewBox="0 0 602 407" fill="none"> <g clip-path="url(#clip0_609_2)"> <path d="M323.818 91.8194C322 91.8194 320.26 91.4479 318.918 90.6922L303.245 81.8546C301.784 81.0305 300.969 79.8355 300.955 78.4895C300.941 76.9326 302.022 75.3947 303.925 74.2697L317.907 66.007C321.299 64.0028 326.311 63.7591 329.315 65.4532L344.987 74.2904C346.449 75.1149 347.262 76.3099 347.277 77.6559C347.293 79.2129 346.211 80.7507 344.308 81.8758L330.325 90.1384C328.449 91.2502 326.073 91.8194 323.818 91.8194ZM319.759 89.1999C322.198 90.5746 326.636 90.3287 329.453 88.6631L343.436 80.4004C344.799 79.5955 345.574 78.6019 345.564 77.6729C345.555 76.7651 344.788 76.1446 344.146 75.7826L328.474 66.9455C326.035 65.5709 321.596 65.8168 318.779 67.4818L304.797 75.745C303.434 76.55 302.659 77.5436 302.669 78.4726C302.678 79.3803 303.445 80.0009 304.087 80.3623L319.759 89.1999Z" fill="#E3E0C5"></path> <path d="M484.634 356.017C482.816 356.017 481.074 355.646 479.734 354.89L464.061 346.052C462.6 345.228 461.785 344.033 461.772 342.687C461.756 341.13 462.837 339.592 464.741 338.468L478.724 330.205C482.116 328.2 487.127 327.957 490.131 329.651L505.804 338.488C507.266 339.312 508.08 340.508 508.093 341.854C508.109 343.411 507.026 344.949 505.122 346.074L491.14 354.336C489.263 355.446 486.889 356.017 484.634 356.017ZM485.262 330.251C483.292 330.251 481.187 330.737 479.597 331.678L465.615 339.941C464.252 340.746 463.477 341.739 463.487 342.668C463.496 343.576 464.263 344.197 464.905 344.559L480.578 353.396C483.016 354.77 487.455 354.524 490.272 352.859L504.254 344.596C505.617 343.791 506.392 342.798 506.382 341.869C506.373 340.961 505.606 340.34 504.964 339.979L489.291 331.141C488.227 330.544 486.784 330.251 485.262 330.251Z" fill="#E3E0C5"></path> <path d="M22.8622 348.166C21.0444 348.166 19.3047 347.795 17.9628 347.039L2.28998 338.202C0.828148 337.377 0.0153861 336.182 0.00015871 334.836C-0.0150687 333.279 1.06608 331.741 2.9695 330.616L16.952 322.353C20.3439 320.349 25.3556 320.106 28.3593 321.8L44.0321 330.637C45.4939 331.461 46.3066 332.657 46.3219 334.002C46.3371 335.559 45.2559 337.097 43.3525 338.222L29.37 346.485C27.4913 347.595 25.1177 348.166 22.8622 348.166ZM18.8041 345.547C21.2424 346.921 25.6811 346.676 28.4982 345.01L42.4807 336.747C43.8436 335.942 44.6183 334.948 44.6088 334.019C44.5993 333.112 43.8322 332.491 43.1907 332.13L27.518 323.292C25.0797 321.918 20.6409 322.163 17.8238 323.829L3.84127 332.091C2.47842 332.896 1.70372 333.89 1.71324 334.819C1.72276 335.727 2.48984 336.347 3.13129 336.709L18.8041 345.547Z" fill="#E3E0C5"></path> <g opacity="0.4"> <path opacity="0.4" d="M285.921 396.406L98.8377 288.392C94.2162 285.724 94.2162 279.054 98.8377 276.387L217.448 207.908C219.593 206.669 222.235 206.669 224.38 207.908L411.464 315.921C416.085 318.59 416.085 325.26 411.464 327.926L292.854 396.406C290.709 397.643 288.067 397.643 285.921 396.406Z" fill="#6E3B11"></path> </g> <path d="M426.696 318.729C425.163 319.104 423.618 318.167 423.243 316.635L396.85 209.014C396.475 207.481 397.411 205.936 398.944 205.561C400.476 205.186 402.022 206.122 402.396 207.654L428.789 315.276C429.164 316.806 428.228 318.352 426.696 318.729Z" fill="#383432"></path> <path d="M82.4591 294.853C80.889 294.703 79.7374 293.31 79.8874 291.739L90.4023 181.428C90.5528 179.858 91.9459 178.707 93.5161 178.857C95.0863 179.007 96.2378 180.4 96.0879 181.971L85.573 292.282C85.423 293.852 84.0293 295.004 82.4591 294.853Z" fill="#383432"></path> <path d="M279.369 295.108L92.2851 187.095C87.6636 184.426 87.6636 177.756 92.2851 175.09L210.895 106.611C213.04 105.371 215.682 105.371 217.828 106.611L404.911 214.624C409.533 217.293 409.533 223.962 404.911 226.629L286.301 295.108C284.156 296.346 281.514 296.346 279.369 295.108Z" fill="#383532"></path> <path d="M282.835 296.509C281.554 296.509 280.273 296.179 279.131 295.519L92.0472 187.505C89.7287 186.167 88.343 183.769 88.343 181.091C88.343 178.413 89.7266 176.014 92.0472 174.676L210.657 106.197C212.941 104.878 215.781 104.878 218.065 106.197L405.149 214.21C407.467 215.548 408.853 217.947 408.853 220.625C408.853 223.303 407.469 225.701 405.149 227.039L286.539 295.519C285.397 296.179 284.116 296.509 282.835 296.509ZM214.359 106.159C213.244 106.159 212.127 106.446 211.131 107.021L92.5209 175.5C90.4998 176.667 89.2926 178.757 89.2926 181.091C89.2926 183.424 90.4998 185.515 92.5209 186.681L279.605 294.695C281.596 295.844 284.07 295.844 286.061 294.695L404.671 226.215C406.692 225.048 407.899 222.958 407.899 220.625C407.899 218.291 406.692 216.201 404.671 215.035L217.587 107.021C216.592 106.446 215.476 106.159 214.359 106.159Z" fill="#383532"></path> <path d="M88.8459 173.178V180.514L108.483 191.806L88.8459 173.178Z" fill="#383532"></path> <path d="M108.483 192.283C108.403 192.283 108.321 192.262 108.246 192.22L88.6079 180.927C88.4596 180.841 88.37 180.685 88.37 180.514V173.178C88.37 172.988 88.4823 172.816 88.6572 172.74C88.8326 172.666 89.034 172.703 89.1734 172.832L108.811 191.46C108.986 191.626 109.009 191.897 108.864 192.091C108.773 192.216 108.628 192.283 108.483 192.283ZM89.3218 180.238L105.257 189.403L89.3218 174.286V180.238Z" fill="#383532"></path> <path d="M408.372 213.201V220.537L386.978 232.78L408.372 213.201Z" fill="#383532"></path> <path d="M386.982 233.256C386.834 233.256 386.689 233.188 386.597 233.06C386.455 232.864 386.481 232.592 386.66 232.428L408.055 212.85C408.194 212.722 408.396 212.69 408.569 212.766C408.742 212.842 408.852 213.014 408.852 213.202V220.538C408.852 220.709 408.761 220.865 408.612 220.951L387.218 233.193C387.144 233.235 387.062 233.256 386.982 233.256ZM407.899 214.283L390.462 230.241L407.899 220.261V214.283Z" fill="#383532"></path> <path d="M279.369 287.772L92.2851 179.759C87.6636 177.09 87.6636 170.421 92.2851 167.754L210.895 99.2748C213.04 98.0353 215.682 98.0353 217.828 99.2748L404.911 207.288C409.533 209.957 409.533 216.627 404.911 219.293L286.301 287.772C284.156 289.012 281.514 289.012 279.369 287.772Z" fill="#F8B815"></path> <path d="M282.835 289.172C281.554 289.172 280.273 288.843 279.131 288.183L92.0472 180.169C89.7287 178.831 88.343 176.433 88.343 173.755C88.343 171.077 89.7266 168.678 92.0472 167.34L210.657 98.8605C212.941 97.5415 215.781 97.5415 218.065 98.8605L405.149 206.874C407.467 208.212 408.853 210.61 408.853 213.289C408.853 215.967 407.469 218.365 405.149 219.703L286.539 288.183C285.397 288.843 284.116 289.172 282.835 289.172ZM279.607 287.361C281.598 288.51 284.072 288.51 286.063 287.361L404.673 218.881C406.694 217.714 407.901 215.624 407.901 213.291C407.901 210.957 406.694 208.867 404.673 207.7L217.589 99.6866C215.598 98.5372 213.124 98.5372 211.133 99.6866L92.523 168.164C90.5014 169.331 89.2947 171.421 89.2947 173.755C89.2947 176.088 90.5014 178.178 92.523 179.345L279.607 287.361Z" fill="#383432"></path> <path d="M271.989 406.876C270.418 406.726 269.267 405.332 269.417 403.762L279.932 293.451C280.082 291.881 281.475 290.729 283.045 290.88C284.616 291.03 285.768 292.424 285.617 293.994L275.103 404.305C274.952 405.875 273.559 407.027 271.989 406.876Z" fill="#383432"></path> <g opacity="0.4"> <path opacity="0.4" d="M225.638 136.303C217.553 140.97 204.445 140.97 196.36 136.303C192.317 133.969 190.296 130.91 190.296 127.851C190.296 124.793 192.317 121.734 196.36 119.398C204.445 114.731 217.553 114.731 225.638 119.398C233.722 124.067 233.722 131.635 225.638 136.303Z" fill="#6E3B11"></path> </g> <path d="M229.528 115.033C225.843 111.753 218.925 109.543 210.998 109.543C202.799 109.543 195.68 111.907 192.102 115.375L189.654 115.398L189.644 120.309C189.642 120.362 189.64 120.416 189.64 120.471C189.64 120.517 189.642 120.562 189.644 120.608V120.661H189.646C189.846 126.608 199.329 131.394 210.998 131.394C222.794 131.394 232.357 126.503 232.357 120.469V115.006L229.528 115.033Z" fill="#F8B815"></path> <path d="M210.996 131.872C205.284 131.872 199.888 130.739 195.805 128.684C191.646 126.59 189.291 123.761 189.17 120.716C189.168 120.697 189.166 120.68 189.166 120.661V120.607L189.164 120.577C189.162 120.541 189.162 120.506 189.162 120.47C189.162 120.426 189.164 120.383 189.164 120.339L189.166 120.295L189.175 115.396C189.175 115.135 189.387 114.924 189.648 114.92L191.907 114.899C195.744 111.296 203.03 109.065 210.996 109.065C218.642 109.065 225.784 111.164 229.703 114.553L232.349 114.528C232.351 114.528 232.351 114.528 232.353 114.528C232.479 114.528 232.598 114.578 232.688 114.665C232.777 114.755 232.828 114.876 232.828 115.004V120.467C232.828 123.573 230.514 126.466 226.313 128.617C222.217 130.717 216.777 131.872 210.996 131.872ZM190.118 120.623C190.118 120.63 190.118 120.638 190.12 120.645C190.31 126.31 199.676 130.92 210.996 130.92C222.51 130.92 231.879 126.232 231.879 120.47V115.487L229.532 115.508C229.53 115.508 229.53 115.508 229.528 115.508C229.412 115.508 229.299 115.464 229.212 115.388C225.491 112.076 218.513 110.019 210.998 110.019C203.173 110.019 196.06 112.202 192.432 115.715C192.345 115.801 192.227 115.849 192.105 115.849L190.129 115.866L190.12 120.368C190.118 120.4 190.118 120.434 190.118 120.467C190.118 120.491 190.118 120.516 190.12 120.541L190.118 120.623Z" fill="#383532"></path> <path d="M210.994 125.933C222.789 125.933 232.352 121.041 232.352 115.007C232.352 108.973 222.789 104.081 210.994 104.081C199.197 104.081 189.635 108.973 189.635 115.007C189.635 121.041 199.197 125.933 210.994 125.933Z" fill="#F8B815"></path> <path d="M210.996 126.409C205.217 126.409 199.778 125.254 195.678 123.156C191.477 121.007 189.162 118.112 189.162 115.006C189.162 111.899 191.477 109.006 195.678 106.857C199.778 104.76 205.217 103.604 210.996 103.604C216.775 103.604 222.215 104.76 226.315 106.857C230.516 109.006 232.83 111.901 232.83 115.006C232.83 118.112 230.516 121.005 226.315 123.156C222.215 125.254 216.775 126.409 210.996 126.409ZM210.996 104.556C199.482 104.556 190.114 109.244 190.114 115.006C190.114 120.768 199.482 125.455 210.996 125.455C222.51 125.455 231.879 120.768 231.879 115.006C231.877 109.244 222.51 104.556 210.996 104.556Z" fill="#383532"></path> <path d="M210.996 122.378C218.953 122.378 225.403 119.078 225.403 115.008C225.403 110.938 218.953 107.638 210.996 107.638C203.04 107.638 196.59 110.938 196.59 115.008C196.59 119.078 203.04 122.378 210.996 122.378Z" fill="#383532"></path> <path d="M210.996 122.854C207.073 122.854 203.378 122.069 200.592 120.642C197.705 119.165 196.113 117.163 196.113 115.006C196.113 112.85 197.705 110.849 200.592 109.37C203.378 107.944 207.073 107.158 210.996 107.158C214.919 107.158 218.613 107.942 221.4 109.37C224.288 110.847 225.879 112.85 225.879 115.006C225.879 117.163 224.288 119.163 221.4 120.642C218.613 122.068 214.919 122.854 210.996 122.854ZM210.996 108.111C207.222 108.111 203.681 108.86 201.026 110.219C198.472 111.525 197.065 113.226 197.065 115.006C197.065 116.787 198.472 118.487 201.026 119.795C203.681 121.154 207.222 121.902 210.996 121.902C214.77 121.902 218.311 121.154 220.966 119.795C223.521 118.489 224.928 116.787 224.928 115.006C224.928 113.224 223.521 111.525 220.966 110.219C218.313 108.86 214.77 108.111 210.996 108.111Z" fill="#383532"></path> <path d="M210.995 115.512C210.995 115.512 198.525 96.3788 185.78 98.1186C173.035 99.8583 176.238 100.292 176.238 100.292C176.238 100.292 178.715 98.8763 191.746 106.759C204.778 114.642 210.995 115.512 210.995 115.512Z" fill="#E3E0C5"></path> <path d="M210.998 115.987C210.977 115.987 210.954 115.985 210.932 115.983C210.675 115.947 204.468 115.011 191.503 107.167C179.26 99.7603 176.502 100.693 176.479 100.706C176.388 100.758 176.283 100.779 176.179 100.766C175.484 100.67 175.408 100.28 175.408 100.116C175.408 99.6214 175.887 99.3681 177.547 98.9913C179.203 98.6146 181.952 98.1636 185.719 97.6496C191.08 96.9188 197.229 99.7449 203.5 105.823C208.194 110.374 211.363 115.205 211.396 115.254C211.499 115.41 211.499 115.612 211.4 115.77C211.31 115.905 211.158 115.987 210.998 115.987ZM178.067 99.8477C180.183 100.232 184.289 101.692 191.994 106.352C201.645 112.19 207.57 114.162 209.911 114.78C207.147 110.913 196.484 97.1376 185.846 98.5897C181.773 99.1456 179.422 99.5568 178.067 99.8477Z" fill="#383532"></path> <path d="M210.209 115.067C210.209 115.067 206.237 92.5787 193.83 89.1829C181.424 85.7871 184.201 87.4432 184.201 87.4432C184.201 87.4432 187.033 87.1098 195.931 99.471C204.83 111.83 210.209 115.067 210.209 115.067Z" fill="#383532"></path> <path d="M210.209 115.543C210.123 115.543 210.04 115.52 209.963 115.475C209.741 115.34 204.4 112.045 195.545 99.7486C187.182 88.132 184.285 87.9131 184.256 87.9147C184.151 87.9264 184.047 87.9052 183.957 87.8501C183.354 87.4903 183.439 87.1002 183.502 86.9497C183.696 86.4951 184.237 86.4511 185.912 86.7537C187.583 87.0562 190.29 87.7187 193.956 88.7218C199.175 90.1494 203.724 95.1615 207.11 103.213C209.645 109.239 210.668 114.926 210.677 114.984C210.71 115.166 210.632 115.353 210.477 115.459C210.397 115.515 210.304 115.543 210.209 115.543ZM186.055 87.7473C187.852 88.9311 191.057 91.8834 196.318 99.1906C202.925 108.367 207.59 112.49 209.497 113.971C208.471 109.332 204.063 92.4753 193.705 89.6412C189.74 88.5544 187.415 88.0122 186.055 87.7473Z" fill="#383532"></path> <path d="M210.457 115.067C210.457 115.067 206.021 92.6661 216.356 85.0087C226.694 77.3533 224.702 79.9017 224.702 79.9017C224.702 79.9017 221.942 80.6177 218.121 95.3593C214.298 110.101 210.457 115.067 210.457 115.067Z" fill="#383532"></path> <path d="M210.458 115.543C210.422 115.543 210.386 115.539 210.35 115.53C210.169 115.488 210.028 115.341 209.992 115.158C209.98 115.102 208.874 109.429 209.056 102.895C209.299 94.1637 211.726 87.8464 216.073 84.626C219.129 82.3627 221.41 80.7655 222.859 79.8789C224.311 78.9897 224.831 78.8355 225.176 79.1895C225.289 79.3077 225.51 79.641 225.079 80.1927C225.004 80.288 224.953 80.341 224.841 80.3585C224.62 80.4783 222.041 82.1401 218.582 95.4774C214.779 110.147 210.993 115.151 210.833 115.357C210.744 115.476 210.603 115.543 210.458 115.543ZM223.086 80.8572C221.913 81.5954 219.943 82.943 216.639 85.3913C208.011 91.7827 209.999 109.087 210.723 113.784C211.968 111.706 214.83 106.158 217.661 95.2395C219.92 86.5237 221.841 82.6102 223.086 80.8572Z" fill="#383532"></path> <path d="M210.416 115.068C210.416 115.068 214.853 92.6672 204.517 85.0098C194.18 77.3544 196.171 79.9028 196.171 79.9028C196.171 79.9028 198.931 80.6188 202.753 95.3603C206.575 110.102 210.416 115.068 210.416 115.068Z" fill="#E3E0C5"></path> <path d="M210.416 115.544C210.271 115.544 210.13 115.478 210.039 115.359C209.879 115.154 206.093 110.147 202.29 95.4801C198.7 81.6304 196.073 80.3708 196.048 80.3628C195.948 80.3363 195.857 80.2775 195.794 80.1953C195.362 79.6416 195.582 79.3104 195.697 79.1922C196.043 78.8382 196.561 78.9924 198.013 79.8816C199.462 80.7682 201.744 82.3654 204.799 84.6287C209.146 87.8491 211.573 94.1664 211.817 102.898C211.999 109.432 210.892 115.104 210.88 115.161C210.844 115.344 210.705 115.489 210.522 115.533C210.488 115.54 210.452 115.544 210.416 115.544ZM197.787 80.8578C199.033 82.6129 200.952 86.5243 203.212 95.24C206.042 106.158 208.905 111.707 210.149 113.785C210.873 109.086 212.862 91.7817 204.233 85.3918C200.929 82.9441 198.959 81.5965 197.787 80.8578Z" fill="#383532"></path> <path d="M210.996 115.512C210.996 115.512 223.465 96.3783 236.21 98.1181C248.956 99.8578 245.752 100.292 245.752 100.292C245.752 100.292 243.276 98.8759 230.245 106.758C217.214 114.642 210.996 115.512 210.996 115.512Z" fill="#383532"></path> <path d="M210.997 115.987C210.835 115.987 210.683 115.906 210.595 115.766C210.494 115.608 210.497 115.409 210.599 115.251C210.632 115.203 213.801 110.37 218.494 105.819C224.766 99.7396 230.916 96.913 236.276 97.6459C240.043 98.1599 242.791 98.6109 244.448 98.9876C246.107 99.3644 246.587 99.6177 246.587 100.113C246.587 100.276 246.513 100.669 245.816 100.762C245.696 100.777 245.624 100.781 245.531 100.714C245.289 100.646 242.283 100.033 230.493 107.165C217.528 115.009 211.322 115.945 211.064 115.981C211.041 115.987 211.02 115.987 210.997 115.987ZM234.561 98.4831C224.463 98.4831 214.708 111.105 212.084 114.781C214.425 114.162 220.35 112.19 230.001 106.352C237.706 101.691 241.811 100.232 243.928 99.8483C242.573 99.5589 240.222 99.1477 236.149 98.5918C235.619 98.5176 235.088 98.4831 234.561 98.4831Z" fill="#383532"></path> <path d="M210.995 115.066C210.995 115.066 214.967 92.5776 227.374 89.1818C239.78 85.786 237.003 87.4421 237.003 87.4421C237.003 87.4421 234.171 87.1087 225.273 99.4699C216.374 111.829 210.995 115.066 210.995 115.066Z" fill="#E3E0C5"></path> <path d="M210.996 115.543C210.901 115.543 210.808 115.514 210.726 115.459C210.572 115.354 210.493 115.167 210.526 114.983C210.535 114.926 211.557 109.239 214.093 103.212C217.479 95.161 222.028 90.1511 227.248 88.7213C230.914 87.7182 233.62 87.0558 235.291 86.7532C236.966 86.4506 237.507 86.4946 237.701 86.9492C237.766 87.0997 237.849 87.4898 237.246 87.8496C237.141 87.9127 237.077 87.9429 236.964 87.9185C236.715 87.9508 233.71 88.5655 225.658 99.7481C216.803 112.046 211.463 115.341 211.239 115.474C211.167 115.52 211.082 115.543 210.996 115.543ZM235.153 87.7468C233.792 88.0117 231.467 88.5539 227.502 89.6408C217.146 92.4748 212.738 109.326 211.71 113.969C213.621 112.482 218.3 108.344 224.889 99.1922C230.15 91.8829 233.356 88.9306 235.153 87.7468Z" fill="#383532"></path> <g opacity="0.4"> <path opacity="0.4" d="M237.797 234.599L195.29 210.058C194.041 209.337 194.197 208.078 195.64 207.247L244.309 179.149C245.75 178.317 247.931 178.225 249.18 178.947L291.687 203.488C292.936 204.209 292.78 205.467 291.337 206.299L242.668 234.397C241.226 235.231 239.044 235.321 237.797 234.599Z" fill="#6E3B11"></path> </g> <path d="M237.234 228.735L194.727 204.193C193.478 203.472 193.634 202.214 195.077 201.382L243.746 173.284C245.187 172.452 247.368 172.361 248.616 173.082L291.124 197.623C292.373 198.345 292.216 199.603 290.773 200.435L242.105 228.533C240.664 229.365 238.483 229.454 237.234 228.735Z" fill="#383432"></path> <path d="M239.355 229.7C238.48 229.7 237.638 229.517 236.997 229.147L194.49 204.607C193.793 204.205 193.409 203.624 193.409 202.974C193.409 202.225 193.93 201.496 194.84 200.971L243.509 172.873C245.106 171.951 247.454 171.862 248.855 172.671L291.361 197.21C292.057 197.612 292.442 198.192 292.442 198.843C292.442 199.591 291.921 200.322 291.011 200.845L242.342 228.944C241.478 229.444 240.391 229.7 239.355 229.7ZM237.471 228.321C238.567 228.955 240.58 228.862 241.866 228.12L290.535 200.021C291.132 199.677 291.49 199.235 291.49 198.843C291.49 198.462 291.161 198.194 290.885 198.034L248.378 173.493C247.282 172.859 245.267 172.953 243.983 173.695L195.314 201.793C194.716 202.138 194.359 202.579 194.359 202.971C194.359 203.352 194.688 203.621 194.964 203.781L237.471 228.321Z" fill="#383432"></path> <path d="M193.884 197.052L193.887 202.875L208.498 208.585L193.884 197.052Z" fill="#383432"></path> <path d="M208.499 209.061C208.442 209.061 208.383 209.051 208.326 209.029L193.713 203.32C193.53 203.25 193.411 203.073 193.411 202.877L193.407 197.054C193.407 196.872 193.511 196.706 193.675 196.626C193.839 196.546 194.035 196.567 194.178 196.681L208.792 208.212C208.977 208.359 209.028 208.617 208.91 208.823C208.826 208.974 208.667 209.061 208.499 209.061ZM194.364 202.55L205.695 206.977L194.362 198.035L194.364 202.55Z" fill="#383432"></path> <path d="M291.952 192.708V198.673L280.711 200.906L291.952 192.708Z" fill="#383432"></path> <path d="M280.711 201.382C280.525 201.382 280.353 201.274 280.276 201.097C280.186 200.893 280.251 200.653 280.431 200.522L291.671 192.324C291.816 192.217 292.008 192.204 292.168 192.284C292.328 192.366 292.429 192.529 292.429 192.708V198.674C292.429 198.9 292.269 199.096 292.046 199.14L280.807 201.373C280.774 201.38 280.742 201.382 280.711 201.382ZM291.477 193.645L282.737 200.019L291.477 198.283V193.645Z" fill="#383432"></path> <path d="M237.231 222.77L194.724 198.23C193.475 197.508 193.631 196.25 195.074 195.418L243.743 167.32C245.184 166.488 247.365 166.397 248.614 167.118L291.121 191.659C292.37 192.38 292.213 193.638 290.771 194.47L242.102 222.568C240.661 223.4 238.48 223.49 237.231 222.77Z" fill="#F8B815"></path> <path d="M239.354 223.735C238.479 223.735 237.637 223.552 236.996 223.182L194.489 198.642C193.792 198.24 193.408 197.659 193.408 197.009C193.408 196.26 193.929 195.532 194.839 195.006L243.508 166.908C245.105 165.987 247.454 165.897 248.854 166.706L291.362 191.247C292.058 191.648 292.443 192.229 292.443 192.88C292.443 193.628 291.921 194.359 291.011 194.883L242.343 222.981C241.477 223.48 240.39 223.735 239.354 223.735ZM237.47 222.356C238.566 222.99 240.578 222.897 241.865 222.155L290.534 194.056C291.132 193.712 291.489 193.27 291.489 192.878C291.489 192.497 291.16 192.227 290.884 192.069L248.377 167.528C247.28 166.894 245.267 166.988 243.982 167.73L195.313 195.829C194.715 196.173 194.357 196.614 194.357 197.007C194.357 197.388 194.687 197.656 194.963 197.816L237.47 222.356Z" fill="#383432"></path> <path d="M274.248 195.79L241.456 176.857C240.294 176.187 240.441 175.017 241.781 174.244L246.357 171.602C247.697 170.829 249.724 170.743 250.883 171.414L283.675 190.347C284.836 191.017 284.69 192.187 283.35 192.96L278.774 195.602C277.436 196.375 275.409 196.459 274.248 195.79Z" fill="#E3E0C5"></path> <path d="M276.22 196.719C275.4 196.719 274.612 196.548 274.012 196.202L241.22 177.268C240.562 176.888 240.198 176.339 240.198 175.721C240.198 175.013 240.689 174.323 241.543 173.831L246.119 171.189C247.613 170.327 249.81 170.245 251.121 171L283.916 189.934C284.574 190.314 284.938 190.863 284.936 191.481C284.936 192.189 284.445 192.878 283.59 193.371L279.014 196.013C278.203 196.481 277.189 196.719 276.22 196.719ZM248.923 171.438C248.112 171.438 247.252 171.634 246.595 172.013L242.019 174.655C241.475 174.969 241.15 175.368 241.15 175.721C241.15 176.058 241.447 176.3 241.696 176.444L274.488 195.378C275.497 195.96 277.352 195.874 278.538 195.189L283.114 192.547C283.659 192.233 283.984 191.833 283.984 191.481C283.984 191.144 283.687 190.902 283.44 190.758L250.646 171.824C250.195 171.566 249.576 171.438 248.923 171.438Z" fill="#383532"></path> <path d="M233.59 184.647L230.39 182.8C229.444 182.254 229.562 181.3 230.655 180.668L233.323 179.127C234.416 178.497 236.07 178.428 237.016 178.974L240.216 180.821C241.162 181.367 241.044 182.321 239.951 182.952L237.282 184.495C236.188 185.124 234.536 185.193 233.59 184.647Z" fill="#E3E0C5"></path> <path d="M235.196 185.491C234.511 185.491 233.855 185.348 233.35 185.059L230.15 183.213C229.585 182.885 229.273 182.411 229.273 181.874C229.273 181.266 229.69 180.675 230.415 180.257L233.084 178.715C234.327 177.997 236.158 177.931 237.252 178.562L240.452 180.409C241.017 180.735 241.329 181.21 241.329 181.747C241.329 182.356 240.913 182.946 240.187 183.365L237.519 184.907C236.849 185.293 236.004 185.491 235.196 185.491ZM233.828 184.233C234.627 184.695 236.101 184.625 237.045 184.081L239.714 182.539C240.13 182.299 240.38 182.002 240.38 181.745C240.38 181.499 240.129 181.319 239.978 181.231L236.778 179.385C235.979 178.924 234.505 178.993 233.562 179.537L230.893 181.079C230.476 181.319 230.227 181.616 230.227 181.873C230.227 182.118 230.478 182.301 230.629 182.386L233.828 184.233Z" fill="#383532"></path> <path d="M243.905 190.6L240.705 188.754C239.759 188.208 239.877 187.254 240.97 186.622L243.638 185.081C244.731 184.45 246.385 184.382 247.331 184.928L250.531 186.775C251.476 187.321 251.359 188.274 250.266 188.906L247.597 190.448C246.503 191.078 244.851 191.147 243.905 190.6Z" fill="#E3E0C5"></path> <path d="M245.512 191.446C244.826 191.446 244.17 191.303 243.665 191.014L240.466 189.167C239.9 188.84 239.588 188.366 239.588 187.829C239.588 187.22 240.005 186.63 240.73 186.211L243.399 184.671C244.642 183.954 246.473 183.887 247.567 184.519L250.767 186.366C251.332 186.693 251.645 187.167 251.645 187.704C251.645 188.313 251.227 188.903 250.503 189.322L247.834 190.862C247.162 191.248 246.319 191.446 245.512 191.446ZM244.143 190.187C244.942 190.65 246.416 190.58 247.36 190.035L250.029 188.495C250.445 188.254 250.695 187.956 250.695 187.702C250.695 187.456 250.444 187.273 250.293 187.188L247.093 185.341C246.294 184.879 244.821 184.949 243.877 185.494L241.208 187.033C240.791 187.276 240.542 187.572 240.542 187.827C240.542 188.073 240.793 188.255 240.944 188.341L244.143 190.187Z" fill="#383532"></path> <path d="M253.82 196.326L250.621 194.479C249.675 193.933 249.793 192.979 250.885 192.347L253.554 190.806C254.647 190.176 256.3 190.107 257.246 190.653L260.446 192.5C261.392 193.046 261.274 194 260.182 194.631L257.513 196.174C256.419 196.804 254.766 196.872 253.82 196.326Z" fill="#E3E0C5"></path> <path d="M255.426 197.171C254.741 197.171 254.084 197.028 253.582 196.739L250.382 194.892C249.817 194.565 249.505 194.091 249.505 193.554C249.505 192.945 249.922 192.355 250.647 191.936L253.315 190.397C254.559 189.679 256.389 189.613 257.484 190.244L260.684 192.09C261.249 192.416 261.561 192.892 261.561 193.429C261.561 194.038 261.144 194.628 260.419 195.046L257.75 196.586C257.077 196.973 256.233 197.171 255.426 197.171ZM254.058 195.913C254.857 196.375 256.331 196.305 257.274 195.76L259.943 194.221C260.36 193.979 260.609 193.684 260.609 193.427C260.609 193.181 260.358 192.999 260.208 192.913L257.008 191.067C256.209 190.604 254.736 190.675 253.791 191.219L251.123 192.759C250.706 193 250.456 193.296 250.456 193.553C250.456 193.798 250.708 193.981 250.858 194.067L254.058 195.913Z" fill="#383532"></path> <path d="M263.959 202.179L260.76 200.333C259.814 199.787 259.932 198.833 261.024 198.201L263.693 196.659C264.786 196.029 266.44 195.961 267.385 196.507L270.585 198.353C271.531 198.9 271.413 199.853 270.321 200.485L267.652 202.027C266.559 202.657 264.905 202.726 263.959 202.179Z" fill="#E3E0C5"></path> <path d="M265.566 203.024C264.881 203.024 264.222 202.881 263.72 202.592L260.52 200.746C259.955 200.42 259.643 199.945 259.643 199.408C259.643 198.799 260.06 198.208 260.785 197.79L263.453 196.248C264.696 195.53 266.528 195.464 267.622 196.096L270.822 197.942C271.387 198.268 271.699 198.743 271.699 199.28C271.699 199.889 271.282 200.479 270.557 200.898L267.888 202.44C267.216 202.826 266.371 203.024 265.566 203.024ZM265.787 196.613C265.142 196.613 264.454 196.77 263.931 197.072L261.263 198.614C260.846 198.854 260.597 199.151 260.597 199.408C260.597 199.653 260.848 199.836 260.998 199.922L264.197 201.768C264.997 202.231 266.47 202.16 267.415 201.616L270.083 200.074C270.5 199.834 270.749 199.537 270.749 199.28C270.749 199.035 270.498 198.852 270.348 198.766L267.148 196.92C266.792 196.715 266.303 196.613 265.787 196.613Z" fill="#383532"></path> <path d="M224.153 190.095L220.953 188.249C220.007 187.703 220.125 186.749 221.217 186.117L223.886 184.575C224.979 183.945 226.633 183.877 227.579 184.423L230.778 186.27C231.724 186.815 231.606 187.769 230.514 188.401L227.845 189.943C226.751 190.573 225.099 190.642 224.153 190.095Z" fill="#E3E0C5"></path> <path d="M225.759 190.941C225.073 190.941 224.416 190.797 223.912 190.508L220.713 188.662C220.147 188.335 219.835 187.861 219.835 187.324C219.835 186.715 220.252 186.125 220.977 185.706L223.646 184.164C224.888 183.447 226.72 183.38 227.814 184.012L231.014 185.859C231.579 186.184 231.891 186.66 231.891 187.197C231.891 187.805 231.474 188.395 230.749 188.814L228.081 190.354C227.409 190.742 226.566 190.941 225.759 190.941ZM224.39 189.684C225.189 190.147 226.663 190.076 227.606 189.532L230.275 187.992C230.692 187.75 230.941 187.454 230.941 187.198C230.941 186.953 230.69 186.772 230.54 186.684L227.34 184.838C226.541 184.376 225.067 184.446 224.123 184.99L221.455 186.532C221.038 186.772 220.788 187.069 220.788 187.326C220.788 187.571 221.04 187.754 221.19 187.84L224.39 189.684Z" fill="#383532"></path> <path d="M234.465 196.05L231.265 194.203C230.319 193.657 230.437 192.704 231.529 192.071L234.198 190.53C235.291 189.9 236.945 189.831 237.891 190.378L241.09 192.224C242.036 192.77 241.918 193.724 240.826 194.356L238.157 195.898C237.063 196.528 235.411 196.596 234.465 196.05Z" fill="#E3E0C5"></path> <path d="M236.071 196.895C235.386 196.895 234.728 196.752 234.225 196.463L231.025 194.617C230.46 194.291 230.148 193.815 230.148 193.279C230.148 192.67 230.564 192.079 231.29 191.661L233.959 190.121C235.201 189.403 237.033 189.336 238.127 189.969L241.327 191.815C241.892 192.142 242.204 192.616 242.204 193.153C242.204 193.762 241.787 194.352 241.062 194.771L238.394 196.312C237.722 196.697 236.879 196.895 236.071 196.895ZM236.292 190.484C235.647 190.484 234.96 190.641 234.436 190.943L231.767 192.483C231.351 192.723 231.101 193.019 231.101 193.276C231.101 193.522 231.352 193.705 231.503 193.79L234.703 195.637C235.502 196.099 236.975 196.029 237.919 195.485L240.588 193.943C241.005 193.703 241.254 193.406 241.254 193.149C241.254 192.903 241.003 192.721 240.852 192.635L237.653 190.789C237.297 190.583 236.808 190.484 236.292 190.484Z" fill="#383532"></path> <path d="M244.38 201.775L241.18 199.929C240.235 199.382 240.352 198.429 241.445 197.797L244.114 196.255C245.206 195.625 246.86 195.557 247.806 196.103L251.006 197.949C251.952 198.495 251.834 199.449 250.741 200.081L248.073 201.623C246.98 202.253 245.328 202.321 244.38 201.775Z" fill="#E3E0C5"></path> <path d="M245.99 202.62C245.304 202.62 244.646 202.477 244.143 202.188L240.944 200.341C240.379 200.016 240.067 199.54 240.067 199.003C240.067 198.394 240.483 197.804 241.209 197.386L243.877 195.844C245.12 195.126 246.951 195.06 248.046 195.692L251.245 197.538C251.81 197.865 252.122 198.339 252.122 198.876C252.122 199.485 251.706 200.075 250.98 200.494L248.312 202.036C247.64 202.422 246.797 202.62 245.99 202.62ZM246.211 196.21C245.565 196.21 244.878 196.365 244.355 196.668L241.686 198.21C241.27 198.45 241.02 198.746 241.02 199.003C241.02 199.249 241.271 199.43 241.422 199.517L244.621 201.364C245.42 201.826 246.894 201.756 247.838 201.212L250.507 199.67C250.923 199.43 251.173 199.133 251.173 198.876C251.173 198.63 250.922 198.448 250.771 198.362L247.571 196.516C247.216 196.308 246.726 196.21 246.211 196.21Z" fill="#383532"></path> <path d="M254.519 207.629L251.32 205.782C250.373 205.236 250.491 204.283 251.584 203.65L254.253 202.109C255.345 201.479 256.999 201.41 257.945 201.956L261.145 203.802C262.091 204.349 261.973 205.303 260.88 205.934L258.212 207.476C257.119 208.107 255.465 208.175 254.519 207.629Z" fill="#E3E0C5"></path> <path d="M256.129 208.474C255.444 208.474 254.787 208.331 254.282 208.041L251.083 206.195C250.517 205.868 250.205 205.394 250.205 204.857C250.205 204.248 250.622 203.658 251.348 203.239L254.016 201.698C255.259 200.98 257.09 200.913 258.184 201.545L261.384 203.391C261.95 203.717 262.262 204.193 262.262 204.73C262.262 205.339 261.845 205.928 261.12 206.348L258.451 207.887C257.779 208.276 256.934 208.474 256.129 208.474ZM254.758 207.217C255.558 207.68 257.031 207.609 257.975 207.065L260.644 205.525C261.061 205.285 261.31 204.988 261.31 204.731C261.31 204.486 261.059 204.305 260.908 204.217L257.708 202.371C256.909 201.908 255.436 201.979 254.492 202.524L251.825 204.063C251.408 204.303 251.159 204.6 251.159 204.857C251.159 205.103 251.41 205.285 251.561 205.371L254.758 207.217Z" fill="#383532"></path> <path d="M214.714 195.544L211.514 193.698C210.569 193.152 210.687 192.199 211.779 191.566L214.448 190.025C215.54 189.395 217.194 189.326 218.14 189.873L221.34 191.719C222.286 192.265 222.168 193.219 221.075 193.851L218.407 195.392C217.312 196.022 215.66 196.091 214.714 195.544Z" fill="#E3E0C5"></path> <path d="M216.32 196.39C215.635 196.39 214.976 196.247 214.474 195.958L211.274 194.112C210.708 193.786 210.396 193.31 210.396 192.774C210.396 192.164 210.813 191.574 211.538 191.156L214.207 189.616C215.45 188.898 217.281 188.831 218.376 189.464L221.575 191.31C222.141 191.637 222.453 192.111 222.453 192.648C222.453 193.257 222.036 193.847 221.311 194.266L218.642 195.807C217.97 196.192 217.127 196.39 216.32 196.39ZM216.541 189.979C215.895 189.979 215.209 190.136 214.685 190.438L212.016 191.978C211.599 192.22 211.35 192.514 211.35 192.771C211.35 193.017 211.601 193.198 211.752 193.285L214.952 195.132C215.751 195.594 217.224 195.524 218.168 194.98L220.837 193.438C221.254 193.198 221.503 192.901 221.503 192.644C221.503 192.398 221.252 192.218 221.101 192.13L217.902 190.284C217.546 190.078 217.057 189.979 216.541 189.979Z" fill="#383532"></path> <path d="M225.026 201.499L221.826 199.653C220.88 199.106 220.999 198.152 222.091 197.521L224.76 195.979C225.852 195.349 227.506 195.28 228.452 195.827L231.652 197.673C232.598 198.219 232.48 199.172 231.387 199.805L228.719 201.346C227.624 201.976 225.972 202.045 225.026 201.499Z" fill="#E3E0C5"></path> <path d="M226.633 202.344C225.948 202.344 225.289 202.201 224.787 201.912L221.587 200.065C221.021 199.74 220.709 199.264 220.709 198.727C220.709 198.118 221.126 197.528 221.851 197.109L224.52 195.567C225.763 194.85 227.594 194.784 228.689 195.415L231.888 197.262C232.454 197.587 232.766 198.063 232.766 198.6C232.766 199.209 232.349 199.799 231.624 200.217L228.955 201.76C228.283 202.146 227.44 202.344 226.633 202.344ZM226.854 195.933C226.208 195.933 225.523 196.089 224.998 196.392L222.329 197.933C221.912 198.174 221.663 198.47 221.663 198.727C221.663 198.973 221.914 199.156 222.065 199.241L225.265 201.088C226.064 201.55 227.537 201.48 228.481 200.935L231.15 199.393C231.567 199.153 231.816 198.857 231.816 198.6C231.816 198.354 231.565 198.174 231.414 198.086L228.215 196.239C227.859 196.034 227.37 195.933 226.854 195.933Z" fill="#383532"></path> <path d="M234.942 207.224L231.742 205.378C230.796 204.832 230.914 203.878 232.006 203.246L234.675 201.704C235.768 201.074 237.422 201.006 238.368 201.552L241.567 203.399C242.513 203.945 242.396 204.898 241.303 205.531L238.634 207.072C237.542 207.702 235.89 207.771 234.942 207.224Z" fill="#E3E0C5"></path> <path d="M236.551 208.069C235.865 208.069 235.207 207.927 234.704 207.638L231.505 205.791C230.939 205.465 230.627 204.99 230.627 204.453C230.627 203.844 231.044 203.254 231.769 202.835L234.438 201.293C235.68 200.576 237.512 200.509 238.606 201.141L241.806 202.987C242.371 203.313 242.683 203.789 242.683 204.326C242.683 204.934 242.266 205.525 241.541 205.943L238.873 207.485C238.201 207.871 237.358 208.069 236.551 208.069ZM236.771 201.659C236.126 201.659 235.439 201.815 234.916 202.117L232.247 203.659C231.83 203.899 231.581 204.196 231.581 204.453C231.581 204.699 231.832 204.881 231.983 204.967L235.182 206.813C235.981 207.276 237.455 207.205 238.399 206.661L241.067 205.119C241.484 204.879 241.734 204.583 241.734 204.326C241.734 204.08 241.482 203.897 241.332 203.812L238.132 201.965C237.776 201.757 237.287 201.659 236.771 201.659Z" fill="#383532"></path> <path d="M245.081 213.077L241.881 211.231C240.935 210.685 241.053 209.731 242.145 209.099L244.814 207.557C245.907 206.927 247.561 206.859 248.507 207.405L251.706 209.252C252.652 209.798 252.535 210.751 251.442 211.384L248.773 212.925C247.681 213.557 246.027 213.626 245.081 213.077Z" fill="#E3E0C5"></path> <path d="M246.686 213.922C246.001 213.922 245.345 213.78 244.842 213.491L241.643 211.644C241.077 211.317 240.765 210.843 240.765 210.306C240.765 209.697 241.182 209.107 241.907 208.688L244.576 207.148C245.818 206.431 247.65 206.364 248.744 206.996L251.944 208.843C252.509 209.17 252.821 209.644 252.821 210.181C252.821 210.79 252.404 211.38 251.679 211.799L249.011 213.34C248.339 213.725 247.494 213.922 246.686 213.922ZM245.318 212.667C246.117 213.127 247.591 213.059 248.535 212.514L251.204 210.972C251.62 210.732 251.87 210.436 251.87 210.179C251.87 209.933 251.618 209.75 251.468 209.664L248.268 207.818C247.469 207.356 245.995 207.426 245.052 207.971L242.383 209.51C241.966 209.752 241.717 210.047 241.717 210.304C241.717 210.55 241.968 210.732 242.118 210.818L245.318 212.667Z" fill="#383532"></path> <path d="M205.273 200.994L202.073 199.148C201.127 198.602 201.245 197.648 202.338 197.016L205.006 195.474C206.099 194.844 207.753 194.776 208.699 195.322L211.899 197.168C212.845 197.715 212.726 198.668 211.634 199.3L208.966 200.842C207.873 201.472 206.221 201.54 205.273 200.994Z" fill="#E3E0C5"></path> <path d="M206.881 201.839C206.196 201.839 205.537 201.696 205.035 201.407L201.835 199.561C201.269 199.235 200.957 198.76 200.957 198.223C200.957 197.613 201.374 197.024 202.099 196.605L204.768 195.063C206.011 194.345 207.842 194.279 208.936 194.911L212.136 196.757C212.702 197.084 213.014 197.558 213.014 198.095C213.014 198.704 212.597 199.294 211.871 199.713L209.203 201.255C208.531 201.641 207.688 201.839 206.881 201.839ZM207.101 195.428C206.456 195.428 205.769 195.584 205.245 195.887L202.577 197.429C202.16 197.668 201.911 197.966 201.911 198.223C201.911 198.468 202.162 198.649 202.312 198.736L205.512 200.583C206.312 201.044 207.785 200.975 208.729 200.43L211.397 198.889C211.814 198.649 212.064 198.352 212.064 198.095C212.064 197.85 211.812 197.667 211.662 197.581L208.462 195.735C208.107 195.529 207.617 195.428 207.101 195.428Z" fill="#383532"></path> <path d="M215.587 206.948L212.387 205.102C211.441 204.555 211.559 203.602 212.652 202.97L215.32 201.428C216.413 200.798 218.067 200.729 219.013 201.276L222.213 203.122C223.159 203.668 223.04 204.622 221.948 205.254L219.28 206.796C218.187 207.426 216.534 207.494 215.587 206.948Z" fill="#E3E0C5"></path> <path d="M217.194 207.793C216.509 207.793 215.85 207.65 215.347 207.36L212.148 205.514C211.582 205.187 211.27 204.713 211.27 204.176C211.27 203.567 211.687 202.977 212.412 202.558L215.081 201.017C216.324 200.299 218.155 200.232 219.249 200.864L222.449 202.71C223.014 203.036 223.327 203.512 223.327 204.048C223.327 204.658 222.91 205.248 222.184 205.667L219.516 207.208C218.844 207.595 218.001 207.793 217.194 207.793ZM215.823 206.536C216.622 206.999 218.096 206.928 219.04 206.384L221.708 204.842C222.125 204.603 222.375 204.305 222.375 204.048C222.375 203.803 222.124 203.62 221.973 203.535L218.773 201.689C217.974 201.226 216.501 201.296 215.557 201.841L212.888 203.382C212.471 203.622 212.222 203.919 212.222 204.176C212.222 204.421 212.473 204.604 212.624 204.69L215.823 206.536Z" fill="#383532"></path> <path d="M225.503 212.673L222.303 210.827C221.357 210.281 221.475 209.327 222.567 208.695L225.236 207.153C226.328 206.523 227.983 206.455 228.929 207.001L232.128 208.847C233.074 209.394 232.956 210.347 231.864 210.979L229.195 212.521C228.102 213.151 226.448 213.219 225.503 212.673Z" fill="#E3E0C5"></path> <path d="M227.109 213.518C226.424 213.518 225.767 213.376 225.262 213.086L222.063 211.24C221.498 210.912 221.186 210.439 221.186 209.902C221.186 209.292 221.602 208.703 222.328 208.284L224.996 206.742C226.239 206.024 228.07 205.958 229.165 206.59L232.365 208.436C232.93 208.761 233.242 209.237 233.242 209.774C233.242 210.383 232.825 210.973 232.1 211.392L229.431 212.932C228.759 213.32 227.914 213.518 227.109 213.518ZM225.738 212.262C226.538 212.724 228.011 212.654 228.956 212.11L231.624 210.57C232.041 210.328 232.29 210.033 232.29 209.776C232.29 209.53 232.039 209.35 231.889 209.262L228.689 207.416C227.889 206.953 226.416 207.024 225.472 207.568L222.804 209.11C222.387 209.35 222.137 209.646 222.137 209.903C222.137 210.149 222.389 210.332 222.539 210.417L225.738 212.262Z" fill="#383532"></path> <path d="M235.643 218.528L232.444 216.682C231.498 216.135 231.616 215.182 232.709 214.55L235.377 213.008C236.469 212.378 238.123 212.31 239.07 212.856L242.269 214.703C243.215 215.249 243.097 216.202 242.005 216.834L239.336 218.376C238.244 219.006 236.589 219.074 235.643 218.528Z" fill="#E3E0C5"></path> <path d="M237.249 219.373C236.564 219.373 235.905 219.231 235.403 218.941L232.203 217.095C231.638 216.769 231.325 216.293 231.325 215.757C231.325 215.148 231.742 214.558 232.468 214.139L235.136 212.597C236.379 211.88 238.21 211.813 239.305 212.445L242.504 214.291C243.07 214.617 243.382 215.093 243.382 215.629C243.382 216.238 242.965 216.829 242.24 217.247L239.571 218.789C238.901 219.176 238.056 219.373 237.249 219.373ZM237.47 212.961C236.824 212.961 236.138 213.117 235.614 213.42L232.945 214.961C232.529 215.201 232.279 215.498 232.279 215.755C232.279 216 232.53 216.183 232.681 216.269L235.881 218.115C236.68 218.578 238.153 218.507 239.097 217.963L241.766 216.421C242.183 216.182 242.432 215.884 242.432 215.627C242.432 215.382 242.181 215.199 242.03 215.114L238.831 213.267C238.475 213.062 237.986 212.961 237.47 212.961Z" fill="#383532"></path> <g opacity="0.33"> <g opacity="0.33"> <g opacity="0.33"> <path opacity="0.33" d="M261.441 239.44L304.032 214.735L310.612 223.599L267.04 248.953L261.441 239.44Z" fill="#7E4014"></path> </g> <g opacity="0.4"> <path opacity="0.4" d="M264.184 244.233L307.242 219.713L309.396 224.241L266.573 249.053L264.184 244.233Z" fill="#7E4014"></path> </g> <g opacity="0.33"> <path opacity="0.33" d="M260.645 240.264C260.742 240.083 260.873 239.919 261.01 239.773C261.652 239.086 264.184 237.906 266.89 242.521C268.481 245.236 268.687 246.753 268.219 247.769C267.829 248.616 266.966 249.147 266.037 249.235L255.34 250.232L260.645 240.264Z" fill="#7E4014"></path> </g> <g opacity="0.33"> <path opacity="0.33" d="M303.493 215.063L307.706 212.476C308.334 212.089 309.128 212.086 309.754 212.474C310.51 212.942 311.562 213.812 312.71 215.415C314.078 217.328 314.48 218.93 314.567 219.97C314.63 220.707 314.292 221.447 313.659 221.83L309.571 224.195C309.571 224.195 310.298 222.756 308.01 219.279C305.81 215.929 303.493 215.063 303.493 215.063Z" fill="#7E4014"></path> </g> <g opacity="0.33"> <path opacity="0.33" d="M302.084 215.866L304.354 214.558C304.608 214.414 304.912 214.391 305.182 214.503C305.877 214.794 307.276 215.611 308.858 217.819C310.571 220.211 310.855 222.016 310.872 222.882C310.877 223.221 310.699 223.535 310.405 223.706L308.081 225.069C308.081 225.069 308.889 223.059 306.6 219.582C304.396 216.235 302.084 215.866 302.084 215.866Z" fill="#7E4014"></path> </g> <g opacity="0.33"> <path opacity="0.33" d="M255.343 250.234L257.365 246.433C257.365 246.433 258.48 246.956 259.095 247.826C259.709 248.696 259.757 249.823 259.757 249.823L255.343 250.234Z" fill="#7E4014"></path> </g> </g> </g> <path d="M257.008 236.672L303.972 209.432L311.228 219.206L263.183 247.164L257.008 236.672Z" fill="#F8B815"></path> <path d="M263.186 247.64C263.022 247.64 262.864 247.557 262.775 247.407L256.6 236.917C256.535 236.808 256.518 236.677 256.551 236.555C256.583 236.433 256.663 236.328 256.772 236.264L303.734 209.024C303.944 208.902 304.21 208.957 304.355 209.152L311.609 218.926C311.689 219.034 311.719 219.173 311.693 219.304C311.666 219.437 311.582 219.552 311.466 219.62L263.422 247.578C263.35 247.62 263.266 247.64 263.186 247.64ZM257.662 236.845L263.353 246.514L310.528 219.063L303.843 210.058L257.662 236.845Z" fill="#383532"></path> <g opacity="0.4"> <path opacity="0.4" d="M260.032 241.958L307.509 214.922L309.884 219.915L262.666 247.273L260.032 241.958Z" fill="#6E3B11"></path> </g> <path d="M256.131 237.58C256.238 237.38 256.383 237.201 256.535 237.04C257.243 236.282 260.033 234.98 263.018 240.071C264.773 243.064 264.999 244.737 264.484 245.86C264.053 246.795 263.104 247.381 262.08 247.476L250.284 248.576L256.131 237.58Z" fill="#E3E0C5"></path> <path d="M250.283 249.05C250.125 249.05 249.976 248.973 249.887 248.84C249.79 248.693 249.78 248.506 249.862 248.352L255.71 237.358C255.822 237.145 255.974 236.941 256.185 236.715C256.633 236.237 257.573 235.725 258.751 235.856C260.417 236.041 261.991 237.379 263.428 239.83C265.114 242.707 265.573 244.627 264.914 246.056C264.431 247.107 263.361 247.833 262.122 247.947L250.327 249.047C250.313 249.05 250.298 249.05 250.283 249.05ZM256.551 237.805L251.119 248.019L262.035 247.001C262.937 246.917 263.71 246.403 264.051 245.66C264.559 244.557 264.1 242.859 262.608 240.312C261.016 237.598 259.575 236.905 258.646 236.802C257.758 236.705 257.12 237.108 256.882 237.365C256.728 237.529 256.623 237.668 256.551 237.805Z" fill="#383532"></path> <path d="M303.377 209.795L308.024 206.943C308.716 206.519 309.59 206.514 310.283 206.942C311.117 207.457 312.276 208.417 313.543 210.185C315.053 212.294 315.497 214.06 315.594 215.208C315.662 216.019 315.289 216.835 314.592 217.258L310.085 219.868C310.085 219.868 310.889 218.281 308.364 214.447C305.93 210.75 303.377 209.795 303.377 209.795Z" fill="#E18E05"></path> <path d="M310.082 220.342C309.964 220.342 309.846 220.298 309.755 220.212C309.603 220.068 309.563 219.839 309.658 219.651C309.658 219.649 310.25 218.179 307.964 214.706C305.662 211.207 303.234 210.25 303.209 210.241C303.04 210.176 302.922 210.02 302.905 209.839C302.888 209.658 302.975 209.483 303.129 209.39L307.775 206.539C308.63 206.015 309.687 206.013 310.533 206.536C311.338 207.033 312.582 208.023 313.929 209.907C315.515 212.123 315.966 213.99 316.065 215.166C316.15 216.179 315.669 217.159 314.835 217.664L310.318 220.277C310.246 220.321 310.162 220.342 310.082 220.342ZM304.351 209.757C305.337 210.338 307.077 211.628 308.759 214.182C310.269 216.478 310.647 218.033 310.68 218.97L314.354 216.844C314.871 216.529 315.174 215.901 315.119 215.246C315.029 214.188 314.616 212.5 313.157 210.461C311.898 208.704 310.764 207.798 310.033 207.345C309.492 207.012 308.819 207.012 308.274 207.347L304.351 209.757Z" fill="#383532"></path> <path d="M301.823 210.681L304.328 209.24C304.606 209.08 304.943 209.055 305.239 209.179C306.007 209.499 307.548 210.399 309.292 212.836C311.18 215.474 311.494 217.463 311.513 218.418C311.521 218.791 311.321 219.137 310.999 219.326L308.437 220.83C308.437 220.83 309.326 218.614 306.804 214.779C304.374 211.086 301.823 210.681 301.823 210.681Z" fill="#E3E0C5"></path> <path d="M308.436 221.307C308.324 221.307 308.213 221.267 308.126 221.19C307.972 221.057 307.918 220.842 307.995 220.652C308 220.637 308.733 218.579 306.405 215.041C304.117 211.563 301.77 211.152 301.746 211.148C301.546 211.115 301.39 210.963 301.351 210.764C301.315 210.565 301.406 210.366 301.582 210.265L304.087 208.824C304.492 208.59 304.991 208.557 305.419 208.737C306.23 209.075 307.863 210.023 309.675 212.555C311.639 215.298 311.965 217.399 311.984 218.406C311.993 218.948 311.708 219.457 311.236 219.734L308.674 221.238C308.602 221.286 308.52 221.307 308.436 221.307ZM302.962 210.573C303.994 211.051 305.628 212.128 307.201 214.519C308.819 216.976 309.096 218.828 309.06 219.913L310.758 218.918C310.934 218.815 311.04 218.628 311.036 218.428C311.019 217.532 310.718 215.648 308.904 213.112C307.229 210.771 305.773 209.918 305.056 209.618C304.899 209.553 304.715 209.564 304.564 209.652L302.962 210.573Z" fill="#383532"></path> <path d="M250.284 248.576L252.515 244.384C252.515 244.384 253.745 244.961 254.422 245.922C255.1 246.884 255.153 248.123 255.153 248.123L250.284 248.576Z" fill="#3B3835"></path> <path d="M250.283 249.051C250.125 249.051 249.976 248.973 249.887 248.84C249.79 248.693 249.78 248.507 249.862 248.353L252.091 244.161C252.209 243.939 252.483 243.847 252.714 243.954C252.769 243.979 254.065 244.595 254.808 245.648C255.557 246.71 255.622 248.046 255.624 248.104C255.635 248.356 255.445 248.574 255.192 248.598L250.323 249.053C250.313 249.051 250.298 249.051 250.283 249.051ZM252.708 245.033L251.119 248.021L254.619 247.696C254.546 247.294 254.385 246.697 254.033 246.198C253.66 245.667 253.089 245.264 252.708 245.033Z" fill="#3B3835"></path> <g opacity="0.4"> <path opacity="0.4" d="M355.982 229.162L331.39 214.964L355.981 200.766L380.573 214.964L355.982 229.162Z" fill="#6E3B11"></path> </g> <path d="M355.984 225.244L328.038 209.111L355.982 192.978L383.928 209.111L355.984 225.244Z" fill="#F8B815"></path> <path d="M355.983 225.72C355.902 225.72 355.82 225.699 355.745 225.657L327.8 209.524C327.653 209.438 327.562 209.282 327.562 209.113C327.562 208.943 327.653 208.785 327.8 208.7L355.744 192.566C355.89 192.48 356.073 192.48 356.22 192.566L384.166 208.7C384.312 208.785 384.403 208.942 384.403 209.113C384.403 209.284 384.312 209.44 384.166 209.526L356.221 225.659C356.147 225.699 356.065 225.72 355.983 225.72ZM328.989 209.111L355.983 224.696L382.976 209.111L355.982 193.526L328.989 209.111Z" fill="#383532"></path> <path d="M355.984 221.994L328.038 205.861L355.982 189.726L383.928 205.861L355.984 221.994Z" fill="#E3E0C5"></path> <path d="M355.983 222.469C355.902 222.469 355.82 222.448 355.745 222.404L327.8 206.271C327.653 206.185 327.562 206.029 327.562 205.858C327.562 205.688 327.653 205.531 327.8 205.447L355.744 189.313C355.89 189.228 356.073 189.228 356.22 189.313L384.166 205.447C384.312 205.532 384.403 205.688 384.403 205.86C384.403 206.029 384.312 206.187 384.166 206.271L356.221 222.404C356.147 222.448 356.065 222.469 355.983 222.469ZM328.989 205.86L355.983 221.445L382.976 205.86L355.982 190.274L328.989 205.86Z" fill="#383532"></path> <path d="M349.733 217.698L328.038 205.174L355.982 189.039L383.928 205.174L361.446 218.153L349.733 217.698Z" fill="#F8B815"></path> <path d="M361.446 218.628C361.441 218.628 361.435 218.628 361.427 218.628L349.716 218.174C349.638 218.169 349.563 218.149 349.497 218.11L327.802 205.584C327.655 205.498 327.564 205.342 327.564 205.173C327.564 205.004 327.655 204.846 327.802 204.76L355.746 188.626C355.892 188.541 356.075 188.541 356.222 188.626L384.168 204.76C384.314 204.846 384.406 205.002 384.406 205.171C384.406 205.34 384.314 205.498 384.168 205.584L361.686 218.564C361.612 218.608 361.53 218.628 361.446 218.628ZM349.87 217.227L361.327 217.673L382.976 205.173L355.982 189.588L328.989 205.173L349.87 217.227Z" fill="#383532"></path> <path d="M355.981 189.038L383.927 205.173L378.078 208.55L350.133 192.416L355.981 189.038Z" fill="#E3E0C5"></path> <path d="M378.078 209.025C377.996 209.025 377.914 209.004 377.84 208.962L349.894 192.829C349.748 192.743 349.656 192.587 349.656 192.418C349.656 192.248 349.748 192.091 349.894 192.005L355.743 188.628C355.89 188.543 356.072 188.543 356.219 188.628L384.166 204.762C384.312 204.847 384.403 205.003 384.403 205.173C384.403 205.342 384.312 205.5 384.166 205.586L378.316 208.962C378.242 209.004 378.16 209.025 378.078 209.025ZM351.084 192.416L378.078 208.001L382.976 205.174L355.981 189.589L351.084 192.416Z" fill="#383532"></path> <g opacity="0.4"> <path opacity="0.4" d="M351.772 216.661L357.453 212.977L361.512 217.899L351.772 216.661Z" fill="#6E3B11"></path> </g> <path d="M349.733 217.697L355.965 213.656L361.446 218.152L349.733 217.697Z" fill="#E3E0C5"></path> <path d="M361.448 218.628C361.442 218.628 361.434 218.628 361.428 218.628L349.716 218.173C349.509 218.166 349.33 218.023 349.277 217.825C349.222 217.625 349.304 217.412 349.477 217.299L355.708 213.259C355.882 213.146 356.108 213.157 356.27 213.291L361.752 217.787C361.91 217.916 361.967 218.133 361.895 218.324C361.822 218.506 361.644 218.628 361.448 218.628ZM351.253 217.28L360.05 217.621L355.933 214.244L351.253 217.28Z" fill="#383532"></path> <path d="M371.177 209.434C371.097 209.434 371.016 209.413 370.94 209.371L349.897 197.222C349.669 197.09 349.591 196.799 349.722 196.57C349.853 196.342 350.145 196.266 350.373 196.397L371.415 208.547C371.644 208.678 371.722 208.97 371.59 209.198C371.501 209.348 371.341 209.434 371.177 209.434Z" fill="#383532"></path> <path d="M366.831 211.795C366.751 211.795 366.668 211.774 366.593 211.732L345.55 199.582C345.322 199.451 345.244 199.16 345.375 198.931C345.506 198.703 345.798 198.625 346.026 198.758L367.068 210.908C367.297 211.039 367.375 211.33 367.243 211.557C367.154 211.711 366.994 211.795 366.831 211.795Z" fill="#383532"></path> <path d="M353.457 209.025C353.377 209.025 353.296 209.004 353.219 208.962L341.772 202.353C341.544 202.222 341.466 201.931 341.597 201.702C341.728 201.474 342.02 201.398 342.248 201.529L353.695 208.138C353.924 208.269 354.002 208.56 353.871 208.787C353.781 208.939 353.621 209.025 353.457 209.025Z" fill="#383532"></path> <path d="M355.984 221.646L328.038 205.172V209.11L355.984 225.243L383.928 209.11V205.172L355.984 221.646Z" fill="#F8B815"></path> <path d="M355.983 225.72C355.902 225.72 355.82 225.7 355.745 225.658L327.8 209.524C327.653 209.439 327.562 209.282 327.562 209.113V205.175C327.562 205.004 327.653 204.845 327.802 204.762C327.95 204.676 328.133 204.678 328.279 204.766L355.983 221.099L383.686 204.767C383.833 204.68 384.015 204.68 384.164 204.764C384.312 204.85 384.403 205.005 384.403 205.177V209.115C384.403 209.285 384.312 209.442 384.166 209.528L356.221 225.662C356.147 225.7 356.065 225.72 355.983 225.72ZM328.513 208.835L355.983 224.694L383.452 208.835V206.005L356.226 222.056C356.077 222.144 355.89 222.144 355.742 222.056L328.513 206.005V208.835Z" fill="#383532"></path> <path d="M363.437 219.509L355.941 223.782L347.016 218.628L355.941 223.137L363.437 219.509Z" fill="#383532"></path> <g opacity="0.4"> <path opacity="0.4" d="M169.186 405.609L110.568 371.766C107.087 369.756 107.525 366.246 111.543 363.926L151.405 340.912C155.423 338.592 161.504 338.34 164.983 340.348L223.601 374.191C227.083 376.201 226.645 379.711 222.627 382.031L182.767 405.045C178.747 407.366 172.667 407.619 169.186 405.609Z" fill="#6E3B11"></path> </g> <path d="M170.767 395.542C171.524 396.794 172.918 397.611 174.485 397.557C176.788 397.48 178.592 395.547 178.512 393.244L176.635 338.451C176.559 336.146 174.626 334.343 172.322 334.423C170.019 334.501 168.215 336.433 168.295 338.736L170.172 393.53C170.194 394.267 170.411 394.952 170.767 395.542Z" fill="#383532"></path> <path d="M219.9 367.599C220.72 368.811 222.154 369.554 223.717 369.419C226.014 369.22 227.713 367.199 227.516 364.904L222.808 310.279C222.612 307.982 220.589 306.282 218.293 306.48C215.996 306.678 214.296 308.699 214.494 310.995L219.202 365.62C219.264 366.354 219.514 367.03 219.9 367.599Z" fill="#383532"></path> <path d="M105.838 358.295C106.575 359.561 107.955 360.4 109.521 360.372C111.826 360.331 113.661 358.43 113.62 356.125L112.652 301.306C112.614 299.002 110.711 297.166 108.406 297.208C106.101 297.249 104.266 299.15 104.308 301.455L105.275 356.274C105.288 357.01 105.492 357.699 105.838 358.295Z" fill="#383532"></path> <path d="M208.618 339.756C205.872 338.133 205.9 333.925 205.908 331.301C205.939 321.415 205.44 325.552 207.968 322.285C207.968 322.285 227.773 314.479 231.513 313.354C235.253 312.229 239.046 312.837 240.836 316.194C242.627 319.554 240.315 323.067 237.996 325.517C235.678 327.969 220.062 337.115 217.3 338.542C211.592 341.498 209.876 340.798 208.618 339.756Z" fill="#383532"></path> <path d="M219.093 323.112C219.093 328.484 206.81 326.911 206.603 323.668C206.246 318.133 206.785 300.404 206.785 300.404C212.214 294.226 219.095 297.991 219.095 303.362V323.112H219.093Z" fill="#F8B815"></path> <path d="M213.465 327.108C210.016 327.108 206.26 325.762 206.129 323.699C205.775 318.204 206.304 300.566 206.31 300.389C206.314 300.279 206.356 300.173 206.428 300.091C209.019 297.143 212.326 296.044 215.277 297.156C217.844 298.123 219.569 300.618 219.569 303.363V323.114C219.569 325.498 217.443 326.988 213.882 327.104C213.744 327.106 213.606 327.108 213.465 327.108ZM207.256 300.591C207.202 302.44 206.746 318.48 207.079 323.638C207.166 324.988 210.583 326.255 213.853 326.15C214.972 326.114 218.619 325.789 218.619 323.113V303.361C218.619 301.01 217.142 298.874 214.942 298.045C212.42 297.097 209.555 298.047 207.256 300.591Z" fill="#383532"></path> <path d="M212.205 263.529L220.137 305.242C220.995 309.761 218.029 314.122 213.511 314.98C209.31 315.779 205.248 313.271 204.005 309.285L191.328 268.761C189.551 263.079 192.575 256.497 198.398 255.254C204.374 253.977 209.293 257.283 210.947 260.222C211.427 261.077 212.127 263.131 212.205 263.529Z" fill="#383432"></path> <path d="M166.916 343.402L108.298 309.559C104.817 307.549 105.255 304.039 109.273 301.719L149.134 278.704C153.153 276.384 159.234 276.133 162.714 278.141L221.331 311.984C224.813 313.994 224.375 317.504 220.357 319.824L180.496 342.838C176.476 345.158 170.396 345.41 166.916 343.402Z" fill="#383532"></path> <path d="M172.812 345.224C170.514 345.224 168.318 344.759 166.677 343.814L108.06 309.971C106.39 309.007 105.472 307.652 105.472 306.154C105.472 304.38 106.771 302.614 109.036 301.308L148.897 278.294C153.041 275.901 159.347 275.648 162.952 277.73L221.57 311.573C223.239 312.537 224.157 313.892 224.157 315.39C224.157 317.163 222.859 318.93 220.593 320.236L180.732 343.25C178.473 344.556 175.57 345.224 172.812 345.224ZM156.817 277.257C154.234 277.257 151.503 277.887 149.373 279.118L109.512 302.132C107.549 303.265 106.424 304.73 106.424 306.154C106.424 307.298 107.174 308.36 108.535 309.146L167.153 342.989C170.497 344.919 176.375 344.668 180.256 342.426L220.118 319.411C222.08 318.279 223.205 316.813 223.205 315.39C223.205 314.246 222.455 313.184 221.094 312.397L162.476 278.554C160.967 277.683 158.942 277.257 156.817 277.257Z" fill="#383532"></path> <path d="M223.68 315.118L223.677 311.498L214.865 320.585L223.68 315.118Z" fill="#383532"></path> <path d="M214.866 321.061C214.725 321.061 214.588 321 214.495 320.884C214.345 320.697 214.356 320.427 214.523 320.254L223.336 311.167C223.471 311.028 223.677 310.984 223.856 311.056C224.035 311.129 224.153 311.304 224.153 311.498L224.155 315.117C224.155 315.282 224.069 315.434 223.93 315.522L215.115 320.988C215.04 321.038 214.952 321.061 214.866 321.061ZM223.205 312.673L217.894 318.148L223.207 314.854L223.205 312.673Z" fill="#383532"></path> <path d="M105.951 302.156V306.077L115.805 310.771L105.951 302.156Z" fill="#383532"></path> <path d="M115.802 311.247C115.734 311.247 115.664 311.231 115.599 311.201L105.745 306.507C105.579 306.429 105.475 306.262 105.475 306.077V302.156C105.475 301.969 105.583 301.8 105.754 301.722C105.924 301.644 106.124 301.674 106.265 301.796L116.119 310.411C116.297 310.567 116.334 310.832 116.202 311.029C116.111 311.17 115.959 311.247 115.802 311.247ZM106.426 305.776L112.89 308.856L106.426 303.204V305.776Z" fill="#383532"></path> <path d="M166.917 339.474L108.3 305.632C104.818 303.621 105.256 300.112 109.274 297.791L149.135 274.777C153.154 272.457 159.235 272.206 162.715 274.214L221.333 308.056C224.814 310.066 224.376 313.576 220.358 315.897L180.497 338.911C176.477 341.231 170.397 341.484 166.917 339.474Z" fill="#F8B815"></path> <path d="M172.812 341.298C170.514 341.298 168.318 340.834 166.679 339.888L108.061 306.045C106.392 305.082 105.475 303.726 105.475 302.228C105.475 300.454 106.773 298.688 109.038 297.382L148.899 274.368C153.043 271.975 159.347 271.722 162.954 273.805L221.572 307.647C223.241 308.61 224.159 309.966 224.159 311.464C224.159 313.238 222.861 315.004 220.595 316.312L180.734 339.326C178.473 340.628 175.57 341.298 172.812 341.298ZM167.155 339.063C170.5 340.993 176.377 340.742 180.258 338.5L220.12 315.486C222.082 314.353 223.207 312.887 223.207 311.462C223.207 310.318 222.457 309.256 221.096 308.47L162.479 274.627C159.134 272.696 153.256 272.948 149.375 275.19L109.514 298.205C107.551 299.337 106.426 300.803 106.426 302.226C106.426 303.37 107.176 304.432 108.537 305.219L167.155 339.063Z" fill="#3B3835"></path> <path d="M231.973 354.122C229.468 352.142 229.936 348.008 230.279 345.408C231.181 338.58 230.003 338.403 232.666 336.858C232.666 336.858 253.339 331.783 257.197 331.172C261.056 330.561 264.731 331.671 266.054 335.24C267.377 338.809 264.613 341.98 261.986 344.096C259.36 346.213 247.208 351.368 244.281 352.411C238.228 354.569 233.079 355.321 231.973 354.122Z" fill="#383532"></path> <path d="M243.983 337.39C243.983 343.199 231.889 345.409 231.617 340.362C231.411 338.184 229.577 312.901 229.577 312.901C235.005 306.722 242.086 310.535 242.086 315.906L243.983 337.39Z" fill="#F8B815"></path> <path d="M235.818 343.651C233.039 343.651 231.258 342.419 231.143 340.398C230.936 338.178 229.12 313.188 229.103 312.935C229.093 312.808 229.135 312.682 229.221 312.587C231.817 309.631 235.171 308.546 238.188 309.682C240.797 310.666 242.554 313.158 242.564 315.886L244.46 337.348C244.461 337.362 244.461 337.377 244.461 337.39C244.461 341.325 239.594 343.552 236.079 343.647C235.989 343.649 235.903 343.651 235.818 343.651ZM230.066 313.069C230.239 315.463 231.897 338.274 232.091 340.318C232.091 340.323 232.091 340.331 232.093 340.337C232.217 342.621 235.154 342.722 236.052 342.695C239.172 342.612 243.49 340.729 243.508 337.411L241.612 315.948C241.61 315.935 241.61 315.92 241.61 315.906C241.61 313.564 240.099 311.42 237.851 310.573C235.266 309.6 232.369 310.533 230.066 313.069Z" fill="#383532"></path> <path d="M162.829 287.601L163.664 287.167L164.448 286.767L166 285.989L169.091 284.468C171.15 283.467 173.218 282.486 175.298 281.525C179.457 279.599 183.671 277.747 187.996 275.978C192.341 274.222 196.751 272.539 201.575 271.06C204 270.323 206.501 269.631 209.377 269.071C210.121 268.938 210.808 268.795 211.64 268.689L212.839 268.526C213.258 268.477 213.728 268.443 214.169 268.407L214.841 268.357L215.009 268.346L215.242 268.332C215.47 268.323 215.698 268.315 215.927 268.311C216.384 268.306 216.84 268.304 217.295 268.329C217.75 268.361 218.205 268.407 218.658 268.465C219.115 268.519 219.55 268.603 219.983 268.698C220.413 268.793 220.852 268.898 221.267 269.018C221.669 269.143 222.069 269.278 222.463 269.423C222.657 269.496 222.862 269.57 223.047 269.646L223.584 269.886C223.94 270.049 224.294 270.218 224.642 270.395C224.958 270.571 225.27 270.752 225.58 270.938C225.893 271.125 226.201 271.317 226.462 271.504C226.734 271.692 227.003 271.886 227.269 272.082C227.549 272.282 227.756 272.466 227.996 272.662L228.685 273.253C229.087 273.632 229.503 274.028 229.869 274.41C231.323 275.944 232.361 277.402 233.242 278.79C234.121 280.181 234.81 281.5 235.429 282.791C236.042 284.079 236.581 285.336 237.052 286.565C238.003 289.026 238.76 291.409 239.424 293.76C240.088 296.111 240.65 298.426 241.158 300.727C242.167 305.325 242.944 309.861 243.599 314.386C243.924 316.649 244.215 318.906 244.476 321.167C244.607 322.298 244.729 323.431 244.845 324.567L245.013 326.278L245.172 328.056C245.595 332.771 242.114 336.936 237.399 337.356C233.086 337.743 229.235 334.863 228.285 330.761L228.223 330.487L227.882 329.019L227.515 327.489C227.265 326.467 227.008 325.441 226.744 324.419C226.214 322.375 225.659 320.336 225.076 318.314C223.907 314.275 222.638 310.29 221.222 306.471C220.514 304.566 219.773 302.697 218.987 300.917C218.205 299.136 217.375 297.432 216.517 295.905C216.208 295.368 216.168 295.354 215.496 294.862C214.385 294.282 212.371 294.668 210.709 295.599C207.325 297.181 204.08 299.794 200.538 301.838C196.985 303.902 182.453 312.787 179.261 314.725C173.33 318.71 162.261 318.554 156.968 311.555C151.673 304.556 153.054 294.59 160.054 289.295C160.75 288.768 161.475 288.307 162.223 287.911L162.829 287.601Z" fill="#383432"></path> <path d="M148.61 279.5L195.421 254.809C200.609 252.072 207.033 254.061 209.768 259.248C212.247 263.945 210.848 269.657 206.71 272.728L164.229 304.294C157.716 309.134 148.509 307.777 143.668 301.264C138.828 294.751 140.185 285.544 146.699 280.703C147.291 280.263 147.98 279.839 148.61 279.5Z" fill="#383432"></path> <path d="M158.66 198.884C158.108 198.884 157.546 198.817 156.987 198.676C153.294 197.755 147.953 194.203 148.875 190.511C148.875 190.511 152.219 186.316 154.905 179.168C158.112 170.633 158.654 167.946 158.654 167.946C159.576 164.253 162.229 161.948 165.918 162.867C169.61 163.788 171.858 167.529 170.937 171.221C170.937 171.221 170.826 174.728 169.635 181.409C167.715 192.176 168.354 196.054 168.354 196.054C167.574 199.187 161.749 198.884 158.66 198.884Z" fill="#F8B815"></path> <path d="M160.366 199.367C160.037 199.367 159.719 199.365 159.414 199.364C159.15 199.362 158.897 199.359 158.661 199.359C158.061 199.359 157.46 199.285 156.873 199.139C154.824 198.627 152.53 197.422 150.889 195.992C148.839 194.207 147.96 192.218 148.415 190.396C148.432 190.33 148.462 190.269 148.504 190.216C148.537 190.174 151.835 185.986 154.462 179.003C157.608 170.633 158.185 167.879 158.191 167.853C158.192 167.845 158.195 167.839 158.195 167.831C159.247 163.611 162.325 161.482 166.035 162.406C167.944 162.882 169.554 164.074 170.567 165.76C171.572 167.433 171.87 169.394 171.412 171.288C171.393 171.758 171.225 175.207 170.104 181.492C168.229 192.009 168.818 195.939 168.825 195.977C168.835 196.04 168.833 196.107 168.818 196.17C168.075 199.133 163.722 199.367 160.366 199.367ZM149.313 190.722C148.896 192.652 150.505 194.397 151.512 195.275C153.046 196.611 155.189 197.738 157.1 198.216C157.612 198.343 158.135 198.408 158.659 198.408C158.897 198.408 159.152 198.41 159.42 198.412C162.319 198.431 167.15 198.465 167.87 196.023C167.78 195.317 167.403 191.215 169.168 181.325C170.338 174.765 170.462 171.242 170.462 171.206C170.464 171.172 170.468 171.14 170.475 171.105C170.89 169.442 170.633 167.717 169.75 166.249C168.867 164.78 167.466 163.743 165.802 163.328C161.984 162.376 159.846 165.142 159.118 168.05C159.07 168.277 158.461 171.056 155.349 179.336C152.844 185.999 149.815 190.071 149.313 190.722Z" fill="#383532"></path> <path d="M188.115 158.091C187.54 171.415 177.014 176.089 167.023 176.194C157.112 176.297 145.88 167.946 145.88 151.11C145.88 135.994 163.469 124.128 175.982 132.88C186.717 140.391 189.023 137.037 188.115 158.091Z" fill="#F8B815"></path> <path d="M166.841 176.671C161.719 176.671 156.581 174.49 152.719 170.666C149.381 167.363 145.403 161.288 145.403 151.11C145.403 143.186 150.184 135.574 157.586 131.72C163.986 128.387 170.79 128.667 176.253 132.489C178.172 133.83 179.799 134.813 181.234 135.677C187.788 139.627 189.345 140.565 188.589 158.111C188.319 164.398 185.892 169.232 181.377 172.486C176.682 175.87 170.981 176.627 167.025 176.669C166.966 176.669 166.903 176.671 166.841 176.671ZM166.565 130.363C163.75 130.363 160.847 131.093 158.026 132.563C150.936 136.255 146.354 143.536 146.354 151.11C146.354 160.96 150.18 166.813 153.389 169.99C157.074 173.637 161.968 175.719 166.841 175.719C166.9 175.719 166.959 175.719 167.018 175.719C171.679 175.672 186.943 174.256 187.64 158.073C188.372 141.091 187.057 140.299 180.744 136.495C179.295 135.622 177.654 134.634 175.707 133.273C172.945 131.336 169.812 130.363 166.565 130.363Z" fill="#383532"></path> <path d="M177.362 121.856C177.362 121.856 157.25 121.137 149.88 130.405C142.685 139.45 143.738 152.327 145.862 161.747C147.986 171.167 158.653 175.7 160.474 175.609C162.282 175.52 165.414 176.195 168.353 170.556C171.309 164.883 170.416 153.929 174.998 150.195C182.466 144.111 188.192 148.628 192.06 139.258C195.159 131.751 194.376 124.432 188.586 121.476C182.798 118.521 177.362 121.856 177.362 121.856Z" fill="#383532"></path> <path d="M173.081 157.225C173.778 155.123 172.992 152.971 171.325 152.417C169.658 151.864 167.741 153.119 167.043 155.222C166.345 157.324 167.131 159.477 168.798 160.03C170.466 160.584 172.383 159.328 173.081 157.225Z" fill="#F8B815"></path> <path d="M188.295 220.138C189.252 230.601 185.369 238.639 184.753 246.854C184.058 256.099 184.541 265.576 184.838 275.771C185.046 282.901 184.396 288.798 183.941 293.327C182.82 304.459 167.545 307.273 141.868 298.281C117.74 289.832 118.42 280.634 120.274 269.969C122.088 259.539 123.414 214.563 123.414 214.563C124.067 197.834 132.328 176.228 157.073 185.688C189.756 198.243 186.258 197.898 188.295 220.138Z" fill="#E3E0C5"></path> <path d="M167.709 304.111C160.748 304.111 151.916 302.306 141.708 298.732C130.478 294.799 123.869 290.496 120.909 285.191C118.254 280.429 118.837 275.444 119.803 269.891C121.591 259.612 122.925 215 122.938 214.551C123.096 210.506 123.763 204.44 126.043 198.477C128.219 192.791 131.331 188.583 135.295 185.967C141.097 182.139 148.48 181.896 157.242 185.246C186.985 196.672 187.059 197.658 188.287 214.151C188.418 215.912 188.566 217.909 188.767 220.098C189.368 226.66 188.106 232.186 186.888 237.533C186.151 240.759 185.456 243.807 185.224 246.894C184.636 254.707 184.895 262.698 185.167 271.157C185.217 272.676 185.266 274.212 185.31 275.763C185.508 282.547 184.941 288.151 184.484 292.652L184.41 293.38C184.061 296.842 182.417 299.533 179.524 301.374C176.649 303.201 172.65 304.111 167.709 304.111ZM145.909 183.854C142.125 183.854 138.752 184.823 135.819 186.759C125.491 193.575 124.077 209.777 123.889 214.582C123.875 215.027 122.539 259.708 120.74 270.053C119.805 275.424 119.236 280.236 121.741 284.726C124.579 289.818 131.024 293.983 142.022 297.834C150.769 300.896 158.475 302.655 164.932 303.064C171.064 303.452 175.804 302.611 179.016 300.569C181.651 298.892 183.147 296.44 183.465 293.28L183.54 292.551C183.993 288.077 184.556 282.509 184.36 275.786C184.314 274.237 184.265 272.702 184.217 271.183C183.943 262.698 183.684 254.685 184.276 246.82C184.514 243.664 185.217 240.582 185.961 237.32C187.164 232.047 188.407 226.596 187.82 220.183C187.619 217.986 187.47 215.984 187.339 214.22C186.128 197.976 186.081 197.342 156.903 186.133C152.931 184.614 149.259 183.854 145.909 183.854Z" fill="#383532"></path> <path d="M236.219 272.411C233.357 271.738 231.214 269.183 231.179 266.109C231.139 262.493 234.038 259.531 237.654 259.491L258.714 259.261C262.331 259.222 265.292 262.12 265.332 265.736C265.372 269.353 262.473 272.314 258.857 272.354L237.797 272.585C237.253 272.592 236.726 272.531 236.219 272.411Z" fill="#F8B815"></path> <path d="M237.724 273.062C237.18 273.062 236.637 272.999 236.112 272.876C232.963 272.133 230.74 269.354 230.706 266.116C230.685 264.241 231.397 262.469 232.708 261.128C234.02 259.787 235.777 259.038 237.652 259.016L258.711 258.786C258.736 258.786 258.761 258.786 258.785 258.786C262.625 258.786 265.767 261.887 265.809 265.732C265.83 267.607 265.118 269.379 263.807 270.721C262.495 272.063 260.738 272.811 258.864 272.832L237.804 273.062C237.777 273.06 237.751 273.062 237.724 273.062ZM236.329 271.948C236.806 272.061 237.298 272.118 237.793 272.108L258.852 271.878C260.474 271.861 261.991 271.212 263.125 270.053C264.259 268.893 264.875 267.363 264.856 265.741C264.819 262.416 262.101 259.736 258.784 259.736C258.762 259.736 258.74 259.736 258.719 259.736L237.659 259.967C236.038 259.983 234.52 260.633 233.386 261.792C232.252 262.951 231.637 264.482 231.656 266.103C231.686 268.905 233.609 271.307 236.329 271.948Z" fill="#383532"></path> <path d="M189.963 207.708C192.366 211.854 202.798 228.779 216.853 248.809C223.677 258.534 242.494 257.032 246.171 259.615C249.849 262.195 251.307 270.923 246.486 274.949C243.149 277.735 212.736 272.701 206.331 268.338C202.543 265.757 197.802 261.59 189.375 250.098C180.952 238.608 177.913 234.147 175.195 230.578C172.184 226.624 168.139 220.155 169.787 211.784C170.573 207.79 174.382 199.609 179.584 198.167C183.781 197.001 185.991 200.854 189.963 207.708Z" fill="#E3E0C5"></path> <path d="M241.582 276.224C237.697 276.224 232.358 275.599 227.48 274.797C219.858 273.538 209.677 271.197 206.062 268.734C202.489 266.3 197.668 262.217 188.99 250.381C184.655 244.467 181.718 240.377 179.572 237.388C177.499 234.503 176.131 232.596 174.816 230.867C171.654 226.716 167.643 220.21 169.32 211.692C170.106 207.701 174.005 199.221 179.458 197.708C183.99 196.45 186.373 200.561 190.319 207.372L190.376 207.471C192.327 210.839 202.607 227.679 217.243 248.537C221.721 254.921 231.562 256.347 238.748 257.389C242.326 257.909 245.151 258.318 246.443 259.226C248.47 260.65 249.871 263.749 250.012 267.122C250.153 270.5 248.979 273.487 246.788 275.316C246.015 275.961 244.106 276.224 241.582 276.224ZM180.967 198.442C180.568 198.442 180.151 198.502 179.711 198.625C174.654 200.03 171.001 208.08 170.253 211.877C168.651 220.018 172.522 226.284 175.572 230.29C176.896 232.028 178.267 233.94 180.345 236.832C182.488 239.819 185.425 243.908 189.758 249.818C198.349 261.537 203.093 265.559 206.597 267.946C209.423 269.872 217.877 272.246 227.634 273.856C237.18 275.432 244.805 275.731 246.179 274.585C248.139 272.948 249.19 270.241 249.061 267.162C248.933 264.12 247.662 261.246 245.895 260.005C244.789 259.228 241.925 258.813 238.609 258.332C231.252 257.264 221.175 255.804 216.46 249.085C201.806 228.2 191.505 211.325 189.548 207.95L189.491 207.851C186.092 201.979 184.044 198.442 180.967 198.442Z" fill="#383532"></path> <path d="M106.973 303.593L172.718 341.385L157.026 262.818L91.4017 224.93L106.973 303.593Z" fill="#F8B815"></path> <path d="M172.718 341.862C172.636 341.862 172.554 341.841 172.48 341.799L106.736 304.008C106.616 303.94 106.532 303.824 106.505 303.689L90.9333 225.026C90.8973 224.843 90.9715 224.655 91.1235 224.546C91.2762 224.438 91.4775 224.428 91.6397 224.522L157.262 262.409C157.38 262.478 157.464 262.594 157.49 262.729L173.184 341.297C173.22 341.479 173.146 341.668 172.996 341.776C172.914 341.832 172.817 341.862 172.718 341.862ZM107.398 303.289L172.046 340.449L156.6 263.123L92.0716 225.867L107.398 303.289Z" fill="#3B3835"></path> <path d="M172.465 344.139C172.686 344.139 172.908 344.119 173.133 344.073C174.983 343.705 176.184 341.909 175.816 340.058L160.511 262.92C160.144 261.07 158.343 259.873 156.497 260.237C154.647 260.604 153.445 262.401 153.813 264.251L169.119 341.389C169.442 343.014 170.869 344.139 172.465 344.139Z" fill="#383532"></path> <path d="M107.561 309.878C107.782 309.878 108.005 309.857 108.229 309.812C110.08 309.444 111.28 307.647 110.913 305.797L94.7514 224.342C94.3837 222.492 92.5851 221.291 90.7367 221.658C88.8867 222.026 87.6859 223.823 88.0531 225.673L104.215 307.128C104.539 308.753 105.964 309.878 107.561 309.878Z" fill="#383532"></path> <g opacity="0.4"> <path opacity="0.4" d="M594.035 229.713L429.894 134.945C425.495 132.406 421.929 125.594 421.929 119.729V6.97615C421.929 1.11169 425.495 -1.58356 429.894 0.955606L594.035 95.7233C598.434 98.2622 602 105.075 602 110.939V223.692C602 229.556 598.434 232.252 594.035 229.713Z" fill="#6E3B11"></path> </g> <path d="M568.98 111.364L393.779 10.2121C391.834 9.08909 390.046 8.93869 388.613 9.57636L388.602 9.57064L388.527 9.6125C388.329 9.70577 388.139 9.81806 387.955 9.9418L384.389 11.9975L386.026 12.4391C385.55 13.5792 385.28 14.9859 385.28 16.638V136.988C385.28 143.246 389.085 150.519 393.781 153.23L568.98 254.382C569.568 254.72 570.141 254.971 570.697 255.141L570.3 257.288L574.534 254.833V254.825C576.336 253.788 577.48 251.385 577.48 247.956V127.606C577.48 121.348 573.675 114.074 568.98 111.364Z" fill="#3B3835"></path> <path d="M570.294 257.766C570.199 257.766 570.104 257.737 570.024 257.678C569.87 257.571 569.796 257.385 569.828 257.202L570.151 255.46C569.685 255.289 569.213 255.067 568.742 254.794L393.54 153.641C388.723 150.858 384.802 143.387 384.802 136.988V16.638C384.802 15.1952 385 13.8952 385.392 12.7626L384.264 12.4581C384.077 12.4086 383.94 12.2506 383.915 12.0603C383.89 11.8699 383.984 11.6834 384.149 11.5863L387.701 9.54017C387.901 9.40498 388.104 9.28887 388.304 9.19179L388.364 9.15756C388.409 9.1309 388.457 9.11379 388.506 9.10425C390.131 8.41714 392.035 8.65693 394.015 9.80089L569.213 110.952C574.03 113.736 577.952 121.207 577.952 127.605V247.955C577.952 251.372 576.823 254.003 574.846 255.19C574.825 255.211 574.799 255.228 574.772 255.245L570.533 257.701C570.464 257.744 570.379 257.766 570.294 257.766ZM385.619 11.8376L386.148 11.9803C386.281 12.0165 386.391 12.1078 386.451 12.2297C386.512 12.3534 386.515 12.4962 386.462 12.6218C385.992 13.7505 385.752 15.1 385.752 16.6361V136.986C385.752 143.084 389.458 150.184 394.015 152.815L569.213 253.966C569.759 254.28 570.305 254.522 570.83 254.682C571.063 254.752 571.2 254.985 571.158 255.223L570.951 256.353L574.216 254.459C574.242 254.44 574.263 254.421 574.29 254.406C576.012 253.416 577.003 251.062 577.003 247.95V127.605C577.003 121.507 573.294 114.408 568.742 111.777L393.54 10.6232C391.799 9.61817 390.162 9.40689 388.807 10.0103C388.79 10.0179 388.771 10.0255 388.752 10.0312C388.744 10.035 388.737 10.0388 388.729 10.0426C388.561 10.1226 388.39 10.2196 388.221 10.3358C388.211 10.3415 388.201 10.3491 388.19 10.3548L385.619 11.8376Z" fill="#3B3835"></path> <path d="M564.969 256.716L389.765 155.564C385.072 152.853 381.265 145.583 381.265 139.322V18.9706C381.265 12.7103 385.07 9.83417 389.765 12.5447L564.969 113.696C569.658 116.407 573.469 123.678 573.469 129.938V250.288C573.469 256.548 569.664 259.426 564.969 256.716Z" fill="#F8B815"></path> <path d="M568.349 258.211C567.205 258.211 565.975 257.849 564.73 257.128L389.528 155.976C384.711 153.193 380.789 145.722 380.789 139.323V18.9714C380.789 15.5053 381.947 12.85 383.966 11.6851C385.663 10.7048 387.807 10.8647 390.004 12.1324L565.207 113.284C570.024 116.067 573.946 123.538 573.946 129.937V250.287C573.946 253.753 572.785 256.408 570.766 257.573C570.035 257.999 569.219 258.211 568.349 258.211ZM386.388 12.0049C385.681 12.0049 385.025 12.1724 384.442 12.5093C382.725 13.501 381.741 15.8555 381.741 18.9714V139.321C381.741 145.42 385.447 152.521 390.004 155.15L565.207 256.302C567.094 257.392 568.901 257.552 570.289 256.751C572.006 255.759 572.992 253.404 572.992 250.289V129.939C572.992 123.84 569.287 116.739 564.73 114.11L389.528 12.9566C388.432 12.3247 387.364 12.0049 386.388 12.0049Z" fill="#3B3835"></path> <path d="M562.261 250.706L391.637 152.198C388.388 150.323 385.756 145.291 385.756 140.959V23.0013C385.756 18.6692 388.39 16.6782 391.637 18.5549L562.261 117.063C565.509 118.938 568.137 123.97 568.137 128.302V246.261C568.137 250.592 565.509 252.583 562.261 250.706Z" fill="#E3E0C5"></path> <path d="M475.457 153.45C475.303 153.45 475.152 153.376 475.061 153.239C474.914 153.02 474.973 152.725 475.192 152.578L482.271 147.859C482.34 147.814 482.42 147.787 482.501 147.781L491.039 147.189L494.379 142.239C494.419 142.182 494.47 142.132 494.529 142.096L502.166 137.541L499.56 136.73C499.309 136.652 499.17 136.386 499.248 136.135C499.326 135.883 499.592 135.744 499.843 135.823L503.468 136.951C503.647 137.006 503.776 137.162 503.799 137.349C503.822 137.535 503.733 137.718 503.57 137.813L495.11 142.861L491.699 147.917C491.617 148.038 491.484 148.115 491.337 148.126L482.696 148.726L475.724 153.374C475.64 153.425 475.547 153.45 475.457 153.45Z" fill="#383532"></path> <path d="M503.325 141.295C503.063 141.295 502.849 141.082 502.849 140.819V137.405C502.849 137.142 503.063 136.929 503.325 136.929C503.588 136.929 503.801 137.142 503.801 137.405V140.819C503.801 141.082 503.588 141.295 503.325 141.295Z" fill="#383532"></path> <path d="M548.202 151.328C548.202 158.732 543.003 161.732 536.591 158.03V167.027C547.306 173.213 555.992 168.2 555.992 155.826L548.202 151.328Z" fill="#E18E05"></path> <path d="M545.255 170.162C542.515 170.162 539.484 169.249 536.352 167.441C536.204 167.355 536.114 167.199 536.114 167.03V158.032C536.114 157.863 536.204 157.705 536.352 157.621C536.501 157.535 536.681 157.535 536.829 157.621C539.776 159.323 542.526 159.612 544.561 158.434C546.601 157.256 547.725 154.734 547.725 151.33C547.725 151.161 547.815 151.003 547.963 150.917C548.106 150.832 548.292 150.832 548.44 150.917L556.23 155.417C556.378 155.503 556.468 155.659 556.468 155.828C556.468 161.989 554.365 166.596 550.549 168.8C548.97 169.71 547.184 170.161 545.255 170.162ZM537.068 166.752C542.007 169.535 546.617 169.971 550.072 167.975C553.527 165.981 555.456 161.771 555.515 156.102L548.657 152.141C548.482 155.491 547.216 158.002 545.038 159.256C542.865 160.51 540.057 160.355 537.068 158.832V166.752Z" fill="#383432"></path> <path d="M524.98 137.923L517.187 133.422C517.187 145.795 525.875 160.842 536.591 167.027V158.03C530.179 154.328 524.98 145.327 524.98 137.923Z" fill="#F8B815"></path> <path d="M536.591 167.504C536.511 167.504 536.426 167.483 536.352 167.441C525.524 161.189 516.714 145.929 516.714 133.425C516.714 133.255 516.805 133.098 516.952 133.014C517.098 132.928 517.281 132.928 517.427 133.014L525.22 137.513C525.366 137.599 525.457 137.755 525.457 137.925C525.457 145.165 530.56 153.999 536.829 157.62C536.978 157.705 537.068 157.861 537.068 158.031V167.028C537.068 167.197 536.978 167.355 536.829 167.441C536.755 167.483 536.67 167.504 536.591 167.504ZM517.679 134.257C518.047 146.016 526.116 159.991 536.114 166.191V158.305C529.771 154.496 524.633 145.599 524.508 138.201L517.679 134.257Z" fill="#3B3835"></path> <path d="M517.187 133.423L524.98 137.923C524.98 130.52 530.179 127.519 536.591 131.221V122.223C525.873 116.037 517.187 121.051 517.187 133.423Z" fill="#383532"></path> <path d="M524.982 138.398C524.9 138.398 524.818 138.377 524.744 138.335L516.952 133.835C516.805 133.749 516.714 133.594 516.714 133.422C516.714 127.261 518.816 122.654 522.633 120.45C526.451 118.246 531.493 118.727 536.829 121.81C536.978 121.895 537.068 122.051 537.068 122.22V131.218C537.068 131.388 536.978 131.545 536.829 131.629C536.681 131.715 536.501 131.715 536.352 131.629C533.406 129.928 530.656 129.638 528.62 130.816C526.581 131.995 525.457 134.517 525.457 137.92C525.457 138.09 525.366 138.247 525.22 138.333C525.145 138.377 525.064 138.398 524.982 138.398ZM517.665 133.15L524.525 137.111C524.7 133.761 525.968 131.25 528.142 129.996C530.316 128.742 533.125 128.896 536.114 130.42V122.498C531.175 119.716 526.563 119.28 523.107 121.274C519.654 123.27 517.726 127.481 517.665 133.15Z" fill="#383532"></path> <path d="M536.591 122.223V131.22C542.998 134.922 548.196 143.924 548.196 151.328L555.992 155.828C555.992 143.453 547.301 128.409 536.591 122.223Z" fill="#E3E0C5"></path> <path d="M555.992 156.303C555.912 156.303 555.827 156.282 555.753 156.238L547.963 151.738C547.815 151.653 547.725 151.497 547.725 151.327C547.725 144.087 542.621 135.253 536.352 131.633C536.204 131.547 536.114 131.391 536.114 131.222V122.224C536.114 122.055 536.204 121.896 536.352 121.813C536.501 121.727 536.681 121.727 536.829 121.813C547.656 128.066 556.468 143.325 556.468 155.829C556.468 155.999 556.378 156.156 556.23 156.24C556.156 156.28 556.071 156.303 555.992 156.303ZM548.673 151.052L555.504 154.995C555.133 143.236 547.067 129.261 537.068 123.062V130.948C543.411 134.756 548.546 143.653 548.673 151.052Z" fill="#383532"></path> <path d="M529.231 215.304L519.081 209.445V196.171L529.231 202.029V215.304Z" fill="#383532"></path> <path d="M529.232 215.779C529.15 215.779 529.068 215.759 528.994 215.717L518.844 209.858C518.698 209.773 518.607 209.616 518.607 209.445V196.17C518.607 196.001 518.698 195.843 518.844 195.759C518.991 195.674 519.174 195.674 519.32 195.759L529.469 201.618C529.616 201.704 529.707 201.86 529.707 202.031V215.306C529.707 215.475 529.616 215.633 529.469 215.718C529.397 215.759 529.313 215.779 529.232 215.779ZM519.558 209.171L528.756 214.482V202.305L519.558 196.994V209.171Z" fill="#383532"></path> <path d="M541.662 222.481L531.514 216.623V192.893L541.662 198.752V222.481Z" fill="#F8B815"></path> <path d="M541.662 222.957C541.583 222.957 541.498 222.936 541.424 222.894L531.276 217.036C531.133 216.95 531.037 216.794 531.037 216.622V192.893C531.037 192.723 531.133 192.565 531.276 192.482C531.424 192.396 531.604 192.396 531.753 192.482L541.901 198.34C542.049 198.426 542.139 198.582 542.139 198.753V222.483C542.139 222.653 542.049 222.81 541.901 222.896C541.827 222.936 541.747 222.957 541.662 222.957ZM531.991 216.348L541.191 221.659V199.029L531.991 193.719V216.348Z" fill="#3B3835"></path> <path d="M553.84 229.634L543.692 223.776V191.627L553.84 197.486V229.634Z" fill="#E3E0C5"></path> <path d="M553.845 230.111C553.761 230.111 553.681 230.09 553.607 230.048L543.459 224.189C543.31 224.103 543.22 223.947 543.22 223.776V191.627C543.22 191.458 543.31 191.3 543.459 191.214C543.602 191.129 543.787 191.129 543.93 191.214L554.078 197.073C554.227 197.159 554.317 197.314 554.317 197.486V229.635C554.317 229.804 554.227 229.962 554.078 230.048C554.004 230.09 553.925 230.111 553.845 230.111ZM544.169 223.502L553.368 228.812V197.762L544.169 192.451V223.502Z" fill="#383532"></path> <path d="M444.158 168.444C444.079 168.444 443.997 168.423 443.92 168.381L399.464 142.782C399.316 142.696 399.226 142.54 399.226 142.369V98.4991C399.226 98.2362 399.44 98.0232 399.702 98.0232C399.965 98.0232 400.178 98.2362 400.178 98.4991V142.095L444.396 167.557C444.625 167.688 444.703 167.98 444.572 168.206C444.482 168.358 444.322 168.444 444.158 168.444Z" fill="#383532"></path> <path d="M402.044 139.999C401.89 139.999 401.738 139.923 401.646 139.784C401.501 139.565 401.562 139.27 401.783 139.125L407.516 135.357C407.646 135.271 407.807 135.256 407.952 135.311L415.033 138.092L418.522 134.154C418.57 134.1 418.629 134.056 418.695 134.03L427.081 130.544C427.239 130.478 427.422 130.503 427.557 130.61L435.455 136.788L443.866 130.307C444.074 130.147 444.372 130.185 444.534 130.392C444.694 130.6 444.656 130.899 444.447 131.061L435.742 137.768C435.571 137.901 435.329 137.899 435.158 137.766L427.188 131.531L419.159 134.865L415.522 138.971C415.389 139.121 415.178 139.171 414.991 139.099L407.83 136.285L402.303 139.919C402.225 139.974 402.136 139.999 402.044 139.999Z" fill="#383532"></path> <path d="M403.62 145.102C403.357 145.102 403.144 144.889 403.144 144.626V142.98C403.144 142.717 403.357 142.504 403.62 142.504C403.883 142.504 404.096 142.717 404.096 142.98V144.626C404.096 144.889 403.883 145.102 403.62 145.102Z" fill="#383532"></path> <path d="M408.219 147.75C407.956 147.75 407.743 147.537 407.743 147.274V145.627C407.743 145.365 407.956 145.151 408.219 145.151C408.481 145.151 408.694 145.365 408.694 145.627V147.274C408.694 147.537 408.481 147.75 408.219 147.75Z" fill="#383532"></path> <path d="M412.815 150.397C412.552 150.397 412.339 150.184 412.339 149.921V148.275C412.339 148.013 412.552 147.799 412.815 147.799C413.077 147.799 413.29 148.013 413.29 148.275V149.921C413.29 150.184 413.077 150.397 412.815 150.397Z" fill="#383532"></path> <path d="M417.414 153.045C417.152 153.045 416.939 152.832 416.939 152.569V150.923C416.939 150.661 417.152 150.447 417.414 150.447C417.677 150.447 417.89 150.661 417.89 150.923V152.569C417.89 152.832 417.677 153.045 417.414 153.045Z" fill="#383532"></path> <path d="M422.014 155.693C421.751 155.693 421.538 155.48 421.538 155.217V153.571C421.538 153.309 421.751 153.095 422.014 153.095C422.277 153.095 422.49 153.309 422.49 153.571V155.217C422.49 155.48 422.277 155.693 422.014 155.693Z" fill="#383532"></path> <path d="M426.612 158.34C426.349 158.34 426.136 158.127 426.136 157.864V156.218C426.136 155.956 426.349 155.743 426.612 155.743C426.874 155.743 427.088 155.956 427.088 156.218V157.864C427.088 158.127 426.874 158.34 426.612 158.34Z" fill="#383532"></path> <path d="M431.209 160.988C430.947 160.988 430.733 160.775 430.733 160.513V158.866C430.733 158.603 430.947 158.39 431.209 158.39C431.472 158.39 431.685 158.603 431.685 158.866V160.513C431.685 160.775 431.472 160.988 431.209 160.988Z" fill="#383532"></path> <path d="M435.807 163.636C435.544 163.636 435.331 163.423 435.331 163.161V161.514C435.331 161.251 435.544 161.038 435.807 161.038C436.07 161.038 436.283 161.251 436.283 161.514V163.161C436.283 163.423 436.07 163.636 435.807 163.636Z" fill="#383532"></path> <path d="M440.406 166.284C440.144 166.284 439.931 166.07 439.931 165.808V164.162C439.931 163.899 440.144 163.686 440.406 163.686C440.669 163.686 440.882 163.899 440.882 164.162V165.808C440.882 166.07 440.669 166.284 440.406 166.284Z" fill="#383532"></path> <path d="M401.222 141.118C401.142 141.118 401.06 141.097 400.984 141.055L399.461 140.18C399.232 140.048 399.155 139.757 399.286 139.53C399.417 139.302 399.708 139.224 399.935 139.356L401.458 140.231C401.686 140.362 401.764 140.654 401.633 140.88C401.547 141.032 401.387 141.118 401.222 141.118Z" fill="#383532"></path> <path d="M401.222 135.823C401.142 135.823 401.06 135.802 400.984 135.76L399.461 134.885C399.232 134.753 399.155 134.462 399.286 134.235C399.417 134.007 399.708 133.929 399.935 134.061L401.458 134.936C401.686 135.067 401.764 135.358 401.633 135.585C401.547 135.737 401.387 135.823 401.222 135.823Z" fill="#383532"></path> <path d="M401.222 130.526C401.142 130.526 401.06 130.505 400.984 130.463L399.461 129.588C399.232 129.457 399.155 129.165 399.286 128.939C399.417 128.71 399.708 128.632 399.935 128.764L401.458 129.639C401.686 129.771 401.764 130.062 401.633 130.289C401.547 130.441 401.387 130.526 401.222 130.526Z" fill="#383532"></path> <path d="M401.222 125.231C401.142 125.231 401.06 125.21 400.984 125.168L399.461 124.293C399.232 124.161 399.155 123.87 399.286 123.644C399.417 123.415 399.708 123.337 399.935 123.468L401.458 124.344C401.686 124.475 401.764 124.767 401.633 124.993C401.547 125.145 401.387 125.231 401.222 125.231Z" fill="#383532"></path> <path d="M401.222 119.935C401.142 119.935 401.06 119.915 400.984 119.873L399.461 118.997C399.232 118.866 399.155 118.574 399.286 118.348C399.417 118.12 399.708 118.041 399.935 118.173L401.458 119.048C401.686 119.18 401.764 119.471 401.633 119.697C401.547 119.85 401.387 119.935 401.222 119.935Z" fill="#383532"></path> <path d="M401.222 114.64C401.142 114.64 401.06 114.62 400.984 114.578L399.461 113.702C399.232 113.57 399.155 113.279 399.286 113.053C399.417 112.824 399.708 112.746 399.935 112.878L401.458 113.753C401.686 113.885 401.764 114.176 401.633 114.402C401.547 114.554 401.387 114.64 401.222 114.64Z" fill="#383532"></path> <path d="M401.222 109.344C401.142 109.344 401.06 109.322 400.984 109.281L399.461 108.405C399.232 108.274 399.155 107.983 399.286 107.756C399.417 107.528 399.708 107.45 399.935 107.581L401.458 108.456C401.686 108.588 401.764 108.879 401.633 109.106C401.547 109.258 401.387 109.344 401.222 109.344Z" fill="#383532"></path> <path d="M401.222 104.048C401.142 104.048 401.06 104.028 400.984 103.986L399.461 103.108C399.232 102.977 399.155 102.686 399.286 102.459C399.417 102.231 399.708 102.153 399.935 102.284L401.458 103.16C401.686 103.291 401.764 103.582 401.633 103.809C401.547 103.963 401.387 104.048 401.222 104.048Z" fill="#383532"></path> <path d="M431.969 84.1168C431.969 96.8834 440.932 112.406 451.988 118.788V95.6746L431.969 84.1168Z" fill="#383532"></path> <path d="M451.986 119.263C451.904 119.263 451.823 119.242 451.748 119.199C440.579 112.749 431.492 97.0121 431.492 84.1147C431.492 83.9451 431.584 83.7872 431.73 83.7013C431.877 83.616 432.059 83.616 432.206 83.7013L452.224 95.2591C452.371 95.3449 452.462 95.5007 452.462 95.6719V118.785C452.462 118.955 452.371 119.113 452.224 119.197C452.152 119.242 452.068 119.263 451.986 119.263ZM432.457 84.9482C432.826 97.1016 441.171 111.552 451.511 117.95V95.948L432.457 84.9482Z" fill="#383532"></path> <path d="M451.988 72.5612V95.6746L472.006 107.232C472.006 94.4658 463.042 78.9431 451.988 72.5612Z" fill="#E3E0C5"></path> <path d="M472.006 107.708C471.923 107.708 471.842 107.687 471.768 107.645L451.749 96.0874C451.603 96.0021 451.511 95.8458 451.511 95.6746V72.5612C451.511 72.3916 451.603 72.2337 451.749 72.1484C451.896 72.0625 452.079 72.0625 452.225 72.1484C463.394 78.5971 472.481 94.3344 472.481 107.23C472.481 107.4 472.39 107.558 472.244 107.643C472.169 107.685 472.087 107.708 472.006 107.708ZM452.463 95.3985L471.516 106.398C471.147 94.247 462.802 79.7942 452.463 73.3985V95.3985Z" fill="#383532"></path> <path d="M455.438 125.851C466.493 132.233 475.457 127.06 475.457 114.296L455.438 102.738V125.851Z" fill="#E18E05"></path> <path d="M464.382 129.068C461.555 129.068 458.431 128.126 455.201 126.263C455.055 126.177 454.963 126.021 454.963 125.849V102.736C454.963 102.567 455.055 102.409 455.201 102.325C455.348 102.239 455.531 102.239 455.677 102.325L475.695 113.883C475.842 113.968 475.933 114.125 475.933 114.296C475.933 120.647 473.767 125.395 469.833 127.667C468.207 128.604 466.368 129.068 464.382 129.068ZM455.915 125.574C461.018 128.452 465.784 128.903 469.357 126.839C472.93 124.778 474.921 120.425 474.98 114.566L455.915 103.558V125.574Z" fill="#383432"></path> <path d="M451.988 72.5606C440.932 66.1787 431.969 71.3519 431.969 84.1163L451.988 95.6741V72.5606Z" fill="#F8B815"></path> <path d="M451.986 96.1494C451.904 96.1494 451.823 96.1288 451.748 96.0869L431.73 84.5291C431.584 84.4438 431.492 84.2875 431.492 84.1163C431.492 77.7646 433.658 73.0175 437.592 70.7446C441.527 68.4739 446.723 68.9704 452.224 72.1473C452.371 72.2332 452.462 72.389 452.462 72.5607V95.6735C452.462 95.8431 452.371 96.001 452.224 96.0869C452.152 96.1288 452.068 96.1494 451.986 96.1494ZM432.446 83.8423L451.511 94.8495V72.8362C446.407 69.9587 441.641 69.5072 438.068 71.5708C434.498 73.6322 432.507 77.9834 432.446 83.8423Z" fill="#3B3835"></path> <path d="M424.169 57.2754C424.095 57.2754 424.019 57.2563 423.949 57.216L401.241 44.1054C401.03 43.9836 400.957 43.7133 401.079 43.5001C401.201 43.2888 401.471 43.2146 401.685 43.3383L424.393 56.4492C424.603 56.5711 424.676 56.843 424.554 57.0544C424.47 57.1954 424.322 57.2754 424.169 57.2754Z" fill="#383532"></path> <path d="M424.169 61.9488C424.095 61.9488 424.019 61.9297 423.949 61.89L401.241 48.779C401.03 48.6572 400.957 48.3869 401.079 48.1737C401.201 47.9624 401.471 47.8882 401.685 48.0119L424.393 61.1226C424.603 61.2445 424.676 61.5148 424.554 61.7278C424.47 61.8709 424.322 61.9488 424.169 61.9488Z" fill="#383532"></path> <path d="M424.169 66.8395C424.095 66.8395 424.019 66.8205 423.949 66.7802L401.241 53.6697C401.03 53.5478 400.957 53.2776 401.079 53.064C401.201 52.8529 401.471 52.7787 401.685 52.9024L424.393 66.0134C424.603 66.1353 424.676 66.4055 424.554 66.6186C424.47 66.7595 424.322 66.8395 424.169 66.8395Z" fill="#383532"></path> <path d="M424.169 71.7344C424.095 71.7344 424.019 71.7153 423.949 71.6751L401.241 58.5646C401.03 58.4427 400.957 58.1725 401.079 57.9594C401.201 57.748 401.471 57.6738 401.685 57.7973L424.393 70.9083C424.603 71.0301 424.676 71.302 424.554 71.5134C424.47 71.6565 424.322 71.7344 424.169 71.7344Z" fill="#383532"></path> <path d="M423.169 84.4819C423.095 84.4819 423.018 84.4628 422.948 84.4225L400.24 71.3121C400.029 71.1902 399.956 70.9199 400.078 70.7063C400.2 70.4954 400.47 70.4212 400.683 70.5447L423.391 83.6557C423.603 83.7776 423.675 84.0478 423.553 84.2609C423.469 84.4018 423.321 84.4819 423.169 84.4819Z" fill="#383532"></path> <path d="M423.169 89.1564C423.095 89.1564 423.018 89.1373 422.948 89.0971L400.24 75.9866C400.029 75.8647 399.956 75.5923 400.078 75.3814C400.2 75.17 400.47 75.0958 400.683 75.2193L423.391 88.3302C423.603 88.4521 423.675 88.724 423.553 88.9354C423.469 89.0764 423.321 89.1564 423.169 89.1564Z" fill="#383532"></path> <path d="M423.169 94.0444C423.095 94.0444 423.018 94.0254 422.948 93.9856L400.24 80.8746C400.029 80.7533 399.956 80.483 400.078 80.2694C400.2 80.0585 400.47 79.9838 400.683 80.1078L423.391 93.2188C423.603 93.3402 423.675 93.6104 423.553 93.824C423.469 93.9665 423.321 94.0444 423.169 94.0444Z" fill="#383532"></path> <path d="M423.169 98.9416C423.095 98.9416 423.018 98.9225 422.948 98.8822L400.24 85.7718C400.029 85.6499 399.956 85.3775 400.078 85.1661C400.2 84.9552 400.47 84.881 400.683 85.0044L423.391 98.1154C423.603 98.2373 423.675 98.5076 423.553 98.7206C423.469 98.8616 423.321 98.9416 423.169 98.9416Z" fill="#383532"></path> <path d="M475.454 166.529C475.38 166.529 475.303 166.51 475.233 166.47L452.525 153.36C452.314 153.238 452.241 152.965 452.363 152.754C452.485 152.543 452.758 152.469 452.968 152.592L475.676 165.703C475.888 165.825 475.96 166.095 475.838 166.308C475.756 166.449 475.608 166.529 475.454 166.529Z" fill="#383532"></path> <path d="M475.454 171.204C475.38 171.204 475.303 171.185 475.233 171.145L452.525 158.034C452.314 157.912 452.241 157.64 452.363 157.429C452.485 157.217 452.758 157.143 452.968 157.267L475.676 170.378C475.888 170.499 475.96 170.77 475.838 170.983C475.756 171.124 475.608 171.204 475.454 171.204Z" fill="#383532"></path> <path d="M475.454 176.092C475.38 176.092 475.303 176.073 475.233 176.033L452.525 162.923C452.314 162.801 452.241 162.531 452.363 162.317C452.485 162.106 452.758 162.032 452.968 162.155L475.676 175.266C475.888 175.388 475.96 175.658 475.838 175.871C475.756 176.014 475.608 176.092 475.454 176.092Z" fill="#383532"></path> <path d="M475.454 180.989C475.38 180.989 475.303 180.97 475.233 180.93L452.525 167.82C452.314 167.698 452.241 167.425 452.363 167.214C452.485 167.003 452.758 166.929 452.968 167.052L475.676 180.163C475.888 180.285 475.96 180.555 475.838 180.768C475.756 180.909 475.608 180.989 475.454 180.989Z" fill="#383532"></path> <path d="M475.454 185.855C475.38 185.855 475.303 185.836 475.233 185.796L452.525 172.685C452.314 172.564 452.241 172.293 452.363 172.08C452.485 171.869 452.758 171.794 452.968 171.918L475.676 185.029C475.888 185.15 475.96 185.421 475.838 185.634C475.756 185.775 475.608 185.855 475.454 185.855Z" fill="#383532"></path> <path d="M510.718 185.855C510.644 185.855 510.568 185.836 510.497 185.796L487.789 172.685C487.578 172.564 487.506 172.293 487.627 172.08C487.749 171.869 488.02 171.794 488.233 171.918L510.941 185.029C511.152 185.15 511.224 185.421 511.102 185.634C511.021 185.775 510.872 185.855 510.718 185.855Z" fill="#383532"></path> <path d="M510.718 190.529C510.644 190.529 510.568 190.51 510.497 190.47L487.789 177.36C487.578 177.238 487.506 176.965 487.627 176.754C487.749 176.543 488.02 176.469 488.233 176.592L510.941 189.703C511.152 189.825 511.224 190.095 511.102 190.308C511.021 190.451 510.872 190.529 510.718 190.529Z" fill="#383532"></path> <path d="M510.718 195.419C510.644 195.419 510.568 195.4 510.497 195.36L487.789 182.249C487.578 182.127 487.506 181.857 487.627 181.644C487.749 181.433 488.02 181.358 488.233 181.482L510.941 194.593C511.152 194.715 511.224 194.987 511.102 195.198C511.021 195.339 510.872 195.419 510.718 195.419Z" fill="#383532"></path> <path d="M510.718 200.315C510.644 200.315 510.568 200.296 510.497 200.256L487.789 187.146C487.578 187.024 487.506 186.751 487.627 186.54C487.749 186.329 488.02 186.255 488.233 186.378L510.941 199.489C511.152 199.611 511.224 199.881 511.102 200.094C511.021 200.235 510.872 200.315 510.718 200.315Z" fill="#383532"></path> <path d="M510.718 205.181C510.644 205.181 510.568 205.162 510.497 205.122L487.789 192.011C487.578 191.889 487.506 191.619 487.627 191.406C487.749 191.194 488.02 191.12 488.233 191.244L510.941 204.355C511.152 204.477 511.224 204.747 511.102 204.96C511.021 205.103 510.872 205.181 510.718 205.181Z" fill="#383532"></path> <path d="M507.841 105.326C507.766 105.326 507.69 105.307 507.62 105.267L484.912 92.1563C484.701 92.0344 484.629 91.762 484.75 91.5506C484.872 91.3397 485.142 91.2655 485.356 91.389L508.063 104.5C508.275 104.622 508.347 104.894 508.225 105.105C508.142 105.248 507.993 105.326 507.841 105.326Z" fill="#383532"></path> <path d="M507.841 110.001C507.766 110.001 507.69 109.982 507.62 109.942L484.912 96.8313C484.701 96.7094 484.629 96.4392 484.75 96.2261C484.872 96.0147 485.142 95.9405 485.356 96.064L508.063 109.175C508.275 109.297 508.347 109.569 508.225 109.78C508.142 109.923 507.993 110.001 507.841 110.001Z" fill="#383532"></path> <path d="M507.841 114.891C507.766 114.891 507.69 114.872 507.62 114.832L484.912 101.721C484.701 101.599 484.629 101.329 484.75 101.116C484.872 100.904 485.142 100.83 485.356 100.954L508.063 114.065C508.275 114.187 508.347 114.457 508.225 114.67C508.142 114.811 507.993 114.891 507.841 114.891Z" fill="#383532"></path> <path d="M507.841 119.786C507.766 119.786 507.69 119.767 507.62 119.727L484.912 106.616C484.701 106.495 484.629 106.222 484.75 106.011C484.872 105.8 485.142 105.726 485.356 105.849L508.063 118.96C508.275 119.082 508.347 119.354 508.225 119.565C508.142 119.708 507.993 119.786 507.841 119.786Z" fill="#383532"></path> <path d="M507.841 124.653C507.766 124.653 507.69 124.634 507.62 124.594L484.912 111.483C484.701 111.361 484.629 111.09 484.75 110.878C484.872 110.667 485.142 110.593 485.356 110.717L508.063 123.827C508.275 123.949 508.347 124.219 508.225 124.433C508.142 124.573 507.993 124.653 507.841 124.653Z" fill="#383532"></path> </g> <defs> <clipPath id="clip0_609_2"> <rect width="602" height="406.986" fill="white"></rect> </clipPath> </defs> </svg> 