<svg width="803" height="555" fill="none" xmlns="http://www.w3.org/2000/svg"><path d="M719.511 107.598s-46.03-92.132-147.657-105.78c-101.626-13.647-172.573 52.89-247.362 87.01-39.15 17.874-83.88 10.977-125.464 19.594-132.93 27.625-183.02 200.912-127.642 299.465 47.932 85.308 132.307 129.654 260.79 139.899 128.484 10.245 218.585 22.173 333.64-61.415 115.055-83.588 107.389-257.625 53.695-378.773z" fill="#B1FAD3" fill-opacity=".5"/><path d="M730.755 73.424H248.051V280.5h482.704V73.424z" fill="#fff" stroke="#042442" stroke-linecap="round" stroke-linejoin="round"/><path d="M743.891 67.588H234.934v8.744h508.957v-8.744z" fill="#fff" stroke="#042442" stroke-linecap="round" stroke-linejoin="round"/><path d="M730.755 273.202H248.051v7.299h482.704v-7.299z" fill="#042442" stroke="#042442" stroke-linecap="round" stroke-linejoin="round"/><path d="M353.596 149.322c3.083-18.037-9.04-35.158-27.076-38.241-18.037-3.083-35.157 9.039-38.24 27.076-3.083 18.036 9.039 35.157 27.075 38.24 18.037 3.083 35.157-9.039 38.241-27.075zm-33.264-48.346v93.979m-43.377-50.602h85.546m93.229 8.049h85.546M497.9 107.836v93.98m-31.32-81.942l12.989 10.099a32.606 32.606 0 0039.444.457l12.641-9.349m-.054 59.421l-12.99-10.098a32.65 32.65 0 00-39.461-.458l-12.624 9.349m184.85-72.373v78.904m-42.389-38.876h80.094m-74.953-3.147v6.404m4.646-6.404v6.404m4.665-6.404v6.404m4.646-6.404v6.404m4.666-6.404v6.404m4.646-6.404v6.404m4.647-6.404v6.404m4.666-6.404v6.404m9.293-6.404v6.404m4.666-6.404v6.404m4.646-6.404v6.404m4.666-6.404v6.404m4.647-6.404v6.404m4.646-6.404v6.404m4.666-6.404v6.404m-35.765 31.704h6.403m-6.403-4.665h6.403m-6.403-4.647h6.403m-6.403-4.665h6.403m-6.403-4.647h6.403m-6.403-4.647h6.403m-6.403-4.665h6.403m-6.403-13.958h6.403m-6.403-4.648h6.403m-6.403-4.665h6.403m-6.403-4.646h6.403m-6.403-4.648h6.403m-6.403-4.664h6.403m-6.403-4.647h6.403M282.756 214.11h73.069m-73.069 9h73.069m-73.069 9.002h73.069m-73.069 9.018h73.069m112.091-27.02h73.069m-73.069 9h73.069m-73.069 9.002h73.069m-73.069 9.018h73.069m78.064-27.02h73.069m-73.069 9h73.069m-73.069 9.002h73.069m-73.069 9.018h73.069m-318.274-75.062h73.05m-73.05 9.001h73.05m-73.05 9.001h73.05m-73.05 9.019h73.05M537.984 99h73.051m-73.051 9.019h73.051m-73.051 9.001h73.051m-73.051 9.001h73.051" stroke="#042442" stroke-miterlimit="10"/><path d="M117.335 279.971H23.1v79.161h94.235v-79.161zm57.19 89.222H80.289v5.032h94.236v-5.032z" fill="#042442" stroke="#042442" stroke-linecap="round" stroke-linejoin="round"/><path d="M76.52 337.142H58.3v36.443h18.22v-36.443zm187.229 44.272H12.435v167.195H263.75V381.414z" fill="#8292A1" stroke="#042442" stroke-linecap="round" stroke-linejoin="round"/><path d="M16.55 382.622H8.08v169.939h8.47V382.622zm250.62 0h-8.471v169.939h8.471V382.622z" fill="#8292A1" stroke="#042442" stroke-linecap="round" stroke-linejoin="round"/><path d="M279.079 372.487H1v15.971h278.079v-15.971z" fill="#8292A1" stroke="#042442" stroke-linecap="round" stroke-linejoin="round"/><path d="M404.708 217.878s-10.099 6.275-13.374 14.471c-3.274 8.196-16.922 50.548-20.471 56.018-3.55 5.471-3.55 13.923.548 18.57 4.098 4.646 10.977 7.628 16.649 2.177 5.671-5.452 7.317-16.374 12.806-29.272 5.488-12.898 10.117-49.194 12.806-56.567a58.358 58.358 0 003.275-13.648l-12.239 8.251z" fill="#fff" stroke="#042442" stroke-linecap="round" stroke-linejoin="round"/><path d="M487.163 324.39s1.628 21.716.805 32.766c-.823 11.05-8.178 80.752-8.178 80.752l-10.647 94.035h-16.374l-11.892-138.674-15.953 138.271H408.13s-9.824-87.082-12.696-107.938a197.307 197.307 0 01-1.226-39.352c0-1.226-3.659-29.07-3.659-36.845.056-5.298.422-10.588 1.098-15.843l-.677-3.001s30.296 8.196 51.225 3.275c20.929-4.921 41.346-11.452 41.346-11.452l3.622 4.006z" fill="#042442" stroke="#042442" stroke-linecap="round" stroke-linejoin="round"/><path d="M469.142 531.943l4.903 16.795a2.333 2.333 0 01.301 1.81 2.313 2.313 0 01-1.106 1.464c-2.049 1.226-24.991 0-24.991 0a3.198 3.198 0 01-1.628-3.659c.402-2.872 6.147-16.465 6.147-16.465l16.374.055zm-44.219-.403l1.482 15.313a4.021 4.021 0 01-.713 2.689v0a3.949 3.949 0 01-3.22 1.646h-31.741c-3.22 0-9.44-.109-8.837-3.274.403-2.049 26.198-16.319 26.198-16.319l16.831-.055z" stroke="#042442" stroke-linecap="round" stroke-linejoin="round"/><path d="M440.876 393.269l-4.08-17.27-14.745-10.245" stroke="#6B6B6B" stroke-linecap="round" stroke-linejoin="round"/><path d="M398.982 238.899v31.924c0 1.83-9.824 43.907-10.648 48.042-.823 4.135 0 7.921 3.275 12.55 3.275 4.629 15.569 9.294 42.316 11.471 26.746 2.177 46.687-7.647 52.139-13.922 5.452-6.276-.823-18.295-2.726-35.218-1.902-16.922-2.469-70.489-10.098-73.965-7.629-3.476-32.217-15.276-32.217-15.276s-13.922 0-23.198 4.098a47.557 47.557 0 00-15.843 12.276" fill="#fff"/><path d="M398.982 238.899v31.924c0 1.83-9.824 43.907-10.648 48.042-.823 4.135 0 7.921 3.275 12.55 3.275 4.629 15.569 9.294 42.316 11.471 26.746 2.177 46.687-7.647 52.139-13.922 5.452-6.276-.823-18.295-2.726-35.218-1.902-16.922-2.469-70.489-10.098-73.965-7.629-3.476-32.217-15.276-32.217-15.276s-13.922 0-23.198 4.098a47.557 47.557 0 00-15.843 12.276" stroke="#042442" stroke-linecap="round" stroke-linejoin="round"/><path d="M439.377 199.034a7.322 7.322 0 017.318 4.373c1.921 4.921-4.098 34.668-4.098 34.668s-13.373-9.55-16.648-9.55c-3.275 0-18.295 9.55-18.295 9.55s4.922-20.471 9.294-28.393c4.372-7.922 16.374-12.276 21.295-10.977l1.134.329z" fill="#fff" stroke="#042442" stroke-linecap="round" stroke-linejoin="round"/><path d="M440.475 196.309s1.097 2.725-3.824 15.843c-4.921 13.117-7.318 24.295-10.373 21.276-3.055-3.018-6.549-18.825-6.549-18.825s15.824-11.471 20.746-18.294z" fill="#fff" stroke="#042442" stroke-linecap="round" stroke-linejoin="round"/><path d="M396.566 175.16a220.228 220.228 0 005.342 22.484c2.653 7.977 6.074 19.777 15.203 22.429 9.129 2.653 11.8-4.171 15.606-7.318 3.805-3.146 9.879-13.318 9.879-18.294 0-4.976-.384-15.971-2.287-19.777-1.903-3.805-5.324-7.61-15.203-9.513-9.879-1.903-19.026-.293-28.54 9.989z" fill="#fff" stroke="#042442" stroke-linecap="round" stroke-linejoin="round"/><path d="M439.559 185.424s-5.708 2.287-7.226-1.135c-1.519-3.421-4.19-8.378-4.19-8.378s-11.8 4.957-19.008 5.268c-7.208.311-15.221-4.171-16.356-9.147-1.134-4.976 3.037-15.971 12.551-21.954 9.513-5.982 29.271-8.763 35.363.751a41.688 41.688 0 016.477 24.35c0 6.458-.385 10.977-.385 10.977a8.78 8.78 0 00-7.226-.732z" fill="#042442" stroke="#042442" stroke-linecap="round" stroke-linejoin="round"/><path d="M437.271 188.095s3.422-8.763 6.843-7.611c3.421 1.153 3.805 7.995 1.829 12.166-1.976 4.171-6.842 5.708-7.976 4.958" fill="#fff"/><path d="M437.271 188.095s3.422-8.763 6.843-7.611c3.421 1.153 3.805 7.995 1.829 12.166-1.976 4.171-6.842 5.708-7.976 4.958m-26.27-4.885s13.757-.969 16.666-.585c2.909.384 2.506 3.659 1.738 7.318-.768 3.659-5.232 5.818-10.465 4.848-5.232-.97-6.403-5.488-7.317-6.202-.915-.713-1.354-1.555-2.507-.97-1.152.586-.969 4.647-2.323 6.385-1.354 1.738-5.05 3.11-9.148.97-4.098-2.141-3.878-8.324-3.878-10.465 0-2.14 2.122-1.939 3.092-1.829.969.11 14.142.53 14.142.53zm18.606.202l8.525-8.727m-43.414 7.939l3.293-4.061" stroke="#042442" stroke-linecap="round" stroke-linejoin="round"/><path d="M409.556 199.309s-.768 2.323-1.171 4.262c-.402 1.94 1.171 5.818 3.494 5.489 2.324-.329 2.909-1.555 2.909-1.555m10.703-17.489a11.653 11.653 0 00-7.958.384m-9.917.384a5.09 5.09 0 00-6.202-.201" stroke="#042442" stroke-linecap="round" stroke-linejoin="round"/><path d="M465.318 216.506s11.746 3.549 16.923 7.922c5.177 4.372 13.538 38.711 15.989 55.085 2.452 16.374 6.276 30.534 3.001 32.455-3.275 1.921-54.482-4.775-54.482-4.775l-1.628-7.904 33.37-6.952s-18.643-36.589-19.173-46.614a35.222 35.222 0 012.177-15.825" fill="#fff"/><path d="M465.318 216.506s11.746 3.549 16.923 7.922c5.177 4.372 13.538 38.711 15.989 55.085 2.452 16.374 6.276 30.534 3.001 32.455-3.275 1.921-54.482-4.775-54.482-4.775l-1.628-7.904 33.37-6.952s-18.643-36.589-19.173-46.614a35.222 35.222 0 012.177-15.825" stroke="#042442" stroke-linecap="round" stroke-linejoin="round"/><path d="M410.727 280.446l14.453 35.491-24.552 9.001-15.294-34.394 25.393-10.098zm-25.394 10.098l-17.472-12.825 15.551 36.041 17.215 11.178-15.294-34.394z" fill="#5DCFE8" stroke="#042442" stroke-linecap="round" stroke-linejoin="round"/><path d="M445.122 299.289s-19.667-5.488-21.844-7.098c-2.177-1.61-20.472 5.726-21.569 5.726-1.098 0-.824 1.372.274 1.921 1.098.549 13.099-2.744 13.099-2.744s-11.453 6.019-11.453 7.318a2.99 2.99 0 001.08 2.195s.274 2.452 1.646 3c1.372.549 15.276-2.195 15.276-2.195s-10.976 4.098-9.549 4.921a4.166 4.166 0 004.372 0c1.628-.823 11.471-3.823 11.471-3.823s7.318 2.177 11.452 1.097a64.545 64.545 0 007.318-2.469l-1.573-7.849z" fill="#fff" stroke="#042442" stroke-linecap="round" stroke-linejoin="round"/><path d="M404.709 306.662l13.648-3.824" stroke="#042442" stroke-linecap="round" stroke-linejoin="round"/><path d="M370.862 288.368s9.276 6.824 10.977 9.001a5.611 5.611 0 011.098 4.372l-6.019-2.451s7.647 6.823 7.922 7.903c.274 1.079 3 5.744-.275 5.196-3.275-.549-13.099-5.727-15.02-8.471-1.921-2.744-2.451-15.55-2.451-15.55s.768-2.726 3.768 0z" fill="#fff" stroke="#042442" stroke-linecap="round" stroke-linejoin="round"/><path d="M384.785 308.839l-10.922-6.549m12.019 9.001s-9.824-4.354-11.745-6.001m2.726-6.001l-3.275-2.196" stroke="#042442" stroke-linecap="round" stroke-linejoin="round"/><path d="M444.243 397.898h-7.61v154.663h7.61V397.898zm347.414 0h-7.61v154.663h7.61V397.898z" fill="#fff" stroke="#042442" stroke-linecap="round" stroke-linejoin="round"/><path d="M802.361 388.769H430.266v14.361h372.095v-14.361zm-748.198 9.129h-7.61v154.663h7.61V397.898zm347.399 0h-7.611v154.663h7.611V397.898z" fill="#fff" stroke="#042442" stroke-linecap="round" stroke-linejoin="round"/><path d="M412.283 388.769H40.187v14.361h372.096v-14.361z" fill="#fff" stroke="#042442" stroke-linecap="round" stroke-linejoin="round"/><path d="M679.42 425.011l17.49 112.054 9.367.586 2.213-109.896-29.07-2.744z" fill="#8292A1" stroke="#042442" stroke-linecap="round" stroke-linejoin="round"/><path d="M696.91 537.065v12.477a1.994 1.994 0 001.83 1.976l6.86.384a1.97 1.97 0 001.985-1.361c.09-.275.118-.566.082-.852l-1.39-12.038-9.367-.586z" fill="#fff" stroke="#042442" stroke-linecap="round" stroke-linejoin="round"/><path d="M747.749 425.285l-19.41 111.67-9.385.366-.311-109.914 29.106-2.122z" fill="#8292A1" stroke="#042442" stroke-linecap="round" stroke-linejoin="round"/><path d="M728.338 536.956l-.219 12.458a1.977 1.977 0 01-1.921 1.94l-6.879.238a1.97 1.97 0 01-1.529-.658 1.986 1.986 0 01-.484-1.593l1.647-12.019 9.385-.366z" fill="#fff" stroke="#042442" stroke-linecap="round" stroke-linejoin="round"/><path d="M673.894 316.724s-29.271 56.714-30.076 61.544c-.805 4.829 3.988 11.983 12.367 11.178 8.379-.805 30.205-1.189 30.205-1.189l.402-7.593-25.155-3.183 15.166-11.983-2.909-48.774z" fill="#5DCFE8" stroke="#042442" stroke-linecap="round" stroke-linejoin="round"/><path d="M661.637 377.482l-3.055 5.982" stroke="#042442" stroke-linecap="round" stroke-linejoin="round"/><path d="M752.287 317.95s29.82 55.524 30.625 60.372c.805 4.848-3.988 11.983-12.367 11.178-8.379-.805-27.973-1.189-27.973-1.189l-.402-7.72 13.611-3.183-9.531-12.13 6.037-47.328z" fill="#5DCFE8" stroke="#042442" stroke-linecap="round" stroke-linejoin="round"/><path d="M755.781 377.482l12.367 5.982" stroke="#042442" stroke-linecap="round" stroke-linejoin="round"/><path d="M701.739 301.778L682.53 311.95c-9.605 5.085-8.05 2.231-8.617 4.774-.567 2.543 3.238 90.687 3.238 90.687s7.318 7.135 26.564 9.038c28.796 2.817 41.218-6.221 41.218-6.221s7.318-89.168 7.318-92.278c0-3.11-11.892-9.147-19.502-12.806-7.611-3.659-16.063-6.751-31.01-3.366z" fill="#5DCFE8" stroke="#042442" stroke-linecap="round" stroke-linejoin="round"/><path d="M711.984 241.552s-12.459 5.488-16.465 14.434c-4.007 8.946 2.488 29.875.988 35.345-1.5 5.471-8.452 4.977-8.452 4.977s2.982 16.94 19.904 18.935c16.923 1.994 24.405-.513 31.376-7.977 6.97-7.464 5.488-7.464 5.488-7.464s-2.982 0-4.482-8.471c-1.5-8.47.494-32.363-6.97-42.809-7.465-10.446-18.826-10.044-21.387-6.97z" fill="#042442" stroke="#042442" stroke-linecap="round" stroke-linejoin="round"/><path d="M677.132 407.411s-2.524 28.229-1.683 31.906c.842 3.677 9.605 9.605 27.442 10.172 17.837.567 40.102 1.409 45.481-5.086 5.378-6.495-3.403-34.174-3.403-34.174s-47.493 3.951-67.837-2.818z" fill="#8292A1" stroke="#042442" stroke-linecap="round" stroke-linejoin="round"/><path d="M712.881 301.247s.421-2.927 9.147-.42" stroke="#042442" stroke-linecap="round" stroke-linejoin="round"/><path d="M676.731 550.859a1.968 1.968 0 01-1.363-.687 1.972 1.972 0 01-.466-1.453l5.799-106.786 6.659.53-8.525 106.585a1.973 1.973 0 01-2.104 1.811zm71.806 0a1.995 1.995 0 001.83-2.14l-5.799-106.786-6.66.53 8.507 106.585a1.993 1.993 0 002.122 1.811z" fill="#042442" stroke="#042442" stroke-linecap="round" stroke-linejoin="round"/><path d="M755.36 357.869a323.113 323.113 0 01-44.987 3.312 312.915 312.915 0 01-42.077-3.312 3.397 3.397 0 00-3.767 2.299 3.4 3.4 0 00-.13 1.58c2.159 13.501 8.287 52.341 8.287 59.769 0 9.037-3.11 17.526-3.11 21.477 0 3.952 1.702 7.062 4.519 8.178 1.317.531 16.118.567 36.132.458 23.161.109 37.98 0 39.279-.458 2.817-1.116 4.518-4.226 4.518-8.178 0-3.951-3.11-12.44-3.11-21.477 0-7.428 6.129-46.286 8.306-59.769a3.386 3.386 0 00-2.287-3.75 3.397 3.397 0 00-1.573-.129zm-14.489 82.747c-1.007.384-12.422.421-30.278.329-15.422.092-26.838 0-27.844-.329a6.312 6.312 0 01-3.476-6.257c0-3.018 2.378-9.495 2.378-16.465 0-1.61-.384-5.195-.97-9.733l5.653 6.129a8.305 8.305 0 002.754 1.947 8.3 8.3 0 003.302.688h38.784a8.255 8.255 0 005.763-2.342l5.909-5.763c-.548 4.226-.896 7.537-.896 9.147 0 6.897 2.397 13.374 2.397 16.466a6.318 6.318 0 01-3.476 6.183zm7.482-68.257c-.951 5.854-2.89 17.947-4.391 28.338l-5.634 3.494a20.122 20.122 0 01-10.483 2.928H696.25c-3.59 0-7.115-.96-10.208-2.781l-6.422-3.769c-1.482-10.373-3.403-22.393-4.354-28.21a2.614 2.614 0 013-2.964 242.547 242.547 0 0032.437 2.525 250.193 250.193 0 0034.76-2.525 2.601 2.601 0 012.794 1.781c.123.381.156.786.096 1.183z" fill="#042442" stroke="#042442" stroke-linecap="round" stroke-linejoin="round"/><path d="M533.943 324.829V309.59h21.753v16.373l-21.753-1.134zm-10.722-34.724s-3.403-.859-3.403 4.519c0 5.379 4.464 9.129 6.294 8.745 1.829-.384-.842-10.446-1.134-12.422-.293-1.976-1.757-.842-1.757-.842zm42.37 0s3.384-.859 3.384 4.519c0 5.379-4.445 9.129-6.274 8.745-1.83-.384.841-10.446 1.115-12.422.275-1.976 1.775-.842 1.775-.842z" fill="#fff" stroke="#042442" stroke-linecap="round" stroke-linejoin="round"/><path d="M565.666 268.83s2.122-1.061-.256-6.111a10.367 10.367 0 00-6.897-5.836s1.829-1.061 1.829-2.122-2.378-1.317-9.55.805a9.33 9.33 0 00-7.317 8.269 3.007 3.007 0 00-.421-.201c-1.738-.842-8.471-3.842-11.69-2.232-3.659 1.829.53 1.317.53 1.317a16.74 16.74 0 00-10.611 6.367c-3.97 5.488-1.061 6.11-.256 6.11.805 0 1.592-2.396 1.592-2.396v5.049s.091.439.256 1.134c-1.116 7.483.86 15.953 1.957 21.277 1.409 6.787 7.062 13.282 11.306 14.636 4.245 1.353 17.216 0 17.216 0a48.855 48.855 0 008.196-10.977 38.101 38.101 0 003.659-15.917 26.155 26.155 0 002.506-9.641c.604-6.879-2.049-9.531-2.049-9.531z" fill="#042442" stroke="#042442" stroke-linecap="round" stroke-linejoin="round"/><path d="M558.804 297.552s-11.983-6.458-23.783-1.408c-6.824 2.908-11.855 10.153-11.855 10.153a67.548 67.548 0 0118.295-2.817 224.24 224.24 0 0122.868 1.683 25.606 25.606 0 00-5.525-7.611zm-61.854 26.82s-31.1 49.103-31.905 53.896c-.805 4.793 3.988 11.983 12.367 11.178 8.379-.805 39.516-1.189 39.516-1.189l.403-7.592-25.137-3.184 15.166-11.983-10.41-41.126z" fill="#5DCFE8" stroke="#042442" stroke-linecap="round" stroke-linejoin="round"/><path d="M492.194 377.481l-12.385 5.983" stroke="#042442" stroke-linecap="round" stroke-linejoin="round"/><path d="M592.687 322.396s31.521 51.079 32.308 55.872c.787 4.793-3.988 11.983-12.367 11.178-8.379-.805-39.517-1.189-39.517-1.189l-.402-7.592 25.155-3.183-15.166-11.983 9.989-43.103z" fill="#5DCFE8" stroke="#042442" stroke-linecap="round" stroke-linejoin="round"/><path d="M597.863 377.481l12.367 5.983" stroke="#042442" stroke-linecap="round" stroke-linejoin="round"/><path d="M532.259 301.779l-19.209 10.172c-9.605 5.085-15.533 9.879-16.1 12.422-.567 2.543 10.739 83.039 10.739 83.039s7.318 7.135 26.546 9.038c28.796 2.817 41.218-6.221 41.218-6.221s17.233-84.722 17.233-87.814c0-3.092-21.752-13.556-29.363-17.234-7.61-3.677-16.099-6.787-31.064-3.402z" fill="#5DCFE8" stroke="#042442" stroke-linecap="round" stroke-linejoin="round"/><path d="M491.297 430.847l33.607 107.408 9.33-1.135-13.849-108.816-29.088 2.543z" fill="#fff" stroke="#042442" stroke-linecap="round" stroke-linejoin="round"/><path d="M524.904 538.255l2.214 12.276a1.978 1.978 0 002.195 1.61l6.824-.878a1.976 1.976 0 001.647-2.543l-3.549-11.599-9.331 1.134zm70.014-107.408l-33.607 107.408-9.331-1.135 13.849-108.816 29.089 2.543z" fill="#fff" stroke="#042442" stroke-linecap="round" stroke-linejoin="round"/><path d="M561.311 538.255l-2.269 12.276a1.974 1.974 0 01-2.195 1.61l-6.824-.878a1.981 1.981 0 01-1.715-1.69 1.97 1.97 0 01.069-.853l3.549-11.599 9.385 1.134zm-24.826-120.123s-30.771-9.605-36.424-6.769c-5.653 2.835-11.306 10.153-9.331 18.294 1.976 8.142 18.935 18.076 22.594 18.295 3.659.22 23.454 0 23.454 0l-.293-29.82zm15.129 0s30.79-9.605 36.443-6.769c5.653 2.835 11.288 10.153 9.312 18.294-1.976 8.142-18.916 18.076-22.594 18.295-3.677.22-23.435 0-23.435 0l.274-29.82z" fill="#fff" stroke="#042442" stroke-linecap="round" stroke-linejoin="round"/><path d="M507.689 407.411s-2.543 28.229-1.702 31.906c.842 3.677 9.605 9.604 27.442 10.172 17.837.567 40.102 1.408 45.481-5.086 5.378-6.495-3.403-34.175-3.403-34.175s-47.566 3.952-67.818-2.817z" fill="#fff" stroke="#042442" stroke-linecap="round" stroke-linejoin="round"/><path d="M507.269 550.859a1.995 1.995 0 01-1.83-2.14l5.8-106.786 6.659.53-8.507 106.585a1.993 1.993 0 01-2.122 1.811zm71.897 0a1.995 1.995 0 001.83-2.14l-5.8-106.786-6.659.53 8.507 106.585a1.993 1.993 0 002.122 1.811z" fill="#042442" stroke="#042442" stroke-linecap="round" stroke-linejoin="round"/><path d="M585.825 357.869a322.96 322.96 0 01-44.987 3.311 313.406 313.406 0 01-42.077-3.311 3.402 3.402 0 00-3.897 3.879c2.177 13.501 8.306 52.341 8.306 59.768 0 9.038-3.11 17.526-3.11 21.478 0 3.952 1.683 7.062 4.518 8.178 1.299.53 16.1.567 36.114.457 23.179.11 37.98 0 39.279-.457 2.835-1.116 4.518-4.226 4.518-8.178 0-3.952-3.091-12.44-3.091-21.478 0-7.427 6.128-46.285 8.287-59.768a3.385 3.385 0 00-3.86-3.879zm-14.489 82.747c-1.007.384-12.423.421-30.278.329-15.423.092-26.838 0-27.845-.329a6.315 6.315 0 01-3.476-6.257c0-3.019 2.397-9.495 2.397-16.465 0-1.61-.384-5.196-.988-9.733l5.671 6.129a8.237 8.237 0 006.056 2.634h38.785a8.3 8.3 0 005.762-2.342l5.891-5.762c-.53 4.226-.878 7.537-.878 9.147 0 6.897 2.379 13.373 2.379 16.465a6.32 6.32 0 01-3.476 6.184zm7.482-68.258c-.951 5.855-2.89 17.947-4.372 28.339l-5.745 3.494a20.116 20.116 0 01-10.464 2.927h-31.504a20.113 20.113 0 01-10.227-2.781l-6.403-3.768c-1.5-10.373-3.421-22.393-4.372-28.211a2.615 2.615 0 013-2.963 242.545 242.545 0 0032.437 2.524c11.6-.035 23.185-.879 34.668-2.524a2.586 2.586 0 012.246.722 2.596 2.596 0 01.736 2.241z" fill="#042442" stroke="#042442" stroke-linecap="round" stroke-linejoin="round"/><path d="M512.172 358.4l10.849 40.413 8.452-1.207-9.056-37.394-10.245-1.812zm42.826 37.998l7.848-36.187 10.867-1.226-10.263 39.828-8.452-2.415zM502 424.261l14.398 30.058v13.282l-15.697-32.583L502 424.261zm80.77 0l-14.379 30.058v13.282l15.678-32.583-1.299-10.757z" fill="#8292A1" stroke="#042442" stroke-linecap="round" stroke-linejoin="round"/><path d="M557.67 388.568s-25.942-1.83-33.79.603c-7.849 2.434-12.056 8.434-11.453 18.094.604 9.659-4.83 47.054-4.226 56.713.604 9.66 4.226 15.697 19.905 18.716 15.678 3.018 31.979 1.829 41.035-1.83 9.056-3.659 13.373-17.453 7.83-31.979-5.543-14.526-4.153-36.864-6.568-47.712-2.415-10.849-8.507-12.002-12.733-12.605z" fill="#44DBB5" stroke="#042442" stroke-linecap="round" stroke-linejoin="round"/><path d="M572.306 461.307c0 .22-.421 5.983-.476 6.202-4.244 16.118-26.985 13.556-39.59 11.452-6.275-1.042-15.678-4.207-18.111-10.976-2.653-7.318.786-16.466 2.104-23.875.805-4.592 1.262-18.66 6.458-21.002 5.195-2.342 36.735-5.726 41.51 3.805 5.342 10.721 6.202 21.99 8.105 34.394zm-23.856-61.561h-11.929v6.678h11.929v-6.678z" fill="#042442" stroke="#042442" stroke-linecap="round" stroke-linejoin="round"/><path d="M517.916 444.623h51.536a7.791 7.791 0 01-6.202 8.123c-7.702 1.647-16.191 1.336-24.003 1.354-7.007-.018-22.136 1.024-21.331-9.477z" fill="#042442" stroke="#042442" stroke-linecap="round" stroke-linejoin="round"/><path d="M289.324 425.67l17.49 112.073 9.367.567 2.213-109.878-29.07-2.762z" fill="#44DBB5" stroke="#042442" stroke-linecap="round" stroke-linejoin="round"/><path d="M306.813 537.743v12.459a1.994 1.994 0 001.829 1.994l6.879.366a1.997 1.997 0 002.067-2.214l-1.39-12.038-9.385-.567z" fill="#fff" stroke="#042442" stroke-linecap="round" stroke-linejoin="round"/><path d="M357.672 425.943l-19.429 111.671-9.367.366-.329-109.896 29.125-2.141z" fill="#44DBB5" stroke="#042442" stroke-linecap="round" stroke-linejoin="round"/><path d="M338.243 537.614l-.22 12.459a1.994 1.994 0 01-1.829 1.957l-6.879.22a1.995 1.995 0 01-2.031-2.25l1.647-12.02 9.312-.366zm-54.427-220.231s-29.271 56.714-30.094 61.544c-.824 4.829 4.006 11.983 12.385 11.178 8.379-.805 30.186-1.19 30.186-1.19l.403-7.592-25.137-3.183 15.166-11.983-2.909-48.774z" fill="#fff" stroke="#042442" stroke-linecap="round" stroke-linejoin="round"/><path d="M271.559 378.14l-3.055 5.982" stroke="#042442" stroke-linecap="round" stroke-linejoin="round"/><path d="M362.538 316.158s29.491 57.994 30.278 62.769c.786 4.775-3.989 11.983-12.367 11.178-8.379-.805-27.955-1.189-27.955-1.189l-.402-7.592 13.593-3.183-8.58-11.91 5.433-50.073z" fill="#fff" stroke="#042442" stroke-linecap="round" stroke-linejoin="round"/><path d="M365.686 378.14l12.367 5.982" stroke="#042442" stroke-linecap="round" stroke-linejoin="round"/><path d="M311.624 302.455l-19.209 10.154c-9.605 5.086-8.05 2.232-8.599 4.775-.549 2.543 3.238 90.65 3.238 90.65s7.318 7.153 26.546 9.037c28.814 2.818 41.236-6.22 41.236-6.22s7.318-89.168 7.318-92.278c0-3.11-11.892-9.148-19.521-12.806-7.628-3.659-16.044-6.715-31.009-3.312z" fill="#fff" stroke="#042442" stroke-linecap="round" stroke-linejoin="round"/><path d="M287.054 408.034s-2.543 28.246-1.702 31.905c.842 3.659 9.605 9.605 27.442 10.172 17.838.567 40.102 1.409 45.463-5.086 5.36-6.494-3.385-34.174-3.385-34.174s-47.493 3.988-67.818-2.817z" fill="#44DBB5" stroke="#042442" stroke-linecap="round" stroke-linejoin="round"/><path d="M324.87 247.15s-9.147-5.488-18.806 5.013c-9.66 10.501.42 31.357 1.664 36.37 1.244 5.012-16.703 33.515-16.703 46.322 0 12.806 15.551 25.612 40.139 23.069 24.588-2.543 27.588-15.477 24.24-30.936-3.348-15.459-7.116-31.778-7.116-38.419 0-6.641 5.854-21.734.42-36.37-5.433-14.635-18.806-10.482-23.838-5.049z" fill="#042442" stroke="#042442" stroke-linecap="round" stroke-linejoin="round"/><path d="M311.515 291.039l11.288 10.867s-11.709 28.009-12.971 35.528c-1.263 7.52 5.488 14.636 14.635 13.795 9.148-.842 15.057-8.782 14.636-15.459-.421-6.678-7.116-34.285-7.116-34.285a37.72 37.72 0 0014.214-12.952" stroke="gray" stroke-linecap="round" stroke-linejoin="round"/><path d="M322.803 301.924s.421-2.927 9.147-.421" stroke="#042442" stroke-linecap="round" stroke-linejoin="round"/><path d="M286.633 551.519a1.993 1.993 0 01-1.83-2.122l5.8-106.805 6.659.549-8.507 106.567a1.976 1.976 0 01-2.122 1.811zm71.808 0a1.982 1.982 0 001.737-1.354c.081-.248.112-.509.092-.768l-5.781-106.805-6.659.549 8.507 106.567a1.98 1.98 0 002.104 1.811z" fill="#042442" stroke="#042442" stroke-linecap="round" stroke-linejoin="round"/><path d="M365.263 358.528a323.005 323.005 0 01-44.968 3.311 310.639 310.639 0 01-42.078-3.311 3.4 3.4 0 00-3.878 3.896c2.159 13.484 8.287 52.323 8.287 59.769 0 9.038-3.11 17.508-3.11 21.46 0 3.951 1.702 7.061 4.519 8.196 1.299.512 16.099.548 36.114.439 23.179.109 37.979 0 39.297-.439 2.817-1.135 4.518-4.245 4.518-8.196 0-3.952-3.11-12.422-3.11-21.46 0-7.446 6.129-46.285 8.288-59.769a3.38 3.38 0 00-.94-2.943 3.38 3.38 0 00-2.939-.953zm-14.489 82.746c-1.006.403-12.422.421-30.278.348-15.422 0-26.838 0-27.844-.348a6.306 6.306 0 01-3.476-6.256c0-3.019 2.397-9.477 2.397-16.374 0-1.628-.385-5.214-.97-9.733l5.653 6.111a8.268 8.268 0 002.75 1.959 8.268 8.268 0 003.305.693h38.785a8.18 8.18 0 005.726-2.323l5.891-5.745c-.53 4.208-.878 7.519-.878 9.148 0 6.897 2.397 13.355 2.397 16.373a6.311 6.311 0 01-3.458 6.147zm7.483-68.257c-.952 5.854-2.873 17.947-4.373 28.338l-5.726 3.495a20.128 20.128 0 01-10.483 2.945h-31.503a20.127 20.127 0 01-10.227-2.799l-6.403-3.769c-1.5-10.354-3.421-22.374-4.354-28.21a2.595 2.595 0 011.784-2.88c.393-.124.81-.153 1.216-.084a241.942 241.942 0 0032.418 2.543 253.008 253.008 0 0034.76-2.543 2.6 2.6 0 012.891 2.964z" fill="#042442" stroke="#042442" stroke-linecap="round" stroke-linejoin="round"/><path d="M143.863 300.772v-15.24h21.734v16.374l-21.734-1.134zm-10.74-34.724s-3.385-.86-3.385 4.519c0 5.379 4.519 9.019 6.202 8.745 1.683-.275-.841-10.446-1.116-12.422-.274-1.976-1.701-.842-1.701-.842zm42.37 0s3.403-.86 3.403 4.519c0 5.379-4.519 9.019-6.22 8.745-1.702-.275.841-10.446 1.134-12.422.293-1.976 1.683-.842 1.683-.842z" fill="#fff" stroke="#042442" stroke-linecap="round" stroke-linejoin="round"/><path d="M148.087 239.21s-9.604 1.408-13.556 9.879c-3.952 8.47-1.116 20.343.293 27.112 1.408 6.769 7.062 13.282 11.288 14.636 4.226 1.354 17.233 0 17.233 0a49.372 49.372 0 008.196-10.977c3.952-7.061 4.519-20.343 2.818-27.954-1.702-7.61-7.629-15.258-12.148-15.825-4.519-.567-8.745 3.659-8.745 3.659a8.012 8.012 0 00-5.379-.53z" fill="#042442" stroke="#042442" stroke-linecap="round" stroke-linejoin="round"/><path d="M168.706 297.954s-16.465-2.543-23.783-1.409c-7.318 1.135-11.855 10.154-11.855 10.154a67.795 67.795 0 0118.295-2.817c7.647.173 15.28.741 22.868 1.701a25.758 25.758 0 00-5.525-7.629zm-61.835 26.819s-31.12 49.122-31.906 53.988c-.787 4.866 3.988 11.983 12.367 11.178 8.38-.805 39.517-1.189 39.517-1.189l.384-7.592-25.137-3.184 15.166-12.019-10.391-41.182z" fill="#fff" stroke="#042442" stroke-linecap="round" stroke-linejoin="round"/><path d="M102.096 377.883l-12.368 5.982" stroke="#042442" stroke-linecap="round" stroke-linejoin="round"/><path d="M202.607 322.798s31.503 51.097 32.308 55.872c.805 4.775-3.988 11.983-12.385 11.178-8.398-.805-39.499-1.189-39.499-1.189l-.402-7.592 25.155-3.184-15.185-11.928 10.008-43.157z" fill="#fff" stroke="#042442" stroke-linecap="round" stroke-linejoin="round"/><path d="M207.766 377.883l12.385 5.982" stroke="#042442" stroke-linecap="round" stroke-linejoin="round"/><path d="M142.161 302.18l-19.209 10.172c-9.586 5.086-15.532 9.879-16.081 12.422-.549 2.543 10.721 83.04 10.721 83.04s7.318 7.135 26.545 9.037c28.814 2.818 41.236-6.22 41.236-6.22s17.234-84.722 17.234-87.814c0-3.092-21.752-13.575-29.381-17.234-7.629-3.659-16.1-6.787-31.065-3.403z" fill="#fff" stroke="#042442" stroke-linecap="round" stroke-linejoin="round"/><path d="M101.217 431.249l33.607 107.407 9.312-1.115-13.831-108.835-29.088 2.543z" fill="#5DCFE8" stroke="#042442" stroke-linecap="round" stroke-linejoin="round"/><path d="M134.824 538.657l2.196 12.275c.093.501.375.946.787 1.245.411.3.921.43 1.426.365l6.824-.878a1.966 1.966 0 001.405-.893 1.98 1.98 0 00.223-1.65l-3.549-11.58-9.312 1.116z" fill="#fff" stroke="#042442" stroke-linecap="round" stroke-linejoin="round"/><path d="M204.822 431.249l-33.608 107.407-9.312-1.115 13.831-108.835 29.089 2.543z" fill="#5DCFE8" stroke="#042442" stroke-linecap="round" stroke-linejoin="round"/><path d="M171.196 538.657L169 550.932a1.99 1.99 0 01-2.213 1.61l-6.824-.878a1.966 1.966 0 01-1.405-.893 1.98 1.98 0 01-.224-1.65l3.55-11.58 9.312 1.116z" fill="#fff" stroke="#042442" stroke-linecap="round" stroke-linejoin="round"/><path d="M146.406 418.534s-30.79-9.587-36.443-6.842c-5.653 2.744-11.288 10.171-9.312 18.294 1.976 8.123 18.917 18.075 22.594 18.295 3.677.219 23.436 0 23.436 0l-.275-29.747zm15.129 0s30.772-9.586 36.425-6.769c5.653 2.817 11.306 10.172 9.312 18.295-1.995 8.122-18.917 18.075-22.594 18.294-3.678.22-23.436 0-23.436 0l.293-29.82z" fill="#5DCFE8" stroke="#042442" stroke-linecap="round" stroke-linejoin="round"/><path d="M117.591 407.813s-2.543 28.247-1.702 31.906c.842 3.659 9.605 9.604 27.442 10.172 17.838.567 40.102 1.408 45.463-5.086 5.36-6.495-3.385-34.175-3.385-34.175s-47.474 3.952-67.818-2.817z" fill="#5DCFE8" stroke="#042442" stroke-linecap="round" stroke-linejoin="round"/><path d="M117.189 551.262a1.964 1.964 0 01-1.356-.681 1.972 1.972 0 01-.474-1.441l5.781-106.804 6.66.549-8.489 106.566a1.974 1.974 0 01-2.122 1.811zm71.789 0a1.964 1.964 0 001.356-.681 1.989 1.989 0 00.474-1.441l-5.782-106.804-6.659.549 8.507 106.566a1.977 1.977 0 002.104 1.811z" fill="#042442" stroke="#042442" stroke-linecap="round" stroke-linejoin="round"/><path d="M195.746 358.271a322.96 322.96 0 01-44.987 3.311 312.913 312.913 0 01-42.077-3.311 3.407 3.407 0 00-3.897 3.897c2.159 13.483 8.287 52.323 8.287 59.769 0 9.037-3.11 17.507-3.11 21.459 0 3.952 1.702 7.062 4.519 8.196 1.317.512 16.118.549 36.132.439 23.161.11 37.98 0 39.279-.439 2.817-1.134 4.518-4.244 4.518-8.196s-3.11-12.422-3.11-21.459c0-7.446 6.129-46.304 8.288-59.787a3.368 3.368 0 00-3.842-3.879zm-14.49 82.692c-1.006.384-12.422.421-30.296.348-15.422 0-26.819 0-27.826-.348a6.315 6.315 0 01-3.494-6.257c0-3.018 2.397-9.476 2.397-16.374 0-1.628-.385-5.214-.97-9.732l5.653 6.11c.773.834 1.71 1.5 2.752 1.956a8.278 8.278 0 003.304.697h38.784a8.177 8.177 0 005.763-2.36l5.909-5.745c-.549 4.208-.896 7.519-.896 9.148 0 6.897 2.396 13.355 2.396 16.373a6.311 6.311 0 01-3.476 6.184zm7.465-68.257c-.933 5.854-2.873 17.947-4.373 28.338l-5.726 3.494a20.121 20.121 0 01-10.483 2.927h-31.503a20.116 20.116 0 01-10.209-2.78l-6.458-3.714c-1.482-10.373-3.402-22.375-4.354-28.211a2.616 2.616 0 013.001-2.963 242.301 242.301 0 0032.454 2.524 250.346 250.346 0 0034.76-2.524 2.588 2.588 0 012.181.764 2.6 2.6 0 01.71 2.199v-.054z" fill="#042442" stroke="#042442" stroke-linecap="round" stroke-linejoin="round"/></svg>