<?xml version="1.0" encoding="UTF-8"?> <svg xmlns="http://www.w3.org/2000/svg" viewBox="0 0 500 500" height="500" width="500"> <g transform="matrix(0.5,0,0,0.5,0,0)"> <defs> <style>.cls-1{fill:#79e1cf}.cls-3{fill:#ffeab6}.cls-4{fill:#ffc6a6}.cls-6{fill:#ffd152}</style> </defs> <g id="Layer_5" data-name="Layer 5"> <path class="cls-1" d="m317.675 683.961 15.831 47.239 20.762-10.641-21.541-44.639s-14.014 7.262-15.052 8.041z"></path> <path d="M420.3 550.04s39.572-10.475 76.817-30.649L618.161 538.4s22.114 12.8 24.83 13.191 12.8-1.164 21.726 5.044 26.769 6.207 31.425 6.983 14.355 6.207 19.01 8.923 25.218 9.311 28.71 11.639 11.639 5.044 13.579 14.743 5.043 27.545 4.655 36.469-2.716 32.977-6.207 42.288-18.623 57.807-19.4 63.626-2.715 43.452-4.655 51.212-12.8 48.883-14.743 56.255-15.906 44.616-18.234 51.211-5.82 18.622-4.656 23.666a46.512 46.512 0 0 1 1.164 16.682c-.776 6.208 4.268 36.857 2.716 39.185s-55.867 4.656-74.878-1.164-94.663 2.328-125.312.776-111.734-2.328-123.373-4.656-25.994-3.1-19.011-10.863 7.76-18.622 8.148-29.1 5.819-28.322 5.819-28.322L345.3 739.148l35.815-73.106z" style="fill:#bed4fc"></path> <path class="cls-3" d="M757.059 502.168c6.08 4.3 5.33 3.34-.21 4.03-5.72.71-8.1.9-8.74 4.36-.22 1.15-1.5 6.89-2.39 8.21a4.475 4.475 0 0 1-.65-.61c-9.59-14.35-2.22-10.66-20.12-12.08-3.53-.27 6.24-3.34 9.15-9.84 1.07-2.37-3.98-11.28-1.12-9.75 8.54 4.55 5.79 2.89 6.84 3.53 3.25 1.98 12.78-5.87 16.46-6.92 1.29 8.05-7.96 12.902.78 19.07zm72.18-151.2c2.39.87-4.8 2.95-7.87 5.19-5.02 3.65-.29 6.65-.68 11.73-3.78-1.6-8.1-9.83-13.72-9.81-10.24 3.42-10.86 4.7-12.67 5 .6-3.7 9.17-11.11 4.29-15.02-1.89-1.51-6.6-8.48-4.24-7.93 9.45 2.22 9.42 2.65 11.24 1.39 9.49-6.57 9.82-16.59 11.5-2.87 1.52 12.43-1.57 7.352 12.15 12.32zm-11.85-160.55c-.25.31-.45.75-.78.92-12.32 6.35-13.11 5.53-12.4 9.9 1.87 11.56 1.41 9.65 1.15 11.76-13.04-11.8-7.86-10.3-9.93-10.63-3.58-.57-10.31 3.49-16.8 4.76-2.27.09-1.4-.48 4.24-9.7 6.19-10.1-23.97-22.05 2.2-14.49 4.87 1.41 4 .76 12.85-11.22 2.85-3.86 1.02 13.55 7.62 14.15 2.26.2 5.44 2.72 10.69 3.89a5 5 0 0 1 1.16.66zm-504.48 212.32c24.76-5.55.14 2.26 5.47 11.55 4.57 7.98 6.39 7.27-2.41 5.29-10.25-2.3-5.61-2.96-16.25 7.82-1.28 1.3.24-4.07.62-9.14.46-6.06-11.23-7.97-12.96-11.14.84-.26-.62-.1 6.89-.74 9.24-.79 5.03-6.03 8.9-14.28 3.35 2.79 6.76 11.31 9.74 10.64zm49.84-109.63c1.18 2.05-4.79.02-13.55-3.22-4.92-1.81-3.74-5.46-15.22 10.66-4.46 6.26 2.02-13.88-5.32-16.61-16.7-6.23-16.69-4.78 1.62-11.48 4.02-1.48 2.12-10.21 4.87-17.7 17.4 16.28 2.73 14.92 28.16 9.05-3.77 10.07-11.54 12.94-7.08 18.14 2.85 3.32 4.371 7.43 6.52 11.16z"></path> <path class="cls-4" d="M495.739 579.338c2.01 10.9 4.54 12.11 1.97 11.71-22.06-3.43-43.63-25.29-48.07-43.63-.83-3.46-1.42-3.11 2.28-4.41 10.88-3.85 16.52-8 15.15-5.52-2.73 4.92-.78 11.13-1.12 13.4-1.28 8.42 4.57 15.55 13.01 20.03 1.13.61.73.47 8.17 1 5.01-1.19 5.52-1.68 6.11-.11a44.035 44.035 0 0 1 2.5 7.53z"></path> <path d="M669.559 208.068c13.36 5.57 17.09 6.46 8.09 8.7-5.66-1.36-6.34-1.46-9.65-8.35-.43-.9.64-.74 1.56-.35zm26.71-2.168c.84-.1.77.6.44 1.04-2 2.68-4.3 6.61-8.03 4.26-9.97-6.3-28.78-9.19-23.57-17.33 2.14-3.33.39.5 11.52 5.28 12.04 5.178 16.38 7.138 19.64 6.75zm4-10.512c2.99.3-.66 5.58-5.39 5.51-7.87-2.73-31.5-11.43-24.99-16.57.78-.62.39-2.25 1.53-2.16 1.96.16-.66 2.03 12.3 7.2 13.381 5.332 14.04 5.77 16.55 6.02zm-24.4-23.66c25.85 19.51 36.09 9.48 28.27 18.53-1.49 1.73-7.13-1.15-9.29-1.95-10.42-3.87-27.849-9.4-18.98-16.58z" style="fill:#e6fcff"></path> <path class="cls-6" d="M744.209 137.058c1.51.45.43 3.98-.94 3.28-5.169-2.66-.86-3.81.94-3.28zm-51.56-13.358c-2.64 2.16-3.88-2.05-2.14-2.54.6-.172 1.61 1.708 2.14 2.54z"></path> <path class="cls-6" d="M711.059 83.808c60.43-.37 73.45 79.12 10.64 86.33-8.21.94-9.96-1.4-12.28 1.86-4.61 6.49-1.62 9.45-5.36 8.44a74.422 74.422 0 0 1-21.66-9.33c-6.23-3.75 4.91-4.88 1.66-11.86-3.44-7.39-3.37-1.69-8.44-9.74-23.46-37.25 9.8-67.14 35.44-65.7zm30.13 62.13c3.1 7.62 12.64-10.38 5.28-12.77-6.78-2.2-9.32 2.74-10.51 2.47-11.27-2.53-4.26-1.1-10.8-4.46-3.03-1.56-5.44 2.13-7.87-1.37-3.82-5.53-1.04-.13-19.15-7.19-1.27-.5-1.96-2.26-2.94-3.41-.84-.99-2.49-1.18-4.28-1.67-5.26-1.43-8.31 9.37.25 10.8.89.15 1.52.05 1.19 1.5-1.82 7.96 8.97 14.7 6.79 18.48a64.071 64.071 0 0 0-6.11 17.75c-.23 1.44 1.12.7 1.64 1.14 2.04 1.74 3-7.43 8.3-17.32 3.54-6.62-6.79-13.16-6.56-18.83.3-7.29 3.11-3.11 9.89-1.01 3.75 1.16 6.55-.2 7.58 2.4.9 2.26 3.95 3.96 7.38 3.06 4.49-1.17 3.3 2.26 8.57 3.39 5.46 1.16 5.22.9 5.23 2.81.01.7-.03 1.42-.84 1.61-2.65.62-4.76 2.32-7.14 3.47-2.75 1.33-1.53-.89-6.18 2.13-6.96 4.53-5.79 1.62-8.72 3.93-5.01 3.96-15.58 15.23-12.15 17.88 3.55 2.73 3.79-4.32 10.71-10.68 6.85-6.29 5.87-3.26 8.23-4.66 5.09-3.02 5.53-3.44 6.26-3.5 4.23-.37 7.45-3.86 10.58-4.15 4.29-.39 3.17-4.14 4.1-3.86 1.59.48.92 1.2 1.27 2.06z"></path> <path d="M323.189 128.888a13.112 13.112 0 0 1-15.31 16.6c-13.75-2.93-15-22.77.43-25.68a13.145 13.145 0 0 1 14.88 9.08zm-48.33 42.03c2.13-2.48 4.61-4.99 6.18-1.63 0 .14-44.34 49.57-44.44 49.66-3.62-2.52-5.199 2.57 38.26-48.03zm29.4 43.1c.87 2.11.46 1.32-30.23 31.76-1.58 1.57-.85 1.52-2.55-22.91-.16-2.26 19.26-17.52 25.81-25.07 6.45-7.44 4.6-6.21 6.97 16.22zm-53.459-62.86c3.75-.48-6.86 8.15-14.82 19.82-1.74 2.56-8.41 11.44-10.98 11.75-.1.01-24.41.74-24.51.62-.71-.92 12.34-13.39 24.35-27.17 2.029-2.33 2.019-1.95 25.96-5.02z" style="fill:#9edeff"></path> <path d="M369.359 80.338c-.66 5.67-1.23 12.29-4.46 20.15-11.78 28.68-10.74 26.08-13.98 20.31-14.93-26.55-35.57-29.18-31.69-31.62 3.82-2.41 14.72-11.17 32.84-16.14 18.47-5.08 16.41-.18 17.29 7.3z" style="fill:#ff8e92"></path> <path d="M665.249 437.441c-3.739-12.841 5.527-45.19 8.29-52.342s5.2-24.546 3.251-39.826-12.679-41.127-18.369-53.481-30.235-35.762-38.037-41.776-45.191-21.783-58.683-27.635-37.225-7.152-37.225-7.152c-3.9-5.69-16.255-13.492-30.723-6.99s-17.068 22.107-18.368 22.432c-30.236-.325-34.462 24.059-34.462 24.059-11.216 11.379-8.128 18.531-3.414 26.009s19.832 7.64 19.832 7.64 92.364-20.193 120.335 23.4 17.073 115.511 17.073 115.511l.764 71.11c17.556 14.63 33.974 6.664 33.974 6.664-17.556-13.329-14.143-20.969-14.143-20.969 26.5 16.418 38.2-.163 38.2-.163a28.327 28.327 0 0 1-20.482-16.58c.162-.651 2.276 2.113 24.058 4.226s26.659-9.916 26.659-9.916-14.791-11.379-18.53-24.221zm-186.76 35.667c-3.32-4.06-2.16-7.379.16-11.07-29.98-18.51-23.54-33.789-30-30.69-10.53 5.06-20.23 4.8-22.09 5.37-1.92.59 5.45 13.16 21.65 18.57 13.76 4.6-14.71 17.711-18.97 18.03-7.07.53 22.77 18.46 39.73 7.02 1.89-1.27 4.33-.12 3.91 2.49-1.64 10.05-5.37 15.161-7.25 19.62 8.45 1.5 18.1-4.06 25.14-8.83 1.83-1.23 1.15-3.34 1.88-4.94.36-.79-5.77-5.33-14.16-15.57z" style="fill:#ffb564"></path> <path d="M401.669 533.068c8.89 18.53 9.29 17.59 7.09 18.39-.1.03-99.07 32.72-99.17 32.75-1.21.18.42 2.77-21.64-40.85-1.1-2.17-7 .77 62.61-22.54 12.06-4.03 23.59-8.1 36.53-12.31 3.36-1.09.68-4.4 14.58 24.56zm-13.33 15.86c-2.1-3.62-3.78-1.12-6.36-1.04-.62.02-63.78 19.77-68.13 21.65-2.16.93-4.19 3.88-1.52 4.55.92.23 72.24-20.83 76.01-25.16zm-15.16-20.59c1.56-.77 2.6-3.5-.69-4.18-.57-.12-4.32 1.1-9.82 2.48-19.26 4.81-21.91 8.48-26.9 8.37-5.78-.13-5.52 2.35-14.1 4.27-19.4 4.34-16.33 6.17-21.55 6.43-.64.03-1.68 1.5-1.84 2.09-.47 1.74 4.64 2.79 7.37 1.38 4.03-2.09 7.1-3.67 17.49-5.52 8.06-1.43 7.76-3.99 12.47-3.76 9.05-1.23 12.43-4.66 20.64-6.92 8.44-2.33 10.52-1.45 16.93-4.64zm-12.99 17.88a3.473 3.473 0 0 0 3.57-2.72c-.23-5.6-19.33 3.31-28.71 4.89-8.43 1.42-27.46 6.99-30.26 10.01-1.97 2.12-.87 3.36 1.77 3.52 9.63-3.33 8.41-3.76 11.94-4.75 20.29-5.69 6.32-1.02 27.83-7.23 9.75-2.83 10.42-3.7 13.86-3.72z" style="fill:#fff5db"></path> <path class="cls-1" d="M324.109 664.728c1.47 2.96-3.9 4.61-7.03 5.21-1.84-1.25 2.25 5.53-42.45-84.45-28.24-56.84-28.62-54.57-25.48-54.56 15.19.04-8.44-33.628 74.96 133.8zm-64.12-98.35c54.29 110.25 53.31 105.17 50.93 105.98-29.21 10.06-14.68 29.22-17.66 35.88-1.58-2.34-102.53-208.88-103.09-210.57.81-.29-1.86-1.61 40.89 23.92 13.7 8.18 5.76-2.24 28.93 44.79zm150.1-54.03c-16.65-34.5-15.53-32.44-16.86-31.95-14.44 5.24-91.21 30.65-104.13 34.9-31.85 10.5-29.84 8.461-27.89 12.27 74.58 145.88 63.37 137.61 71.94 135.32 9.98-.23 3.3 16.42 3.65 17.26.62 1.54 2.75 6.98 4.12 6.53 3.43-1.15 7.29-3.26 9.03-3.39 3.85-.3 14.21-3 19.95-5.92 13.64-6.97 13.85 14.96-3.4 23.381-4.9 2.389-9.46 5.539-14.93 6.639-.87.18-1.06.7-.69 1.48 3.49 7.381 2.63 6.81 4.63 6.81 26.32-.03 23.22-4.23 41.45-8.12 5.38-1.14 7.62 5.451 5.5 9.941-.46.98.37.869 1.41.559.14-.04 87.68-25.98 91.59-27.2 3.59-1.119 2.21 3.01-85.37-178.51zm1.96 42.98c-.79.27-91.49 30.39-102.64 33.57-4.04-.409-3.23 1.79-25.84-45.19-3-6.229-7.01-3.3 104.13-40.28 4.41-1.47 4.21.18 10.27 12.47 16.7 33.851 20.32 37.27 14.08 39.43z"></path> <path class="cls-4" d="M675 797.048c4.71 7.26 6.04-4.18-34.53 53.06-5.92 8.35-11.91 14.29-14.23 16.97-6.86 7.96-12.39 16.83-23.27 25.13-25.43 19.4-44.5 14.79-66.71-11.35-3.42-4.03-6.21-14.92-7.07-18.41-3.15-12.82-8.85-16.42-12.79-30.93-10.33-38 .92-221.58 1.96-222.52 4.21-3.84-2.34-1.95-11.77-14.21-7.62-9.9-4.07-20.22-19.24-45.29-.84-1.39-1.67-2.42-3.31-2.7-2.99-.51-.57 3.35.82 6.38 2.05 4.45-2.14 1.62-2.92 1.53-1.99-.24-3.36 2.05 3.45 6.08.83.48 3.06.55 3.64 1.31.72.92.85 2.29 1.26 3.45.23.67-.06.88-.67.95-5.34.63-7.69 1.72-12.12-1.99-2.55-2.15-7.07-7.05-6.98-10.38.26-9.68-1.43-14.62 6.97-19.28 3.26-1.81 3.85-4.7 4.05-8.5.35-6.62 7.01-3.04 9.78-11.67 3.93-12.26 21.78-1.44 19.17-8.31-7.89-20.75-32.65-34.11-28.98-40.11 3.19-5.22 14.93 4.51 18 7.99 9.43 10.69 26.79 25.22 28.37 35.37.95 6.07 5.19 8.2 9.45 22.43 7.65 25.58 16.35 36.45 17.37 64.66 1.6 44.14 46.93 212.38 46.98 212.49 1.26 2.65 4.27 1.56 4.13-1.18-1.76-32.75-19.99-68.81-15.49-69.08 9.65-.58 19.25 2.56 21.43 4.18 4.52 3.36 32.18 28.02 34.66 30.31 10.079 9.28 21.349 12.49 28.59 23.62z"></path> <path class="cls-4" d="M619.809 383.278c20.6-17.4 44.94-3.26 24.26 29.61-4.1 6.51-8.23 12.09-26.1 19.65-23.3 9.85-26.04-49.77-26.51 58.7-.13 30.7 3.33 39.93 46.51 60.86 1.71.83-13.3 12-13.4 12.07-25.98 18.62-10.69 9.81-39.47 21.27-4.74 1.89-25.02 10.23-25.4 7.12-3.9-32.59-11.67-40.08-17.07-59.21-4.75-16.86-10.31-21.14-10.79-26.81-.7-8.27-19.39-24.44-21.84-27.32-.82-.96-.71-1.37.52-1.77 54.98-17.94 46.63-31.54 41.04-28.27-11.28 6.59-61.97 24.76-85.57-2.35-25.89-29.72-26.49-82.56-15.78-79.24 8.7 2.7 17.67-1.52 24.39-8.29 2.82-2.84-.2 7.94 13.67 10.44 2.85.52 3.91-2.92 2.18-3.77-4.15-2.06-8.04-3.06-10.28-10.02-1.74-5.42 15.13-1.08 14.65-13.75-.13-3.39-3.27-3.5-4.03-.44-1.29 5.21-.07 4.41-7.78 5.89-.67.13-.87-.09-.65-.81 4.31-13.51 2.96-17.37 7.34-20.67 6.46-4.85 18.01-.13 18.45 11.1.63 15.95 16.13 39.32 34.12 38.6 25.55-1.02 32.9-27.35 37.54-30.23 3.09-1.92 6.3-.7 19.29 7.22 3.77 2.3-7.31 25.4 10.77 33.32 1.88.83-2.24 3.38 2.4 4.96.69.23 3.35-4.32 7.54-7.86zm23.38 15.34a8.174 8.174 0 0 0-8.9-11.62c-7.9 1.7-16.52 11.75-12.34 19.91 1.42 2.77.11 8.52-2.94 9.19-5.77 1.27-6.18-1.44-7.6 1.21-1.53 2.88 1.72 4.65 5.02 4.68 10.07.09 13.41-11.51 10.22-17.72a4.741 4.741 0 0 1-.29-4.55c2.04-4.61 12.22-14.08 13.21-1.02.11 1.57 2.55 2.05 3.62-.08zm-153.96 5.51c-.06-1.76-1.05-6.87-5.15-6.97-4.99-.12-5.62 7.27-2.12 10.84 2.1 2.15 6.1 2.67 7.27-3.87zm-78.81 363.48c14.25 9.77 12.04.44 5.18 46.68-3.12 21.04-11.09 50.34-14.01 58.96-1.35 3.99.72-11.45.18-27.85-.72-22.24-23.61-59.39-26.06-58.59-4.95 1.6 5.09 7.31 16.75 40.25 8.18 23.13 3.88 54.93-1.82 63.31-7.44 10.92-13.86 15.57-32.54 12.72a42.884 42.884 0 0 1-35.21-32.02c-2.65-10.84-6.91-23.33-5.11-36.44 9.64-70.24 3.91-37.68 16.08-20.94a8.909 8.909 0 0 0 2.19 0c-.66-5.3-1.17-4.65-7.7-26.31-2.05-6.84-2.09-7.83-4.23-9.17-9.22-5.77-7.53-6.68-9.35-16.46-1.1-5.88-8.36-4.34-7.42-12.63.47-4.2-.72-8.03-5.24-12.36-3.35-3.2-2.6-12.53 3.28-18.64 10.41-10.81 11.6-15.64 21.72-23.15 1.64-1.22 2.01-.81 17.02-4.32 3.28-.77 1.27-1.53 8.17-2.77 18.38-3.32 23-9.66 22.8-5.64-.35 6.96-5.51 11.83-11.85 14.72-4.15 1.89-7.93 4.58-12.47 5.6-29.28 6.63-27.7 26.22-22.93 20.63 6.25-7.33 5.34-8.84 7.66-4.53 1.74 3.23.88 1.75-5 6.93-4.95 4.36-21.16 17.57-13.29 16.37 1.11-.17 1.76-.7 12.1-9.41 7.37-6.22 10.33-11.85 34.2-12.11 13.72-.15 24.5-6.26 33.67-8.1 3.6-.72 2.65 10.71-22.31 17.43-5.67 1.52-7.33 3.48-16.88 4.94-4.77.74-9.7 1.59-12.7 4.44-3.37 3.21-5.92 4.7-4.18 6.67.62.7 1.22 1.21 2.14.25 5.92-6.17 11.99-5.88 24.21-8.33 3.7-.74 2.92-2.59 8.82-3.19 5.27-.54 17.85-4.11 17.9-4.11 4.69 0 1.13 10.35-24.36 20.2-12.34 4.77-18.14 6.22-22.47 12.7-1.15 1.73-2.12 4.37.11 5.37 3.54 1.59 1.42-5.86 14.15-10.48 2.2-.81 2.71-.98 3.49 8.77 1.69 21.16-6.11 30.43-6.76 39.14-.09 1.19 1.35 2.71 2.83.91.94-1.15 5.43-13.37 5.9-14.77 10.9-32.66-14.81-43.28 19.73-32.78 15.68 4.76 17.61 4.002 23.61 8.11zm-78.94-99.06c6.63-1.46 1.11 12.82-11.02 19.7-9.76 5.53-10.73 6.09-12.13 7.73-1.42 1.66-.13 3.73 1.31 3.31 7.99-2.34 21.23-16.65-5.97 14.55-6.44 7.39-5.46 7.92-6.34 1.4a62.079 62.079 0 0 1 .66-7.39c1.22-5.83-5.17-19.54 1.66-23.87 10.32-6.54 14.94-7.76 28-13.19.74-.31 2.451-1.93 3.83-2.24z"></path> <path class="cls-4" d="M452.6 307.29c.218-.654 3.925-19.621 8.721-26.38s21.148-24.2 21.148-24.2 12.209 6.323 13.3-4.8c0 0 4.578 4.36 10.029-3.706s18.313-7.631 23.328-5.451 18.313 4.579 25.726 17.006 32.7 55.812 37.281 62.135 18.967 24.636 8.285 27.47l-19.4-11.119s-6.759-19.84-23.764-22.674-37.284-4.571-45.569 9.815c0 0-16.351-9.811-27.688.654 0 0-2.616-15.261-16.787-17.659s-14.61-1.091-14.61-1.091z"></path> <path class="cls-3" d="m125.986 400.727-2.283-13.812 10.959 9.246 14.154-6.62-4.794 15.752 10.045 14.611-16.78-2.853-6.621 14.839-4.223-17.807-14.611-6.963 14.154-6.393z"></path> <path d="M828.459 396.568c-22.77 18.14-25.23 52.9-36.67 44.59-13.14-9.54-21.52-19.95-21.93-34.59-.12-4.069-2.17-8.01-6.06-6.559a72.734 72.734 0 0 1-9.53 3.509c-11.18 2.95-10.74-7.2-15.92-2.47 0 0-1.08.58-5.8 5.06-1.57 1.49-.83.67-4.51-2.14-4.37-3.34-9.07 1.041-8.33 3.2.35 1.01 2.27 1.47 3.3 1.01 2.9-1.27 3.32 1.44 6.25 3.821 4.86 3.949 8.74-8.941 12.9-5.971 6.97 5 10.15 3.211 20.79-.37 6.61-2.21-6.06 12.351 20.32 34.74 14.77 12.54 17.16 8.581 28.6-14.31 4.19-8.4 12.42-22.07 19.89-26.67 3.08-1.89 6.69-2.85 14.19 2.46 17.61 12.48 9.63 15.64 7.49 21.05-.39.99 1.68 2.73 2.6 1.47 5.82-7.96 4.21-5.46 5.44-9.31-2.37-12.288-22.1-27.22-33.02-18.52zm-7.33-62.19c-.38-2.45-1.18-4.83-1.63-7.27a2.836 2.836 0 0 0-2.12-2.46c-1.92-.59-2.14.47-8.68 8.23-5.78 6.851-2.35 5.7-16.57 2.18a5.4 5.4 0 0 0-3.79 2.671c-.94 1.429-.84 1.969 3.49 9.01 3.69 5.979 4.87 4.529 3.13 7.119-9.24 13.78-13.37 18.33 3.58 12.11 9.63-3.52 9.39-4.03 10.78-2.64 6.62 6.62 15.67 17.74 16.22 8.411.36-6.151-1.4-9.4-1.66-10.721-.7-3.5 12.73-5.35 13.48-10.33a1.634 1.634 0 0 0-1.2-2.1c-18.559-6.579-12.81-.16-15.03-14.21zm.24 21.78c-5.02 3.65-.29 6.65-.68 11.73-3.78-1.6-8.1-9.83-13.72-9.81-10.24 3.421-10.86 4.7-12.67 5 .6-3.7 9.17-11.11 4.29-15.02-1.89-1.51-6.6-8.48-4.24-7.93 9.45 2.22 9.42 2.65 11.24 1.39 9.49-6.57 9.82-16.59 11.5-2.87 1.52 12.43-1.57 7.351 12.15 12.32 2.39.87-4.8 2.95-7.87 5.19zm-61.1-101.07c.43 19.62 12.65 29.31-7.85 26.62-31.41-4.1-37.71-11.64-34.74 11.15.4 3.08.56 2.131-14.52 8.26-7.61 3.1-4.13 6.98-.11 5.35 13.86-5.66 19.96-6.459 19.42-12.54-.96-10.64-2.33-12.55 1.72-11.9 27.33 4.4 31.97 5.451 36.89 4.94 19.25-2.02-5.24-32.64 7.89-39.239 9.19-4.611 12.28 2.719 56.49 20.319 2.48.99 4.69 1.97 5.66-.35.71-1.68-1.44-2.439-2.66-2.939-43.69-17.981-39.43-18.861-49-21.931-11.07-3.56-19.359 3.972-19.19 12.26zm18.94-59.77c-3.69 5.99-12.18 19.1-4.3 17.15 2.9-.709 8.53-1.77 9.93-2.25 7.48-2.56 7.71-3.59 8.74-2.51 9.51 10.01 16.75 20.43 16.22 2.62-.25-8.43-2.14-9.67.29-10.72 3.14-1.369 9.43-4.78 11.19-5.31 6-1.819 6.3-5.71 3.72-6.87-3.08-1.4-9.9-2.53-14.21-4.46-7.05-3.14-4.03 1.21-8.57-16.739a2.581 2.581 0 0 0-4.83-.851 1.828 1.828 0 0 0-.12.23l-.01.01c-.01 0 0 .01 0 .01-.59.79-2.65 3.71-8.88 12.9-1.48 2.19-15.46-5.17-17.79-2.48-5.82 6.701 10.53 16.17 8.62 19.27zm5.86-12.38c4.87 1.41 4 .76 12.85-11.22 2.85-3.86 1.02 13.55 7.62 14.15 2.26.2 5.44 2.72 10.69 3.891a4.964 4.964 0 0 1 1.16.659c-.25.311-.45.75-.78.92-12.32 6.35-13.11 5.53-12.4 9.9 1.87 11.559 1.41 9.649 1.15 11.76-13.04-11.8-7.86-10.3-9.93-10.631-3.58-.57-10.31 3.49-16.8 4.76-2.27.09-1.4-.48 4.24-9.7 6.19-10.099-23.969-22.049 2.2-14.489zm-121.16 23.541c-1.21 5.859 3.19 14.469 13.41 15.349 7.09.61 9.99-5.48 12.67-4.97 5.98 1.141 10.78-5.46 10.98-10.21.1-2.47 1.83-4.13 2.82-6.52 1.18-2.869-.28-3.92.96-4.33 3.24-1.069 6.5-8.4 5.74-11.58-.15-.64 1.64-2.87.02-4.979-.33-.441 1.34-3.071 1.74-3.461.26-.26 46.78 3.33 54.93-37.6 11.9-59.8-84.13-83.99-102.03-26.56-9.64 30.93 15.61 47.33 14.09 50.5-3.91 8.16-6.46 4.96-7.95 8.43-3.86 9.05.06 7.92-2.1 9.03-7.02 3.59-3.12 8.06-5.55 9.88-2.75 2.06-5.86 7.99-2.2 12.51 1.85 2.271 2.87 2.56 2.47 4.511zm13.74 10.289c-5.66-1.36-6.34-1.46-9.65-8.35-.43-.9.64-.74 1.56-.35 13.36 5.57 17.09 6.46 8.09 8.7zm-2.03-67.259c-23.46-37.25 9.8-67.141 35.44-65.7 60.43-.37 73.45 79.12 10.64 86.33-8.21.94-9.96-1.4-12.28 1.861-4.61 6.49-1.62 9.449-5.36 8.439a74.422 74.422 0 0 1-21.66-9.33c-6.23-3.75 4.91-4.879 1.66-11.859-3.44-7.392-3.37-1.692-8.44-9.741zm.25 22.22c25.85 19.51 36.09 9.479 28.27 18.53-1.49 1.73-7.13-1.151-9.29-1.951-10.42-3.87-27.849-9.4-18.98-16.579zm-5.98 12.6c.78-.62.39-2.25 1.53-2.16 1.96.16-.66 2.03 12.3 7.2 13.38 5.33 14.04 5.77 16.55 6.02 2.99.3-.66 5.58-5.39 5.51-7.87-2.731-31.5-11.431-24.99-16.571zm-4.78 9.54c2.14-3.33.39.5 11.52 5.28 12.04 5.18 16.38 7.14 19.64 6.75.84-.1.77.6.44 1.04-2 2.68-4.3 6.61-8.03 4.26-9.97-6.299-28.779-9.19-23.57-17.331zm95.21 305.269c-3.79-2.42-2.33-2.75-1.51-6.33 3.35-14.48 3.2-13.63 3.03-14.809a2.271 2.271 0 0 0-3.66-1.611c-4.72 3.89-10.44 6.15-15.43 9.58-2.27 1.55-9.99-6.27-11.72-5.55-2.63 1.081-4.53 2.341-3.66 5.5 3.43 12.51 2.38 11.2.59 12.36-5.36 3.451-9.75 4.82-9.45 9.24.24 3.5 10.65 3.26 14.53 3.3 3.78.03 3.17 1.79 4.53 4.02 6.13 10.04 9.59 15.86 12.79 4.44 2.65-9.47-.61-8.43 15.57-8.96 6.871-.218 1.78-6.45-5.61-11.18zm-3.47 7.06c-5.72.71-8.1.9-8.74 4.36-.22 1.15-1.5 6.89-2.39 8.21a4.42 4.42 0 0 1-.65-.61c-9.59-14.35-2.22-10.659-20.12-12.08-3.53-.27 6.24-3.339 9.15-9.839 1.07-2.371-3.98-11.281-1.12-9.75 8.54 4.549 5.79 2.889 6.84 3.529 3.25 1.981 12.78-5.87 16.46-6.92 1.29 8.05-7.96 12.9.78 19.07 6.08 4.3 5.33 3.341-.21 4.032z"></path> <path d="M705.959 565.108c-13.85-7.32-25.06-1.82-42.11-11.49-4.91-2.79-11.53-5.859-16.85-4.49-4.1 1.07-40.14-14.8-47.88-31.7-1.4-3.06-1.93-6.689-2.55-13.89-.32-3.73 17.9 12.18 35.59 3.471 2.08-1.02 2.24-3.121.41-4.541-1.86-1.45-8.78-2.79-15.39-13.26-.59-.94-1.29-2.91.96-1.38 19.85 13.48 45.92-.92 37.93-4.87-1.74-.86-9.84-1.84-17.81-11.63-1-1.23-.15-1.02.56-.7 14.68 6.56 35.2 5.64 46.82-5.55 6.08-5.86-13.35-8.329-17.58-31.18-4.34-23.49 9.79-37.79 12.2-76.72 1.25-20.29-13.89-57.919-23.43-71.939-26-38.161-63.4-56.771-110.07-70.061-10.79-3.08-27.36-1.51-33.46.95-1.95.78-1.5 3.96.84 3.64 11.79-1.61 26.59-4.81 49.85 6.15 19.06 8.98 56.64 17.47 85.19 57.591 62.62 88.009-14.84 131.589 24.02 171.769 8.14 8.43 9.33 7.08 5.48 9.39-14.25 8.53-31.73 6.39-44.74-2.15-3.01-1.97-6.15-.269-4.52 3.65 6.79 16.37 23.25 18.54 19.02 19.97-22.43 7.58-31.51-6.19-34.7-7.92-6.69-3.63-7.94 11.011 10.62 25.12 3.86 2.93-28.56.411-28.24-10.18 2.68-89.12-5.91-50.03 19.98-53.69 21.49-3.04 46.33-33.54 40.37-55.03-3.99-14.33-17.18-12.66-20.52-15.05-32.14-23.08-49.19-30.17-58.56-44.82-11.04-17.28-52.16-23.19-66.62-2.85-.55.781-.99.97-1.71.13-5.33-6.2-16.11-7.93-22.28-1.339-.67.72-.94.72-1.18-.27-2.53-10.431-16.76-15.381-28.42-15.98-1.77-.091-2.11.629 2.56-11.51.87-2.26 5.94-2.76 13.48 2.6 6.75 4.19 2.04-11.51-8.73-11.26-4.9.11 14.23-20.94 17.2-24.27 1.58-1.77 2.02 1.25 5.86 1.6 1.6.14 2.62-2.53.65-4.05-25.01-19.35 1.55-59.58 25.13-46.67 5.06 2.77 7.28-2.4 2.55-4.709-16.68-8.141-35.54 2.99-40.85 21.219-.66 2.281-.81-.31-12.18 2.291-9.31 2.129-18.88 9.49-21.8 20.119-.65 2.371-1.5 3.58-3.72 5.98-11.21 12.12-5.84 27.52 6.93 31.381.95.289 4.59.719 5.05-.98.75-2.811-1.53-2.871-3.31-3.411-17.09-5.13-7.11-28.089-5.19-19.94 2.07 8.72 12.93 18.38 15.32 14.19 2.21-3.88-17.28-9.28-10.01-27.55 5.75-14.42 27.57-19.37 27.5-13.83-.25 18.08 7.71 19.58 5.78 21.56-9.93 10.2-14.66 13.8-20.63 26.5a4.88 4.88 0 0 1-2.3 2.51c-7.35 3.451-10.1 14.85-7.28 12.981 6.07-4.02 4.12-3.78 2.61 3.759-.72 3.58-5.64.28-17.92 6.94-22.04 11.95-11.23 40.8 7.59 53.551 7.03 4.759-13.98 11.629 6.91 61.75a1.176 1.176 0 0 1-.77 1.75c-6.74 2.779-17.34 6.049-24.54 5.359-2.93-.28-2.83 2.92-1.95 5.28 7.25 19.46 27.38 21.3 23.62 23.54-15.41 9.16-15.05 7.47-19.14 8.44-1.84.43-2.42 1.23-2.59 3.131-.34 3.959 2.75 6.189 7.02 9.24 18.34 13.079 36.41 4.73 37.3 5.76.38.429-3.17 8.99-6.85 13.629-6.75 8.52 12.42 9.64 28.36-.31a2.637 2.637 0 0 1 .9-.21c-.05 1.71-1.83 8.79-2.36 10.52-2.35 7.72-8.25 4.65-10.48 12.92-2.01 7.46-39.83 17.88-44.78 20.99-1.61 1.02-.4 1.711-15.15-28.34-20.87-42.52-19.3-42.469-24.88-40.67-12.5 4.02-8.14 6.14-15.94-9.61-3.84-7.75-83.01 13.01-115.78 41.53a62.847 62.847 0 0 0-7.46 7.49c-4.49 5.561-3.55 7.97-1.91 7.97a2.454 2.454 0 0 0 1.55-.64c1.11-.95 8.91-16.36 52.83-35.36 22.32-9.659 47.3-16.08 65.32-18.06 2.53-.28 1.48-.99 6.5 10.11 1.29 2.85-120.66 40.43-123.69 44.3a6.211 6.211 0 0 1-1.59 1.4c-3.17 1.92-7.68 1.01-6.08-.32a2.2 2.2 0 0 0 .64-2.88c-9.78-22.61-20.88-24.51-19.77-29.08.24-.95-4.3-11.02-3.5-12.47.94-1.73 23.77 19.02 23.03 32.49-.13 2.351 2.53 3.89 3.89 2.48.6-.62.95-1.83.68-3.81-2.51-18.28-26.84-43.19-33.29-35.29-1.09 1.33 3.64 10.941 3.73 13.83-3.13-.95-20.24-14.53-25.67-7.859-1.2 1.459-.6 1.659 6.98 15.72 1.9 3.539-3.54-.48-8.95-3.671-16.25-9.569-9.99-.329-1.12 17.951 96.09 197.949 103.77 209.559 102.77 215.159-.91 5.061.26 10.27 5.75 15.891 1.86 1.909 1.72 3.5 1.61 6-.54 12.089 8.09 10.129 7.97 16.859-.06 3.65 2.1 10.2 4.99 12.331 7.4 5.429 4.24-5.19-2.36 55.31-1.85 16.94 3.4 30.739 6.31 41.19 6.08 21.879 29.14 33.849 45.35 34.029 1.67.02 2.35-.62.03 6.66-7.45 23.38 2.02 28.2-9.22 42.52-1.22 1.561-3.93 7.781-3.31 9.69.8 2.48 3.55 2.07 4.02.29 2.32-8.75 9.98-12.56 10.03-24.77.01-2.12.29-15.6.77-17.649 4.34-18.78 3.43-16.8 5.93-17.2 15.86-2.52 19.22-11.39 28.15-23.529 6.23-8.46 19.32-65.06 23.62-104.891.17-1.55-.2-3.18 1.41-4.25 1.83-1.22 8.45-44.61 8.31-48.85-.06-1.63-2.81-2.25-3.42-.789-1.59 3.829-4.06 27.75-7.1 43.609-.37 1.93-1.15.7-8.46-4.44-9.82-6.909-11.14-5.25-23.28-8.75-19.71-5.689-14.75-2.79-3.79-9.869 14.67-9.471 13.69-18.32 11.99-20.4-2-2.45-6.89-.89-.06-2.87 109.1-31.63 104.42-29.87 101.49-33.77-.18-.24-9.26-18.8-68.32-138.95-.9-1.839-1.42-1.17 10.29-5.11.74-.25 1.02.14 1.14.84 2.02 11.88 11.22 25.8 19.75 32.97 26.18 21.981 35.82 14.3 37.82 17.7 16.63 28.31 8.14-38.11 4.63 166.511h-.15c0 77.8 6.87 73.33 16.16 95.929.7 1.69 5.08 19.51 7.75 22.671 28.54 33.8 51.34 33.21 76.43 12.779 21.01-17.1 56.26-72.48 59.01-70.369 2.24 1.729 7.21 2.3 11.51 5.229 5.78 3.92 14.86 7.771 21.52 5.821 5.51-1.6 4.09 2.21 32.68-81.951 1.51-4.44-1.29 36.61-10.86 74.02-13.16 51.391-34.2 80.75-29.21 100.381 1.93 7.6-1.43 10.3.21 22.829 4.7 36.08 2.45 33.8 6.39 34.02 3.91.23-.46-28.029-.78-29.7-2.98-15.19.85-19.74-1.13-27.889-5.2-21.431 23.27-55.861 35.9-131.051 5.54-32.929 1.29-45.76 12.58-77.58 14.01-39.44 23.12-67.18 16.53-108.73-4.739-29.923-14.17-23.003-55.88-45.033zm-456.81-34.18c15.19.04-8.44-33.63 74.96 133.8 1.47 2.959-3.9 4.609-7.03 5.209-1.84-1.25 2.25 5.53-42.45-84.449-28.24-56.84-28.62-54.57-25.48-54.56zm-48.19-45.29c6.49-.78 33.92 18.1 40.84 36.9-.27.98-32.28-18.3-32.64-19.71-.959-3.72-7.38-14.31-8.2-17.19zm92.3 222.6c-1.58-2.341-102.53-208.881-103.09-210.571.81-.29-1.86-1.61 40.89 23.92 13.7 8.18 5.76-2.24 28.93 44.79 54.29 110.25 53.31 105.17 50.93 105.98-29.21 10.061-14.68 29.221-17.66 35.882zm4.07 7a62.077 62.077 0 0 1 .66-7.391c1.22-5.83-5.17-19.54 1.66-23.869 10.32-6.541 14.94-7.761 28-13.191.74-.309 2.45-1.93 3.83-2.24 6.63-1.46 1.11 12.82-11.02 19.7-9.76 5.529-10.73 6.089-12.13 7.73-1.42 1.659-.13 3.729 1.31 3.309 7.99-2.34 21.23-16.65-5.97 14.55-6.44 7.393-5.46 7.923-6.34 1.403zm37.34-29.061c.84 2.061.55 1.68-7.07 3.22h-.01c-.04-.05-.08-.159-.02-.389a16.343 16.343 0 0 0 5.05-4.9c.85-1.3 1.49.71 2.05 2.07zm40.21 43.59c-5.67 1.52-7.33 3.481-16.88 4.94-4.77.74-9.7 1.59-12.7 4.44-3.37 3.21-5.92 4.7-4.18 6.67.62.7 1.22 1.21 2.14.25 5.92-6.17 11.99-5.88 24.21-8.329 3.7-.74 2.92-2.591 8.82-3.191 5.27-.539 17.85-4.11 17.9-4.11 4.69 0 1.13 10.351-24.36 20.2-12.34 4.77-18.14 6.22-22.47 12.7-1.15 1.73-2.12 4.37.11 5.37 3.54 1.59 1.42-5.86 14.15-10.479 2.2-.811 2.71-.98 3.49 8.77 1.69 21.159-6.11 30.429-6.76 39.139-.09 1.191 1.35 2.71 2.83.91.94-1.15 5.43-13.37 5.9-14.77 10.9-32.66-14.81-43.279 19.73-32.779 15.68 4.76 17.61 4 23.61 8.109 14.25 9.77 12.04.44 5.18 46.681-3.12 21.04-11.09 50.339-14.01 58.96-1.35 3.99.72-11.451.18-27.851-.72-22.24-23.61-59.389-26.06-58.589-4.95 1.6 5.09 7.309 16.75 40.25 8.18 23.129 3.88 54.93-1.82 63.309-7.44 10.921-13.86 15.57-32.54 12.72a42.883 42.883 0 0 1-35.21-32.02c-2.65-10.839-6.91-23.329-5.11-36.44 9.64-70.24 3.91-37.68 16.08-20.94a8.812 8.812 0 0 0 2.19 0c-.66-5.3-1.17-4.649-7.7-26.31-2.05-6.839-2.09-7.83-4.23-9.17-9.22-5.77-7.53-6.68-9.35-16.459-1.1-5.881-8.36-4.341-7.42-12.631.47-4.2-.72-8.03-5.24-12.359-3.35-3.2-2.6-12.53 3.28-18.641 10.41-10.81 11.6-15.639 21.72-23.15 1.64-1.219 2.01-.81 17.02-4.32 3.28-.77 1.27-1.53 8.17-2.77 18.38-3.32 23-9.66 22.8-5.639-.35 6.959-5.51 11.829-11.85 14.719-4.15 1.89-7.93 4.58-12.47 5.6-29.28 6.63-27.7 26.22-22.93 20.63 6.25-7.33 5.34-8.84 7.66-4.53 1.74 3.23.88 1.75-5 6.93-4.95 4.36-21.16 17.57-13.29 16.37 1.11-.169 1.76-.7 12.1-9.41 7.37-6.22 10.33-11.85 34.2-12.11 13.72-.15 24.5-6.26 33.67-8.1 3.6-.719 2.65 10.711-22.31 17.431zm-33.66-10.82c-.64-.59-.33.36-3.1-5.32-.67-1.36.43-1.75 7.23-3.85.88-.279 1.67 1.31 3.67 5.731.47 1.04-.64 1.16-7.8 3.44zm154.24-28.09c-3.91 1.22-91.45 27.16-91.59 27.2-1.04.31-1.87.421-1.41-.559 2.12-4.49-.12-11.081-5.5-9.941-18.23 3.89-15.13 8.09-41.45 8.12-2 0-1.14.571-4.63-6.81-.37-.78-.18-1.3.69-1.48 5.47-1.1 10.03-4.25 14.93-6.639 17.25-8.421 17.04-30.351 3.4-23.381-5.74 2.92-16.1 5.621-19.95 5.92-1.74.13-5.6 2.24-9.03 3.39-1.37.45-3.5-4.99-4.12-6.53-.35-.84 6.33-17.49-3.65-17.26-8.57 2.29 2.64 10.56-71.94-135.32-1.95-3.809-3.96-1.77 27.89-12.27 12.92-4.25 89.69-29.66 104.13-34.9 1.33-.49.21-2.55 16.86 31.95 87.58 181.521 88.96 177.392 85.37 178.511zm108.4-333.27c.25-1.94-.96-1.92 22.94 13.55 3.11 2.01-4.18 1.19-11.6 10.02-1.4 1.67-1.45 1.56-3.5.56-8.88-4.309-9.11-13.978-7.84-24.129zm-86.1-35.81c9.73-7.98 41.49-7.779 53.6 6.01 10.64 12.11-15.68 56.33-41.66 38.14-12.47-8.727-24.09-34.188-11.94-44.149zm-62.99 22.16c.04-2.439-2.76-32.79 1.22-32.59 7.73.391 13.96 1.06 21.07 5.72 10.5 6.89-1.4 54.39-26.97 44.96-2.72-1.009 4.48-7.609 4.68-18.089zm-13.55-30.2c2.52-.8 5.12-1.351 7.68-2.031.9-.24 1.35.15 1.25.99-2.55 21.97 4.56 28.21-3.87 45.11-1 2.03-1.19 2.15-2.83.8-20.36-16.648-26.04-37.428-2.23-44.867zm8.99 53.849c8.7 2.7 17.67-1.52 24.39-8.29 2.82-2.84-.2 7.941 13.67 10.441 2.85.52 3.91-2.921 2.18-3.771-4.15-2.06-8.04-3.06-10.28-10.02-1.74-5.42 15.13-1.08 14.65-13.75-.13-3.39-3.27-3.5-4.03-.439-1.29 5.209-.07 4.409-7.78 5.889-.67.13-.87-.09-.65-.81 4.31-13.51 2.96-17.37 7.34-20.67 6.46-4.85 18.01-.13 18.45 11.1.63 15.95 16.13 39.32 34.12 38.6 25.55-1.02 32.9-27.35 37.54-30.23 3.09-1.92 6.3-.7 19.29 7.22 3.77 2.3-7.31 25.4 10.77 33.32 1.88.831-2.24 3.38 2.4 4.96.69.23 3.35-4.32 7.54-7.86 20.6-17.4 44.94-3.26 24.26 29.61-4.1 6.51-8.23 12.091-26.1 19.65-23.3 9.85-26.04-49.77-26.51 58.7-.13 30.7 3.33 39.929 46.51 60.859 1.71.83-13.3 12-13.4 12.07-25.98 18.62-10.69 9.811-39.47 21.27-4.74 1.89-25.02 10.23-25.4 7.12-3.9-32.59-11.67-40.079-17.07-59.21-4.75-16.859-10.31-21.14-10.79-26.81-.7-8.27-19.39-24.44-21.84-27.32-.82-.959-.71-1.37.52-1.77 54.98-17.939 46.63-31.54 41.04-28.27-11.28 6.59-61.97 24.76-85.57-2.35-25.889-29.717-26.489-82.557-15.78-79.237zm15.42 134.86c1.88-4.459 5.61-9.57 7.25-19.62.42-2.61-2.02-3.76-3.91-2.49-16.96 11.44-46.8-6.49-39.73-7.02 4.26-.319 32.73-13.43 18.97-18.03-16.2-5.41-23.57-17.98-21.65-18.57 1.86-.57 11.56-.31 22.09-5.37 6.46-3.1.02 12.18 30 30.69-2.32 3.691-3.48 7.01-.16 11.07 8.39 10.24 14.52 14.78 14.16 15.57-.73 1.6-.05 3.71-1.88 4.94-7.04 4.772-16.69 10.332-25.14 8.832zm32.08 88.6c-22.06-3.43-43.63-25.289-48.07-43.63-.83-3.46-1.42-3.11 2.28-4.409 10.88-3.851 16.52-8 15.15-5.52-2.73 4.919-.78 11.129-1.12 13.4-1.28 8.42 4.57 15.55 13.01 20.03 1.13.61.73.47 8.17 1 5.01-1.189 5.52-1.679 6.11-.11a44.035 44.035 0 0 1 2.5 7.53c2.01 10.902 4.54 12.111 1.97 11.711zm142.76 259.06c-5.92 8.35-11.91 14.29-14.23 16.971-6.86 7.96-12.39 16.829-23.27 25.129-25.43 19.4-44.5 14.791-66.71-11.35-3.42-4.029-6.21-14.92-7.07-18.41-3.15-12.82-8.85-16.42-12.79-30.929-10.33-38 .92-221.581 1.96-222.52 4.21-3.841-2.34-1.951-11.77-14.211-7.62-9.9-4.07-20.22-19.24-45.289-.84-1.391-1.67-2.421-3.31-2.7-2.99-.51-.57 3.35.82 6.38 2.05 4.45-2.14 1.62-2.92 1.53-1.99-.24-3.36 2.051 3.45 6.08.83.48 3.06.55 3.64 1.31.72.92.85 2.29 1.26 3.45.23.67-.06.88-.67.951-5.34.629-7.69 1.719-12.12-1.99-2.55-2.151-7.07-7.051-6.98-10.381.26-9.68-1.43-14.619 6.97-19.28 3.26-1.81 3.85-4.7 4.05-8.5.35-6.619 7.01-3.04 9.78-11.67 3.93-12.26 21.78-1.439 19.17-8.31-7.89-20.75-32.65-34.109-28.98-40.109 3.19-5.221 14.93 4.509 18 7.99 9.43 10.689 26.79 25.219 28.37 35.369.95 6.07 5.19 8.2 9.45 22.43 7.65 25.58 16.35 36.451 17.37 64.66 1.6 44.14 46.93 212.38 46.98 212.49 1.26 2.65 4.27 1.561 4.13-1.179-1.76-32.75-19.99-68.811-15.49-69.081 9.65-.58 19.25 2.561 21.43 4.18 4.52 3.361 32.18 28.02 34.66 30.31 10.08 9.28 21.35 12.49 28.59 23.62 4.71 7.262 6.04-4.179-34.53 53.061zm-146.54-347c2.22-11.5 1.99-11.03 3.38-9.72 2.69 2.53 4.45 5.72 6.16 8.94 1.02 1.931-2.07 1.26-2.11 1.03-6.98 1.202-7.82 1.752-7.43-.248zm209.34 320.05a4.777 4.777 0 0 1-.83 1.1c-.25-.3-.53-.571-.75-.891-13.27-19.43-19.92-24.43-23.05-29.95-3.96-6.98-15.4-14.2-22.26-18.37-4.54-2.779-13.36-11.86-20.34-17.38-15.73-12.45-16.14-20.27-38.61-23.36-3.44-.48-8.64 1.04-9.48.33-1.2-1.02-.08-1.85 3.97-9.43 3.46-6.449 3.35-7.6 11.84-19.6 20.19-28.53 16.12-27.03 22.96-38.82 12.12-20.84 15.3-18.3 34.63-38.99 26.53-28.38 27.84-29.01 29.6-33.49.82-2.1-1.07-3.079-2.03-2.059-60.69 64.059-54.89 51.219-67.3 74.4-27.58 51.51-11.48 15.68-35 58.06-2.47 4.45-29.2-117.92-26.64-126.11.74-2.38 3.43 1.37 24.2-7.5 31.61-13.51 14.93-2.54 41.41-22.02 13.44-9.89 19.48-20.65 33.13-12.48 17.55 10.51 23.92 6.2 40.38 11.08 8.72 2.581 7.85 5.43 44.48 20.24 10.72 4.331 12.23 13.8 13.51 23.1 6.78 49.012 2.39 54.973-53.82 212.142zm-12.1-694.818c.89.151 1.52.05 1.19 1.5-1.82 7.96 8.97 14.7 6.79 18.48a64.071 64.071 0 0 0-6.11 17.75c-.23 1.441 1.12.7 1.64 1.14 2.04 1.74 3-7.43 8.3-17.32 3.54-6.62-6.79-13.159-6.56-18.83.3-7.29 3.11-3.11 9.89-1.01 3.75 1.16 6.55-.2 7.58 2.4.9 2.26 3.95 3.96 7.38 3.061 4.49-1.171 3.3 2.259 8.57 3.389 5.46 1.16 5.22.9 5.23 2.81.01.7-.03 1.42-.84 1.61-2.65.62-4.76 2.32-7.14 3.47-2.75 1.33-1.53-.89-6.18 2.13-6.96 4.53-5.79 1.62-8.72 3.93-5.01 3.96-15.58 15.23-12.15 17.881 3.55 2.729 3.79-4.321 10.71-10.681 6.85-6.289 5.87-3.26 8.23-4.66 5.09-3.02 5.53-3.44 6.26-3.5 4.23-.37 7.45-3.86 10.58-4.149 4.29-.391 3.17-4.141 4.1-3.861 1.59.48.92 1.2 1.27 2.06 3.1 7.62 12.64-10.38 5.28-12.77-6.78-2.2-9.32 2.74-10.51 2.47-11.27-2.53-4.26-1.1-10.8-4.46-3.03-1.56-5.44 2.13-7.87-1.37-3.82-5.53-1.04-.13-19.15-7.19-1.27-.5-1.96-2.26-2.94-3.41-.84-.99-2.49-1.18-4.28-1.67-5.26-1.43-8.31 9.37.25 10.8zm53.04 8.72c1.51.451.43 3.98-.94 3.28-5.169-2.66-.86-3.81.94-3.28zm-53.7-15.9c.6-.169 1.61 1.71 2.14 2.54-2.64 2.16-3.88-2.05-2.14-2.54z"></path> <path d="M725.209 653.739c-16.22 8.27-37.82 23.359-87.97 26.419-1.92.11-3.83.88-3.56 2.821.34 2.379 41.66 4.179 92.72-25.22 6.87-3.959 3.23-6.28-1.19-4.02zm-80.2 13.329c26.12-8.16 59.66-34.309 57.53-36.99-4.28-5.39-15.01 16.32-58.93 33.5-1.56.61-.9 2.97 1.4 3.49zM626.5 335.118c.81.881 20.09 18.31 22.18 12.91.78-2.019-.47-2.64-7.24-7.31-34.89-24.05-49.78-72.01-66.47-82.31-1.11-.679-2.05 1.96-1.58 2.81a105.479 105.479 0 0 1 10.39 13.56c20.439 32.67 15.329 30.53 42.72 60.34zm2.629 247.361c-11.07 6.559-11.31 9.739-17.08 12.25-3.82 1.649-34.29 13.52-31.57 17.919 1.43 2.32 1.18.45 34.17-14.22 3.51-1.57 8.26-6.11 13.37-9.8 16.65-12.05 19.02-11.869 18.17-14.52-1.45-4.49-10.54 4.5-17.06 8.371zm-12.7-160.49c10.07.089 13.41-11.51 10.22-17.721a4.741 4.741 0 0 1-.29-4.55c2.04-4.61 12.22-14.08 13.21-1.02.11 1.57 2.55 2.051 3.62-.08a8.173 8.173 0 0 0-8.9-11.619c-7.9 1.7-16.52 11.75-12.34 19.909 1.42 2.77.11 8.52-2.94 9.19-5.77 1.27-6.18-1.44-7.6 1.21-1.53 2.88 1.72 4.65 5.02 4.681zm-33.6-222.361c.31-3.33-.69-12.619 7.55-14.889 6.66-1.841 10.31-1.211 13.3-6.4 2.54-4.39-.11-5.73 2.38-10.26 8-14.54 3.89-12.4 14.39-17.069 28.66-12.741 5.11-28.961 2.32-20.77-.25.75-1 1.639-.14 2.52-.94 1.189.23 1.359.88 1.72 1.02.569 1.73-.841 2.18-1.851.91-2.03 10.23 5.22-.75 11.18-10.17 5.51-15.07 5.48-17.81 12.48-2.59 6.61-7.11 11.39-6.96 17.84.11 4.59-4.24 4.43-9.21 5.42-7.11 1.41-13.1 8.85-12.88 18.01.221 9.019 4 9.93 4.75 2.069zm-61.52 39.601c-7.26.189-12.59 2.479-16.9 7.119-2.86 3.09-.2 5.83 2.92 3.37 4.45-3.5 7.93-6.65 17.14-5.37 36.47 5.05 38.92 49.881 76.34 94.36 4.42 5.25 7.87 3.33 6.19.26-.89-1.64-12.88-15.489-19.11-26.69-30.75-55.22-33.75-68.19-66.58-73.049z"></path> <path d="M524.209 284.468c-1.7 1.82-2.97 5.73-.44 4.72 3.54-1.42 6.84-5.58 15.68-5.47 12.23.16 16.64 17.95 17.47 8.82-1.019-14.299-18.75-23.049-32.71-8.07zm8.45 57.44c2.63.14 2.75-1.79 3.44-4.48-.76-5.14-4.91-4.72-5.83-1.87-.88 2.742-.48 6.201 2.39 6.35zm-39.52-96.22c.03 3.27.15 9.24 3.36 8.72 4.43-.71-2.84-8.98 3.92-19.6 1.83-2.88 3.92-5.35 7.57-5.91a3.475 3.475 0 0 0 2.11-2.76c-.24-6.18-17.13.89-16.96 19.55zm-32.25-180.64c1.5.4 3.56-1.67 5.9-2.069 3.55-.621 12.83-.881 14.69 2.679 5.82 11.14-13.86 25.11-16.21 40.53-1.51 9.89 8.7 12.28 24.48 16.62 13.48 3.7-11.66 20.91-3.97 31.29 1.26 1.69 4.87 4.87 7.83 7.97 7.36 7.73-2.23 17.98 2.61 19.02 4.55.98 8.38-15.07.25-23.22-9.33-9.369-10.32-6.109-.41-23.389 2.62-4.561 3.99-12.48-1.62-14.961-6.32-2.779-4.71-.62-18.48-5.9-20.66-7.93 18.65-31.55 9.36-49.94-2.66-5.25-7.21-4.64-13.37-5.24-12.49-.29-12.92 6.11-11.06 6.61zm28.34 339.08c-.06-1.76-1.05-6.869-5.15-6.97-4.99-.12-5.62 7.27-2.12 10.841 2.1 2.149 6.1 2.669 7.27-3.871zm-17.77-70.49c-.42-4.93-4.24-4.629-5.09-3.02-2.89 5.53 3.51 10.44 5.09 3.02zM387.7 503.428c-111.14 36.98-107.13 34.051-104.13 40.28 22.61 46.98 21.8 44.781 25.84 45.19 11.15-3.18 101.85-33.3 102.64-33.57 6.24-2.16 2.62-5.579-14.08-39.43-6.061-12.29-5.861-13.94-10.27-12.47zm21.06 48.03c-.1.031-99.07 32.72-99.17 32.75-1.21.18.42 2.771-21.64-40.85-1.1-2.17-7 .77 62.61-22.54 12.06-4.03 23.59-8.1 36.53-12.309 3.36-1.091.68-4.4 14.58 24.559 8.889 18.532 9.289 17.59 7.089 18.39z"></path> <path d="M381.979 547.888c-.62.02-63.78 19.77-68.13 21.65-2.16.93-4.19 3.88-1.52 4.55.92.23 72.24-20.829 76.01-25.16-2.1-3.62-3.78-1.12-6.36-1.04zm-58.84-4.23c8.06-1.429 7.76-3.99 12.47-3.76 9.05-1.23 12.43-4.659 20.64-6.919 8.44-2.331 10.52-1.451 16.93-4.641 1.56-.77 2.6-3.5-.69-4.18-.57-.12-4.32 1.1-9.82 2.48-19.26 4.81-21.91 8.48-26.9 8.371-5.78-.131-5.52 2.349-14.1 4.269-19.4 4.34-16.33 6.17-21.55 6.43-.64.031-1.68 1.5-1.84 2.09-.47 1.74 4.64 2.79 7.37 1.38 4.03-2.09 7.1-3.669 17.49-5.52zm16.47-243.35c7.12-9.49 2.91-8.13 26.41-.23a2.539 2.539 0 0 0 3.26-3.55c-.06-.1-5.73-12.07-8.87-16.07-2.01-2.57 8.28-13.52 8.48-19.5.3-8.82-17.83 5.89-21.78.71-3.16-4.13-7.97-8.73-11.13-13.74-1.46-2.32-4.18-3.15-4.59-.39-3.76 24.91 2.27 18.75-11.62 24.14-7.77 3.01-8 2.96-8.44 5.45-1.39 7.83 16.77 8.96 16.83 12.54.29 16.02-.37 15.04.19 18.4a2.5 2.5 0 0 0 4.19 1.52c2.34-2.17 2.761-3.55 7.07-9.28zm-10.95-16.37c-16.7-6.23-16.69-4.78 1.62-11.48 4.02-1.479 2.12-10.209 4.87-17.7 17.4 16.279 2.73 14.919 28.16 9.049-3.77 10.07-11.54 12.941-7.08 18.14 2.85 3.32 4.37 7.43 6.52 11.16 1.18 2.05-4.79.02-13.55-3.22-4.92-1.81-3.74-5.46-15.22 10.66-4.46 6.261 2.021-13.879-5.32-16.609zm-130.45-95.63c.11 0 18.62-1.91 23.68-1.02-1.65 2.84-4.5 5.07-3.22 10.9.95 4.291 4.51 9.36 5.91 10.2a1.842 1.842 0 0 0 .92.29c1.14 0 1.69-1.52 1.22-2.98-.51-1.61-14.47-21.6 12.07-1.959 2.33 1.719-.62 3.409-4.25 7.349a33.026 33.026 0 0 0-3.28 4.12c-2.82 4.24 2.14 6.35 3.45 7.32 2.68 1.971 3 .721 6.28-1.519-.26.319-1.24 2.089-2.32 3.449-47.82 60.73-62.26 122.99-32.04 203.06.46 1.241 2.12 6.731 3.78 5.63 5.27-3.48-22.58-47.37-13.4-111.93 8.45-59.4 47.67-93.69 48.86-98.85.59-2.56-.36-3.65-3.35-2.47-.4.15-.06.5-1.5 1.081 1.95-1.9-2.8 2.219 4.72-5.951 2.31-2.51 2.36-2.539 4.53.27 2.07 2.7 4.08 5.461 5.03 8.8.89 3.151-2.46 1.49-3.47 1.5-4.99.02-2.86 3.7-1.68 4.27 12.01 5.82 17.18-8.01 17.55-3.47.5 6.14.44 12.831.75 20.861.14 3.689 2.97 6.449 5.46 4.2 3.12-2.82 9.14-8.949 18.52-18.12 15.44-15.1 16.05-14.71 15.85-17.64-2.24-32.65-4.75-24.52 5.89-36.01 12.97-14.02 38.87-42.49 47.46-59.57 12.98-25.81 18.15-52.95 6.03-54.31-16.23-1.819-44.5 12.36-58.31 24.72-5.53 4.951-10.73 8.731-28.16 28.04-29.01 32.14-20.96 26.921-34.31 28.661-26.48 3.449-17.19-2.271-50.12 33.629-4.07 4.441-1.159 7.419 1.45 7.449zm39.01 8.59c-9.47-7.169-13.24-3.99-11.42-7.1.85-1.48 1.73-3.2 3.14-2.549 6.77.559 9.14 3.149 17.32 8.7 1.44.98.29 2.041-1.95 4.24-1.5 1.469-1.2 1.169-7.09-3.289zm-.62 22.05c-3.62-2.52-5.2 2.57 38.26-48.03 2.13-2.48 4.61-4.99 6.18-1.63 0 .14-44.339 49.57-44.439 49.66zm26.11 4.77c-4.3 3.67-.43-.15-7.86-9.91-3.4-4.47-3.86-4.48-3.24-5.21 3.95-4.64 3.13-6.81 12.6 11.661.81 1.579-.14 2.299-1.5 3.459zm11.32 22.06c-1.58 1.57-.85 1.52-2.55-22.91-.16-2.26 19.26-17.52 25.81-25.07 6.45-7.44 4.6-6.21 6.97 16.22.87 2.11.46 1.32-30.23 31.76zm45.2-156.6c3.82-2.41 14.72-11.169 32.84-16.14 18.47-5.08 16.41-.18 17.29 7.3-.66 5.671-1.23 12.29-4.46 20.151-11.78 28.679-10.74 26.079-13.98 20.309-14.93-26.549-35.57-29.18-31.69-31.62zm-6.3 4.75c6.26-5.91 41.69 30.52 36.59 37.38-14.96 20.09-67.07 78.6-80.82 87.03-2.18-3.1-.4-2.48-9.59-16.05-1.23-1.809-1.39-.57 15.82-19.73 10-11.14 12.56-12.39 9.13-16.579-1.48-1.811-5.35-4.441-7.86-1.891-2.21 2.26-3.85 4.23-16.1 18.26-11.26 12.881-8.89 11.42-12.92 8.391-16.09-12.121-18.94-2.6-8.67-15.711 7.56-9.65 40.14-48.75 74.42-81.1zm-88.09 62.25c2.03-2.33 2.02-1.949 25.96-5.02 3.75-.48-6.86 8.15-14.82 19.821-1.74 2.559-8.41 11.439-10.98 11.75-.1.01-24.41.739-24.51.619-.71-.92 12.34-13.39 24.35-27.17zm121.49 393.76c9.75-2.83 10.42-3.7 13.86-3.72a3.473 3.473 0 0 0 3.57-2.719c-.23-5.6-19.33 3.309-28.71 4.889-8.43 1.42-27.46 6.99-30.26 10.01-1.97 2.12-.87 3.361 1.77 3.52 9.63-3.33 8.41-3.76 11.94-4.75 20.29-5.689 6.32-1.02 27.83-7.23zm-17.26-154.98c-3.02.37-13.04 2.56-14.84 3.021-2.85.719-11.88-19.211-14.16-11.8-5.61 18.22 2.11 15.27-12.22 16.47-5.84.49-5.94 2.05-5.78 4.861.1 1.879.7 2.289 4.21 4.429 15.83 9.66 8.89 2.67 7.6 20.73-.17 2.45 1.25 3.63 3.25 2.99 4.54-1.47 11.69-14.46 15.04-12.9.99.459.59.289 14.77 4.2 2.79.76 3.94-.7 3.61-2.84-.52-3.41-4.31-4.73-8.04-11.81-.82-1.579-.64-.88 8.69-12.059 1.67-2.001 2.44-5.842-2.13-5.292zm-10.69 19.33c4.57 7.98 6.39 7.27-2.41 5.29-10.25-2.3-5.61-2.96-16.25 7.82-1.28 1.3.24-4.07.62-9.139.46-6.061-11.23-7.971-12.96-11.141.84-.26-.62-.1 6.89-.74 9.24-.79 5.03-6.03 8.9-14.28 3.35 2.79 6.76 11.31 9.74 10.641 24.76-5.551.14 2.261 5.47 11.549z"></path> <path d="M310.869 150.208c23.56-1.2 21.91-35.7-.7-35.17-25 3.05-20.4 36.25.7 35.17zm-2.56-30.4a13.1 13.1 0 1 1-.43 25.681c-13.75-2.931-15-22.771.43-25.681zm-51.23 354.83c-3.19.6-3.84 4.89.3 4.82 21.15-.33 22.23-38.67 1.86-38.38-4.93.07-4.28.56-6.53.96-.3-2.82 4.91-14.92-.58-24.39-6.05-10.47-23.59-9.649-29.36 4.63-3.65 9.04-4.59 25.59 2.11 38.37 1.15 2.18 3.99.92 3.3-2.02-14.74-41.56 13.98-52.29 20.42-37.28 5.37 12.52-6.25 26.381-1.23 29.161 3.56 1.98 5.37-5.871 12.26-4.681 8.92 1.54 10.52 11.25 9.06 17.73-2.4 10.671-9.089 10.61-11.61 11.08zm-50.46-37.038c-27.24-44.8-34.34-123.05-.46-186.859 8.88-16.721 25.67-38.811 26.01-39.141a9.407 9.407 0 0 0 .88-.99c2.97-3.83-1.22-5.51-3.37-2.95-.87 1.03-1.73 2.071-2.59 3.13-26.57 32.82-47.81 79.451-47.8 122.26.03 94.808 35.18 117.45 27.33 104.55zm-22.65 38.5c-24.33 7.661-21.61-20.64 2.57-10.82 1.56.64 2.82.231 3.44-1.19 1.3-2.93-1.26-3.7-3.75-4.53-13.34-4.43 1.52-29.829 19.95 1.2 1.49 2.5 4.07.769 3.52-1.171-3.91-13.93-19.5-24.23-29.44-15.849a11.483 11.483 0 0 0-2.36 14.629c-11.5.27-14.85 4.99-15.95 10.861-2.64 14.139 20.15 15.829 25.92 10.239 2.31-2.24.431-4.73-3.9-3.369zm-33.1-86.662c-.72-1.48-1.2-4.3-4.6-2.23-13.68 8.32-10.89 7.021-14.64 3.07-5.53-5.82-6.96-8.039-9.66-7.36-1.24.311-.94 2.831-.66 4.12 3.38 15.61 4.43 11.461-1.88 13.83-1.5.57-2.76 1.26-8.68 3.74-2.71 1.131-2.21 4.99.16 5.871 18.16 6.77 14.04 5.479 15.26 13.139 1.41 8.81 1.67 10.97 3.54 11.17a3.38 3.38 0 0 0 3.63-2.07c7.65-18.479 2.64-13.61 9.7-12.35 12.24 2.19 12.84 3.391 14.5 1.26s-1.8-5.29-3.56-7.31c-11.54-13.27-8.14-4.49-3.11-24.88zm-3.59 26.69c-2.95.24-5.05-1.49-7.43-2.27-6.14-1.98-6.17 10.31-8.59 12.391-.53-1.281-.96-6.451-.99-7.841-.11-5.35-2.91-5.73-11.81-10.649-1.94-1.081 2.49-1.551 7.52-4.051s1.03-7.44.93-10.84c-.06-2.05 3.42 2.861 5.55 5.53 3.32 4.18 3.75-2.4 13.03-5.2-1.53 8.051-6.95 10.15-1.75 15.71 7.6 8.12 5.561 7.42 3.54 7.22z"></path> </g> </g> </svg> 