<svg width="1663" height="505" viewBox="0 0 1663 505" fill="none" xmlns="http://www.w3.org/2000/svg">
<g clip-path="url(#clip0)">
<path d="M530.15 498.46C527.02 461.91 501.54 409.4 495.84 359.07C534.24 323.14 492.73 218.5 469.84 217.37C446.76 213.13 426.76 208.89 389.84 207.6C344.25 206.01 303.01 211.49 287.74 213.69C230.67 241.94 199.62 407.69 237.23 440.38C244.35 446.57 255.82 452.77 269.87 458.55C268.67 472.55 267.87 486.55 267.87 499.55L530.15 498.46Z" fill="#183766"/>
<path d="M347.37 213.289L355.62 163.649L417.62 186.919L420 222.199C411.62 283.799 345.55 224.209 347.37 213.289Z" fill="white" stroke="#183766" stroke-width="6" stroke-linecap="round" stroke-linejoin="round"/>
<path d="M433.549 70.3094C433.549 70.3094 386 100.109 409 128.249C409 128.249 419.25 140.009 427.74 137.709C427.74 137.709 421.54 127.709 428.74 122.589C428.74 122.589 430.89 152.479 455.38 146.439C455.38 146.439 446.38 133.189 448.85 117.339C453.9 84.2594 446.299 64.3794 433.549 70.3094Z" fill="#183766"/>
<path d="M335.06 117.419C335.06 117.419 326 59.0693 385 48.9993C390.5 48.0593 428.22 42.4093 435.09 73.6893C439.68 94.5893 440.55 117.269 439.99 134.889C439.99 134.989 439.42 168.159 426.31 186.589C413.2 205.019 384.15 203.299 368.79 194.219C353.43 185.139 350.62 180.409 346.32 169.639C342.02 158.869 335.11 117.519 335.11 117.519L335.06 117.419Z" fill="white" stroke="#183766" stroke-width="6" stroke-linecap="round" stroke-linejoin="round"/>
<path d="M415.71 121.979L421.17 148.879H411.1" stroke="#183766" stroke-width="6" stroke-linecap="round" stroke-linejoin="round"/>
<path d="M431.037 119.729C431.062 117.188 429.753 115.116 428.113 115.1C426.472 115.084 425.123 117.13 425.098 119.671C425.073 122.211 426.382 124.284 428.023 124.3C429.663 124.316 431.013 122.269 431.037 119.729Z" fill="#183766"/>
<path d="M402.595 120.576C403.094 118.085 402.195 115.804 400.587 115.482C398.979 115.159 397.27 116.917 396.771 119.408C396.271 121.899 397.17 124.179 398.778 124.502C400.386 124.824 402.095 123.067 402.595 120.576Z" fill="#183766"/>
<path d="M384.069 102.13C385.51 100.163 387.452 98.6193 389.693 97.6605C391.934 96.7017 394.392 96.363 396.809 96.6798" stroke="#183766" stroke-width="6" stroke-linecap="round" stroke-linejoin="round"/>
<path d="M422.77 94.429C422.77 94.429 433 89.8389 437.5 95.9989" stroke="#183766" stroke-width="6" stroke-linecap="round" stroke-linejoin="round"/>
<path d="M381.359 73.9294C381.359 73.9294 403.659 152.109 351.659 160.149C351.659 160.149 321.369 165.499 314.449 154.799C314.449 154.799 336.399 143.139 333.639 130.609C333.639 130.609 308.959 157.669 287.479 138.249C287.479 138.249 323.329 132.249 320.149 100.009C317.869 76.8794 373.369 55.1694 381.359 73.9294Z" fill="#183766"/>
<path d="M286.32 84.9393L318 80.1493C321.28 58.8193 333.7 28.2793 377.42 23.2093C445.73 15.2693 447.77 81.7493 447.77 81.7493L289.43 105.349C288.09 105.552 286.723 105.489 285.407 105.164C284.091 104.838 282.852 104.257 281.761 103.453C280.67 102.649 279.748 101.637 279.048 100.477C278.348 99.3165 277.883 98.0295 277.68 96.6893C277.477 95.3492 277.54 93.9822 277.865 92.6664C278.191 91.3507 278.772 90.1119 279.576 89.0208C280.38 87.9297 281.392 87.0077 282.552 86.3074C283.713 85.6071 285 85.1422 286.34 84.9393H286.32Z" fill="#A9D9F7"/>
<path d="M394.2 155.729C394.2 155.729 398.52 165.85 412.79 163.6" stroke="#183766" stroke-width="6" stroke-linecap="round" stroke-linejoin="round"/>
<path d="M548.889 278.339V244.059C548.889 237.357 546.227 230.93 541.488 226.19C536.749 221.451 530.321 218.789 523.619 218.789H513.759C513.864 227.111 512.316 235.372 509.204 243.091C506.092 250.81 501.478 257.834 495.63 263.757C489.782 269.679 482.816 274.381 475.137 277.59C467.457 280.799 459.217 282.452 450.894 282.452C442.571 282.452 434.331 280.799 426.652 277.59C418.973 274.381 412.007 269.679 406.159 263.757C400.311 257.834 395.697 250.81 392.585 243.091C389.473 235.372 387.924 227.111 388.029 218.789H378.169C371.468 218.792 365.042 221.455 360.304 226.193C355.565 230.932 352.902 237.358 352.899 244.059V426.759C352.907 433.456 355.573 439.876 360.311 444.608C365.05 449.341 371.473 451.999 378.169 451.999H523.619C530.321 451.999 536.749 449.337 541.488 444.598C546.227 439.859 548.889 433.431 548.889 426.729V404.069C565.425 403.861 581.212 397.145 592.832 385.379C604.451 373.612 610.967 357.741 610.967 341.204C610.967 324.667 604.451 308.796 592.832 297.029C581.212 285.263 565.425 278.548 548.889 278.339V278.339Z" fill="#507DB6"/>
<path d="M531.619 443.46C531.479 443.03 509.539 417.46 508.799 418C508.059 418.54 477.999 432 477.339 433.05C476.679 434.1 475.529 440.14 478.559 445.78C481.589 451.42 484.919 464.28 498.509 465.29C512.099 466.3 531.619 443.46 531.619 443.46Z" fill="white"/>
<path d="M491.499 423.899C491.499 423.899 488.939 406.229 492.999 401.999C497.059 397.769 519.999 436.999 527.889 439.719" fill="white"/>
<path d="M491.499 423.899C491.499 423.899 488.939 406.229 492.999 401.999C497.059 397.769 519.999 436.999 527.889 439.719" stroke="#183766" stroke-width="6" stroke-linecap="round" stroke-linejoin="round"/>
<path d="M479.319 426.999C479.319 426.999 473.859 414.099 481.089 407.859C488.319 401.619 506.149 436.919 513.979 441.489" fill="white"/>
<path d="M479.319 426.999C479.319 426.999 473.859 414.099 481.089 407.859C488.319 401.619 506.149 436.919 513.979 441.489" stroke="#183766" stroke-width="6" stroke-linecap="round" stroke-linejoin="round"/>
<path d="M476.079 441.81C476.079 441.81 466.839 418.7 473.279 413.81C479.719 408.92 490.159 438.89 502.679 445.81" fill="white"/>
<path d="M476.079 441.81C476.079 441.81 466.839 418.7 473.279 413.81C479.719 408.92 490.159 438.89 502.679 445.81" stroke="#183766" stroke-width="6" stroke-linecap="round" stroke-linejoin="round"/>
<path d="M526.259 438.84C527.29 433.859 526.777 428.681 524.789 424C522.519 418.65 519.789 411.37 519.549 406.72C519.099 398.62 532.349 402.42 532.899 407.45C533.449 412.48 535.969 412.19 541.769 417.31C547.569 422.43 546.509 442.85 546.509 442.85C546.509 442.85 551.609 453.32 535.169 465.85C518.729 478.38 501.169 468.63 501.169 468.63C501.169 468.63 469.399 456.89 469.409 434C469.419 411.11 477.839 444.48 493.739 453.87" fill="white"/>
<path d="M526.259 438.84C527.29 433.859 526.777 428.681 524.789 424C522.519 418.65 519.789 411.37 519.549 406.72C519.099 398.62 532.349 402.42 532.899 407.45C533.449 412.48 535.969 412.19 541.769 417.31C547.569 422.43 546.509 442.85 546.509 442.85C546.509 442.85 551.609 453.32 535.169 465.85C518.729 478.38 501.169 468.63 501.169 468.63C501.169 468.63 469.399 456.89 469.409 434C469.419 411.11 477.839 444.48 493.739 453.87" stroke="#183766" stroke-width="6" stroke-linecap="round" stroke-linejoin="round"/>
<path d="M354.369 443.46C354.519 443.03 376.449 417.46 377.189 418C377.929 418.54 407.989 432 408.649 433.05C409.309 434.1 410.469 440.14 407.429 445.78C404.389 451.42 401.069 464.28 387.479 465.29C373.889 466.3 354.369 443.46 354.369 443.46Z" fill="white"/>
<path d="M394.499 423.899C394.499 423.899 397.049 406.229 392.999 401.999C388.949 397.769 365.999 436.999 358.109 439.719" fill="white"/>
<path d="M394.499 423.899C394.499 423.899 397.049 406.229 392.999 401.999C388.949 397.769 365.999 436.999 358.109 439.719" stroke="#183766" stroke-width="6" stroke-linecap="round" stroke-linejoin="round"/>
<path d="M406.669 426.999C406.669 426.999 412.139 414.099 404.899 407.859C397.659 401.619 379.839 436.909 371.999 441.479" fill="white"/>
<path d="M406.669 426.999C406.669 426.999 412.139 414.099 404.899 407.859C397.659 401.619 379.839 436.909 371.999 441.479" stroke="#183766" stroke-width="6" stroke-linecap="round" stroke-linejoin="round"/>
<path d="M409.909 441.81C409.909 441.81 419.149 418.7 412.719 413.81C406.289 408.92 395.829 438.89 383.319 445.81" fill="white"/>
<path d="M409.909 441.81C409.909 441.81 419.149 418.7 412.719 413.81C406.289 408.92 395.829 438.89 383.319 445.81" stroke="#183766" stroke-width="6" stroke-linecap="round" stroke-linejoin="round"/>
<path d="M359.729 438.84C358.703 433.858 359.216 428.683 361.199 424C363.469 418.65 366.199 411.37 366.439 406.72C366.889 398.62 353.649 402.42 353.089 407.45C352.529 412.48 350.019 412.19 344.219 417.31C338.419 422.43 339.479 442.85 339.479 442.85C339.479 442.85 334.379 453.32 350.819 465.85C367.259 478.38 384.819 468.63 384.819 468.63C384.819 468.63 416.599 456.89 416.589 434C416.579 411.11 408.149 444.48 392.249 453.87" fill="white"/>
<path d="M359.729 438.84C358.703 433.858 359.216 428.683 361.199 424C363.469 418.65 366.199 411.37 366.439 406.72C366.889 398.62 353.649 402.42 353.089 407.45C352.529 412.48 350.019 412.19 344.219 417.31C338.419 422.43 339.479 442.85 339.479 442.85C339.479 442.85 334.379 453.32 350.819 465.85C367.259 478.38 384.819 468.63 384.819 468.63C384.819 468.63 416.599 456.89 416.589 434C416.579 411.11 408.149 444.48 392.249 453.87" stroke="#183766" stroke-width="6" stroke-linecap="round" stroke-linejoin="round"/>
<path d="M884.871 213.53L818.051 203L810.871 180.3C823.341 172.36 865.391 176.14 898.131 188.23L884.871 213.58" fill="#183766"/>
<path d="M994.451 339.88L944.731 223.67C941.541 216.47 934.841 211.14 926.731 208.99C922.543 207.05 918.049 205.855 913.451 205.46L896.591 204.05L898.101 188.18C898.101 188.18 895.751 193.89 877.201 197.37C852.121 202.08 810.841 180.25 810.841 180.25V204.85L785.271 204.12C774.271 203.8 752.921 202.93 740.561 227.41L680.451 378.33C669.801 397.82 675.311 426.67 693.011 441.53L728.111 461L724.851 500L990.481 499.09L989.001 464.48C1069.69 414.37 994.451 339.88 994.451 339.88Z" fill="#183766"/>
<path d="M777.101 383.43C777.101 383.43 750.741 350.83 710.501 379.62" stroke="white" stroke-width="6" stroke-linecap="round" stroke-linejoin="round"/>
<path d="M777.101 377.699C776.671 376.829 761.101 341.529 717.351 364.269" stroke="white" stroke-width="6" stroke-linecap="round" stroke-linejoin="round"/>
<path d="M932.271 383.429C932.271 383.429 956.271 340.669 1002.13 370.239" stroke="white" stroke-width="6" stroke-linecap="round" stroke-linejoin="round"/>
<path d="M929.281 375.319C929.281 375.319 942.101 342.189 984.581 349.939" stroke="white" stroke-width="6" stroke-linecap="round" stroke-linejoin="round"/>
<path d="M819.931 202.09V134.93L878.891 170.46L877.511 206.54L819.931 202.09Z" fill="white" stroke="#183766" stroke-width="6" stroke-linecap="round" stroke-linejoin="round"/>
<path d="M898 62.9296C874 46.3096 852.36 40.2196 818.5 83.6196L813.87 112.19C799.64 107.9 792.14 114.84 795.24 127.25C798.57 140.62 806.32 146.63 819.24 143.15C825.41 157.15 837.09 173.26 858.8 177.96C892.8 185.33 900.65 164.29 904.44 156.02C908.23 147.75 922 79.5596 898 62.9296Z" fill="white" stroke="#183766" stroke-width="6" stroke-linecap="round" stroke-linejoin="round"/>
<path d="M886.681 115.271L889.621 140.851L880.061 140.611" stroke="#183766" stroke-width="6" stroke-linecap="round" stroke-linejoin="round"/>
<path d="M897.79 119.61C899.364 119.61 900.64 117.636 900.64 115.2C900.64 112.764 899.364 110.79 897.79 110.79C896.216 110.79 894.94 112.764 894.94 115.2C894.94 117.636 896.216 119.61 897.79 119.61Z" fill="#183766"/>
<path d="M870.321 119.13C871.895 119.13 873.171 117.155 873.171 114.72C873.171 112.284 871.895 110.31 870.321 110.31C868.747 110.31 867.471 112.284 867.471 114.72C867.471 117.155 868.747 119.13 870.321 119.13Z" fill="#183766"/>
<path d="M895.701 89.51C895.701 89.51 903.621 87.45 905.601 93.92" stroke="#183766" stroke-width="6" stroke-linecap="round" stroke-linejoin="round"/>
<path d="M867.911 146.09C867.911 146.09 877.081 149.42 884.841 148.09C884.841 148.09 881.931 161.36 874.451 159.75C866.971 158.14 867.911 146.09 867.911 146.09Z" fill="#183766"/>
<path d="M772.79 32.2498C757.54 2.3998 733 -0.210203 704.68 5.4198C676.36 11.0498 660.55 49.1198 659.56 52.6498C648.01 93.8198 663.3 137.83 697.26 163.81C701.03 166.68 704.8 169.6 708.41 172.42C728.41 188.05 684.16 201.42 684.16 201.42C768.85 208.21 750.38 123.42 748.58 115.94C775.68 105.59 787 59.9998 772.79 32.2498Z" fill="#183766"/>
<path d="M761.763 54.9101C754.847 52.2138 747.056 55.6321 744.361 62.5452C741.665 69.4583 745.087 77.2483 752.002 79.9446L801.047 99.0661C807.962 101.762 815.754 98.3441 818.449 91.431C821.144 84.5179 817.723 76.7279 810.807 74.0316L761.763 54.9101Z" fill="#A9D9F7"/>
<path d="M921.79 92.1193C921.49 71.3393 916.5 53.1193 903.95 41.1193C901.969 38.8344 899.574 36.9446 896.89 35.5493C886.65 28.9193 872.75 25.3693 854.31 26.0293C853.918 26.0543 853.534 26.1562 853.18 26.3293C850.292 26.5931 847.421 27.0204 844.58 27.6093C843.023 27.8549 841.485 28.2159 839.98 28.6893C834.894 30.0662 829.939 31.8865 825.17 34.1293C783.81 51.9193 767.53 83.9993 786 128.309C795.54 151.149 807.92 158.499 819.89 158.519V144.689C818.89 142.489 817.18 143.339 817.18 143.339C804.3 146.819 798.54 140.619 795.18 127.249C793.56 120.789 794.83 115.819 798.41 113.139L798.69 112.929C798.83 112.829 798.98 112.739 799.13 112.649L799.42 112.469L799.91 112.209L800.2 112.079C800.379 111.989 800.563 111.909 800.75 111.839L801.02 111.739C801.22 111.669 801.43 111.589 801.64 111.529H801.83C802.996 111.198 804.199 111.013 805.41 110.979H805.5C805.8 110.979 806.11 110.979 806.43 110.979H806.61C806.92 110.979 807.24 110.979 807.55 110.979H807.76L808.76 111.079H808.91C810.573 111.308 812.215 111.669 813.82 112.159V112.159C814.92 112.489 814.11 113.009 815.3 113.479L818.3 113.269C819.3 113.269 820.38 113.169 821.48 113.039C847.59 109.899 888.15 91.2193 902.6 67.2193C912.8 79.5793 913.91 103.949 912.04 124.479C918.431 114.9 921.825 103.635 921.79 92.1193V92.1193Z" fill="#183766"/>
<path d="M859.211 89.3995C860.65 87.5538 862.557 86.1281 864.735 85.2715C866.913 84.4148 869.28 84.1586 871.591 84.5295" stroke="#FFFDFD" stroke-width="6" stroke-linecap="round" stroke-linejoin="round"/>
<path d="M939.431 274L933.141 240.62C932.54 237.384 931.307 234.298 929.51 231.54C927.714 228.782 925.391 226.405 922.675 224.547C919.958 222.689 916.901 221.386 913.679 220.712C910.458 220.038 907.135 220.007 903.901 220.62L894.301 222.43C892.837 214.343 889.788 206.625 885.329 199.722C880.869 192.819 875.088 186.866 868.318 182.207C861.547 177.548 853.922 174.275 845.881 172.576C837.84 170.878 829.542 170.787 821.466 172.31C813.39 173.832 805.695 176.938 798.824 181.448C791.954 185.958 786.044 191.783 781.435 198.587C776.825 205.392 773.608 213.041 771.969 221.094C770.329 229.147 770.299 237.445 771.881 245.51L762.281 247.32C759.045 247.921 755.959 249.154 753.201 250.95C750.443 252.746 748.066 255.07 746.208 257.786C744.35 260.503 743.046 263.56 742.372 266.782C741.698 270.003 741.667 273.326 742.281 276.56L748.571 309.94C764.749 307.013 781.429 310.6 794.973 319.92C808.518 329.241 817.828 343.538 820.874 359.694C823.92 375.851 820.455 392.557 811.234 406.169C802.013 419.781 787.785 429.196 771.651 432.36L775.821 454.45C776.421 457.686 777.655 460.772 779.451 463.53C781.247 466.288 783.57 468.665 786.287 470.523C789.004 472.381 792.061 473.685 795.282 474.359C798.504 475.032 801.827 475.064 805.061 474.45L946.681 447.75C949.917 447.149 953.003 445.916 955.761 444.12C958.519 442.324 960.896 440.001 962.754 437.284C964.612 434.567 965.915 431.51 966.589 428.289C967.263 425.067 967.294 421.744 966.681 418.51L962.521 396.41C954.483 397.926 946.226 397.844 938.22 396.169C930.214 394.494 922.616 391.258 915.861 386.647C909.105 382.036 903.324 376.139 898.848 369.293C894.371 362.448 891.287 354.788 889.771 346.75C888.255 338.712 888.337 330.455 890.012 322.449C891.687 314.443 894.922 306.846 899.534 300.09C904.145 293.335 910.042 287.554 916.888 283.077C923.733 278.601 931.393 275.516 939.431 274V274Z" fill="#507DB6"/>
<path d="M805.28 451.06C818.79 460.65 820.55 453.38 816.59 448.73C811.59 442.92 788.1 424.39 788.1 424.39C788.1 424.39 806.97 430.01 811.59 419.39C816.21 408.77 811.16 406.68 804.05 410.29C796.94 413.9 774.85 400.88 774.85 400.88L767.61 394.23C767.61 394.23 743.31 386.41 737.06 413.29C735.646 417.704 735.387 422.407 736.308 426.95C737.229 431.493 739.299 435.725 742.32 439.24C745.21 442.51 755.22 455.54 786.95 471.39C786.95 471.39 801.83 476.92 790.69 466.17C787.926 463.518 784.99 461.053 781.9 458.79" fill="white"/>
<path d="M805.28 451.06C818.79 460.65 820.55 453.38 816.59 448.73C811.59 442.92 788.1 424.39 788.1 424.39C788.1 424.39 806.97 430.01 811.59 419.39C816.21 408.77 811.16 406.68 804.05 410.29C796.94 413.9 774.85 400.88 774.85 400.88L767.61 394.23C767.61 394.23 743.31 386.41 737.06 413.29C735.646 417.704 735.387 422.407 736.308 426.95C737.229 431.493 739.299 435.725 742.32 439.24C745.21 442.51 755.22 455.54 786.95 471.39C786.95 471.39 801.83 476.92 790.69 466.17C787.926 463.518 784.99 461.053 781.9 458.79" stroke="#183766" stroke-width="6" stroke-linecap="round" stroke-linejoin="round"/>
<path d="M784.16 436.62C788.89 440.13 808.65 451.23 813.37 458.31C818.09 465.39 812.18 467.75 795.29 455.54" fill="white"/>
<path d="M784.16 436.62C788.89 440.13 808.65 451.23 813.37 458.31C818.09 465.39 812.18 467.75 795.29 455.54" stroke="#183766" stroke-width="6" stroke-linecap="round" stroke-linejoin="round"/>
<path d="M776.85 444.22C777.37 445.08 809.78 462.62 807.68 467.22C805.95 470.98 801.33 471.22 783.41 459.82L769.021 449.82" fill="white"/>
<path d="M776.85 444.22C777.37 445.08 809.78 462.62 807.68 467.22C805.95 470.98 801.33 471.22 783.41 459.82L769.021 449.82" stroke="#183766" stroke-width="6" stroke-linecap="round" stroke-linejoin="round"/>
<path d="M923.59 421.059C907.84 426.179 908.33 418.719 913.49 415.459C920 411.389 948 400.739 948 400.739C948 400.739 928.31 400.459 927.08 388.909C925.85 377.359 931.29 376.909 937 382.469C942.71 388.029 967.68 382.219 967.68 382.219L976.58 378.029C976.58 378.029 1002.1 377.809 1000.04 405.329C1000.07 409.967 998.915 414.535 996.68 418.598C994.444 422.661 991.205 426.084 987.27 428.539C983.54 430.799 970.1 440.239 935.08 445.889C935.08 445.889 919.22 446.729 933.08 439.789C936.512 438.086 940.053 436.613 943.68 435.379" fill="white"/>
<path d="M923.59 421.059C907.84 426.179 908.33 418.719 913.49 415.459C920 411.389 948 400.739 948 400.739C948 400.739 928.31 400.459 927.08 388.909C925.85 377.359 931.29 376.909 937 382.469C942.71 388.029 967.68 382.219 967.68 382.219L976.58 378.029C976.58 378.029 1002.1 377.809 1000.04 405.329C1000.07 409.967 998.915 414.535 996.68 418.598C994.444 422.661 991.205 426.084 987.27 428.539C983.54 430.799 970.1 440.239 935.08 445.889C935.08 445.889 919.22 446.729 933.08 439.789C936.512 438.086 940.053 436.613 943.68 435.379" stroke="#183766" stroke-width="6" stroke-linecap="round" stroke-linejoin="round"/>
<path d="M948.06 413.579C942.5 415.519 920.32 420.209 913.71 425.579C907.1 430.949 912.03 434.939 931.79 428.339" fill="white"/>
<path d="M948.06 413.579C942.5 415.519 920.32 420.209 913.71 425.579C907.1 430.949 912.03 434.939 931.79 428.339" stroke="#183766" stroke-width="6" stroke-linecap="round" stroke-linejoin="round"/>
<path d="M952.771 422.999C952.011 423.659 915.851 430.729 916.481 435.739C917.001 439.839 921.361 441.399 941.851 435.919L958.591 430.629" fill="white"/>
<path d="M952.771 422.999C952.011 423.659 915.851 430.729 916.481 435.739C917.001 439.839 921.361 441.399 941.851 435.919L958.591 430.629" stroke="#183766" stroke-width="6" stroke-linecap="round" stroke-linejoin="round"/>
<path d="M1476.83 288.999C1477.09 234.379 1397.43 215.599 1397.43 215.599C1403.43 188.459 1400.68 121.439 1287.15 141.939C1229 151.999 1212.55 182.529 1224.91 207.279C1202.29 218.499 1145.83 299.429 1145.83 299.429L1146.89 368.989C1142.58 368.091 1138.2 367.629 1133.8 367.609C1116.64 367.54 1100.15 374.291 1087.96 386.377C1075.77 398.462 1068.88 414.894 1068.8 432.059C1068.65 467.809 1100.54 499.789 1136.29 499.939C1140.52 499.96 1144.74 499.521 1148.88 498.629V499.949L1457.55 499.149C1457.55 499.149 1459.01 437.289 1451.64 371.629C1464.56 341.999 1476.74 308.859 1476.83 288.999Z" fill="#A9D9F7"/>
<path d="M1347.4 182.319L1368 193.729C1368 193.729 1314.41 216.869 1304.73 323.729C1298.44 393.159 1303.44 501.449 1303.44 501.449L1268.02 500.899C1268.02 500.899 1277.57 286.189 1262.13 251.249C1246.69 216.309 1263.72 214.109 1271.52 206.849C1279.32 199.589 1347.4 182.319 1347.4 182.319Z" fill="white"/>
<path d="M1122.26 477.63C1150.63 477.63 1173.63 454.631 1173.63 426.26C1173.63 397.889 1150.63 374.89 1122.26 374.89C1093.89 374.89 1070.89 397.889 1070.89 426.26C1070.89 454.631 1093.89 477.63 1122.26 477.63Z" fill="#183766"/>
<path d="M1309.68 475.299C1334.38 475.299 1354.41 455.273 1354.41 430.569C1354.41 405.865 1334.38 385.839 1309.68 385.839C1284.98 385.839 1264.95 405.865 1264.95 430.569C1264.95 455.273 1284.98 475.299 1309.68 475.299Z" fill="#183766"/>
<path d="M1346.37 278.799C1355.27 274.749 1383.59 242.359 1397.37 215.389C1408.87 215.219 1425.49 223.089 1432.7 228.679C1400 280.369 1346.32 278.879 1346.37 278.799Z" fill="#183766"/>
<path d="M1340.14 371.629C1340.14 371.629 1379.63 355.129 1409 401.179" stroke="#183766" stroke-width="6" stroke-linecap="round" stroke-linejoin="round"/>
<path d="M1337.3 372.179C1337.3 372.179 1368.43 340.599 1410.88 380.309" stroke="#183766" stroke-width="6" stroke-linecap="round" stroke-linejoin="round"/>
<path d="M1450.24 374.879C1450.24 374.879 1412.13 510.879 1312.16 482.249C1312.16 482.249 1294.4 477.819 1285.92 466.249" stroke="#183766" stroke-width="6" stroke-linecap="round" stroke-linejoin="round"/>
<path d="M1326.1 388.999C1333.77 378.98 1340.43 368.232 1346 356.909C1355.84 337.279 1368.55 305.739 1368.55 305.739" stroke="#183766" stroke-width="6" stroke-linecap="round" stroke-linejoin="round"/>
<path d="M1349 138.999L1347.47 186.389C1347.55 189.501 1346.92 192.591 1345.63 195.425C1344.34 198.259 1342.43 200.763 1340.03 202.749C1330.85 210.389 1314.03 225.459 1292.9 249.309C1292.9 249.309 1266.54 221.239 1262.09 177.409L1349 138.999Z" fill="white" stroke="#183766" stroke-width="6" stroke-linecap="round" stroke-linejoin="round"/>
<path d="M1355.43 114.62C1355.43 114.62 1376.43 115.12 1372.55 133.85C1368.67 152.58 1345.62 141.64 1345.62 141.64L1348.83 115L1355.43 114.62Z" fill="white" stroke="#183766" stroke-width="6" stroke-linecap="round" stroke-linejoin="round"/>
<path d="M1296 55.2601C1290.48 54.7801 1252.66 52.2601 1248.39 83.7801C1244.12 115.3 1248.39 150.18 1251.86 166.11C1255.33 182.04 1327.74 174.98 1331.86 173.58C1335.98 172.18 1340.86 167.39 1340.86 167.39L1351 119C1351 119 1355.3 60.4401 1296 55.2601Z" fill="white" stroke="#183766" stroke-width="6" stroke-linecap="round" stroke-linejoin="round"/>
<path d="M1344 118.529C1340.45 121.989 1330.86 141.999 1328.5 151.339C1328.5 151.339 1305.02 143.339 1271.34 142.759C1271.34 142.759 1252.97 143.049 1245.64 145.169C1245.64 145.169 1247.08 178.279 1261.9 195.479C1276.72 212.679 1308.22 208.019 1323.04 197.779C1337.86 187.539 1340.31 182.629 1343.78 171.619C1347.25 160.609 1356.45 119.549 1356.45 119.549L1344 118.529Z" fill="#968BB4"/>
<path d="M1353.56 125.65C1353.56 125.65 1363.46 110.46 1367.33 94.6498C1370.96 79.7798 1364.11 64.1498 1350.33 57.4298C1338.83 51.7898 1330.26 56.1298 1330.26 56.1298C1330.26 56.1298 1342.58 35.3498 1324.26 16.8698C1321.07 13.6517 1317.25 11.1172 1313.04 9.42042C1308.84 7.72364 1304.33 6.90005 1299.8 6.99975C1293.53 7.03132 1287.41 8.89229 1282.18 12.3544C1276.95 15.8165 1272.85 20.7291 1270.37 26.4898C1270.37 26.4898 1246.55 -17.7202 1197.23 8.16975C1192.23 10.7798 1186.63 18.0998 1183.93 23.0298C1167.55 52.9098 1220.93 88.6198 1248.84 91.5398C1279.45 94.7598 1297.39 89.7598 1307.29 82.3098C1299.93 86.6498 1308 132.5 1353.56 125.65Z" fill="#183766"/>
<path d="M1293.84 165.77C1293.84 165.77 1289.08 176.33 1278.16 171.83" stroke="#183766" stroke-width="8" stroke-linecap="round" stroke-linejoin="round"/>
<path d="M1271.48 130.02L1265.34 154.93L1278.23 156.28" stroke="#183766" stroke-width="8" stroke-linecap="round" stroke-linejoin="round"/>
<path d="M1262.07 126.246C1262.08 123.722 1260.77 121.67 1259.14 121.663C1257.51 121.656 1256.18 123.696 1256.17 126.22C1256.16 128.744 1257.47 130.796 1259.1 130.803C1260.73 130.81 1262.06 128.77 1262.07 126.246Z" fill="#183766"/>
<path d="M1290.52 125.864C1290.53 123.34 1289.22 121.288 1287.59 121.281C1285.96 121.274 1284.63 123.314 1284.62 125.838C1284.61 128.362 1285.92 130.414 1287.55 130.421C1289.18 130.428 1290.51 128.388 1290.52 125.864Z" fill="#183766"/>
<path d="M1302.19 109C1300.71 107.082 1298.74 105.597 1296.49 104.7C1294.24 103.803 1291.78 103.527 1289.39 103.9" stroke="#183766" stroke-width="8" stroke-linecap="round" stroke-linejoin="round"/>
<path d="M1262.26 103.31C1262.26 103.31 1254.08 101.14 1252 107.83" stroke="#183766" stroke-width="8" stroke-linecap="round" stroke-linejoin="round"/>
<path d="M1285.27 204.36L1139.15 203.73C1135.82 203.715 1132.51 204.358 1129.43 205.62C1126.34 206.883 1123.53 208.741 1121.16 211.088C1118.8 213.436 1116.91 216.227 1115.62 219.302C1114.34 222.377 1113.66 225.675 1113.65 229.01L1113.5 263.45C1096.88 263.575 1080.98 270.248 1069.24 282.02C1057.51 293.793 1050.89 309.716 1050.82 326.338C1050.75 342.959 1057.23 358.939 1068.86 370.811C1080.5 382.684 1096.34 389.492 1112.96 389.76L1112.86 412.55C1112.84 419.276 1115.49 425.734 1120.23 430.506C1124.97 435.278 1131.41 437.973 1138.14 438L1284.26 438.63C1287.59 438.644 1290.9 438.002 1293.98 436.74C1297.07 435.478 1299.87 433.621 1302.24 431.274C1304.61 428.927 1306.49 426.138 1307.78 423.064C1309.06 419.99 1309.74 416.693 1309.75 413.36L1310.54 229.82C1310.56 223.094 1307.91 216.634 1303.17 211.86C1298.44 207.087 1292 204.389 1285.27 204.36V204.36Z" fill="#507DB6"/>
<path d="M1102.6 425.32C1102.74 424.88 1124.68 399.26 1125.42 399.86C1126.16 400.46 1156.21 413.86 1156.87 414.91C1157.53 415.96 1158.69 421.99 1155.66 427.63C1152.63 433.27 1149.3 446.14 1135.66 447.15C1122.02 448.16 1102.6 425.32 1102.6 425.32Z" fill="white"/>
<path d="M1142.72 405.75C1142.72 405.75 1145.28 388.09 1141.2 383.9C1137.12 379.71 1114.2 418.9 1106.31 421.62" fill="white"/>
<path d="M1142.72 405.75C1142.72 405.75 1145.28 388.09 1141.2 383.9C1137.12 379.71 1114.2 418.9 1106.31 421.62" stroke="#183766" stroke-width="6" stroke-linecap="round" stroke-linejoin="round"/>
<path d="M1154.89 408.85C1154.89 408.85 1160.36 395.94 1153.13 389.7C1145.9 383.46 1128.07 418.76 1120.24 423.33" fill="white"/>
<path d="M1154.89 408.85C1154.89 408.85 1160.36 395.94 1153.13 389.7C1145.9 383.46 1128.07 418.76 1120.24 423.33" stroke="#183766" stroke-width="6" stroke-linecap="round" stroke-linejoin="round"/>
<path d="M1158.14 423.67C1158.14 423.67 1167.38 400.56 1160.94 395.67C1154.5 390.78 1144.06 420.76 1131.54 427.67" fill="white"/>
<path d="M1158.14 423.67C1158.14 423.67 1167.38 400.56 1160.94 395.67C1154.5 390.78 1144.06 420.76 1131.54 427.67" stroke="#183766" stroke-width="6" stroke-linecap="round" stroke-linejoin="round"/>
<path d="M1108 420.7C1106.97 415.719 1107.48 410.542 1109.47 405.86C1111.74 400.5 1114.47 393.23 1114.71 388.57C1115.16 380.47 1101.91 384.28 1101.36 389.3C1100.81 394.32 1098.29 394.05 1092.48 399.16C1086.67 404.27 1087.75 424.7 1087.75 424.7C1087.75 424.7 1082.65 435.17 1099.09 447.7C1115.53 460.23 1133.09 450.48 1133.09 450.48C1133.09 450.48 1164.9 438.75 1164.89 415.86C1164.88 392.97 1156.46 426.34 1140.56 435.74" fill="white"/>
<path d="M1108 420.7C1106.97 415.719 1107.48 410.542 1109.47 405.86C1111.74 400.5 1114.47 393.23 1114.71 388.57C1115.16 380.47 1101.91 384.28 1101.36 389.3C1100.81 394.32 1098.29 394.05 1092.48 399.16C1086.67 404.27 1087.75 424.7 1087.75 424.7C1087.75 424.7 1082.65 435.17 1099.09 447.7C1115.53 460.23 1133.09 450.48 1133.09 450.48C1133.09 450.48 1164.9 438.75 1164.89 415.86C1164.88 392.97 1156.46 426.34 1140.56 435.74" stroke="#183766" stroke-width="6" stroke-linecap="round" stroke-linejoin="round"/>
<path d="M1307.8 428.25C1307.66 427.81 1285.73 402.19 1284.98 402.79C1284.23 403.39 1254.19 416.79 1253.53 417.79C1252.87 418.79 1251.71 424.87 1254.74 430.51C1257.77 436.15 1261.11 449.02 1274.74 450.03C1288.37 451.04 1307.8 428.25 1307.8 428.25Z" fill="white"/>
<path d="M1267.68 408.68C1267.68 408.68 1265.12 391.02 1269.2 386.83C1273.28 382.64 1296.2 421.83 1304.09 424.55" fill="white"/>
<path d="M1267.68 408.68C1267.68 408.68 1265.12 391.02 1269.2 386.83C1273.28 382.64 1296.2 421.83 1304.09 424.55" stroke="#183766" stroke-width="6" stroke-linecap="round" stroke-linejoin="round"/>
<path d="M1255.51 411.78C1255.51 411.78 1250.04 398.87 1257.28 392.63C1264.52 386.39 1282.28 421.69 1290.17 426.26" fill="white"/>
<path d="M1255.51 411.78C1255.51 411.78 1250.04 398.87 1257.28 392.63C1264.52 386.39 1282.28 421.69 1290.17 426.26" stroke="#183766" stroke-width="6" stroke-linecap="round" stroke-linejoin="round"/>
<path d="M1252.26 426.6C1252.26 426.6 1243.02 403.49 1249.46 398.6C1255.9 393.71 1266.35 423.68 1278.86 430.6" fill="white"/>
<path d="M1252.26 426.6C1252.26 426.6 1243.02 403.49 1249.46 398.6C1255.9 393.71 1266.35 423.68 1278.86 430.6" stroke="#183766" stroke-width="6" stroke-linecap="round" stroke-linejoin="round"/>
<path d="M1302.44 423.63C1303.47 418.649 1302.96 413.472 1300.97 408.79C1298.71 403.43 1295.97 396.16 1295.73 391.51C1295.28 383.4 1308.53 387.21 1309.09 392.23C1309.65 397.25 1312.15 396.98 1317.96 402.1C1323.77 407.22 1322.69 427.64 1322.69 427.64C1322.69 427.64 1327.79 438.11 1311.35 450.64C1294.91 463.17 1277.35 453.43 1277.35 453.43C1277.35 453.43 1245.54 441.69 1245.55 418.8C1245.56 395.91 1253.98 429.28 1269.88 438.68" fill="white"/>
<path d="M1302.44 423.63C1303.47 418.649 1302.96 413.472 1300.97 408.79C1298.71 403.43 1295.97 396.16 1295.73 391.51C1295.28 383.4 1308.53 387.21 1309.09 392.23C1309.65 397.25 1312.15 396.98 1317.96 402.1C1323.77 407.22 1322.69 427.64 1322.69 427.64C1322.69 427.64 1327.79 438.11 1311.35 450.64C1294.91 463.17 1277.35 453.43 1277.35 453.43C1277.35 453.43 1245.54 441.69 1245.55 418.8C1245.56 395.91 1253.98 429.28 1269.88 438.68" stroke="#183766" stroke-width="6" stroke-linecap="round" stroke-linejoin="round"/>
<path d="M3 501.46H1659.57" stroke="#183766" stroke-width="6" stroke-linecap="round" stroke-linejoin="round"/>
</g>
<defs>
<clipPath id="clip0">
<rect width="1662.57" height="504.46" fill="white"/>
</clipPath>
</defs>
</svg>
