<svg width="195" height="214" viewBox="0 0 195 214" fill="none" xmlns="http://www.w3.org/2000/svg">

<path d="M97.0516 0L4 52.5207C4 71.6224 5.85436 88.3036 8.96183 103C28.1651 193.817 97.0516 206 97.0516 206C97.0516 206 165.937 193.817 185.141 103C188.249 88.3036 190.103 71.6228 190.103 52.5207L97.0516 0ZM97.0998 187.783C97.0854 187.778 97.066 187.772 97.0516 187.767V168.587V103H49.6305H29.1989C26.4539 91.0351 24.6272 77.4488 24.0983 61.9891L97.0508 20.8124H97.0516V41.6257V103H144.489H164.911C150.4 166.331 109.943 183.78 97.0998 187.783Z" fill="#0062FF"/>

</svg>
