<svg width="168" height="168" viewBox="0 0 168 168" fill="none" xmlns="http://www.w3.org/2000/svg">
<g filter="url(#filter0_d_1_1436)">
<path d="M38.9868 116H47.9868M79.4868 116H88.4868M119.987 116H128.987M141.587 152H26.3868C21.3464 152 18.8261 152 16.9009 151.019C15.2075 150.156 13.8306 148.78 12.9677 147.086C11.9868 145.161 11.9868 142.641 11.9868 137.6V15.2C11.9868 12.6797 11.9868 11.4196 12.4773 10.457C12.9087 9.61028 13.5971 8.92187 14.4438 8.4905C15.4065 8 16.6665 8 19.1868 8H40.7868C43.3071 8 44.5672 8 45.5298 8.4905C46.3765 8.92187 47.0649 9.61028 47.4963 10.457C47.9868 11.4196 47.9868 12.6797 47.9868 15.2V53.6177C47.9868 59.0701 47.9868 61.7962 49.065 63.0584C50.0005 64.1537 51.4038 64.7351 52.8399 64.6226C54.4949 64.4921 56.4226 62.5643 60.278 58.7088L89.6955 29.2912C93.5511 25.4358 95.4789 23.5081 97.134 23.3779C98.5695 23.2648 99.9735 23.8461 100.909 24.9414C101.987 26.2039 101.987 28.93 101.987 34.3823V53.6177C101.987 59.0701 101.987 61.7962 103.065 63.0584C104 64.1537 105.404 64.7351 106.84 64.6226C108.495 64.4921 110.423 62.5643 114.278 58.7088L143.696 29.2912C147.551 25.4358 149.479 23.5081 151.134 23.3779C152.57 23.2648 153.974 23.8461 154.909 24.9414C155.987 26.2039 155.987 28.93 155.987 34.3823V137.6C155.987 142.641 155.987 145.161 155.006 147.086C154.143 148.78 152.767 150.156 151.073 151.019C149.148 152 146.628 152 141.587 152Z" stroke="#0062FF" stroke-width="15" stroke-linecap="round" shape-rendering="crispEdges"/>
</g>
<defs>
<filter id="filter0_d_1_1436" x="0.486816" y="0.499939" width="167" height="167" filterUnits="userSpaceOnUse" color-interpolation-filters="sRGB">
<feFlood flood-opacity="0" result="BackgroundImageFix"/>
<feColorMatrix in="SourceAlpha" type="matrix" values="0 0 0 0 0 0 0 0 0 0 0 0 0 0 0 0 0 0 127 0" result="hardAlpha"/>
<feOffset dy="4"/>
<feGaussianBlur stdDeviation="2"/>
<feComposite in2="hardAlpha" operator="out"/>
<feColorMatrix type="matrix" values="0 0 0 0 0 0 0 0 0 0 0 0 0 0 0 0 0 0 0.25 0"/>
<feBlend mode="normal" in2="BackgroundImageFix" result="effect1_dropShadow_1_1436"/>
<feBlend mode="normal" in="SourceGraphic" in2="effect1_dropShadow_1_1436" result="shape"/>
</filter>
</defs>
</svg>
