<svg width="198" height="170" viewBox="0 0 198 170" fill="none" xmlns="http://www.w3.org/2000/svg">
<g filter="url(#filter0_d_1_1554)">
<path fill-rule="evenodd" clip-rule="evenodd" d="M4.82035 96.9934V154.479C4.82035 158.171 7.98435 161.167 11.8828 161.167H27.0813C28.7539 161.167 30.3723 160.605 31.6484 159.581C32.9244 158.558 33.7754 157.138 34.0497 155.576L37.7787 134.417H160.195L163.915 155.576C164.189 157.138 165.04 158.558 166.316 159.581C167.592 160.605 169.211 161.167 170.883 161.167H186.091C187.964 161.167 189.761 160.462 191.085 159.208C192.41 157.954 193.154 156.253 193.154 154.479V96.9934C193.154 86.5112 189.878 76.2634 183.737 67.5417L176.392 57.1092C175.737 56.1804 175.176 55.1952 174.716 54.1667H184.076C185.388 54.1666 186.675 53.8204 187.791 53.1668C188.907 52.5132 189.808 51.578 190.395 50.4663L192.749 46.0079C193.286 44.989 193.539 43.8571 193.485 42.7195C193.431 41.5818 193.071 40.4761 192.439 39.5072C191.807 38.5382 190.924 37.7381 189.874 37.1827C188.825 36.6273 187.642 36.3349 186.44 36.3334H170.554L167.635 22.5482C166.746 18.3498 164.6 14.4825 161.452 11.4085C158.305 8.33459 154.288 6.1841 149.884 5.21419C136.117 2.18252 119.148 0.666687 98.987 0.666687C78.8165 0.666687 61.8571 2.18252 48.0899 5.21419C43.6839 6.18259 39.6657 8.33241 36.5161 11.4065C33.3666 14.4805 31.2189 18.3487 30.3301 22.5482L27.4109 36.3334H11.5438C10.3412 36.3349 9.15886 36.6273 8.10893 37.1827C7.05901 37.7381 6.17627 38.5382 5.54437 39.5072C4.91248 40.4761 4.55237 41.5818 4.49817 42.7195C4.44398 43.8571 4.69749 44.989 5.23468 46.0079L7.58885 50.4663C8.17428 51.5767 9.0745 52.5109 10.1888 53.1644C11.303 53.818 12.5873 54.165 13.898 54.1667H23.2676C22.8075 55.1951 22.2463 56.1802 21.5914 57.1092L14.237 67.5417C8.09735 76.2622 4.82035 86.5074 4.82035 96.9934ZM155.12 54.2024C155.768 57.2863 156.845 60.2756 158.321 63.0923H39.6526C41.131 60.2835 42.2045 57.2964 42.8543 54.2024L48.8056 26.0524C48.9813 25.2108 49.4096 24.435 50.0393 23.8182C50.669 23.2014 51.4733 22.7697 52.3557 22.5749C64.5785 19.8999 80.1537 18.5 98.987 18.5C117.82 18.5 133.396 19.891 145.618 22.5839C146.501 22.7765 147.307 23.2061 147.938 23.8214C148.569 24.4366 149 25.2113 149.178 26.0524L155.12 54.2024ZM37.7787 107.667C41.5249 107.667 45.1176 106.258 47.7666 103.749C50.4155 101.241 51.9037 97.839 51.9037 94.2917C51.9037 90.7444 50.4155 87.3424 47.7666 84.8341C45.1176 82.3258 41.5249 80.9167 37.7787 80.9167C34.0325 80.9167 30.4397 82.3258 27.7908 84.8341C25.1418 87.3424 23.6537 90.7444 23.6537 94.2917C23.6537 97.839 25.1418 101.241 27.7908 103.749C30.4397 106.258 34.0325 107.667 37.7787 107.667ZM174.32 94.2917C174.32 97.839 172.832 101.241 170.183 103.749C167.534 106.258 163.942 107.667 160.195 107.667C156.449 107.667 152.856 106.258 150.207 103.749C147.559 101.241 146.07 97.839 146.07 94.2917C146.07 90.7444 147.559 87.3424 150.207 84.8341C152.856 82.3258 156.449 80.9167 160.195 80.9167C163.942 80.9167 167.534 82.3258 170.183 84.8341C172.832 87.3424 174.32 90.7444 174.32 94.2917Z" fill="#0062FF"/>
</g>
<defs>
<filter id="filter0_d_1_1554" x="0.490997" y="0.666687" width="197.001" height="168.5" filterUnits="userSpaceOnUse" color-interpolation-filters="sRGB">
<feFlood flood-opacity="0" result="BackgroundImageFix"/>
<feColorMatrix in="SourceAlpha" type="matrix" values="0 0 0 0 0 0 0 0 0 0 0 0 0 0 0 0 0 0 127 0" result="hardAlpha"/>
<feOffset dy="4"/>
<feGaussianBlur stdDeviation="2"/>
<feComposite in2="hardAlpha" operator="out"/>
<feColorMatrix type="matrix" values="0 0 0 0 0 0 0 0 0 0 0 0 0 0 0 0 0 0 0.25 0"/>
<feBlend mode="normal" in2="BackgroundImageFix" result="effect1_dropShadow_1_1554"/>
<feBlend mode="normal" in="SourceGraphic" in2="effect1_dropShadow_1_1554" result="shape"/>
</filter>
</defs>
</svg>
