<svg width="160" height="199" viewBox="0 0 160 199" fill="none" xmlns="http://www.w3.org/2000/svg">

<path d="M79.365 8.61999L15 35.5C14.3674 35.7679 13.8276 36.2161 13.448 36.7887C13.0683 37.3613 12.8656 38.033 12.865 38.72V95.805C12.8605 109.692 16.4688 123.341 23.3354 135.411C30.2021 147.482 40.0908 157.558 52.03 164.65L80.625 181.66L108.835 164.72C120.674 157.598 130.47 147.535 137.271 135.508C144.072 123.482 147.648 109.901 147.65 96.085V35.5C147.652 34.7849 147.436 34.0862 147.029 33.498C146.622 32.9098 146.045 32.4603 145.375 32.21L81.92 8.54999C81.09 8.25039 80.1774 8.27539 79.365 8.61999Z" stroke="#0062FF" stroke-width="16" shape-rendering="crispEdges"/>

<path d="M80.905 45.72L93.645 71.515C93.6809 71.5833 93.7305 71.6434 93.7908 71.6916C93.851 71.7397 93.9205 71.775 93.995 71.795L122.485 75.925C122.575 75.9336 122.66 75.9686 122.73 76.0257C122.8 76.0827 122.851 76.1592 122.877 76.2455C122.903 76.3317 122.903 76.4238 122.877 76.5101C122.851 76.5964 122.8 76.6729 122.73 76.73L102.15 96.785C102.113 96.8489 102.094 96.9213 102.094 96.995C102.094 97.0687 102.113 97.1412 102.15 97.205L107.015 125.555C107.031 125.644 107.022 125.736 106.988 125.821C106.955 125.905 106.899 125.979 106.827 126.033C106.754 126.087 106.668 126.121 106.577 126.129C106.487 126.137 106.396 126.12 106.315 126.08L80.87 112.675C80.799 112.641 80.7213 112.623 80.6425 112.623C80.5637 112.623 80.486 112.641 80.415 112.675L54.97 126.08C54.8887 126.12 54.7979 126.137 54.7076 126.129C54.6172 126.121 54.531 126.087 54.4584 126.033C54.3858 125.979 54.3298 125.905 54.2965 125.821C54.2633 125.736 54.2541 125.644 54.27 125.555L59.135 97.205C59.1639 97.1388 59.1788 97.0673 59.1788 96.995C59.1788 96.9227 59.1639 96.8512 59.135 96.785L38.555 76.73C38.4853 76.6729 38.434 76.5964 38.4079 76.5101C38.3817 76.4238 38.3817 76.3317 38.408 76.2455C38.4342 76.1592 38.4855 76.0827 38.5553 76.0257C38.6251 75.9686 38.7103 75.9336 38.8 75.925L67.255 71.795C67.3367 71.782 67.4142 71.7498 67.4811 71.7012C67.548 71.6525 67.6024 71.5887 67.64 71.515L80.345 45.72C80.425 45.6576 80.5235 45.6237 80.625 45.6237C80.7265 45.6237 80.825 45.6576 80.905 45.72Z" stroke="#0062FF" stroke-width="16" stroke-linecap="round" shape-rendering="crispEdges"/>

</svg>
