<svg width="124" height="140" viewBox="0 0 124 192" fill="none" xmlns="http://www.w3.org/2000/svg">

<path d="M113.666 139.096C110.212 130.641 105.435 122.756 99.6074 116.151C106.081 107.993 109.934 97.6643 109.961 86.4101C109.934 78.3071 107.923 70.6815 104.374 64.0027V17.3764C104.374 14.3861 103.591 11.4806 101.861 9.19162C100.156 6.873 97.6401 5.334 94.8764 4.55363C91.4388 3.57412 86.7734 2.42813 81.2133 1.536C75.6258 0.64125 69.1461 0 61.9926 0C47.6883 0 36.0111 2.56987 29.0815 4.55363C26.3448 5.334 23.8293 6.87262 22.1271 9.19162C20.3946 11.481 19.6116 14.3865 19.6116 17.3764V63.948C16.0349 70.6541 14.0241 78.2798 14.0241 86.4101C14.0241 97.6699 17.8791 108.002 24.3588 116.162C18.5339 122.765 13.759 130.647 10.3083 139.096C6.41238 148.65 4.19688 158.93 4.19126 168.951C4.18601 171.066 4.82163 173.104 5.85026 174.858C7.66713 177.941 10.5265 180.304 14.0433 182.356C19.3386 185.411 26.3013 187.758 34.4755 189.419C42.6438 191.07 52.0124 192 61.987 192C77.1974 191.992 90.964 189.858 101.285 186.238C106.447 184.413 110.769 182.238 114.062 179.513C115.701 178.145 117.098 176.623 118.127 174.858C119.153 173.104 119.788 171.066 119.783 168.951C119.781 158.931 117.562 148.65 113.666 139.096ZM27.9873 34.7801C28.0146 34.7801 28.0446 34.8101 28.072 34.8101C29.1059 35.1458 30.391 35.5088 31.8723 35.844C34.8051 36.5122 38.464 37.0991 42.2073 37.5735C49.696 38.5256 57.742 39.0551 61.987 39.0551C67.5745 39.0551 79.6446 38.1604 88.5276 36.5426C91.4909 36.0379 94.0881 35.424 95.905 34.8101C95.932 34.8101 95.9598 34.7801 95.9868 34.7801V43.497C95.3455 43.6935 94.6473 43.86 93.9486 44.0017C90.5954 44.7547 86.7678 45.3683 82.828 45.8734C74.9515 46.8776 66.8211 47.4094 61.9866 47.4368C55.6735 47.4094 43.5764 46.5146 33.9674 44.8121C31.8149 44.4191 29.8041 44.0021 27.9869 43.497V34.7801H27.9873ZM61.987 177.938C58.2453 177.938 55.2126 174.907 55.2126 171.164C55.2126 167.421 58.2453 164.389 61.987 164.389C65.7291 164.389 68.7614 167.421 68.7614 171.164C68.7614 174.907 65.7291 177.938 61.987 177.938ZM61.987 155.588C58.2453 155.588 55.2126 152.557 55.2126 148.814C55.2126 145.071 58.2453 142.04 61.987 142.04C65.7291 142.04 68.7614 145.07 68.7614 148.814C68.7614 152.557 65.7291 155.588 61.987 155.588ZM61.9926 125.997C51.0415 125.997 41.1786 121.583 34.0008 114.402C26.8469 107.224 22.4054 97.3613 22.4054 86.4101C22.4054 80.5987 23.6631 75.096 25.8974 70.1224C28.2164 70.9054 30.9528 71.4919 33.9704 72.051C43.582 73.7535 55.6521 74.6482 61.9926 74.6482C66.8271 74.6482 74.9545 74.1165 82.834 73.1123C86.7738 72.6075 90.6014 71.9936 93.9543 71.2406C95.4329 70.9324 96.8028 70.5694 98.0601 70.122C100.322 75.0956 101.552 80.5987 101.58 86.4097C101.553 97.3609 97.1384 107.224 89.9875 114.402C82.8066 121.583 72.9438 125.997 61.9926 125.997Z" fill="#0062FF"/>

</svg>
