<svg width="175" height="175" viewBox="0 0 175 175" fill="none" xmlns="http://www.w3.org/2000/svg">

<path fill-rule="evenodd" clip-rule="evenodd" d="M16.7262 12.7262C4.58331 24.8691 4.58331 44.4127 4.58331 83.5C4.58331 122.587 4.58331 142.131 16.7262 154.274C28.869 166.417 48.4126 166.417 87.5 166.417C126.587 166.417 146.131 166.417 158.273 154.274C170.417 142.131 170.417 122.587 170.417 83.5C170.417 44.4127 170.417 24.8691 158.273 12.7262C146.131 0.583343 126.587 0.583344 87.5 0.583344C48.4126 0.583344 28.869 0.583343 16.7262 12.7262ZM41.2644 62.9357C43.4632 60.2972 47.3845 59.9407 50.023 62.1394L52.3149 64.0494C57.331 68.2292 61.6012 71.7872 64.5565 75.0599C67.6954 78.5358 70.145 82.5332 70.145 87.6458C70.145 92.7585 67.6954 96.7559 64.5565 100.232C61.6012 103.504 57.331 107.063 52.3149 111.242L50.023 113.153C47.3845 115.352 43.4632 114.995 41.2644 112.357C39.0657 109.717 39.4222 105.796 42.0606 103.598L44.0042 101.978C49.4649 97.4275 53.0355 94.4326 55.3257 91.8961C57.5004 89.4882 57.7075 88.3589 57.7075 87.6458C57.7075 86.9328 57.5004 85.8043 55.3257 83.3955C53.0355 80.8591 49.4649 77.8642 44.0043 73.3137L42.0606 71.6943C39.4222 69.4954 39.0657 65.5742 41.2644 62.9357ZM135.177 108.375C135.177 111.809 132.393 114.594 128.958 114.594H87.5C84.0656 114.594 81.2812 111.809 81.2812 108.375C81.2812 104.941 84.0656 102.156 87.5 102.156H128.958C132.393 102.156 135.177 104.941 135.177 108.375Z" fill="#0062FF"/>


</svg>

