<svg width="175" height="184" viewBox="0 0 175 184" fill="none" xmlns="http://www.w3.org/2000/svg">

<path d="M71.9682 13.1349L24.0592 44.4111C8.69966 54.4386 8.69966 76.8808 24.0592 86.9083L71.9682 118.185C80.5632 123.835 94.7291 123.835 103.324 118.185L150.994 86.9083C166.274 76.8808 166.274 54.5182 150.994 44.4907L103.324 13.2145C94.7291 7.48448 80.5632 7.48448 71.9682 13.1349Z" stroke="#0062FF" stroke-width="16" stroke-linecap="round" stroke-linejoin="round" shape-rendering="crispEdges"/>

<path d="M36.7924 97.095L36.7128 134.42C36.7128 144.527 44.512 155.35 54.062 158.533L79.4491 166.969C83.8262 168.402 91.0682 168.402 95.5249 166.969L120.912 158.533C130.462 155.35 138.261 144.527 138.261 134.42V97.4929" stroke="#0062FF" stroke-width="16" stroke-linecap="round" stroke-linejoin="round" shape-rendering="crispEdges"/>

<path d="M162.295 112.375V64.625" stroke="#0062FF" stroke-width="16" stroke-linecap="round" stroke-linejoin="round" shape-rendering="crispEdges"/>

</svg>
